<?xml version="1.0" encoding="utf-8"?>
<!-- Generator: Adobe Illustrator 23.0.3, SVG Export Plug-In . SVG Version: 6.00 Build 0)  -->
<svg version="1.1" id="Layer_1" xmlns="http://www.w3.org/2000/svg" xmlns:xlink="http://www.w3.org/1999/xlink" x="0px" y="0px"
	 viewBox="0 0 971 80" style="enable-background:new 0 0 971 80;" xml:space="preserve" width="971" height="80">
<style type="text/css">
	.st0{fill:#FFFFFF;}
	.st1{fill:#9A9C9D;}
	.st2{fill:#2E2E2E;}
	.st3{fill:#0E78BE;}
	.st4{fill:#8EB42E;}
</style>
<polygon class="st0" points="850.5,40 729,40 607.5,40 486,40 364.5,40 243,40 121.5,40 0,40 0,80 121.5,80 243,80 364.5,80 486,80 
	607.5,80 729,80 850.5,80 972,80 972,40 "/>
<g>
	<g>
		<path class="st1" d="M551.2,52.4c-1.4,0-2,0.4-2.8,1.7L541,67.6h5.9l8.4-15.3"/>
		<path class="st1" d="M542.3,52.4c-1.3,0-2,0.2-2.6,1.5l-4.8,9.7l0.2-11.1h-5.2l0.1,15.3h7.9l8.3-15.3"/>
		<path class="st1" d="M565.1,56.2c0.6,0,1.4,0.1,2.5,0.1l2.3-3.9c-1.2-0.1-3.2-0.1-4.2-0.1c-4.1,0-6.4,0.4-8.6,2.5
			c-1.7,1.7-4.6,6.8-4.6,9.2c0,2.4,1.5,3.7,5.5,3.7c1.5,0,3.7,0,5.3-0.1l2.3-3.9c-1.7,0.1-3.4,0.1-4.7,0.1c-1.4,0-2.4-0.3-2.4-1.2
			c0-1.3,1.7-4.1,2.8-5.2C562.2,56.3,563.4,56.2,565.1,56.2"/>
		<path class="st1" d="M522,61.4h-3.8l3.9-6L522,61.4z M521.5,52.4c-1.8,0-2.3,0.2-3.5,2l-7.5,10.5l1.5-12.4h-4.6
			c-1.3,0-2,0.4-2.7,1.4l-4.7,7l0.8-8.3h-5.9l-10.3,15.2h5.7l5.5-9.1l-0.7,9.1h3.4c1,0,1.8-0.4,2.3-1.2l5.4-7.9l-1.2,9.1h9.1
			l1.7-2.6h6.1l-0.1,2.6h5.3L527,52.6"/>
	</g>
	<g>
		<path class="st1" d="M248.9,63.9c-0.3-0.1-0.8-0.1-1.3-0.1c-3.2,0-6.6,0-9.6,0c-0.1,0-0.2,0-0.3,0h-0.1c0,0,0,0-0.1,0
			c-0.3-0.1-0.6-0.2-0.8-0.3c0,0,0,0-0.1,0c-0.2-0.2-0.3-0.4-0.5-0.6c0,0,0,0,0-0.1c-0.1-0.1,0-0.4-0.1-0.5c0,0,0,0,0-0.1
			c0.1-0.1,0-0.4,0.1-0.5v-0.1c0.2-0.2,0.2-0.6,0.3-0.8c0-0.1,0.1-0.1,0.1-0.3c0.1,0,0.1-0.1,0.1-0.2c0,0,0,0,0-0.1
			c0.1,0,0.1-0.2,0.1-0.3c0-0.2,0.1-0.2,0.1-0.5c0-0.1,0.1-0.1,0.1-0.2c0.1-0.1,0.1-0.2,0.1-0.5c0.1,0,0.1-0.2,0.1-0.3
			c0-0.2,0.1-0.3,0.1-0.5c0,0,0.1,0,0.1-0.1c0.1-0.1,0.1-0.2,0.1-0.5c0.1-0.1,0.1-0.5,0.2-0.6c0-0.1,0.1-0.2,0.1-0.3
			c0.1-0.1,0.2-0.3,0.3-0.4c0.2,0,0.1-0.1,0.2-0.1c0,0,0.1,0,0.1-0.1c0.3,0,0.4-0.1,0.7-0.1c0.1,0,0.1,0,0.2,0c0,0,0,0,0.1,0
			c3.8,0,7.7,0.1,11.4-0.1c0.1-0.1,0.2-0.2,0.2-0.4c0.1-0.1,0.1-0.3,0.1-0.4c0-0.2,0.1-0.2,0.1-0.4c0-0.1,0.1-0.2,0.1-0.4
			c0-0.1-0.2,0-0.3-0.1c-0.9,0-1.8,0-2.7,0c-0.2,0-0.3,0-0.5,0c-3.9,0-7.8,0-11.8,0c-0.2,0-0.3,0-0.5,0c-0.4,0-0.8,0-1.2,0
			c-0.1,0-0.2,0-0.2,0.1h-0.1c0,0-0.1,0-0.1,0.1c0,0,0,0-0.1,0c-0.6,0.2-1.1,0.7-1.4,1.2c0,0.1-0.1,0.1-0.1,0.2
			c-0.1,0.2-0.2,0.5-0.2,0.7c0,0.1-0.1,0.1-0.1,0.3c0,0.1-0.1,0.2-0.1,0.4s-0.1,0.2-0.1,0.5c-0.1,0.2-0.1,0.5-0.2,0.8
			c0,0.1-0.1,0.1-0.1,0.2c0,0,0,0,0,0.1c0,0,0,0,0,0.1c-0.1,0.1-0.1,0.3-0.2,0.5c0,0.2-0.1,0.3-0.1,0.5c-0.1,0.3-0.2,0.7-0.3,1
			c0,0.2-0.2,0.3-0.1,0.6c-0.2,0.4-0.2,0.9-0.4,1.4c-0.1,0.3-0.1,0.9,0,1.2c0,0,0,0.1,0.1,0.1c0,0,0,0,0,0.1s0,0.2,0.1,0.3
			c0,0,0,0,0,0.1c0.1,0.1,0.1,0.3,0.3,0.4c0,0,0,0,0,0.1c0.1,0.2,0.3,0.3,0.5,0.5c0.1,0.1,0.3,0.2,0.5,0.2c0.2,0.1,0.4,0.2,0.7,0.2
			c0,0,0,0,0.1,0c0,0,0,0,0,0.1c5.3,0,10.6,0,15.8,0v-0.1c0,0,0.1,0,0.1-0.1c0.1,0,0.1-0.1,0.1-0.2c0,0,0,0,0-0.1
			c0.1-0.2,0.1-0.5,0.2-0.7c0,0,0,0,0-0.1c0.1-0.1,0.1-0.2,0.1-0.4c0,0,0,0,0-0.1c0,0,0.1,0,0.1-0.1C248.9,64,248.9,64,248.9,63.9
			C248.9,64,248.9,63.9,248.9,63.9z"/>
		<path class="st1" d="M294.8,56.2c0,0,0.1,0,0.1-0.1c0-0.3,0-0.6-0.1-0.8c-0.2-0.3-0.4-0.5-0.7-0.7c-0.4-0.2-0.8-0.3-1.3-0.3
			c-0.1,0-0.3,0-0.4,0c-0.2,0-0.3,0-0.5,0c-1.4,0-2.7,0-4.1,0c-1.2,0-2.4,0-3.6,0c-0.2,0-0.3,0-0.5,0c-0.6,0-1.2,0-1.8,0
			c-0.2,0-0.3,0-0.5,0c-1.4,0-2.7,0-4.1,0c-0.2,0-0.3,0-0.5,0c-0.4,0-0.9,0-1.3,0h-0.1c0,0,0,0,0,0.1c0,0-0.1,0-0.1,0.1
			c-0.1,0-0.1,0.2-0.2,0.3v0.1c0,0-0.1,0-0.1,0.1c0,0.2-0.1,0.3-0.1,0.5c-0.1,0.1-0.1,0.2-0.1,0.3s-0.1,0.2-0.1,0.3
			c-0.1,0.1-0.1,0.3-0.2,0.5c0,0,0,0,0,0.1c-0.1,0.1-0.1,0.2-0.1,0.3v0.1c0,0-0.1,0-0.1,0.1v0.1c-0.1,0.1-0.1,0.3-0.2,0.5
			c0,0.3-0.1,0.5-0.2,0.7s-0.1,0.4-0.2,0.6c0,0.1-0.1,0.1-0.1,0.2c-0.1,0.1-0.1,0.3-0.1,0.4c0,0,0,0,0,0.1c-0.1,0.1-0.1,0.2-0.1,0.3
			c-0.1,0.4-0.2,0.7-0.3,1.1c-0.1,0.2-0.1,0.4-0.2,0.6c0,0.1-0.1,0.1-0.1,0.2c-0.1,0.2-0.2,0.5-0.2,0.7s-0.1,0.3-0.1,0.5
			c-0.1,0-0.1,0.1-0.1,0.2c-0.1,0.3-0.1,0.6-0.2,0.8c-0.1,0.2-0.2,0.5-0.2,0.8l0,0c0,0,0,0,0,0.1c-0.1,0.2-0.2,0.4,0,0.5
			c5.9,0,11.8,0,17.7,0c0,0,0-0.1,0.1-0.1h0.1c0.3,0,0.5,0,0.7-0.1c0.4,0,0.7-0.2,1-0.3c0.6-0.3,1-0.8,1.2-1.5
			c0-0.1,0.1-0.1,0.1-0.2c0.1-0.2,0.2-0.4,0.2-0.6c0-0.1,0.1-0.2,0.1-0.3c0,0,0.1,0,0.1-0.1c0.1-0.3,0.2-0.5,0.2-0.9
			c0,0,0.1,0,0.1-0.1c0-0.2,0.1-0.3,0.1-0.5c0.1-0.3,0.2-0.7,0-0.9c0-0.1,0-0.1-0.1-0.2c-0.1-0.1-0.1-0.2-0.2-0.2c0,0-0.1,0-0.1-0.1
			c-0.1-0.1-0.3-0.2-0.4-0.3v-0.1c0.1-0.1,0.3-0.2,0.5-0.3s0.3-0.2,0.3-0.4c0-0.1,0.1-0.1,0.1-0.2c0.1-0.1,0.1-0.3,0.2-0.5
			c0,0,0,0,0-0.1s0.1-0.1,0.1-0.2C294.5,57.2,294.7,56.7,294.8,56.2z M272.8,65L272.8,65L272.8,65z M272.8,65L272.8,65L272.8,65z
			 M272.8,64.9L272.8,64.9L272.8,64.9z M272.8,65C272.8,64.9,272.8,64.9,272.8,65C272.8,64.9,272.8,64.9,272.8,65z M272.8,65
			L272.8,65L272.8,65z M272.8,65L272.8,65L272.8,65z M272.7,65C272.7,65,272.8,65,272.7,65C272.8,65,272.7,65,272.7,65z M272.7,65.1
			L272.7,65.1L272.7,65.1z M278.4,54.5L278.4,54.5L278.4,54.5z M289.3,58L289.3,58c-0.1,0.3-0.2,0.4-0.4,0.6
			c-0.7,0.3-1.5,0.2-2.3,0.2c-2.5,0-5.1,0-7.5,0c0-0.1,0.1-0.1,0.1-0.2c0-0.1,0.1-0.1,0.1-0.2c0.1-0.2,0.1-0.4,0.2-0.6
			c0-0.1,0.1-0.1,0.1-0.2c0-0.1,0.1-0.1,0.1-0.2c0-0.1,0.1-0.1,0.1-0.2c0-0.1,0.1-0.1,0.1-0.2c0-0.1,0.1-0.2,0.1-0.4
			c0.1-0.1,0-0.3,0.1-0.3c0-0.1,0-0.2,0.1-0.2c0,0,0,0,0.1,0c2.9,0,5.7,0,8.6,0c0.4,0,0.8,0,1,0.2C289.7,56.9,289.4,57.3,289.3,58z
			 M288.5,63.2L288.5,63.2c-0.2,0.2-0.3,0.3-0.5,0.5c-0.2,0.1-0.3,0.1-0.5,0.2c0,0,0,0-0.1,0h-0.1c-2.1,0-4.3,0-6.3,0.1
			c-0.9,0-1.8,0-2.7,0c0,0,0,0-0.1,0c0,0,0,0-0.1,0H278h-0.1c-0.2-0.1,0.1-0.4,0.1-0.7c0.1-0.2,0.1-0.3,0.1-0.5
			c0.1-0.1,0.1-0.3,0.2-0.5v-0.1c0.1-0.2,0.1-0.5,0.2-0.7c0-0.1,0.1-0.2,0.1-0.3c0.1-0.1,0-0.3,0.2-0.3c0.5,0,0.9,0,1.4,0
			c0.2,0,0.3,0,0.5,0c2.6,0,5.3,0,7.9,0c0.1,0,0.1,0,0.2,0.1l0,0l0,0c0.2,0,0.2,0.2,0.3,0.2c0.1,0.1,0.1,0.2,0.1,0.4c0,0,0,0,0,0.1
			c-0.1,0.2-0.1,0.4-0.2,0.6v0.1c0,0-0.1,0-0.1,0.1c0,0,0,0,0,0.1C288.7,62.6,288.6,62.9,288.5,63.2z M288.8,60.6L288.8,60.6
			L288.8,60.6z M288.8,60.6L288.8,60.6L288.8,60.6z M288.8,60.6L288.8,60.6L288.8,60.6z M288.8,60.6L288.8,60.6L288.8,60.6z
			 M288.7,60.6L288.7,60.6L288.7,60.6z M288.7,60.6L288.7,60.6L288.7,60.6z M288.7,60.7L288.7,60.7L288.7,60.7z M277.4,54.5
			L277.4,54.5L277.4,54.5z M278.3,54.5L278.3,54.5L278.3,54.5z M278.4,54.5L278.4,54.5L278.4,54.5z M278.4,54.5L278.4,54.5
			L278.4,54.5z M278.4,54.5L278.4,54.5L278.4,54.5z M278.3,54.5c0.1,0,0.2,0,0.3,0C278.5,54.5,278.4,54.5,278.3,54.5z M277.9,54.5
			L277.9,54.5L277.9,54.5L277.9,54.5z M277.4,54.5c-0.6,0-1.2,0-1.7,0.1C276.3,54.6,276.8,54.5,277.4,54.5L277.4,54.5z M279.8,54.5
			c0.1,0,0.1,0,0.2,0C279.9,54.5,279.8,54.5,279.8,54.5z M280.5,54.5h0.1C280.6,54.5,280.6,54.5,280.5,54.5z M279,54.5
			c0.1,0,0.2,0,0.3,0C279.2,54.5,279.1,54.5,279,54.5z"/>
		<path class="st1" d="M306.3,54.2c-0.2,0-0.3,0-0.5,0c-0.8,0-1.5,0-2.3,0c-0.1,0-0.2,0-0.3,0h-0.1c-1.7,0-3.5-0.1-5.1,0.1
			c0,0-0.1,0-0.1,0.1c-0.1,0-0.2,0.1-0.3,0.1c-0.1,0.1-0.2,0.1-0.2,0.2c0,0,0,0-0.1,0c-0.1,0.1-0.2,0.2-0.3,0.3l0,0l0,0
			c-0.1,0.1-0.2,0.2-0.3,0.3l0,0l0,0c0,0.1-0.1,0.1-0.1,0.2c-0.1,0-0.1,0.1-0.1,0.2c0,0,0,0,0,0.1c-0.1,0-0.1,0.2-0.1,0.3
			c-0.1,0.1-0.1,0.2-0.1,0.3c-0.1,0-0.1,0.1-0.1,0.2c0,0.1-0.1,0.1-0.1,0.2c-0.2,0.5-0.3,1.1-0.5,1.6c-0.1,0.3-0.2,0.6-0.2,1
			c-0.1,0.1-0.1,0.2-0.1,0.4c0,0,0,0,0,0.1c-0.1,0,0,0.2-0.1,0.3c0,0,0,0,0,0.1c-0.1,0.3-0.2,0.6-0.2,0.9c0,0,0,0,0,0.1
			c-0.1,0.1-0.1,0.4-0.2,0.6c0,0,0,0,0,0.1c-0.1,0.1-0.1,0.2-0.1,0.3c0,0,0,0,0,0.1c-0.1,0.1-0.1,0.4-0.2,0.6c0,0,0,0,0,0.1
			s-0.1,0.1-0.1,0.2v0.1c0,0-0.1,0-0.1,0.1c-0.1,0.3-0.2,0.9,0,1.2c0.1,0.2,0.2,0.5,0.4,0.6c0,0,0,0,0,0.1s0.1,0.1,0.2,0.2
			c0,0,0,0,0.1,0c0.1,0.1,0.1,0.2,0.2,0.2c0,0,0,0,0.1,0c0,0.1,0.2,0.1,0.3,0.2c0.2,0,0.3,0.2,0.6,0.2c0,0.2,0.3,0,0.3,0.1
			c5.5,0,11,0,16.6,0c0-0.1,0.1-0.1,0.1-0.1s0,0,0-0.1c0.1-0.2,0.1-0.5,0.2-0.7c0,0,0,0,0-0.1c0.1-0.3,0.2-0.6,0.2-1
			c-4.2-0.2-8.7,0.1-12.9-0.1c-0.1,0-0.1-0.1-0.2-0.1c-0.1-0.1-0.2-0.2-0.3-0.2c0-0.1,0-0.1-0.1-0.2c-0.1,0,0-0.2-0.1-0.2
			c0-0.1,0-0.1,0-0.2c0-0.2,0.1-0.3,0.1-0.5c0-0.1,0-0.1,0-0.2c0.1-0.1,0.1-0.2,0.1-0.4c0,0,0,0,0-0.1c0.1-0.1,0.1-0.3,0.2-0.5
			c0,0,0,0,0-0.1c0.1-0.2,0.1-0.5,0.3-0.6c4.6,0,9.3,0.1,13.7-0.1c0.1-0.1,0.1-0.3,0.2-0.4c0,0,0,0,0-0.1c0.1-0.2,0.1-0.4,0.2-0.6
			c0,0,0,0,0-0.1c0,0,0.1,0,0.1-0.1c0,0,0,0,0-0.1s0.1-0.1,0.1-0.2v-0.1c-0.1-0.1-0.4,0-0.6-0.1c-0.2,0-0.3,0-0.5,0
			c-4.2,0-8.5,0-12.7,0c0-0.1,0-0.1-0.1-0.1c0-0.1,0.1-0.1,0.1-0.2v-0.1c0,0,0.1,0,0.1-0.1v-0.1c0.1-0.2,0.2-0.5,0.2-0.7
			c0.1-0.3,0.2-0.6,0.3-0.9c0.1-0.1,0.2-0.2,0.3-0.3c0.1,0,0.1,0,0.2-0.1s0.3-0.1,0.4-0.2h0.1c0.3,0,0.4-0.1,0.7-0.1
			c1.8,0,3.7,0,5.5,0c0.2,0,0.3,0,0.5,0c2.1,0,4.1,0,6.2,0c0.2-0.1,0.2-0.3,0.2-0.6c0.1-0.1,0.1-0.3,0.2-0.5s0.2-0.3,0.2-0.6
			C313,54.2,309.6,54.3,306.3,54.2z M297.3,54.8L297.3,54.8L297.3,54.8z M297.3,54.8L297.3,54.8L297.3,54.8z M297.2,54.9
			c-0.1,0.1-0.1,0.2-0.2,0.1C297.2,55,297.2,54.9,297.2,54.9z M297.2,54.8C297.2,54.8,297.2,54.9,297.2,54.8
			C297.2,54.9,297.2,54.8,297.2,54.8z M297.1,54.9c0.1,0.1-0.2,0.2-0.3,0.3C296.9,55.1,297.2,55.1,297.1,54.9z"/>
		<path class="st1" d="M272.5,58.8c0.1-0.1,0.1-0.4,0.2-0.5c0,0,0,0,0-0.1c0.1-0.2,0.1-0.4,0.2-0.6c0,0,0,0,0-0.1c0,0,0.1,0,0.1-0.1
			s0.1-0.2,0.1-0.3c0.1-0.2,0.1-0.4,0.2-0.6c0-0.1,0.1-0.2,0.1-0.3c0.1-0.1,0.1-0.2,0.1-0.3s0.1-0.1,0.1-0.3
			c0.1-0.1,0.1-0.4,0.2-0.6v-0.1c0,0,0.1,0,0.1-0.1c0,0,0,0,0-0.1c0.1-0.1,0.2-0.5,0-0.6c-1.8,0-3.5,0-5.3,0c0,0,0,0,0,0.1
			c-0.2,0-0.2,0.1-0.2,0.3c0,0-0.1,0-0.1,0.1s-0.1,0.1-0.1,0.3c-0.1,0.3-0.2,0.7-0.3,1c0,0.2-0.1,0.3-0.1,0.6
			c-0.1,0-0.1,0.2-0.1,0.3v0.1c0,0-0.1,0-0.1,0.1v0.1c-0.1,0.1-0.1,0.3-0.2,0.5v0.1c-0.1,0.1-0.1,0.4-0.2,0.6c0,0.1-0.1,0.1-0.1,0.3
			c-0.1,0.1-0.1,0.2-0.1,0.4c0,0,0,0,0,0.1c-0.2,0.4-0.3,0.9-0.4,1.4v0.1c-0.1,0.1-0.1,0.3-0.2,0.5c0,0.1-0.1,0.1-0.1,0.3
			c0,0.1-0.1,0.1-0.1,0.2c0,0.1-0.1,0.1-0.1,0.2c-0.1,0.2-0.1,0.4-0.2,0.6c-0.1,0.2-0.2,0.4-0.3,0.6c-0.2,0.3-0.5,0.5-0.8,0.7
			c-0.3,0-0.4,0.1-0.7,0.2c-0.2,0-0.4,0-0.6,0.1c-0.7,0-1.4,0-2,0c-0.2,0-0.3,0-0.5,0c-0.8,0-1.5,0-2.3,0c-0.3,0-0.6,0-0.9,0
			c-0.1,0-0.1,0-0.2,0s-0.1,0-0.2,0c0,0,0,0-0.1,0c0-0.1-0.2,0-0.3-0.1c-0.1-0.1-0.3-0.1-0.5-0.1c0,0,0-0.1-0.1-0.1c0,0,0,0-0.1,0
			c-0.1-0.1-0.2-0.2-0.4-0.3c0,0,0-0.1-0.1-0.1c0,0,0,0,0-0.1c-0.1-0.3-0.1-0.9-0.1-1.2s0.2-0.5,0.2-0.8c0,0,0.1,0,0.1-0.1
			c0.1-0.2,0.1-0.3,0.1-0.5c0.1,0,0.1-0.2,0.1-0.3c0-0.2,0.1-0.1,0.1-0.3c0.1-0.1,0.1-0.3,0.1-0.4c0-0.1,0.1-0.1,0.1-0.3
			c0.1-0.1,0.1-0.2,0.1-0.3s0.1-0.1,0.1-0.3c0-0.1,0.1-0.1,0.1-0.2c0.1-0.2,0.1-0.3,0.1-0.5c0.1-0.2,0.1-0.4,0.2-0.6c0,0,0,0,0-0.1
			c0.1-0.2,0.1-0.4,0.2-0.6c0.1-0.3,0.2-0.7,0.3-1.1c0.1-0.1,0.1-0.2,0.1-0.3v-0.1c0,0,0.1,0,0.1-0.1s0.1-0.2,0.1-0.3
			c0.1,0,0.2-0.3,0.1-0.3c0,0,0-0.1-0.1-0.1c0,0,0,0,0-0.1c-1.7,0-3.5,0-5.2,0c0,0,0,0,0,0.1c-0.1,0-0.2,0-0.2,0.2
			c-0.2,0.2-0.2,0.6-0.3,0.9c0,0,0,0,0,0.1c-0.1,0.2-0.2,0.4-0.2,0.7c0,0.1-0.1,0.2-0.1,0.4c-0.1,0-0.1,0.1-0.1,0.2c0,0,0,0,0,0.1
			c-0.1,0.1-0.1,0.2-0.1,0.3v0.1c0,0-0.1,0-0.1,0.1v0.1c-0.1,0.2-0.1,0.5-0.2,0.7v0.1c-0.2,0.2-0.2,0.6-0.3,0.9c0,0.1,0,0.1,0,0.2
			c-0.1,0.1-0.1,0.2-0.1,0.3c-0.1,0.2-0.2,0.4-0.2,0.7c-0.1,0.1-0.1,0.2-0.1,0.4c-0.1,0.2-0.2,0.4-0.2,0.7c-0.2,0.4-0.2,0.9-0.4,1.4
			c-0.1,0.3-0.1,0.9,0,1.2c0,0,0,0.1,0.1,0.1c0,0,0,0,0,0.1s0,0.2,0.1,0.3c0,0,0,0,0,0.1c0.1,0.1,0.1,0.3,0.3,0.4c0,0,0,0,0,0.1
			c0.1,0.2,0.3,0.3,0.5,0.5c0.1,0.1,0.3,0.2,0.5,0.2c0.2,0.1,0.4,0.2,0.7,0.2c0,0,0,0,0.1,0c0,0,0,0,0,0.1c5,0,10,0,15,0
			c0,0,0-0.1,0.1-0.1h0.1c0.1,0,0.3,0.1,0.3-0.1h0.1c0.2,0,0.4-0.1,0.5-0.2c0.3,0,0.4-0.2,0.6-0.2c0,0,0.1,0,0.1-0.1c0,0,0,0,0.1,0
			c0.5-0.3,0.9-0.6,1.2-1c0,0,0.1,0,0.1-0.1c0.2-0.2,0.4-0.4,0.5-0.7c0,0,0,0,0-0.1c0.2-0.1,0.2-0.4,0.3-0.7c0-0.1,0.1-0.1,0.1-0.3
			c0.1-0.2,0.1-0.5,0.2-0.8c0-0.1,0.1-0.1,0.1-0.2c0.1-0.2,0.1-0.4,0.2-0.6c0.1-0.5,0.3-0.9,0.3-1.4c0.1-0.1,0.1-0.2,0.1-0.3
			C272.5,59,272.5,59,272.5,58.8z M257.5,64L257.5,64L257.5,64z M257.3,64L257.3,64L257.3,64z M257.3,64C257.4,64,257.4,64,257.3,64
			C257.4,64,257.4,64,257.3,64z M257.4,64L257.4,64L257.4,64z M257.1,64L257.1,64L257.1,64z M257.1,64C257.1,64,257.2,64,257.1,64
			C257.2,64,257.1,64,257.1,64z M257.2,64L257.2,64L257.2,64z M257.2,64C257.2,64,257.3,64,257.2,64C257.3,64,257.2,64,257.2,64z
			 M257.1,64L257.1,64L257.1,64z M257.9,64.1C257.9,64,257.9,64,257.9,64.1C257.9,64,257.9,64,257.9,64.1z M257.9,64.1
			c0,0-0.1,0-0.2,0l0,0C257.8,64.1,257.8,64.1,257.9,64.1z M257.9,64.1L257.9,64.1L257.9,64.1z M257.9,64.1L257.9,64.1L257.9,64.1z
			 M257.7,64.1L257.7,64.1L257.7,64.1L257.7,64.1L257.7,64.1C257.7,64,257.8,64,257.7,64.1C257.8,64,257.7,64,257.7,64.1z M257.5,64
			C257.5,64,257.6,64,257.5,64C257.6,64,257.5,64,257.5,64z M257.6,64L257.6,64L257.6,64z M257.6,64.1L257.6,64.1L257.6,64.1z
			 M257.7,64L257.7,64L257.7,64z M257.7,64L257.7,64L257.7,64z M257.7,64L257.7,64L257.7,64z M257.7,64L257.7,64L257.7,64z"/>
	</g>
	<g>
		<path class="st1" d="M178.4,59.5c-0.3,0.8-0.7,1.5-1,2.3c-0.7,1.5-1.3,3.1-2,4.6c-0.1,0.1-0.1,0.2-0.3,0.2c-1.8,0-3.5,0-5.3,0
			c-0.2,0-0.2,0-0.1-0.2c1.7-4.1,3.3-8.1,4.9-12.2c0.1-0.2,0.1-0.2,0.3-0.2c1,0,1.9,0,2.9,0c1.3,0,2.6,0,3.9,0c0.1,0,0.2,0,0.2,0.2
			c1.1,2.2,2.1,4.3,3.2,6.5l0,0c0.2-0.5,0.4-0.9,0.6-1.4c0.7-1.7,1.5-3.4,2.2-5.1c0-0.1,0.1-0.1,0.2-0.1c1.8,0,3.6,0,5.4,0
			c0,0,0,0,0.1,0c-0.2,0.6-0.5,1.2-0.7,1.8c-1.4,3.5-2.8,7.1-4.2,10.6c-0.1,0.2-0.1,0.2-0.3,0.2c-2.1,0-4.1,0-6.2,0
			c-0.2,0-0.2,0-0.3-0.2c-1.1-2.2-2.2-4.5-3.4-6.7C178.5,59.7,178.4,59.6,178.4,59.5z"/>
		<path class="st1" d="M135.4,61.9c-0.8,0-1.6,0-2.4,0c0-0.2,0.1-0.3,0.2-0.5c0.3-0.7,0.6-1.4,0.8-2.1c0-0.1,0.1-0.1,0.2-0.1
			c2.9,0,5.7,0,8.6,0l0,0c-0.1,0.2-0.1,0.4-0.2,0.6c-0.9,2.1-1.7,4.2-2.6,6.3c-0.1,0.1-0.1,0.2-0.2,0.1c-1.2-0.5-2.5-0.6-3.8-0.5
			c-1.3,0.2-2.6,0.5-3.9,0.8c-1.4,0.3-2.8,0.4-4.3,0.3c-1.2-0.1-2.4-0.2-3.5-0.6c-0.7-0.3-1.4-0.6-2-1.2c-0.7-0.7-0.9-1.5-0.9-2.5
			c0-1.4,0.4-2.6,1.1-3.7c1.6-2.5,3.8-4.1,6.6-4.8c1.4-0.4,2.9-0.6,4.4-0.7c2.5-0.1,5,0.2,7.4,0.8c0.8,0.2,1.5,0.7,2,1.3
			c0.4,0.6,0.5,1.2,0.4,1.9c0,0.2,0,0.5-0.1,0.6s-0.4,0-0.6,0c-1.9,0-3.8,0-5.7,0c-0.1,0-0.2,0-0.3-0.2c-0.3-0.7-0.8-1.1-1.5-1.2
			c-1.3-0.2-2.5-0.2-3.7,0.3c-1.8,0.8-2.9,2.2-3.3,4.1c-0.2,1,0.4,1.9,1.4,2.3c0.7,0.3,1.4,0.3,2.2,0.3c0.8-0.1,1.6-0.2,2.4-0.5
			C134.5,62.8,135,62.4,135.4,61.9z"/>
		<path class="st1" d="M198.5,57.3c-1.8,0-3.7,0-5.5,0c0.2-0.4,0.3-0.8,0.5-1.3c0.2-0.6,0.5-1.2,0.7-1.9c0.1-0.2,0.1-0.2,0.3-0.2
			c4.9,0,9.7,0,14.6,0c0.6,0,1.3,0,1.9,0c-0.1,0.4-0.3,0.8-0.4,1.1c-0.2,0.7-0.5,1.3-0.7,2c0,0.1-0.1,0.2-0.3,0.2
			c-1.7,0-3.4,0-5.1,0c-0.2,0-0.2,0-0.3,0.2c-1.2,3-2.4,5.9-3.5,8.9c-0.1,0.1-0.1,0.2-0.3,0.2c-1.8,0-3.6,0-5.4,0
			c-0.2,0-0.2,0-0.1-0.2c1.2-2.9,2.3-5.9,3.4-8.8C198.5,57.5,198.5,57.4,198.5,57.3z"/>
		<path class="st1" d="M152.5,54c-0.3,0.8-0.6,1.6-1,2.4c-1.3,3.4-2.7,6.7-4,10.1c-0.1,0.1-0.1,0.2-0.3,0.2c-1.9,0-3.8,0-5.7,0
			c-0.2,0-0.2,0-0.1-0.2c1.6-4.1,3.3-8.2,4.9-12.3c0-0.1,0.1-0.2,0.2-0.2C148.5,54,150.5,54,152.5,54L152.5,54z"/>
		<path class="st1" d="M168.8,66.5c-0.1-0.6-0.1-1.2-0.2-1.7c-0.1-1.1-0.2-2.2-0.3-3.3s-0.2-2.2-0.3-3.4s-0.3-2.5-0.4-3.7
			c0-0.2-0.1-0.2-0.2-0.2c-2.4,0-4.7,0-7.1,0h-0.1c-0.1,0-0.2,0-0.3,0.1c-2.2,2.3-4.4,4.6-6.6,7c-1.5,1.6-3.1,3.2-4.6,4.8
			c-0.2,0.2-0.4,0.5-0.7,0.7c0.1,0,0.1,0,0.1,0c2,0,4.1,0,6.1,0c0.1,0,0.2,0,0.2-0.1c0.4-0.4,0.7-0.8,1.1-1.3
			c0.1-0.1,0.2-0.1,0.3-0.1c0.5,0,1,0,1.5,0c1.6,0,3.2,0,4.8,0c0.1,0,0.2,0,0.2,0.2c0.1,0.4,0.2,0.7,0.2,1.1c0,0.1,0.1,0.2,0.2,0.2
			c2,0,4,0,6,0C168.8,66.6,168.9,66.6,168.8,66.5z M162.1,61.9c-1.1,0-2.3,0-3.4,0c1.1-1.3,2.3-2.7,3.4-4c0.1,0.4,0,0.8,0.1,1.2
			c0,0.9,0.1,1.7,0.1,2.6C162.2,61.8,162.2,61.9,162.1,61.9z"/>
	</g>
	<g>
		<path class="st1" d="M39.6,53.8c-0.1,0.3-0.3,0.5-0.4,0.7c-0.1,0.2-0.2,0.2-0.4,0.2c-1,0-2.1,0-3.1,0c-0.7,0-1.2,0.3-1.5,0.9
			c-0.5,1.3-1.1,2.5-1.6,3.8c1.1,0,2.1,0,3.1,0c0.5,0,0.4,0,0.3,0.4c-0.2,0.4-0.4,0.5-0.8,0.5c-0.9,0-1.7,0-2.6,0
			c-0.2,0-0.3,0.1-0.4,0.3c-0.5,1.2-1.1,2.5-1.6,3.7c-0.3,0.7-0.2,0.8,0.5,0.8c1.2,0,2.3,0,3.6,0c-0.1,0.3-0.3,0.6-0.4,0.9
			c-0.1,0.1-0.2,0.2-0.3,0.2c-1.9,0-3.7,0-5.6,0c-1,0-1.3-0.5-1-1.4c0.5-1.4,1.1-2.7,1.7-4.1c0.8-1.8,1.6-3.6,2.3-5.5
			c0.4-1,1.1-1.4,2.2-1.4C35.6,53.8,37.6,53.8,39.6,53.8z"/>
		<path class="st1" d="M92.9,53.8c-0.1,0.3-0.2,0.5-0.3,0.7c-0.1,0.2-0.3,0.2-0.5,0.2c-0.9,0-1.9,0-2.8,0s-1.5,0.3-1.8,1.2
			c-0.5,1.2-1,2.4-1.5,3.6c1.2,0,2.3,0,3.5,0c-0.1,0.7-0.4,0.9-1,0.9c-0.8,0-1.7,0-2.5,0c-0.2,0-0.3,0-0.4,0.2
			c-0.5,1.2-1.1,2.5-1.6,3.7c-0.3,0.7-0.2,0.8,0.5,0.8c1.2,0,2.4,0,3.6,0c-0.1,0.3-0.3,0.6-0.4,0.9c-0.1,0.2-0.2,0.2-0.3,0.2
			c-1.9,0-3.9,0-5.8,0c-0.6,0-0.9-0.4-0.8-1c0.2-0.8,0.6-1.5,0.9-2.3c1.1-2.6,2.2-5.1,3.3-7.6c0.4-1,1.1-1.4,2.2-1.4
			C89,53.8,90.9,53.8,92.9,53.8z"/>
		<path class="st1" d="M76,54.8C76,54.7,76,54.7,76,54.8c0.3-1,0.3-1,1.2-1c1.8,0,3.7,0,5.5,0c0.4,0,0.7,0,0.9,0.4
			c0.2,0.4-0.1,0.7-0.3,1c-1.3,1.5-2.7,2.9-4,4.4c-1.5,1.6-3,3.3-4.5,4.9l-0.1,0.1c-0.1,0.1-0.3,0.3-0.2,0.4
			c0.1,0.2,0.3,0.1,0.4,0.1c1.4,0,2.7,0,4.1,0c0.3,0,0.4,0,0.3,0.3c-0.3,0.8-0.3,0.8-1.1,0.8c-2.1,0-4.1,0-6.2,0
			c-0.4,0-0.8,0.1-1-0.4c-0.2-0.4,0.1-0.7,0.4-1c0.8-0.9,1.7-1.8,2.5-2.7c2.1-2.3,4.2-4.5,6.3-6.8c0.1-0.1,0.1-0.1,0.2-0.2
			c0.2-0.2,0.1-0.4-0.2-0.4c-0.7,0-1.4,0-2.1,0C77.4,54.8,76.7,54.8,76,54.8z"/>
		<path class="st1" d="M18,53.8c1,0,2.1,0,3.1,0c0.2,0,0.3,0,0.2,0.3c-0.2,0.5-0.4,0.7-1,0.7c-1.1-0.1-2.2,0-3.3,0
			c-0.4,0-0.7,0.1-0.9,0.5c-0.5,0.7-0.8,1.4-1,2.2c-0.1,0.5,0,0.8,0.4,1.2c0.7,0.6,1.3,1.2,2,1.7c0.5,0.5,0.6,1,0.4,1.7
			c-0.4,1.2-0.9,2.3-1.4,3.3c-0.4,0.8-1.1,1-1.9,1c-2,0-4,0-6,0c-0.2,0-0.3,0-0.2-0.3c0.2-0.6,0.6-0.9,1.3-0.8c1,0.1,2,0,3,0
			c0.4,0,0.8-0.1,1-0.5c0.5-0.9,0.9-1.9,1.3-2.8c0.2-0.5,0-0.9-0.4-1.3c-0.6-0.6-1.3-1.1-1.9-1.7c-0.6-0.6-0.7-0.8-0.4-1.6
			s0.6-1.5,0.9-2.3c0.3-0.8,0.9-1.2,1.8-1.2C16,53.8,17,53.8,18,53.8L18,53.8z"/>
		<path class="st1" d="M48.3,53.8c-0.1,0.3-0.2,0.5-0.3,0.7s-0.2,0.2-0.4,0.2c-1.1,0-2.2,0-3.3,0c-0.6,0-1,0.2-1.2,0.8
			c-1.3,3-2.6,6-3.9,9c-0.2,0.5-0.1,0.7,0.6,0.7c1,0,2.1,0,3.1,0c0.2,0,0.3,0,0.5,0c0,0.1,0,0.1,0,0.1C43,66.2,43,66.2,42,66.2
			c-1.6,0-3.2,0-4.9,0c-0.2,0-0.4,0-0.5,0c-0.4-0.1-0.7-0.4-0.7-0.8c0-0.3,0.1-0.6,0.2-0.9c1.4-3.2,2.8-6.4,4.1-9.7
			c0.3-0.8,1-1,1.7-1C44.1,53.8,46.2,53.8,48.3,53.8z"/>
		<path class="st1" d="M67.6,53.8c-0.6,1.5-1.2,2.9-1.8,4.3c-0.9,2.1-1.8,4.2-2.7,6.3c-0.2,0.6-0.1,0.8,0.5,0.8c0.8,0,1.6,0,2.4,0
			c0.3,0,0.3,0,0.2,0.3c-0.3,0.8-0.3,0.8-1.1,0.8c-1.4,0-2.8,0-4.2,0c-0.8,0-1.2-0.4-0.9-1.2c0.2-0.9,0.7-1.7,1-2.5
			c1.2-2.8,2.4-5.6,3.6-8.4c0.1-0.2,0.2-0.3,0.5-0.3C65.9,53.8,66.7,53.8,67.6,53.8z"/>
		<path class="st1" d="M75.1,53.8c-1.2,2.7-2.3,5.4-3.5,8.1c-0.6,1.3-1.1,2.7-1.7,4c-0.1,0.3-0.2,0.3-0.5,0.3c-0.8,0-1.7,0-2.6,0
			c0.2-0.6,0.5-1.1,0.7-1.7c1.5-3.4,3-6.8,4.4-10.2c0.2-0.4,0.4-0.5,0.8-0.5C73.6,53.8,74.3,53.8,75.1,53.8z"/>
		<path class="st1" d="M44.4,66.2c0.5-1.1,0.9-2.2,1.4-3.2c1.3-3,2.6-5.9,3.8-8.9c0.1-0.3,0.2-0.4,0.6-0.4c0.8,0,1.6,0,2.5,0
			c-0.4,0.9-0.8,1.8-1.1,2.7c-1.3,3.1-2.7,6.3-4,9.4c-0.1,0.3-0.3,0.4-0.6,0.4C46.1,66.2,45.3,66.2,44.4,66.2z"/>
		<path class="st1" d="M100.8,53.7c-2.1,0-4.1,0-6.2,0c-0.3,0-0.5,0.1-0.6,0.4c-1.1,2.5-2.1,5-3.2,7.6c-0.6,1.5-1.3,3-1.9,4.5
			c1.8,0,3.6,0,5.3,0c0.5,0,1,0,1.5,0c1.2,0.1,1.9-0.5,2.3-1.5c1-2.3,1.9-4.5,2.9-6.7c0.4-0.9,0.8-1.8,1.1-2.7
			C102.2,54.3,101.8,53.7,100.8,53.7z M98.9,55.5c-0.1,0.4-0.3,0.8-0.5,1.2c-1.1,2.5-2.2,4.9-3.2,7.4c-0.3,0.7-0.7,1-1.5,1
			c-0.5,0-1,0-1.5,0c0.5-1.1,0.9-2.1,1.3-3.1c1-2.3,2-4.6,2.9-6.9c0.1-0.2,0.2-0.3,0.5-0.3c0.5,0,1,0,1.5,0
			C98.9,54.8,99.1,55,98.9,55.5z"/>
		<path class="st1" d="M59.5,53.8c-0.6,0-1.2,0-1.8,0s-1,0.2-1.3,0.6c-0.2,0.2-0.3,0.4-0.5,0.6c-1.8,2.6-3.5,5.2-5.3,7.8
			c-0.7,1.1-1.5,2.2-2.3,3.4c0.8,0,1.6,0,2.3,0c0.3,0,0.4-0.1,0.6-0.3c1-1.5,1.9-3,2.9-4.4c0.1-0.2,0.2-0.3,0.4-0.3
			c0.6,0,1.2,0,1.7,0c0.2,0,0.3,0,0.2,0.2c-0.1,0.6-0.1,1.1-0.2,1.7C56.1,64,56,65,55.9,65.9c0,0.1,0,0.3,0.2,0.3c0.8,0,1.6,0,2.4,0
			c0.2,0,0.2,0,0.2-0.2c0.1-1,0.2-1.9,0.2-2.9c0.1-1.5,0.3-3,0.4-4.6c0.1-1.5,0.2-2.9,0.4-4.4C59.9,53.9,59.9,53.8,59.5,53.8z
			 M56.7,60.1c0,0.1-0.1,0.2-0.2,0.2c-0.4,0-0.8,0-1.2,0c0.6-0.9,1.1-1.8,1.6-2.7H57C56.9,58.4,56.8,59.2,56.7,60.1z"/>
		<path class="st1" d="M28.7,53.8c-1.8,0-3.6,0-5.4,0c-0.3,0-0.5,0.1-0.6,0.4c-1.6,3.6-3.1,7.1-4.7,10.6c-0.2,0.5-0.4,0.9-0.6,1.5
			c0.8,0,1.6,0,2.4,0c0.3,0,0.4-0.1,0.5-0.3c0.5-1.2,1.1-2.5,1.6-3.7c0.1-0.2,0.2-0.3,0.5-0.4c1.3-0.2,2.6-0.3,3.8-0.5
			c0.7-0.1,1.4-0.4,1.8-1.1c0.8-1.6,1.5-3.1,2.1-4.8C30.3,54.4,29.8,53.8,28.7,53.8z M27,55.3c0,0.2-0.1,0.4-0.2,0.6
			c-0.5,1.2-0.9,2.4-1.5,3.6c-0.3,0.7-0.8,1.1-1.5,1.1c-0.4,0-0.8,0.2-1.2,0.2c0.3-0.7,0.6-1.3,0.9-2c0.5-1.3,1.1-2.5,1.6-3.8
			c0.1-0.2,0.2-0.3,0.4-0.3c0.4,0,0.7,0,1.1,0C26.9,54.7,27.1,54.9,27,55.3z"/>
	</g>
	<g>
		<polygon class="st1" points="712.4,55.2 728.9,55.2 728.9,57.5 717,57.5 717,58.9 728.2,58.9 728.2,60.9 717,60.9 717,62.4 
			729.1,62.4 729,64.7 712.4,64.7 		"/>
		<path class="st1" d="M731.1,55.2h6.9l8.9,6.9v-6.9h4.6v9.5h-6.8l-9-6.9v6.9h-4.6L731.1,55.2L731.1,55.2z"/>
		<path class="st1" d="M785.3,62.4c0,0,1.9,0,3.2-0.1c0.6,0,1-0.1,1.3-0.5c0.3-0.5,0.3-1.3,0.3-2.1v-4.5h4.6v5.1
			c0,1.4,0.1,2.3-0.5,3.1c-0.5,0.7-1.7,1.1-2.7,1.3c-0.7,0.1-4.9,0.1-6.2,0.1s-5.5,0-6.2-0.1c-1-0.2-2.2-0.6-2.7-1.3
			c-0.6-0.8-0.5-1.7-0.5-3.1v-5.1h4.6v4.5c0,0.8-0.1,1.6,0.3,2.1c0.3,0.4,0.7,0.5,1.3,0.5C783.4,62.4,785.3,62.4,785.3,62.4"/>
		<path class="st1" d="M826.8,57.5l-2.8,3.3h5.7C829.7,60.8,827,57.6,826.8,57.5 M823.9,55.2h5.9l8.1,9.5h-5.1l-1.5-1.6h-9.2
			l-1.5,1.6h-5C815.7,64.7,823.5,55.8,823.9,55.2"/>
		<path class="st1" d="M769.2,61c-0.3,1.3-1.8,1.3-3.4,1.3h-7.2v-4.8h7.2c1.6,0,3.1,0,3.4,1.3C769.2,59,769.2,60.9,769.2,61
			 M773.8,58.5c0-2.7-3-3.3-6.4-3.3H754v9.5h13.4c3.4,0,6.4-0.7,6.4-3.3C773.8,60.8,773.8,59.1,773.8,58.5"/>
		<path class="st1" d="M801.2,57.6v2.3h6.9c0.7,0,1,0.1,1.6-0.2c0.3-0.2,0.5-0.7,0.4-1.3c-0.2-0.9-1.2-0.8-2-0.8H801.2z M796.5,55.2
			h10.3c2.2,0,4.5-0.1,6.2,0.4c0.7,0.2,1.3,0.7,1.6,1.4c0.4,0.9,0.3,2.3-0.2,3c-0.3,0.4-0.8,0.7-1.4,0.8c-0.2,0.1-0.6,0.1-0.6,0.1
			l0,0C812.6,61,813,61,813,61s0.7,0.2,1,0.4c1,0.6,0.8,1.7,0.8,3.3h-4.6c0-0.6,0.1-1.6-0.1-2c-0.3-0.5-1.5-0.5-2.4-0.5h-6.5v2.4
			h-4.7V55.2z"/>
	</g>
	<g>
		<path class="st1" d="M937,54.9c1.3,0.2,2.6,0.3,3.9,0.6c1.7,0.4,2.5,1.5,2.4,3.2c0,1.2-0.7,2-1.7,2.4c-0.4,0.2-0.9,0.3-1.5,0.6
			c1.2,1.2,2.4,2.4,3.7,3.7c-1.7,0-3.2,0-4.9,0c-1-1.1-2.2-2.4-3.2-3.5c-1.6,0-3,0-4.4,0c0,1.2,0,2.3,0,3.5c-1.6,0-3,0-4.6,0
			c0-0.2-0.1-0.4-0.1-0.6c0-3.1,0-6.2,0-9.2c0-0.2,0.1-0.5,0.1-0.7C930.2,54.9,933.6,54.9,937,54.9z M931.3,59.6c2.3,0,4.5,0,6.7,0
			c0.7,0,1.2-0.4,1.2-1.2s-0.5-1.1-1.3-1.1c-2,0-3.9,0-5.9,0c-0.2,0-0.4,0.1-0.7,0.1C931.3,58.1,931.3,58.9,931.3,59.6z"/>
		<path class="st1" d="M963.6,65.5c-1.5,0-3.1,0-4.6,0c-0.3-0.5-0.6-0.9-0.9-1.5c-1.8,0-3.6,0-5.4,0c-0.5-0.7-0.9-1.3-1.5-2.1
			c-0.7,1.2-1.4,2.4-2.1,3.5c-1.5,0-3,0-4.7,0c2-3.5,4-6.9,6-10.4c2.4,0,4.8,0,7.2,0c1.6,2.7,3.1,5.4,4.7,8.2c0.4,0.7,0.8,1.4,1.3,2
			C963.6,65.4,963.6,65.5,963.6,65.5z M954,57c-0.9,1.6-1.8,3.1-2.7,4.7c1.9,0,3.6,0,5.5,0C955.9,60.2,955,58.7,954,57z"/>
		<path class="st1" d="M857.5,65.4c1.9-3.2,3.7-6.3,5.6-9.5c0.1-0.2,0.3-0.5,0.4-0.7c2.4,0,4.7,0,7.2,0c2,3.4,3.9,6.8,6,10.4
			c-1.6,0-3.1,0-4.7,0c-0.3-0.4-0.6-0.9-0.9-1.4c-1.8,0-3.6,0-5.4,0c-0.5-0.7-0.9-1.3-1.5-2.1c-0.7,1.2-1.4,2.3-2.1,3.5
			c-1.5,0-3.1,0-4.6,0C857.5,65.5,857.5,65.4,857.5,65.4z M867.1,57c-0.9,1.6-1.8,3.1-2.7,4.7c1.9,0,3.6,0,5.4,0
			C868.9,60.2,868,58.7,867.1,57z"/>
		<path class="st1" d="M924.6,54.9c0.1,0.3,0.2,0.6,0.2,1c0,1.8-0.1,3.5,0,5.3c0.1,1.6-0.7,2.5-1.9,3.1c-1.9,1-3.9,1.2-6,1.3
			c-2.2,0-4.3,0-6.4-0.7c-0.6-0.2-1.1-0.4-1.6-0.7c-0.9-0.6-1.6-1.3-1.6-2.5c0-2.2,0.1-4.4,0.1-6.6c1.5,0,3,0,4.5,0
			c0,1.9,0.1,3.8,0,5.8c0,1.2,0.5,2,1.6,2.3c1.9,0.7,3.8,0.6,5.7-0.2c0.7-0.3,1-0.8,1-1.6c0-1.8,0-3.5,0-5.3c0-0.3,0.1-0.6,0.2-1
			C921.7,54.9,923.1,54.9,924.6,54.9z"/>
		<path class="st1" d="M905.5,54.9c0.1,0.7,0.1,1.4,0.2,2.2c-1.9,0-3.7,0-5.6,0c0,2.9,0,5.6,0,8.4c-1.7,0-3.4,0-5.1,0
			c0-2.8,0-5.5,0-8.4c-2,0-3.8,0-5.7,0c0-0.8,0-1.5,0-2.2C894.7,54.9,900.1,54.9,905.5,54.9z"/>
		<path class="st1" d="M877.9,65.5c0-3.5,0-6.9,0-10.4c1.7,0,3.3,0,5.1,0c0,2.7,0,5.5,0,8.3c2.9,0,5.6,0,8.4,0c0,0.7,0,1.4,0,2
			C886.9,65.5,882.4,65.5,877.9,65.5z"/>
	</g>
	<g>
		<path class="st1" d="M601.3,65.6h-8.2c-4.5,0-4.5-3.1-4.5-3.1v-5.3c0,0,0-3,3.6-3h9v2.5h-7.4c-2.2,0-2.1,1.9-2.1,1.9v2.5
			c0,0,0,2,2.1,2h7.5L601.3,65.6"/>
		<path class="st1" d="M616.4,57.6v8h-2.8h-1.2H604c-0.4,0-0.7-0.1-1-0.4s-0.5-0.6-0.5-1v-3.6c0-0.6,0.2-1,0.5-1.4
			c0.3-0.3,0.7-0.5,1.1-0.5h7.9c0.4,0,0.7,0.1,1,0.3c0.2,0.2,0.4,0.3,0.5,0.5v-1c0-0.3-0.1-1-0.4-1.3c-0.3-0.3-0.7-0.5-1.1-0.5h-9.5
			v-2.6H613C613,54.2,616.4,54.3,616.4,57.6 M613.1,62.1c0-1-0.9-1-0.9-1h-6c0,0-0.9,0-0.9,1c0,0,0,1,0.9,1h6
			C612.1,63.1,613.1,63.1,613.1,62.1"/>
		<path class="st1" d="M631.5,64v-3.5c0-1.7-1.9-1.8-1.9-1.8H622c-0.3,0-1,0-1-1s1-0.9,1-0.9h9v-2.5h-11.1c-0.5,0-1,0.2-1.3,0.6
			c-0.3,0.3-0.4,0.6-0.4,0.9v3.8c0,0-0.1,1.6,1.8,1.6h7.9c0,0,1,0,1,1s-1,0.9-1,0.9h-10.1v2.5H630c0.5,0,0.8-0.2,1.1-0.5
			C631.4,64.8,631.5,64.4,631.5,64"/>
		<path class="st1" d="M650,56.7h-5.5v8.8h-3V54.2h8.5V56.7z M640.7,65.6h-3v-8.8h-5.5v-2.5h8.5V65.6"/>
		<path class="st1" d="M650.9,62.5v-5.4c0,0,0.1-2.9,3.1-2.9h7.9c0,0,2.5,0,2.5,2.9v2.4c0,0.5-0.1,0.8-0.3,1.1
			c-0.3,0.4-0.7,0.6-1.3,0.6H654V62c0,0.3,0.1,0.5,0.3,0.7s0.4,0.3,0.7,0.3h9.3v2.5h-9.8C651,65.6,650.9,62.5,650.9,62.5
			 M661.4,57.7c0-0.9-1-1-1-1h-5.3c-1.2,0-1.2,1-1.2,1v1h7.4L661.4,57.7L661.4,57.7z"/>
		<path class="st1" d="M677.4,65.6H669c-3.5,0-3.3-2.8-3.3-2.8v-8.6h2.9v7.2c0,0,0,1.7,2,1.7h6.8V65.6"/>
		<path class="st1" d="M689.9,65.6h-8.4c-3.5,0-3.3-2.8-3.3-2.8v-8.6h2.9v7.1c0,0,0,1.8,2,1.8h6.8V65.6"/>
		<rect x="690.7" y="54.2" class="st1" width="2.9" height="11.4"/>
	</g>
	<g>
		<path class="st1" d="M429.7,56.1c0-1.9,0-3.7,0-5.5c1.2,0,2.3,0,3.5,0c0,5.6,0,11.2,0,16.8c-1.1,0-2.3,0-3.5,0
			c0-0.4,0-0.9-0.1-1.4c-1.8,1.6-3.8,1.8-5.9,1.3c-1.3-0.3-2.2-1.1-3-2.2c-1.8-2.5-1.5-6.3,0.6-8.7
			C423.3,54.3,426.3,54.1,429.7,56.1z M429.2,61c-0.1-0.5-0.1-0.9-0.2-1.4c-0.4-1.5-1.4-2.4-2.9-2.4s-2.6,0.8-2.9,2.4
			c-0.2,1-0.1,2.2,0.1,3.2c0.3,1.3,1.3,1.9,2.6,1.9C428,64.7,429.2,63.4,429.2,61z"/>
		<path class="st1" d="M377,54.7c1.2,0,2.3,0,3.5,0c0,0.6,0,1.1,0,1.9c0.6-0.5,1-0.9,1.5-1.2c1.7-1,4.7-0.8,6.2,0.4
			c0.8,0.6,1.3,1.5,1.3,2.6c0.1,3,0,6.1,0,9.2c-1.2,0-2.4,0-3.8,0c0-0.5,0-0.9,0-1.3c0-2,0-4,0-6c0-1.8-0.6-2.5-2-2.6
			c-1.8-0.1-2.9,0.7-3.1,2.5c-0.1,2.1-0.1,4.2-0.1,6.3c0,0.4,0,0.8,0,1.2c-1.3,0-2.4,0-3.6,0C377,63.2,377,59,377,54.7z"/>
		<path class="st1" d="M361.1,67.4c-1.3,0-2.4,0-3.6,0c0-0.5,0-0.9-0.1-1.4c-0.3,0.2-0.6,0.3-0.8,0.5c-1.6,1.1-3.3,1.2-5.1,0.7
			c-1.5-0.4-2.4-1.6-2.5-3.1c-0.1-1.6,0.5-3,2-3.5c1.4-0.5,2.9-0.6,4.4-1c0.5-0.1,1-0.2,1.5-0.4c0.7-0.3,0.7-1.3,0-1.7
			c-1.4-0.9-3.5-0.3-4.1,1.3c-1.1,0-2.2,0-3.4,0c0.1-1.6,0.7-2.9,2.2-3.5c2.7-1.1,5.3-1,7.9,0.2c0.9,0.4,1.3,1.2,1.4,2.2
			c0,0.4,0.1,0.8,0.1,1.2C361.1,61.8,361.1,64.6,361.1,67.4z M357.1,61.3c-1.3,0.3-2.7,0.6-4,0.9c-0.7,0.2-1.1,0.8-1,1.6
			c0.1,0.8,0.6,1.2,1.3,1.3C355.3,65.3,357.7,64.1,357.1,61.3z"/>
		<path class="st1" d="M438.3,58.9c-1.1,0-2.2,0-3.3,0c-0.1-1.5,0.7-3,2.2-3.6c2.6-1,5.2-0.9,7.8,0.3c1,0.5,1.5,1.4,1.5,2.5
			c0,3,0,6.1,0,9.1c0,0.1-0.1,0.1-0.1,0.2c-1.1,0-2.2,0-3.5,0c0-0.4-0.1-0.9-0.1-1.5c-1.5,1.2-3,1.7-4.8,1.5c-2.4-0.2-3.7-1.7-3.5-4
			c0.1-1.5,0.9-2.5,2.3-2.9c1.3-0.4,2.7-0.5,4.1-0.8c0.5-0.1,1-0.2,1.5-0.4c0.3-0.1,0.5-0.6,0.5-0.8c0-0.3-0.3-0.7-0.5-0.9
			C440.9,56.7,439,57.3,438.3,58.9z M442.6,61.3c-1.3,0.3-2.6,0.5-3.9,0.9c-0.8,0.2-1.2,0.8-1.1,1.7c0.1,0.9,0.7,1.2,1.5,1.2
			C441.4,65.3,442.9,63.8,442.6,61.3z"/>
		<path class="st1" d="M405.8,54.7c1.2,0,2.3,0,3.5,0c0,0.6,0,1.1,0,1.7c0.2-0.1,0.3-0.1,0.3-0.1c1.5-2.1,4.7-2,6.5-1.2
			c1.4,0.6,2.2,1.7,2.2,3.1c0.1,3,0,6,0,9.1c-1.3,0-2.5,0-3.8,0c0-1.1,0-2.3,0-3.4c0-1.4,0-2.7,0-4.1c0-1.6-0.6-2.3-1.9-2.5
			c-1.7-0.2-2.9,0.6-3.2,2.1c-0.2,1.2-0.1,2.3-0.2,3.5c0,1.4,0,2.8,0,4.3c-1.2,0-2.4,0-3.6,0C405.8,63.2,405.8,59,405.8,54.7z"/>
		<path class="st1" d="M375.3,67.4c-1.3,0-2.5,0-3.8,0c0-1.3,0-2.5,0-3.7c0-1.3,0-2.6,0-3.9c0-1.5-0.5-2.2-1.7-2.4
			c-1.5-0.3-2.8,0.3-3.2,1.6c-0.2,0.7-0.3,1.4-0.3,2.2c0,2.1,0,4.1,0,6.2c-1.3,0-2.4,0-3.6,0c0-4.2,0-8.4,0-12.7c1.2,0,2.3,0,3.5,0
			c0,0.6,0,1.1,0,1.7c0.1,0,0.2,0.1,0.2,0c1.8-2.1,4.1-2.1,6.4-1.3c1.5,0.5,2.4,1.7,2.4,3.3C375.3,61.4,375.3,64.3,375.3,67.4z"/>
		<path class="st1" d="M397.7,67.5c-3.6,0-5.8-1.5-6.7-4.5c-1.2-4.4,1.7-8.2,6.2-8.3c2.1,0,4.2,0.2,5.6,2c1.9,2.2,2.2,4.7,1.1,7.3
			C402.8,66.6,400.5,67.5,397.7,67.5z M400.8,61.1c0-1.7-0.6-3-1.8-3.5c-1.7-0.8-3.7,0-4.3,1.7c-0.9,2.3,0,4.9,1.9,5.4
			C399.1,65.4,400.8,63.9,400.8,61.1z"/>
		<path class="st1" d="M464.8,63.5c-0.5,1.8-1.6,2.9-3.1,3.5c-1.6,0.6-3.3,0.7-4.9,0.1c-2.9-1-4.1-3.2-3.8-6.8
			c0.4-5.5,5.5-6.6,8.9-5.1c1.9,0.9,2.7,2.5,3,4.5c0.1,0.7,0,1.3,0,2.2c-1.4,0-2.8,0-4.3,0c-1.4,0-2.9,0-4.3,0
			c0,1.4,0.5,2.3,1.6,2.7c1.1,0.5,2.5,0.3,3.2-0.5c0.4-0.6,0.9-0.6,1.5-0.6C463.2,63.5,463.9,63.5,464.8,63.5z M461.5,59.8
			c-0.1-1.6-1.2-2.6-2.8-2.5c-1.4,0.1-2.4,1.1-2.4,2.5C458.1,59.8,459.8,59.8,461.5,59.8z"/>
		<path class="st1" d="M344.3,62.7c1.2,0,2.2,0,3.3,0c0.1,1.6-1.3,3.7-3.1,4.3c-1.8,0.7-3.7,0.7-5.5,0c-2.4-0.9-3.2-3-3.3-5.4
			c0-1.1,0.1-2.2,0.4-3.2c0.9-2.9,3.8-4.3,7.3-3.7c2.7,0.5,4,1.8,4.2,4.1c-1.1,0-2.1,0-3.2,0c-0.2,0-0.4-0.2-0.5-0.4
			c-0.5-0.9-1.2-1.1-2.1-1.1c-1,0-1.7,0.4-2.1,1.3c-0.6,1.5-0.6,3.1-0.1,4.6c0.4,1,1.2,1.5,2.3,1.5c1.1,0,1.7-0.5,2.1-1.6
			C344.2,63.1,344.3,62.9,344.3,62.7z"/>
		<path class="st1" d="M451.7,67.5c-0.9,0-1.8,0-2.6,0c-0.3,0-0.5,0-0.9,0c0-5.7,0-11.3,0-16.9c1.2,0,2.3,0,3.5,0
			C451.7,56.2,451.7,61.7,451.7,67.5z"/>
	</g>
</g>
<polygon class="st0" points="850.5,0 729,0 607.5,0 486,0 364.5,0 243,0 121.5,0 0,0 0,40 121.5,40 243,40 364.5,40 486,40 
	607.5,40 729,40 850.5,40 972,40 972,0 "/>
<g>
	<g>
		<g>
			<path class="st2" d="M551.2,12.4c-1.4,0-2,0.4-2.8,1.7L541,27.6h5.9l8.4-15.3"/>
			<path class="st2" d="M542.3,12.4c-1.3,0-2,0.2-2.6,1.5l-4.8,9.7l0.2-11.1h-5.2l0.1,15.3h7.9l8.3-15.3"/>
			<path class="st2" d="M565.1,16.2c0.6,0,1.4,0.1,2.5,0.1l2.3-3.9c-1.2-0.1-3.2-0.1-4.2-0.1c-4.1,0-6.4,0.4-8.6,2.5
				c-1.7,1.7-4.6,6.8-4.6,9.2s1.5,3.7,5.5,3.7c1.5,0,3.7,0,5.3-0.1l2.3-3.9c-1.7,0.1-3.4,0.1-4.7,0.1c-1.4,0-2.4-0.3-2.4-1.2
				c0-1.3,1.7-4.1,2.8-5.2C562.2,16.3,563.4,16.2,565.1,16.2"/>
			<path class="st2" d="M522,21.4h-3.8l3.9-6L522,21.4z M521.5,12.4c-1.8,0-2.3,0.2-3.5,2l-7.5,10.5l1.5-12.4h-4.6
				c-1.3,0-2,0.4-2.7,1.4l-4.7,7l0.8-8.3h-5.9l-10.3,15.2h5.7l5.5-9.1l-0.7,9.1h3.4c1,0,1.8-0.4,2.3-1.2l5.4-7.9l-1.2,9.1h9.1
				l1.7-2.6h6.1l-0.1,2.6h5.3L527,12.6"/>
		</g>
		<g>
			<path class="st2" d="M248.9,23.9c-0.3-0.1-0.8-0.1-1.3-0.1c-3.2,0-6.6,0-9.6,0c-0.1,0-0.2,0-0.3,0h-0.1c0,0,0,0-0.1,0
				c-0.3-0.1-0.6-0.2-0.8-0.3c0,0,0,0-0.1,0c-0.2-0.2-0.3-0.4-0.5-0.6c0,0,0,0,0-0.1c-0.1-0.1,0-0.4-0.1-0.5c0,0,0,0,0-0.1
				c0.1-0.1,0-0.4,0.1-0.5v-0.1c0.2-0.2,0.2-0.6,0.3-0.8c0-0.1,0.1-0.1,0.1-0.3c0.1,0,0.1-0.1,0.1-0.2c0,0,0,0,0-0.1
				c0.1,0,0.1-0.2,0.1-0.3c0-0.2,0.1-0.2,0.1-0.5c0-0.1,0.1-0.1,0.1-0.2c0.1-0.1,0.1-0.2,0.1-0.5c0.1,0,0.1-0.2,0.1-0.3
				c0-0.2,0.1-0.3,0.1-0.5c0,0,0.1,0,0.1-0.1c0.1-0.1,0.1-0.2,0.1-0.5c0.1-0.1,0.1-0.5,0.2-0.6c0-0.1,0.1-0.2,0.1-0.3
				c0.1-0.1,0.2-0.3,0.3-0.4c0.2,0,0.1-0.1,0.2-0.1c0,0,0.1,0,0.1-0.1c0.3,0,0.4-0.1,0.7-0.1c0.1,0,0.1,0,0.2,0c0,0,0,0,0.1,0
				c3.8,0,7.7,0.1,11.4-0.1c0.1-0.1,0.2-0.2,0.2-0.4c0.1-0.1,0.1-0.3,0.1-0.4c0-0.2,0.1-0.2,0.1-0.4c0-0.1,0.1-0.2,0.1-0.4
				c0-0.1-0.2,0-0.3-0.1c-0.9,0-1.8,0-2.7,0c-0.2,0-0.3,0-0.5,0c-3.9,0-7.8,0-11.8,0c-0.2,0-0.3,0-0.5,0c-0.4,0-0.8,0-1.2,0
				c-0.1,0-0.2,0-0.2,0.1h-0.1c0,0-0.1,0-0.1,0.1c0,0,0,0-0.1,0c-0.6,0.2-1.1,0.7-1.4,1.2c0,0.1-0.1,0.1-0.1,0.2
				c-0.1,0.2-0.2,0.5-0.2,0.7c0,0.1-0.1,0.1-0.1,0.3c0,0.1-0.1,0.2-0.1,0.4s-0.1,0.2-0.1,0.5c-0.1,0.2-0.1,0.5-0.2,0.8
				c0,0.1-0.1,0.1-0.1,0.2c0,0,0,0,0,0.1c0,0,0,0,0,0.1c-0.1,0.1-0.1,0.3-0.2,0.5c0,0.2-0.1,0.3-0.1,0.5c-0.1,0.3-0.2,0.7-0.3,1
				c0,0.2-0.2,0.3-0.1,0.6c-0.2,0.4-0.2,0.9-0.4,1.4c-0.1,0.3-0.1,0.9,0,1.2c0,0,0,0.1,0.1,0.1c0,0,0,0,0,0.1s0,0.2,0.1,0.3
				c0,0,0,0,0,0.1c0.1,0.1,0.1,0.3,0.3,0.4c0,0,0,0,0,0.1c0.1,0.2,0.3,0.3,0.5,0.5c0.1,0.1,0.3,0.2,0.5,0.2c0.2,0.1,0.4,0.2,0.7,0.2
				c0,0,0,0,0.1,0c0,0,0,0,0,0.1c5.3,0,10.6,0,15.8,0v-0.1c0,0,0.1,0,0.1-0.1c0.1,0,0.1-0.1,0.1-0.2c0,0,0,0,0-0.1
				c0.1-0.2,0.1-0.5,0.2-0.7c0,0,0,0,0-0.1c0.1-0.1,0.1-0.2,0.1-0.4c0,0,0,0,0-0.1c0,0,0.1,0,0.1-0.1C248.9,24,248.9,24,248.9,23.9
				C248.9,24,248.9,23.9,248.9,23.9z"/>
			<path class="st2" d="M294.8,16.2c0,0,0.1,0,0.1-0.1c0-0.3,0-0.6-0.1-0.8c-0.2-0.3-0.4-0.5-0.7-0.7c-0.4-0.2-0.8-0.3-1.3-0.3
				c-0.1,0-0.3,0-0.4,0c-0.2,0-0.3,0-0.5,0c-1.4,0-2.7,0-4.1,0c-1.2,0-2.4,0-3.6,0c-0.2,0-0.3,0-0.5,0c-0.6,0-1.2,0-1.8,0
				c-0.2,0-0.3,0-0.5,0c-1.4,0-2.7,0-4.1,0c-0.2,0-0.3,0-0.5,0c-0.4,0-0.9,0-1.3,0h-0.1c0,0,0,0,0,0.1c0,0-0.1,0-0.1,0.1
				c-0.1,0-0.1,0.2-0.2,0.3v0.1c0,0-0.1,0-0.1,0.1c0,0.2-0.1,0.3-0.1,0.5c-0.1,0.1-0.1,0.2-0.1,0.3s-0.1,0.2-0.1,0.3
				c-0.1,0.1-0.1,0.3-0.2,0.5c0,0,0,0,0,0.1c-0.1,0.1-0.1,0.2-0.1,0.3v0.1c0,0-0.1,0-0.1,0.1v0.1c-0.1,0.1-0.1,0.3-0.2,0.5
				c0,0.3-0.1,0.5-0.2,0.7s-0.1,0.4-0.2,0.6c0,0.1-0.1,0.1-0.1,0.2c-0.1,0.1-0.1,0.3-0.1,0.4c0,0,0,0,0,0.1
				c-0.1,0.1-0.1,0.2-0.1,0.3c-0.1,0.4-0.2,0.7-0.3,1.1c-0.1,0.2-0.1,0.4-0.2,0.6c0,0.1-0.1,0.1-0.1,0.2c-0.1,0.2-0.2,0.5-0.2,0.7
				s-0.1,0.3-0.1,0.5c-0.1,0-0.1,0.1-0.1,0.2c-0.1,0.3-0.1,0.6-0.2,0.8c-0.1,0.2-0.2,0.5-0.2,0.8l0,0c0,0,0,0,0,0.1
				c-0.1,0.2-0.2,0.4,0,0.5c5.9,0,11.8,0,17.7,0c0,0,0-0.1,0.1-0.1h0.1c0.3,0,0.5,0,0.7-0.1c0.4,0,0.7-0.2,1-0.3
				c0.6-0.3,1-0.8,1.2-1.5c0-0.1,0.1-0.1,0.1-0.2c0.1-0.2,0.2-0.4,0.2-0.6c0-0.1,0.1-0.2,0.1-0.3c0,0,0.1,0,0.1-0.1
				c0.1-0.3,0.2-0.5,0.2-0.9c0,0,0.1,0,0.1-0.1c0-0.2,0.1-0.3,0.1-0.5c0.1-0.3,0.2-0.7,0-0.9c0-0.1,0-0.1-0.1-0.2s-0.1-0.2-0.2-0.2
				c0,0-0.1,0-0.1-0.1c-0.1-0.1-0.3-0.2-0.4-0.3v-0.1c0.1-0.1,0.3-0.2,0.5-0.3s0.3-0.2,0.3-0.4c0-0.1,0.1-0.1,0.1-0.2
				c0.1-0.1,0.1-0.3,0.2-0.5c0,0,0,0,0-0.1s0.1-0.1,0.1-0.2C294.5,17.2,294.7,16.7,294.8,16.2z M272.8,25L272.8,25L272.8,25z
				 M272.8,25L272.8,25L272.8,25z M272.8,24.9L272.8,24.9L272.8,24.9z M272.8,25C272.8,24.9,272.8,24.9,272.8,25
				C272.8,24.9,272.8,24.9,272.8,25z M272.8,25L272.8,25L272.8,25z M272.8,25L272.8,25L272.8,25z M272.7,25
				C272.7,25,272.8,25,272.7,25C272.8,25,272.7,25,272.7,25z M272.7,25.1L272.7,25.1L272.7,25.1z M278.4,14.5L278.4,14.5L278.4,14.5
				z M289.3,18L289.3,18c-0.1,0.3-0.2,0.4-0.4,0.6c-0.7,0.3-1.5,0.2-2.3,0.2c-2.5,0-5.1,0-7.5,0c0-0.1,0.1-0.1,0.1-0.2
				s0.1-0.1,0.1-0.2c0.1-0.2,0.1-0.4,0.2-0.6c0-0.1,0.1-0.1,0.1-0.2s0.1-0.1,0.1-0.2s0.1-0.1,0.1-0.2s0.1-0.1,0.1-0.2
				s0.1-0.2,0.1-0.4c0.1-0.1,0-0.3,0.1-0.3c0-0.1,0-0.2,0.1-0.2c0,0,0,0,0.1,0c2.9,0,5.7,0,8.6,0c0.4,0,0.8,0,1,0.2
				C289.7,16.9,289.4,17.3,289.3,18z M288.5,23.2L288.5,23.2c-0.2,0.2-0.3,0.3-0.5,0.5c-0.2,0.1-0.3,0.1-0.5,0.2c0,0,0,0-0.1,0h-0.1
				c-2.1,0-4.3,0-6.3,0.1c-0.9,0-1.8,0-2.7,0c0,0,0,0-0.1,0c0,0,0,0-0.1,0H278h-0.1c-0.2-0.1,0.1-0.4,0.1-0.7
				c0.1-0.2,0.1-0.3,0.1-0.5c0.1-0.1,0.1-0.3,0.2-0.5v-0.1c0.1-0.2,0.1-0.5,0.2-0.7c0-0.1,0.1-0.2,0.1-0.3c0.1-0.1,0-0.3,0.2-0.3
				c0.5,0,0.9,0,1.4,0c0.2,0,0.3,0,0.5,0c2.6,0,5.3,0,7.9,0c0.1,0,0.1,0,0.2,0.1l0,0l0,0c0.2,0,0.2,0.2,0.3,0.2
				c0.1,0.1,0.1,0.2,0.1,0.4c0,0,0,0,0,0.1c-0.1,0.2-0.1,0.4-0.2,0.6v0.1c0,0-0.1,0-0.1,0.1c0,0,0,0,0,0.1
				C288.7,22.6,288.6,22.9,288.5,23.2z M288.8,20.6L288.8,20.6L288.8,20.6z M288.8,20.6L288.8,20.6L288.8,20.6z M288.8,20.6
				L288.8,20.6L288.8,20.6z M288.8,20.6L288.8,20.6L288.8,20.6z M288.7,20.6L288.7,20.6L288.7,20.6z M288.7,20.6L288.7,20.6
				L288.7,20.6z M288.7,20.7L288.7,20.7L288.7,20.7z M277.4,14.5L277.4,14.5L277.4,14.5z M278.3,14.5L278.3,14.5L278.3,14.5z
				 M278.4,14.5L278.4,14.5L278.4,14.5z M278.4,14.5L278.4,14.5L278.4,14.5z M278.4,14.5L278.4,14.5L278.4,14.5z M278.3,14.5
				c0.1,0,0.2,0,0.3,0C278.5,14.5,278.4,14.5,278.3,14.5z M277.9,14.5L277.9,14.5L277.9,14.5L277.9,14.5z M277.4,14.5
				c-0.6,0-1.2,0-1.7,0.1C276.3,14.6,276.8,14.5,277.4,14.5L277.4,14.5z M279.8,14.5c0.1,0,0.1,0,0.2,0
				C279.9,14.5,279.8,14.5,279.8,14.5z M280.5,14.5h0.1C280.6,14.5,280.6,14.5,280.5,14.5z M279,14.5c0.1,0,0.2,0,0.3,0
				C279.2,14.5,279.1,14.5,279,14.5z"/>
			<path class="st2" d="M306.3,14.2c-0.2,0-0.3,0-0.5,0c-0.8,0-1.5,0-2.3,0c-0.1,0-0.2,0-0.3,0h-0.1c-1.7,0-3.5-0.1-5.1,0.1
				c0,0-0.1,0-0.1,0.1c-0.1,0-0.2,0.1-0.3,0.1c-0.1,0.1-0.2,0.1-0.2,0.2c0,0,0,0-0.1,0c-0.1,0.1-0.2,0.2-0.3,0.3l0,0l0,0
				c-0.1,0.1-0.2,0.2-0.3,0.3l0,0l0,0c0,0.1-0.1,0.1-0.1,0.2c-0.1,0-0.1,0.1-0.1,0.2c0,0,0,0,0,0.1c-0.1,0-0.1,0.2-0.1,0.3
				c-0.1,0.1-0.1,0.2-0.1,0.3c-0.1,0-0.1,0.1-0.1,0.2s-0.1,0.1-0.1,0.2c-0.2,0.5-0.3,1.1-0.5,1.6c-0.1,0.3-0.2,0.6-0.2,1
				c-0.1,0.1-0.1,0.2-0.1,0.4c0,0,0,0,0,0.1c-0.1,0,0,0.2-0.1,0.3c0,0,0,0,0,0.1c-0.1,0.3-0.2,0.6-0.2,0.9c0,0,0,0,0,0.1
				c-0.1,0.1-0.1,0.4-0.2,0.6c0,0,0,0,0,0.1c-0.1,0.1-0.1,0.2-0.1,0.3c0,0,0,0,0,0.1c-0.1,0.1-0.1,0.4-0.2,0.6c0,0,0,0,0,0.1
				s-0.1,0.1-0.1,0.2v0.1c0,0-0.1,0-0.1,0.1c-0.1,0.3-0.2,0.9,0,1.2c0.1,0.2,0.2,0.5,0.4,0.6c0,0,0,0,0,0.1s0.1,0.1,0.2,0.2
				c0,0,0,0,0.1,0c0.1,0.1,0.1,0.2,0.2,0.2c0,0,0,0,0.1,0c0,0.1,0.2,0.1,0.3,0.2c0.2,0,0.3,0.2,0.6,0.2c0,0.2,0.3,0,0.3,0.1
				c5.5,0,11,0,16.6,0c0-0.1,0.1-0.1,0.1-0.1s0,0,0-0.1c0.1-0.2,0.1-0.5,0.2-0.7c0,0,0,0,0-0.1c0.1-0.3,0.2-0.6,0.2-1
				c-4.2-0.2-8.7,0.1-12.9-0.1c-0.1,0-0.1-0.1-0.2-0.1c-0.1-0.1-0.2-0.2-0.3-0.2c0-0.1,0-0.1-0.1-0.2c-0.1,0,0-0.2-0.1-0.2
				c0-0.1,0-0.1,0-0.2c0-0.2,0.1-0.3,0.1-0.5c0-0.1,0-0.1,0-0.2c0.1-0.1,0.1-0.2,0.1-0.4c0,0,0,0,0-0.1c0.1-0.1,0.1-0.3,0.2-0.5
				c0,0,0,0,0-0.1c0.1-0.2,0.1-0.5,0.3-0.6c4.6,0,9.3,0.1,13.7-0.1c0.1-0.1,0.1-0.3,0.2-0.4c0,0,0,0,0-0.1c0.1-0.2,0.1-0.4,0.2-0.6
				c0,0,0,0,0-0.1c0,0,0.1,0,0.1-0.1c0,0,0,0,0-0.1s0.1-0.1,0.1-0.2v-0.1c-0.1-0.1-0.4,0-0.6-0.1c-0.2,0-0.3,0-0.5,0
				c-4.2,0-8.5,0-12.7,0c0-0.1,0-0.1-0.1-0.1c0-0.1,0.1-0.1,0.1-0.2v-0.1c0,0,0.1,0,0.1-0.1v-0.1c0.1-0.2,0.2-0.5,0.2-0.7
				c0.1-0.3,0.2-0.6,0.3-0.9c0.1-0.1,0.2-0.2,0.3-0.3c0.1,0,0.1,0,0.2-0.1s0.3-0.1,0.4-0.2h0.1c0.3,0,0.4-0.1,0.7-0.1
				c1.8,0,3.7,0,5.5,0c0.2,0,0.3,0,0.5,0c2.1,0,4.1,0,6.2,0c0.2-0.1,0.2-0.3,0.2-0.6c0.1-0.1,0.1-0.3,0.2-0.5s0.2-0.3,0.2-0.6
				C313,14.2,309.6,14.3,306.3,14.2z M297.3,14.8L297.3,14.8L297.3,14.8z M297.3,14.8L297.3,14.8L297.3,14.8z M297.2,14.9
				c-0.1,0.1-0.1,0.2-0.2,0.1C297.2,15,297.2,14.9,297.2,14.9z M297.2,14.8C297.2,14.8,297.2,14.9,297.2,14.8
				C297.2,14.9,297.2,14.8,297.2,14.8z M297.1,14.9c0.1,0.1-0.2,0.2-0.3,0.3C296.9,15.1,297.2,15.1,297.1,14.9z"/>
			<path class="st2" d="M272.5,18.8c0.1-0.1,0.1-0.4,0.2-0.5c0,0,0,0,0-0.1c0.1-0.2,0.1-0.4,0.2-0.6c0,0,0,0,0-0.1
				c0,0,0.1,0,0.1-0.1s0.1-0.2,0.1-0.3c0.1-0.2,0.1-0.4,0.2-0.6c0-0.1,0.1-0.2,0.1-0.3c0.1-0.1,0.1-0.2,0.1-0.3s0.1-0.1,0.1-0.3
				c0.1-0.1,0.1-0.4,0.2-0.6v-0.1c0,0,0.1,0,0.1-0.1c0,0,0,0,0-0.1c0.1-0.1,0.2-0.5,0-0.6c-1.8,0-3.5,0-5.3,0c0,0,0,0,0,0.1
				c-0.2,0-0.2,0.1-0.2,0.3c0,0-0.1,0-0.1,0.1s-0.1,0.1-0.1,0.3c-0.1,0.3-0.2,0.7-0.3,1c0,0.2-0.1,0.3-0.1,0.6
				c-0.1,0-0.1,0.2-0.1,0.3v0.1c0,0-0.1,0-0.1,0.1v0.1c-0.1,0.1-0.1,0.3-0.2,0.5v0.1c-0.1,0.1-0.1,0.4-0.2,0.6
				c0,0.1-0.1,0.1-0.1,0.3c-0.1,0.1-0.1,0.2-0.1,0.4c0,0,0,0,0,0.1c-0.2,0.4-0.3,0.9-0.4,1.4v0.1c-0.1,0.1-0.1,0.3-0.2,0.5
				c0,0.1-0.1,0.1-0.1,0.3c0,0.1-0.1,0.1-0.1,0.2s-0.1,0.1-0.1,0.2c-0.1,0.2-0.1,0.4-0.2,0.6s-0.2,0.4-0.3,0.6
				c-0.2,0.3-0.5,0.5-0.8,0.7c-0.3,0-0.4,0.1-0.7,0.2c-0.2,0-0.4,0-0.6,0.1c-0.7,0-1.4,0-2,0c-0.2,0-0.3,0-0.5,0c-0.8,0-1.5,0-2.3,0
				c-0.3,0-0.6,0-0.9,0c-0.1,0-0.1,0-0.2,0s-0.1,0-0.2,0c0,0,0,0-0.1,0c0-0.1-0.2,0-0.3-0.1c-0.1-0.1-0.3-0.1-0.5-0.1
				c0,0,0-0.1-0.1-0.1c0,0,0,0-0.1,0c-0.1-0.1-0.2-0.2-0.4-0.3c0,0,0-0.1-0.1-0.1c0,0,0,0,0-0.1c-0.1-0.3-0.1-0.9-0.1-1.2
				s0.2-0.5,0.2-0.8c0,0,0.1,0,0.1-0.1c0.1-0.2,0.1-0.3,0.1-0.5c0.1,0,0.1-0.2,0.1-0.3c0-0.2,0.1-0.1,0.1-0.3
				c0.1-0.1,0.1-0.3,0.1-0.4s0.1-0.1,0.1-0.3c0.1-0.1,0.1-0.2,0.1-0.3s0.1-0.1,0.1-0.3c0-0.1,0.1-0.1,0.1-0.2
				c0.1-0.2,0.1-0.3,0.1-0.5c0.1-0.2,0.1-0.4,0.2-0.6c0,0,0,0,0-0.1c0.1-0.2,0.1-0.4,0.2-0.6c0.1-0.3,0.2-0.7,0.3-1.1
				c0.1-0.1,0.1-0.2,0.1-0.3v-0.1c0,0,0.1,0,0.1-0.1s0.1-0.2,0.1-0.3c0.1,0,0.2-0.3,0.1-0.3c0,0,0-0.1-0.1-0.1c0,0,0,0,0-0.1
				c-1.7,0-3.5,0-5.2,0c0,0,0,0,0,0.1c-0.1,0-0.2,0-0.2,0.2c-0.2,0.2-0.2,0.6-0.3,0.9c0,0,0,0,0,0.1c-0.1,0.2-0.2,0.4-0.2,0.7
				c0,0.1-0.1,0.2-0.1,0.4c-0.1,0-0.1,0.1-0.1,0.2c0,0,0,0,0,0.1c-0.1,0.1-0.1,0.2-0.1,0.3v0.1c0,0-0.1,0-0.1,0.1v0.1
				c-0.1,0.2-0.1,0.5-0.2,0.7v0.1c-0.2,0.2-0.2,0.6-0.3,0.9c0,0.1,0,0.1,0,0.2c-0.1,0.1-0.1,0.2-0.1,0.3c-0.1,0.2-0.2,0.4-0.2,0.7
				c-0.1,0.1-0.1,0.2-0.1,0.4c-0.1,0.2-0.2,0.4-0.2,0.7c-0.2,0.4-0.2,0.9-0.4,1.4c-0.1,0.3-0.1,0.9,0,1.2c0,0,0,0.1,0.1,0.1
				c0,0,0,0,0,0.1s0,0.2,0.1,0.3c0,0,0,0,0,0.1c0.1,0.1,0.1,0.3,0.3,0.4c0,0,0,0,0,0.1c0.1,0.2,0.3,0.3,0.5,0.5
				c0.1,0.1,0.3,0.2,0.5,0.2c0.2,0.1,0.4,0.2,0.7,0.2c0,0,0,0,0.1,0c0,0,0,0,0,0.1c5,0,10,0,15,0c0,0,0-0.1,0.1-0.1h0.1
				c0.1,0,0.3,0.1,0.3-0.1h0.1c0.2,0,0.4-0.1,0.5-0.2c0.3,0,0.4-0.2,0.6-0.2c0,0,0.1,0,0.1-0.1c0,0,0,0,0.1,0c0.5-0.3,0.9-0.6,1.2-1
				c0,0,0.1,0,0.1-0.1c0.2-0.2,0.4-0.4,0.5-0.7c0,0,0,0,0-0.1c0.2-0.1,0.2-0.4,0.3-0.7c0-0.1,0.1-0.1,0.1-0.3
				c0.1-0.2,0.1-0.5,0.2-0.8c0-0.1,0.1-0.1,0.1-0.2c0.1-0.2,0.1-0.4,0.2-0.6c0.1-0.5,0.3-0.9,0.3-1.4c0.1-0.1,0.1-0.2,0.1-0.3
				C272.5,19,272.5,19,272.5,18.8z M257.5,24L257.5,24L257.5,24z M257.3,24L257.3,24L257.3,24z M257.3,24
				C257.4,24,257.4,24,257.3,24C257.4,24,257.4,24,257.3,24z M257.4,24L257.4,24L257.4,24z M257.1,24L257.1,24L257.1,24z M257.1,24
				C257.1,24,257.2,24,257.1,24C257.2,24,257.1,24,257.1,24z M257.2,24L257.2,24L257.2,24z M257.2,24C257.2,24,257.3,24,257.2,24
				C257.3,24,257.2,24,257.2,24z M257.1,24L257.1,24L257.1,24z M257.9,24.1C257.9,24,257.9,24,257.9,24.1
				C257.9,24,257.9,24,257.9,24.1z M257.9,24.1c0,0-0.1,0-0.2,0l0,0C257.8,24.1,257.8,24.1,257.9,24.1z M257.9,24.1L257.9,24.1
				L257.9,24.1z M257.9,24.1L257.9,24.1L257.9,24.1z M257.7,24.1L257.7,24.1L257.7,24.1L257.7,24.1L257.7,24.1
				C257.7,24,257.8,24,257.7,24.1C257.8,24,257.7,24,257.7,24.1z M257.5,24C257.5,24,257.6,24,257.5,24C257.6,24,257.5,24,257.5,24z
				 M257.6,24L257.6,24L257.6,24z M257.6,24.1L257.6,24.1L257.6,24.1z M257.7,24L257.7,24L257.7,24z M257.7,24L257.7,24L257.7,24z
				 M257.7,24L257.7,24L257.7,24z M257.7,24L257.7,24L257.7,24z"/>
		</g>
		<g>
			<path class="st3" d="M178.4,19.5c-0.3,0.8-0.7,1.5-1,2.3c-0.7,1.5-1.3,3.1-2,4.6c-0.1,0.1-0.1,0.2-0.3,0.2c-1.8,0-3.5,0-5.3,0
				c-0.2,0-0.2,0-0.1-0.2c1.7-4.1,3.3-8.1,4.9-12.2c0.1-0.2,0.1-0.2,0.3-0.2c1,0,1.9,0,2.9,0c1.3,0,2.6,0,3.9,0c0.1,0,0.2,0,0.2,0.2
				c1.1,2.2,2.1,4.3,3.2,6.5l0,0c0.2-0.5,0.4-0.9,0.6-1.4c0.7-1.7,1.5-3.4,2.2-5.1c0-0.1,0.1-0.1,0.2-0.1c1.8,0,3.6,0,5.4,0
				c0,0,0,0,0.1,0c-0.2,0.6-0.5,1.2-0.7,1.8c-1.4,3.5-2.8,7.1-4.2,10.6c-0.1,0.2-0.1,0.2-0.3,0.2c-2.1,0-4.1,0-6.2,0
				c-0.2,0-0.2,0-0.3-0.2c-1.1-2.2-2.2-4.5-3.4-6.7C178.5,19.7,178.4,19.6,178.4,19.5z"/>
			<path class="st3" d="M135.4,21.9c-0.8,0-1.6,0-2.4,0c0-0.2,0.1-0.3,0.2-0.5c0.3-0.7,0.6-1.4,0.8-2.1c0-0.1,0.1-0.1,0.2-0.1
				c2.9,0,5.7,0,8.6,0l0,0c-0.1,0.2-0.1,0.4-0.2,0.6c-0.9,2.1-1.7,4.2-2.6,6.3c-0.1,0.1-0.1,0.2-0.2,0.1c-1.2-0.5-2.5-0.6-3.8-0.5
				c-1.3,0.2-2.6,0.5-3.9,0.8c-1.4,0.3-2.8,0.4-4.3,0.3c-1.2-0.1-2.4-0.2-3.5-0.6c-0.7-0.3-1.4-0.6-2-1.2c-0.7-0.7-0.9-1.5-0.9-2.5
				c0-1.4,0.4-2.6,1.1-3.7c1.6-2.5,3.8-4.1,6.6-4.8c1.4-0.4,2.9-0.6,4.4-0.7c2.5-0.1,5,0.2,7.4,0.8c0.8,0.2,1.5,0.7,2,1.3
				c0.4,0.6,0.5,1.2,0.4,1.9c0,0.2,0,0.5-0.1,0.6s-0.4,0-0.6,0c-1.9,0-3.8,0-5.7,0c-0.1,0-0.2,0-0.3-0.2c-0.3-0.7-0.8-1.1-1.5-1.2
				c-1.3-0.2-2.5-0.2-3.7,0.3c-1.8,0.8-2.9,2.2-3.3,4.1c-0.2,1,0.4,1.9,1.4,2.3c0.7,0.3,1.4,0.3,2.2,0.3c0.8-0.1,1.6-0.2,2.4-0.5
				C134.5,22.8,135,22.4,135.4,21.9z"/>
			<path class="st3" d="M198.5,17.3c-1.8,0-3.7,0-5.5,0c0.2-0.4,0.3-0.8,0.5-1.3c0.2-0.6,0.5-1.2,0.7-1.9c0.1-0.2,0.1-0.2,0.3-0.2
				c4.9,0,9.7,0,14.6,0c0.6,0,1.3,0,1.9,0c-0.1,0.4-0.3,0.8-0.4,1.1c-0.2,0.7-0.5,1.3-0.7,2c0,0.1-0.1,0.2-0.3,0.2
				c-1.7,0-3.4,0-5.1,0c-0.2,0-0.2,0-0.3,0.2c-1.2,3-2.4,5.9-3.5,8.9c-0.1,0.1-0.1,0.2-0.3,0.2c-1.8,0-3.6,0-5.4,0
				c-0.2,0-0.2,0-0.1-0.2c1.2-2.9,2.3-5.9,3.4-8.8C198.5,17.5,198.5,17.4,198.5,17.3z"/>
			<path class="st3" d="M152.5,14c-0.3,0.8-0.6,1.6-1,2.4c-1.3,3.4-2.7,6.7-4,10.1c-0.1,0.1-0.1,0.2-0.3,0.2c-1.9,0-3.8,0-5.7,0
				c-0.2,0-0.2,0-0.1-0.2c1.6-4.1,3.3-8.2,4.9-12.3c0-0.1,0.1-0.2,0.2-0.2C148.5,14,150.5,14,152.5,14L152.5,14z"/>
			<path class="st3" d="M168.8,26.5c-0.1-0.6-0.1-1.2-0.2-1.7c-0.1-1.1-0.2-2.2-0.3-3.3s-0.2-2.2-0.3-3.4s-0.3-2.5-0.4-3.7
				c0-0.2-0.1-0.2-0.2-0.2c-2.4,0-4.7,0-7.1,0h-0.1c-0.1,0-0.2,0-0.3,0.1c-2.2,2.3-4.4,4.6-6.6,7c-1.5,1.6-3.1,3.2-4.6,4.8
				c-0.2,0.2-0.4,0.5-0.7,0.7c0.1,0,0.1,0,0.1,0c2,0,4.1,0,6.1,0c0.1,0,0.2,0,0.2-0.1c0.4-0.4,0.7-0.8,1.1-1.3
				c0.1-0.1,0.2-0.1,0.3-0.1c0.5,0,1,0,1.5,0c1.6,0,3.2,0,4.8,0c0.1,0,0.2,0,0.2,0.2c0.1,0.4,0.2,0.7,0.2,1.1c0,0.1,0.1,0.2,0.2,0.2
				c2,0,4,0,6,0C168.8,26.6,168.9,26.6,168.8,26.5z M162.1,21.9c-1.1,0-2.3,0-3.4,0c1.1-1.3,2.3-2.7,3.4-4c0.1,0.4,0,0.8,0.1,1.2
				c0,0.9,0.1,1.7,0.1,2.6C162.2,21.8,162.2,21.9,162.1,21.9z"/>
		</g>
		<g>
			<path class="st2" d="M39.6,13.8c-0.1,0.3-0.3,0.5-0.4,0.7c-0.1,0.2-0.2,0.2-0.4,0.2c-1,0-2.1,0-3.1,0c-0.7,0-1.2,0.3-1.5,0.9
				c-0.5,1.3-1.1,2.5-1.6,3.8c1.1,0,2.1,0,3.1,0c0.5,0,0.4,0,0.3,0.4c-0.2,0.4-0.4,0.5-0.8,0.5c-0.9,0-1.7,0-2.6,0
				c-0.2,0-0.3,0.1-0.4,0.3c-0.5,1.2-1.1,2.5-1.6,3.7c-0.3,0.7-0.2,0.8,0.5,0.8c1.2,0,2.3,0,3.6,0c-0.1,0.3-0.3,0.6-0.4,0.9
				c-0.1,0.1-0.2,0.2-0.3,0.2c-1.9,0-3.7,0-5.6,0c-1,0-1.3-0.5-1-1.4c0.5-1.4,1.1-2.7,1.7-4.1c0.8-1.8,1.6-3.6,2.3-5.5
				c0.4-1,1.1-1.4,2.2-1.4C35.6,13.8,37.6,13.8,39.6,13.8z"/>
			<path class="st2" d="M92.9,13.8c-0.1,0.3-0.2,0.5-0.3,0.7c-0.1,0.2-0.3,0.2-0.5,0.2c-0.9,0-1.9,0-2.8,0s-1.5,0.3-1.8,1.2
				c-0.5,1.2-1,2.4-1.5,3.6c1.2,0,2.3,0,3.5,0c-0.1,0.7-0.4,0.9-1,0.9c-0.8,0-1.7,0-2.5,0c-0.2,0-0.3,0-0.4,0.2
				c-0.5,1.2-1.1,2.5-1.6,3.7c-0.3,0.7-0.2,0.8,0.5,0.8c1.2,0,2.4,0,3.6,0c-0.1,0.3-0.3,0.6-0.4,0.9c-0.1,0.2-0.2,0.2-0.3,0.2
				c-1.9,0-3.9,0-5.8,0c-0.6,0-0.9-0.4-0.8-1c0.2-0.8,0.6-1.5,0.9-2.3c1.1-2.6,2.2-5.1,3.3-7.6c0.4-1,1.1-1.4,2.2-1.4
				C89,13.8,90.9,13.8,92.9,13.8z"/>
			<path class="st2" d="M76,14.8C76,14.7,76,14.7,76,14.8c0.3-1,0.3-1,1.2-1c1.8,0,3.7,0,5.5,0c0.4,0,0.7,0,0.9,0.4
				c0.2,0.4-0.1,0.7-0.3,1c-1.3,1.5-2.7,2.9-4,4.4c-1.5,1.6-3,3.3-4.5,4.9l-0.1,0.1c-0.1,0.1-0.3,0.3-0.2,0.4
				c0.1,0.2,0.3,0.1,0.4,0.1c1.4,0,2.7,0,4.1,0c0.3,0,0.4,0,0.3,0.3c-0.3,0.8-0.3,0.8-1.1,0.8c-2.1,0-4.1,0-6.2,0
				c-0.4,0-0.8,0.1-1-0.4c-0.2-0.4,0.1-0.7,0.4-1c0.8-0.9,1.7-1.8,2.5-2.7c2.1-2.3,4.2-4.5,6.3-6.8c0.1-0.1,0.1-0.1,0.2-0.2
				c0.2-0.2,0.1-0.4-0.2-0.4c-0.7,0-1.4,0-2.1,0C77.4,14.8,76.7,14.8,76,14.8z"/>
			<path class="st2" d="M18,13.8c1,0,2.1,0,3.1,0c0.2,0,0.3,0,0.2,0.3c-0.2,0.5-0.4,0.7-1,0.7c-1.1-0.1-2.2,0-3.3,0
				c-0.4,0-0.7,0.1-0.9,0.5c-0.5,0.7-0.8,1.4-1,2.2c-0.1,0.5,0,0.8,0.4,1.2c0.7,0.6,1.3,1.2,2,1.7c0.5,0.5,0.6,1,0.4,1.7
				c-0.4,1.2-0.9,2.3-1.4,3.3c-0.4,0.8-1.1,1-1.9,1c-2,0-4,0-6,0c-0.2,0-0.3,0-0.2-0.3c0.2-0.6,0.6-0.9,1.3-0.8c1,0.1,2,0,3,0
				c0.4,0,0.8-0.1,1-0.5c0.5-0.9,0.9-1.9,1.3-2.8c0.2-0.5,0-0.9-0.4-1.3c-0.6-0.6-1.3-1.1-1.9-1.7c-0.6-0.6-0.7-0.8-0.4-1.6
				s0.6-1.5,0.9-2.3c0.3-0.8,0.9-1.2,1.8-1.2C16,13.8,17,13.8,18,13.8L18,13.8z"/>
			<path class="st2" d="M48.3,13.8c-0.1,0.3-0.2,0.5-0.3,0.7s-0.2,0.2-0.4,0.2c-1.1,0-2.2,0-3.3,0c-0.6,0-1,0.2-1.2,0.8
				c-1.3,3-2.6,6-3.9,9c-0.2,0.5-0.1,0.7,0.6,0.7c1,0,2.1,0,3.1,0c0.2,0,0.3,0,0.5,0c0,0.1,0,0.1,0,0.1C43,26.2,43,26.2,42,26.2
				c-1.6,0-3.2,0-4.9,0c-0.2,0-0.4,0-0.5,0c-0.4-0.1-0.7-0.4-0.7-0.8c0-0.3,0.1-0.6,0.2-0.9c1.4-3.2,2.8-6.4,4.1-9.7
				c0.3-0.8,1-1,1.7-1C44.1,13.8,46.2,13.8,48.3,13.8z"/>
			<path class="st2" d="M67.6,13.8c-0.6,1.5-1.2,2.9-1.8,4.3c-0.9,2.1-1.8,4.2-2.7,6.3c-0.2,0.6-0.1,0.8,0.5,0.8c0.8,0,1.6,0,2.4,0
				c0.3,0,0.3,0,0.2,0.3c-0.3,0.8-0.3,0.8-1.1,0.8c-1.4,0-2.8,0-4.2,0c-0.8,0-1.2-0.4-0.9-1.2c0.2-0.9,0.7-1.7,1-2.5
				c1.2-2.8,2.4-5.6,3.6-8.4c0.1-0.2,0.2-0.3,0.5-0.3C65.9,13.8,66.7,13.8,67.6,13.8z"/>
			<path class="st2" d="M75.1,13.8c-1.2,2.7-2.3,5.4-3.5,8.1c-0.6,1.3-1.1,2.7-1.7,4c-0.1,0.3-0.2,0.3-0.5,0.3c-0.8,0-1.7,0-2.6,0
				c0.2-0.6,0.5-1.1,0.7-1.7c1.5-3.4,3-6.8,4.4-10.2c0.2-0.4,0.4-0.5,0.8-0.5C73.6,13.8,74.3,13.8,75.1,13.8z"/>
			<path class="st2" d="M44.4,26.2c0.5-1.1,0.9-2.2,1.4-3.2c1.3-3,2.6-5.9,3.8-8.9c0.1-0.3,0.2-0.4,0.6-0.4c0.8,0,1.6,0,2.5,0
				c-0.4,0.9-0.8,1.8-1.1,2.7c-1.3,3.1-2.7,6.3-4,9.4c-0.1,0.3-0.3,0.4-0.6,0.4C46.1,26.2,45.3,26.2,44.4,26.2z"/>
			<path class="st2" d="M100.8,13.7c-2.1,0-4.1,0-6.2,0c-0.3,0-0.5,0.1-0.6,0.4c-1.1,2.5-2.1,5-3.2,7.6c-0.6,1.5-1.3,3-1.9,4.5
				c1.8,0,3.6,0,5.3,0c0.5,0,1,0,1.5,0c1.2,0.1,1.9-0.5,2.3-1.5c1-2.3,1.9-4.5,2.9-6.7c0.4-0.9,0.8-1.8,1.1-2.7
				C102.2,14.3,101.8,13.7,100.8,13.7z M98.9,15.5c-0.1,0.4-0.3,0.8-0.5,1.2c-1.1,2.5-2.2,4.9-3.2,7.4c-0.3,0.7-0.7,1-1.5,1
				c-0.5,0-1,0-1.5,0c0.5-1.1,0.9-2.1,1.3-3.1c1-2.3,2-4.6,2.9-6.9c0.1-0.2,0.2-0.3,0.5-0.3c0.5,0,1,0,1.5,0
				C98.9,14.8,99.1,15,98.9,15.5z"/>
			<path class="st2" d="M59.5,13.8c-0.6,0-1.2,0-1.8,0s-1,0.2-1.3,0.6c-0.2,0.2-0.3,0.4-0.5,0.6c-1.8,2.6-3.5,5.2-5.3,7.8
				c-0.7,1.1-1.5,2.2-2.3,3.4c0.8,0,1.6,0,2.3,0c0.3,0,0.4-0.1,0.6-0.3c1-1.5,1.9-3,2.9-4.4c0.1-0.2,0.2-0.3,0.4-0.3
				c0.6,0,1.2,0,1.7,0c0.2,0,0.3,0,0.2,0.2c-0.1,0.6-0.1,1.1-0.2,1.7C56.1,24,56,25,55.9,25.9c0,0.1,0,0.3,0.2,0.3
				c0.8,0,1.6,0,2.4,0c0.2,0,0.2,0,0.2-0.2c0.1-1,0.2-1.9,0.2-2.9c0.1-1.5,0.3-3,0.4-4.6c0.1-1.5,0.2-2.9,0.4-4.4
				C59.9,13.9,59.9,13.8,59.5,13.8z M56.7,20.1c0,0.1-0.1,0.2-0.2,0.2c-0.4,0-0.8,0-1.2,0c0.6-0.9,1.1-1.8,1.6-2.7H57
				C56.9,18.4,56.8,19.2,56.7,20.1z"/>
			<path class="st2" d="M28.7,13.8c-1.8,0-3.6,0-5.4,0c-0.3,0-0.5,0.1-0.6,0.4c-1.6,3.6-3.1,7.1-4.7,10.6c-0.2,0.5-0.4,0.9-0.6,1.5
				c0.8,0,1.6,0,2.4,0c0.3,0,0.4-0.1,0.5-0.3c0.5-1.2,1.1-2.5,1.6-3.7c0.1-0.2,0.2-0.3,0.5-0.4c1.3-0.2,2.6-0.3,3.8-0.5
				c0.7-0.1,1.4-0.4,1.8-1.1c0.8-1.6,1.5-3.1,2.1-4.8C30.3,14.4,29.8,13.8,28.7,13.8z M27,15.3c0,0.2-0.1,0.4-0.2,0.6
				c-0.5,1.2-0.9,2.4-1.5,3.6c-0.3,0.7-0.8,1.1-1.5,1.1c-0.4,0-0.8,0.2-1.2,0.2c0.3-0.7,0.6-1.3,0.9-2c0.5-1.3,1.1-2.5,1.6-3.8
				c0.1-0.2,0.2-0.3,0.4-0.3c0.4,0,0.7,0,1.1,0C26.9,14.7,27.1,14.9,27,15.3z"/>
		</g>
		<g>
			<polygon class="st2" points="712.4,15.2 728.9,15.2 728.9,17.5 717,17.5 717,18.9 728.2,18.9 728.2,20.9 717,20.9 717,22.4 
				729.1,22.4 729,24.7 712.4,24.7 			"/>
			<path class="st2" d="M731.1,15.2h6.9l8.9,6.9v-6.9h4.6v9.5h-6.8l-9-6.9v6.9h-4.6L731.1,15.2L731.1,15.2z"/>
			<path class="st2" d="M785.3,22.4c0,0,1.9,0,3.2-0.1c0.6,0,1-0.1,1.3-0.5c0.3-0.5,0.3-1.3,0.3-2.1v-4.5h4.6v5.1
				c0,1.4,0.1,2.3-0.5,3.1c-0.5,0.7-1.7,1.1-2.7,1.3c-0.7,0.1-4.9,0.1-6.2,0.1s-5.5,0-6.2-0.1c-1-0.2-2.2-0.6-2.7-1.3
				c-0.6-0.8-0.5-1.7-0.5-3.1v-5.1h4.6v4.5c0,0.8-0.1,1.6,0.3,2.1c0.3,0.4,0.7,0.5,1.3,0.5C783.4,22.4,785.3,22.4,785.3,22.4"/>
			<path class="st2" d="M826.8,17.5l-2.8,3.3h5.7C829.7,20.8,827,17.6,826.8,17.5 M823.9,15.2h5.9l8.1,9.5h-5.1l-1.5-1.6h-9.2
				l-1.5,1.6h-5C815.7,24.7,823.5,15.8,823.9,15.2"/>
			<path class="st2" d="M769.2,21c-0.3,1.3-1.8,1.3-3.4,1.3h-7.2v-4.8h7.2c1.6,0,3.1,0,3.4,1.3C769.2,19,769.2,20.9,769.2,21
				 M773.8,18.5c0-2.7-3-3.3-6.4-3.3H754v9.5h13.4c3.4,0,6.4-0.7,6.4-3.3C773.8,20.8,773.8,19.1,773.8,18.5"/>
			<path class="st2" d="M801.2,17.6v2.3h6.9c0.7,0,1,0.1,1.6-0.2c0.3-0.2,0.5-0.7,0.4-1.3c-0.2-0.9-1.2-0.8-2-0.8H801.2z
				 M796.5,15.2h10.3c2.2,0,4.5-0.1,6.2,0.4c0.7,0.2,1.3,0.7,1.6,1.4c0.4,0.9,0.3,2.3-0.2,3c-0.3,0.4-0.8,0.7-1.4,0.8
				c-0.2,0.1-0.6,0.1-0.6,0.1l0,0C812.6,21,813,21,813,21s0.7,0.2,1,0.4c1,0.6,0.8,1.7,0.8,3.3h-4.6c0-0.6,0.1-1.6-0.1-2
				c-0.3-0.5-1.5-0.5-2.4-0.5h-6.5v2.4h-4.7V15.2z"/>
		</g>
		<g>
			<path class="st2" d="M937,14.9c1.3,0.2,2.6,0.3,3.9,0.6c1.7,0.4,2.5,1.5,2.4,3.2c0,1.2-0.7,2-1.7,2.4c-0.4,0.2-0.9,0.3-1.5,0.6
				c1.2,1.2,2.4,2.4,3.7,3.7c-1.7,0-3.2,0-4.9,0c-1-1.1-2.2-2.4-3.2-3.5c-1.6,0-3,0-4.4,0c0,1.2,0,2.3,0,3.5c-1.6,0-3,0-4.6,0
				c0-0.2-0.1-0.4-0.1-0.6c0-3.1,0-6.2,0-9.2c0-0.2,0.1-0.5,0.1-0.7C930.2,14.9,933.6,14.9,937,14.9z M931.3,19.6c2.3,0,4.5,0,6.7,0
				c0.7,0,1.2-0.4,1.2-1.2s-0.5-1.1-1.3-1.1c-2,0-3.9,0-5.9,0c-0.2,0-0.4,0.1-0.7,0.1C931.3,18.1,931.3,18.9,931.3,19.6z"/>
			<path class="st2" d="M963.6,25.5c-1.5,0-3.1,0-4.6,0c-0.3-0.5-0.6-0.9-0.9-1.5c-1.8,0-3.6,0-5.4,0c-0.5-0.7-0.9-1.3-1.5-2.1
				c-0.7,1.2-1.4,2.4-2.1,3.5c-1.5,0-3,0-4.7,0c2-3.5,4-6.9,6-10.4c2.4,0,4.8,0,7.2,0c1.6,2.7,3.1,5.4,4.7,8.2
				c0.4,0.7,0.8,1.4,1.3,2C963.6,25.4,963.6,25.5,963.6,25.5z M954,17c-0.9,1.6-1.8,3.1-2.7,4.7c1.9,0,3.6,0,5.5,0
				C955.9,20.2,955,18.7,954,17z"/>
			<path class="st2" d="M857.5,25.4c1.9-3.2,3.7-6.3,5.6-9.5c0.1-0.2,0.3-0.5,0.4-0.7c2.4,0,4.7,0,7.2,0c2,3.4,3.9,6.8,6,10.4
				c-1.6,0-3.1,0-4.7,0c-0.3-0.4-0.6-0.9-0.9-1.4c-1.8,0-3.6,0-5.4,0c-0.5-0.7-0.9-1.3-1.5-2.1c-0.7,1.2-1.4,2.3-2.1,3.5
				c-1.5,0-3.1,0-4.6,0C857.5,25.5,857.5,25.4,857.5,25.4z M867.1,17c-0.9,1.6-1.8,3.1-2.7,4.7c1.9,0,3.6,0,5.4,0
				C868.9,20.2,868,18.7,867.1,17z"/>
			<path class="st2" d="M924.6,14.9c0.1,0.3,0.2,0.6,0.2,1c0,1.8-0.1,3.5,0,5.3c0.1,1.6-0.7,2.5-1.9,3.1c-1.9,1-3.9,1.2-6,1.3
				c-2.2,0-4.3,0-6.4-0.7c-0.6-0.2-1.1-0.4-1.6-0.7c-0.9-0.6-1.6-1.3-1.6-2.5c0-2.2,0.1-4.4,0.1-6.6c1.5,0,3,0,4.5,0
				c0,1.9,0.1,3.8,0,5.8c0,1.2,0.5,2,1.6,2.3c1.9,0.7,3.8,0.6,5.7-0.2c0.7-0.3,1-0.8,1-1.6c0-1.8,0-3.5,0-5.3c0-0.3,0.1-0.6,0.2-1
				C921.7,14.9,923.1,14.9,924.6,14.9z"/>
			<path class="st2" d="M905.5,14.9c0.1,0.7,0.1,1.4,0.2,2.2c-1.9,0-3.7,0-5.6,0c0,2.9,0,5.6,0,8.4c-1.7,0-3.4,0-5.1,0
				c0-2.8,0-5.5,0-8.4c-2,0-3.8,0-5.7,0c0-0.8,0-1.5,0-2.2C894.7,14.9,900.1,14.9,905.5,14.9z"/>
			<path class="st2" d="M877.9,25.5c0-3.5,0-6.9,0-10.4c1.7,0,3.3,0,5.1,0c0,2.7,0,5.5,0,8.3c2.9,0,5.6,0,8.4,0c0,0.7,0,1.4,0,2
				C886.9,25.5,882.4,25.5,877.9,25.5z"/>
		</g>
		<g>
			<path class="st2" d="M601.3,25.6h-8.2c-4.5,0-4.5-3.1-4.5-3.1v-5.3c0,0,0-3,3.6-3h9v2.5h-7.4c-2.2,0-2.1,1.9-2.1,1.9v2.5
				c0,0,0,2,2.1,2h7.5L601.3,25.6"/>
			<path class="st2" d="M616.4,17.6v8h-2.8h-1.2H604c-0.4,0-0.7-0.1-1-0.4s-0.5-0.6-0.5-1v-3.6c0-0.6,0.2-1,0.5-1.4
				c0.3-0.3,0.7-0.5,1.1-0.5h7.9c0.4,0,0.7,0.1,1,0.3c0.2,0.2,0.4,0.3,0.5,0.5v-1c0-0.3-0.1-1-0.4-1.3c-0.3-0.3-0.7-0.5-1.1-0.5
				h-9.5v-2.6H613C613,14.2,616.4,14.3,616.4,17.6 M613.1,22.1c0-1-0.9-1-0.9-1h-6c0,0-0.9,0-0.9,1c0,0,0,1,0.9,1h6
				C612.1,23.1,613.1,23.1,613.1,22.1"/>
			<path class="st2" d="M631.5,24v-3.5c0-1.7-1.9-1.8-1.9-1.8H622c-0.3,0-1,0-1-1s1-0.9,1-0.9h9v-2.5h-11.1c-0.5,0-1,0.2-1.3,0.6
				c-0.3,0.3-0.4,0.6-0.4,0.9v3.8c0,0-0.1,1.6,1.8,1.6h7.9c0,0,1,0,1,1s-1,0.9-1,0.9h-10.1v2.5H630c0.5,0,0.8-0.2,1.1-0.5
				C631.4,24.8,631.5,24.4,631.5,24"/>
			<path class="st2" d="M650,16.7h-5.5v8.8h-3V14.2h8.5V16.7z M640.7,25.6h-3v-8.8h-5.5v-2.5h8.5V25.6"/>
			<path class="st2" d="M650.9,22.5v-5.4c0,0,0.1-2.9,3.1-2.9h7.9c0,0,2.5,0,2.5,2.9v2.4c0,0.5-0.1,0.8-0.3,1.1
				c-0.3,0.4-0.7,0.6-1.3,0.6H654V22c0,0.3,0.1,0.5,0.3,0.7s0.4,0.3,0.7,0.3h9.3v2.5h-9.8C651,25.6,650.9,22.5,650.9,22.5
				 M661.4,17.7c0-0.9-1-1-1-1h-5.3c-1.2,0-1.2,1-1.2,1v1h7.4L661.4,17.7L661.4,17.7z"/>
			<path class="st2" d="M677.4,25.6H669c-3.5,0-3.3-2.8-3.3-2.8v-8.6h2.9v7.2c0,0,0,1.7,2,1.7h6.8V25.6"/>
			<path class="st2" d="M689.9,25.6h-8.4c-3.5,0-3.3-2.8-3.3-2.8v-8.6h2.9v7.1c0,0,0,1.8,2,1.8h6.8V25.6"/>
			<rect x="690.7" y="14.2" class="st2" width="2.9" height="11.4"/>
		</g>
		<g>
			<path class="st4" d="M429.7,16.1c0-1.9,0-3.7,0-5.5c1.2,0,2.3,0,3.5,0c0,5.6,0,11.2,0,16.8c-1.1,0-2.3,0-3.5,0
				c0-0.4,0-0.9-0.1-1.4c-1.8,1.6-3.8,1.8-5.9,1.3c-1.3-0.3-2.2-1.1-3-2.2c-1.8-2.5-1.5-6.3,0.6-8.7
				C423.3,14.3,426.3,14.1,429.7,16.1z M429.2,21c-0.1-0.5-0.1-0.9-0.2-1.4c-0.4-1.5-1.4-2.4-2.9-2.4s-2.6,0.8-2.9,2.4
				c-0.2,1-0.1,2.2,0.1,3.2c0.3,1.3,1.3,1.9,2.6,1.9C428,24.7,429.2,23.4,429.2,21z"/>
			<path class="st4" d="M377,14.7c1.2,0,2.3,0,3.5,0c0,0.6,0,1.1,0,1.9c0.6-0.5,1-0.9,1.5-1.2c1.7-1,4.7-0.8,6.2,0.4
				c0.8,0.6,1.3,1.5,1.3,2.6c0.1,3,0,6.1,0,9.2c-1.2,0-2.4,0-3.8,0c0-0.5,0-0.9,0-1.3c0-2,0-4,0-6c0-1.8-0.6-2.5-2-2.6
				c-1.8-0.1-2.9,0.7-3.1,2.5c-0.1,2.1-0.1,4.2-0.1,6.3c0,0.4,0,0.8,0,1.2c-1.3,0-2.4,0-3.6,0C377,23.2,377,19,377,14.7z"/>
			<path class="st4" d="M361.1,27.4c-1.3,0-2.4,0-3.6,0c0-0.5,0-0.9-0.1-1.4c-0.3,0.2-0.6,0.3-0.8,0.5c-1.6,1.1-3.3,1.2-5.1,0.7
				c-1.5-0.4-2.4-1.6-2.5-3.1c-0.1-1.6,0.5-3,2-3.5c1.4-0.5,2.9-0.6,4.4-1c0.5-0.1,1-0.2,1.5-0.4c0.7-0.3,0.7-1.3,0-1.7
				c-1.4-0.9-3.5-0.3-4.1,1.3c-1.1,0-2.2,0-3.4,0c0.1-1.6,0.7-2.9,2.2-3.5c2.7-1.1,5.3-1,7.9,0.2c0.9,0.4,1.3,1.2,1.4,2.2
				c0,0.4,0.1,0.8,0.1,1.2C361.1,21.8,361.1,24.6,361.1,27.4z M357.1,21.3c-1.3,0.3-2.7,0.6-4,0.9c-0.7,0.2-1.1,0.8-1,1.6
				s0.6,1.2,1.3,1.3C355.3,25.3,357.7,24.1,357.1,21.3z"/>
			<path class="st4" d="M438.3,18.9c-1.1,0-2.2,0-3.3,0c-0.1-1.5,0.7-3,2.2-3.6c2.6-1,5.2-0.9,7.8,0.3c1,0.5,1.5,1.4,1.5,2.5
				c0,3,0,6.1,0,9.1c0,0.1-0.1,0.1-0.1,0.2c-1.1,0-2.2,0-3.5,0c0-0.4-0.1-0.9-0.1-1.5c-1.5,1.2-3,1.7-4.8,1.5
				c-2.4-0.2-3.7-1.7-3.5-4c0.1-1.5,0.9-2.5,2.3-2.9c1.3-0.4,2.7-0.5,4.1-0.8c0.5-0.1,1-0.2,1.5-0.4c0.3-0.1,0.5-0.6,0.5-0.8
				c0-0.3-0.3-0.7-0.5-0.9C440.9,16.7,439,17.3,438.3,18.9z M442.6,21.3c-1.3,0.3-2.6,0.5-3.9,0.9c-0.8,0.2-1.2,0.8-1.1,1.7
				s0.7,1.2,1.5,1.2C441.4,25.3,442.9,23.8,442.6,21.3z"/>
			<path class="st4" d="M405.8,14.7c1.2,0,2.3,0,3.5,0c0,0.6,0,1.1,0,1.7c0.2-0.1,0.3-0.1,0.3-0.1c1.5-2.1,4.7-2,6.5-1.2
				c1.4,0.6,2.2,1.7,2.2,3.1c0.1,3,0,6,0,9.1c-1.3,0-2.5,0-3.8,0c0-1.1,0-2.3,0-3.4c0-1.4,0-2.7,0-4.1c0-1.6-0.6-2.3-1.9-2.5
				c-1.7-0.2-2.9,0.6-3.2,2.1c-0.2,1.2-0.1,2.3-0.2,3.5c0,1.4,0,2.8,0,4.3c-1.2,0-2.4,0-3.6,0C405.8,23.2,405.8,19,405.8,14.7z"/>
			<path class="st4" d="M375.3,27.4c-1.3,0-2.5,0-3.8,0c0-1.3,0-2.5,0-3.7c0-1.3,0-2.6,0-3.9c0-1.5-0.5-2.2-1.7-2.4
				c-1.5-0.3-2.8,0.3-3.2,1.6c-0.2,0.7-0.3,1.4-0.3,2.2c0,2.1,0,4.1,0,6.2c-1.3,0-2.4,0-3.6,0c0-4.2,0-8.4,0-12.7c1.2,0,2.3,0,3.5,0
				c0,0.6,0,1.1,0,1.7c0.1,0,0.2,0.1,0.2,0c1.8-2.1,4.1-2.1,6.4-1.3c1.5,0.5,2.4,1.7,2.4,3.3C375.3,21.4,375.3,24.3,375.3,27.4z"/>
			<path class="st4" d="M397.7,27.5c-3.6,0-5.8-1.5-6.7-4.5c-1.2-4.4,1.7-8.2,6.2-8.3c2.1,0,4.2,0.2,5.6,2c1.9,2.2,2.2,4.7,1.1,7.3
				C402.8,26.6,400.5,27.5,397.7,27.5z M400.8,21.1c0-1.7-0.6-3-1.8-3.5c-1.7-0.8-3.7,0-4.3,1.7c-0.9,2.3,0,4.9,1.9,5.4
				C399.1,25.4,400.8,23.9,400.8,21.1z"/>
			<path class="st4" d="M464.8,23.5c-0.5,1.8-1.6,2.9-3.1,3.5c-1.6,0.6-3.3,0.7-4.9,0.1c-2.9-1-4.1-3.2-3.8-6.8
				c0.4-5.5,5.5-6.6,8.9-5.1c1.9,0.9,2.7,2.5,3,4.5c0.1,0.7,0,1.3,0,2.2c-1.4,0-2.8,0-4.3,0c-1.4,0-2.9,0-4.3,0
				c0,1.4,0.5,2.3,1.6,2.7c1.1,0.5,2.5,0.3,3.2-0.5c0.4-0.6,0.9-0.6,1.5-0.6C463.2,23.5,463.9,23.5,464.8,23.5z M461.5,19.8
				c-0.1-1.6-1.2-2.6-2.8-2.5c-1.4,0.1-2.4,1.1-2.4,2.5C458.1,19.8,459.8,19.8,461.5,19.8z"/>
			<path class="st4" d="M344.3,22.7c1.2,0,2.2,0,3.3,0c0.1,1.6-1.3,3.7-3.1,4.3c-1.8,0.7-3.7,0.7-5.5,0c-2.4-0.9-3.2-3-3.3-5.4
				c0-1.1,0.1-2.2,0.4-3.2c0.9-2.9,3.8-4.3,7.3-3.7c2.7,0.5,4,1.8,4.2,4.1c-1.1,0-2.1,0-3.2,0c-0.2,0-0.4-0.2-0.5-0.4
				c-0.5-0.9-1.2-1.1-2.1-1.1c-1,0-1.7,0.4-2.1,1.3c-0.6,1.5-0.6,3.1-0.1,4.6c0.4,1,1.2,1.5,2.3,1.5c1.1,0,1.7-0.5,2.1-1.6
				C344.2,23.1,344.3,22.9,344.3,22.7z"/>
			<path class="st4" d="M451.7,27.5c-0.9,0-1.8,0-2.6,0c-0.3,0-0.5,0-0.9,0c0-5.7,0-11.3,0-16.9c1.2,0,2.3,0,3.5,0
				C451.7,16.2,451.7,21.7,451.7,27.5z"/>
		</g>
	</g>
</g>
</svg>
