<?xml version="1.0" encoding="UTF-8" standalone="no"?>
<!-- Created with Inkscape (http://www.inkscape.org/) -->

<svg
   xmlns:dc="http://purl.org/dc/elements/1.1/"
   xmlns:cc="http://creativecommons.org/ns#"
   xmlns:rdf="http://www.w3.org/1999/02/22-rdf-syntax-ns#"
   xmlns:svg="http://www.w3.org/2000/svg"
   xmlns="http://www.w3.org/2000/svg"
   xmlns:sodipodi="http://sodipodi.sourceforge.net/DTD/sodipodi-0.dtd"
   xmlns:inkscape="http://www.inkscape.org/namespaces/inkscape"
   width="28.07229mm"
   height="2.8310416mm"
   viewBox="0 0 28.07229 2.8310416"
   version="1.1"
   id="svg574"
   inkscape:version="0.92.4 (5da689c313, 2019-01-14)"
   sodipodi:docname="altura.svg">
  <defs
     id="defs568" />
  <sodipodi:namedview
     id="base"
     pagecolor="#ffffff"
     bordercolor="#666666"
     borderopacity="1.0"
     inkscape:pageopacity="0.0"
     inkscape:pageshadow="2"
     inkscape:zoom="0.35"
     inkscape:cx="41.621434"
     inkscape:cy="159.63572"
     inkscape:document-units="mm"
     inkscape:current-layer="layer1"
     showgrid="false"
     inkscape:window-width="1304"
     inkscape:window-height="745"
     inkscape:window-x="-8"
     inkscape:window-y="-8"
     inkscape:window-maximized="1" />
  <metadata
     id="metadata571">
    <rdf:RDF>
      <cc:Work
         rdf:about="">
        <dc:format>image/svg+xml</dc:format>
        <dc:type
           rdf:resource="http://purl.org/dc/dcmitype/StillImage" />
        <dc:title></dc:title>
      </cc:Work>
    </rdf:RDF>
  </metadata>
  <g
     inkscape:label="Layer 1"
     inkscape:groupmode="layer"
     id="layer1"
     transform="translate(-94.820995,-188.23924)">
    <g
       transform="matrix(0.26458333,0,0,0.26458333,-132.05921,184.29695)"
       id="g224"
       style="fill:#000080">
      <path
         inkscape:connector-curvature="0"
         class="st2"
         d="m 937,14.9 c 1.3,0.2 2.6,0.3 3.9,0.6 1.7,0.4 2.5,1.5 2.4,3.2 0,1.2 -0.7,2 -1.7,2.4 -0.4,0.2 -0.9,0.3 -1.5,0.6 1.2,1.2 2.4,2.4 3.7,3.7 -1.7,0 -3.2,0 -4.9,0 -1,-1.1 -2.2,-2.4 -3.2,-3.5 -1.6,0 -3,0 -4.4,0 0,1.2 0,2.3 0,3.5 -1.6,0 -3,0 -4.6,0 0,-0.2 -0.1,-0.4 -0.1,-0.6 0,-3.1 0,-6.2 0,-9.2 0,-0.2 0.1,-0.5 0.1,-0.7 3.5,0 6.9,0 10.3,0 z m -5.7,4.7 c 2.3,0 4.5,0 6.7,0 0.7,0 1.2,-0.4 1.2,-1.2 0,-0.8 -0.5,-1.1 -1.3,-1.1 -2,0 -3.9,0 -5.9,0 -0.2,0 -0.4,0.1 -0.7,0.1 0,0.7 0,1.5 0,2.2 z"
         id="path212"
         style="fill:#000080" />
      <path
         inkscape:connector-curvature="0"
         class="st2"
         d="m 963.6,25.5 c -1.5,0 -3.1,0 -4.6,0 -0.3,-0.5 -0.6,-0.9 -0.9,-1.5 -1.8,0 -3.6,0 -5.4,0 -0.5,-0.7 -0.9,-1.3 -1.5,-2.1 -0.7,1.2 -1.4,2.4 -2.1,3.5 -1.5,0 -3,0 -4.7,0 2,-3.5 4,-6.9 6,-10.4 2.4,0 4.8,0 7.2,0 1.6,2.7 3.1,5.4 4.7,8.2 0.4,0.7 0.8,1.4 1.3,2 0,0.2 0,0.3 0,0.3 z M 954,17 c -0.9,1.6 -1.8,3.1 -2.7,4.7 1.9,0 3.6,0 5.5,0 -0.9,-1.5 -1.8,-3 -2.8,-4.7 z"
         id="path214"
         style="fill:#000080" />
      <path
         inkscape:connector-curvature="0"
         class="st2"
         d="m 857.5,25.4 c 1.9,-3.2 3.7,-6.3 5.6,-9.5 0.1,-0.2 0.3,-0.5 0.4,-0.7 2.4,0 4.7,0 7.2,0 2,3.4 3.9,6.8 6,10.4 -1.6,0 -3.1,0 -4.7,0 -0.3,-0.4 -0.6,-0.9 -0.9,-1.4 -1.8,0 -3.6,0 -5.4,0 -0.5,-0.7 -0.9,-1.3 -1.5,-2.1 -0.7,1.2 -1.4,2.3 -2.1,3.5 -1.5,0 -3.1,0 -4.6,0 0,-0.1 0,-0.2 0,-0.2 z m 9.6,-8.4 c -0.9,1.6 -1.8,3.1 -2.7,4.7 1.9,0 3.6,0 5.4,0 -0.9,-1.5 -1.8,-3 -2.7,-4.7 z"
         id="path216"
         style="fill:#000080" />
      <path
         inkscape:connector-curvature="0"
         class="st2"
         d="m 924.6,14.9 c 0.1,0.3 0.2,0.6 0.2,1 0,1.8 -0.1,3.5 0,5.3 0.1,1.6 -0.7,2.5 -1.9,3.1 -1.9,1 -3.9,1.2 -6,1.3 -2.2,0 -4.3,0 -6.4,-0.7 -0.6,-0.2 -1.1,-0.4 -1.6,-0.7 -0.9,-0.6 -1.6,-1.3 -1.6,-2.5 0,-2.2 0.1,-4.4 0.1,-6.6 1.5,0 3,0 4.5,0 0,1.9 0.1,3.8 0,5.8 0,1.2 0.5,2 1.6,2.3 1.9,0.7 3.8,0.6 5.7,-0.2 0.7,-0.3 1,-0.8 1,-1.6 0,-1.8 0,-3.5 0,-5.3 0,-0.3 0.1,-0.6 0.2,-1 1.3,-0.2 2.7,-0.2 4.2,-0.2 z"
         id="path218"
         style="fill:#000080" />
      <path
         inkscape:connector-curvature="0"
         class="st2"
         d="m 905.5,14.9 c 0.1,0.7 0.1,1.4 0.2,2.2 -1.9,0 -3.7,0 -5.6,0 0,2.9 0,5.6 0,8.4 -1.7,0 -3.4,0 -5.1,0 0,-2.8 0,-5.5 0,-8.4 -2,0 -3.8,0 -5.7,0 0,-0.8 0,-1.5 0,-2.2 5.4,0 10.8,0 16.2,0 z"
         id="path220"
         style="fill:#000080" />
      <path
         inkscape:connector-curvature="0"
         class="st2"
         d="m 877.9,25.5 c 0,-3.5 0,-6.9 0,-10.4 1.7,0 3.3,0 5.1,0 0,2.7 0,5.5 0,8.3 2.9,0 5.6,0 8.4,0 0,0.7 0,1.4 0,2 -4.5,0.1 -9,0.1 -13.5,0.1 z"
         id="path222"
         style="fill:#000080" />
    </g>
  </g>
</svg>
