<?xml version="1.0" encoding="UTF-8" standalone="no"?>
<!-- Created with Inkscape (http://www.inkscape.org/) -->

<svg
   xmlns:dc="http://purl.org/dc/elements/1.1/"
   xmlns:cc="http://creativecommons.org/ns#"
   xmlns:rdf="http://www.w3.org/1999/02/22-rdf-syntax-ns#"
   xmlns:svg="http://www.w3.org/2000/svg"
   xmlns="http://www.w3.org/2000/svg"
   xmlns:sodipodi="http://sodipodi.sourceforge.net/DTD/sodipodi-0.dtd"
   xmlns:inkscape="http://www.inkscape.org/namespaces/inkscape"
   width="7.2495832mm"
   height="3.8099999mm"
   viewBox="0 0 7.2495832 3.8099999"
   version="1.1"
   id="svg542"
   inkscape:version="0.92.4 (5da689c313, 2019-01-14)"
   sodipodi:docname="APR.svg">
  <defs
     id="defs536" />
  <sodipodi:namedview
     id="base"
     pagecolor="#ffffff"
     bordercolor="#666666"
     borderopacity="1.0"
     inkscape:pageopacity="0.0"
     inkscape:pageshadow="2"
     inkscape:zoom="0.35"
     inkscape:cx="-20.585719"
     inkscape:cy="235.77141"
     inkscape:document-units="mm"
     inkscape:current-layer="layer1"
     showgrid="false"
     inkscape:window-width="1600"
     inkscape:window-height="837"
     inkscape:window-x="-8"
     inkscape:window-y="-8"
     inkscape:window-maximized="1" />
  <metadata
     id="metadata539">
    <rdf:RDF>
      <cc:Work
         rdf:about="">
        <dc:format>image/svg+xml</dc:format>
        <dc:type
           rdf:resource="http://purl.org/dc/dcmitype/StillImage" />
        <dc:title></dc:title>
      </cc:Work>
    </rdf:RDF>
  </metadata>
  <g
     inkscape:label="Layer 1"
     inkscape:groupmode="layer"
     id="layer1"
     transform="translate(-111.27997,-207.40452)">
    <g
       transform="matrix(0.26458333,0,0,0.26458333,101.94018,197.72077)"
       id="g350">
      <path
         class="st13"
         d="m 40.7,51 c -3,0 -5.4,-3.3 -5.4,-7.2 0,-4 2.4,-7.2 5.4,-7.2 3,0 5.4,3.3 5.4,7.2 0,4 -2.4,7.2 -5.4,7.2 z m 0,-13 c -2.2,0 -3.9,2.6 -3.9,5.7 0,3.2 1.8,5.7 3.9,5.7 2.1,0 3.9,-2.6 3.9,-5.7 0,-3.1 -1.7,-5.7 -3.9,-5.7 z"
         id="path342"
         inkscape:connector-curvature="0"
         style="fill:#434343" />
      <rect
         x="46.400002"
         y="43"
         transform="matrix(0.7072,-0.707,0.707,0.7072,-14.7793,51.8018)"
         class="st13"
         width="17.5"
         height="1.5"
         id="rect344"
         style="fill:#434343" />
      <path
         class="st13"
         d="m 51.1,43.9 c -1.9,0 -3.5,-1.6 -3.5,-3.5 0,-1.9 1.6,-3.5 3.5,-3.5 1.9,0 3.5,1.6 3.5,3.5 0,1.9 -1.6,3.5 -3.5,3.5 z m 0,-5.6 c -1.1,0 -2,0.9 -2,2 0,1.1 0.9,2 2,2 1.1,0 2,-0.9 2,-2 0,-1.1 -0.9,-2 -2,-2 z"
         id="path346"
         inkscape:connector-curvature="0"
         style="fill:#434343" />
      <path
         class="st13"
         d="m 59.2,50.7 c -1.9,0 -3.5,-1.6 -3.5,-3.5 0,-1.9 1.6,-3.5 3.5,-3.5 1.9,0 3.5,1.6 3.5,3.5 0,1.9 -1.6,3.5 -3.5,3.5 z m 0,-5.5 c -1.1,0 -2,0.9 -2,2 0,1.1 0.9,2 2,2 1.1,0 2,-0.9 2,-2 0,-1.1 -0.9,-2 -2,-2 z"
         id="path348"
         inkscape:connector-curvature="0"
         style="fill:#434343" />
    </g>
  </g>
</svg>
