<?xml version="1.0" encoding="UTF-8" standalone="no"?>
<!-- Created with Inkscape (http://www.inkscape.org/) -->

<svg
   xmlns:dc="http://purl.org/dc/elements/1.1/"
   xmlns:cc="http://creativecommons.org/ns#"
   xmlns:rdf="http://www.w3.org/1999/02/22-rdf-syntax-ns#"
   xmlns:svg="http://www.w3.org/2000/svg"
   xmlns="http://www.w3.org/2000/svg"
   xmlns:sodipodi="http://sodipodi.sourceforge.net/DTD/sodipodi-0.dtd"
   xmlns:inkscape="http://www.inkscape.org/namespaces/inkscape"
   width="34.195927mm"
   height="5.555625mm"
   viewBox="0 0 34.195927 5.555625"
   version="1.1"
   id="svg484"
   inkscape:version="0.92.4 (5da689c313, 2019-01-14)"
   sodipodi:docname="cano.svg">
  <defs
     id="defs478" />
  <sodipodi:namedview
     id="base"
     pagecolor="#ffffff"
     bordercolor="#666666"
     borderopacity="1.0"
     inkscape:pageopacity="0.0"
     inkscape:pageshadow="2"
     inkscape:zoom="0.51313131"
     inkscape:cx="44.329758"
     inkscape:cy="101.23844"
     inkscape:document-units="mm"
     inkscape:current-layer="layer1"
     showgrid="false"
     inkscape:window-width="1304"
     inkscape:window-height="745"
     inkscape:window-x="-8"
     inkscape:window-y="-8"
     inkscape:window-maximized="1" />
  <metadata
     id="metadata481">
    <rdf:RDF>
      <cc:Work
         rdf:about="">
        <dc:format>image/svg+xml</dc:format>
        <dc:type
           rdf:resource="http://purl.org/dc/dcmitype/StillImage" />
        <dc:title></dc:title>
      </cc:Work>
    </rdf:RDF>
  </metadata>
  <g
     inkscape:label="Layer 1"
     inkscape:groupmode="layer"
     id="layer1"
     transform="translate(-93.271085,-169.73038)">
    <g
       transform="matrix(0.26458333,0,0,0.32489035,4.450461,166.28654)"
       id="g264"
       style="fill:#008000">
      <path
         inkscape:connector-curvature="0"
         class="st4"
         d="m 429.7,16.1 c 0,-1.9 0,-3.7 0,-5.5 1.2,0 2.3,0 3.5,0 0,5.6 0,11.2 0,16.8 -1.1,0 -2.3,0 -3.5,0 0,-0.4 0,-0.9 -0.1,-1.4 -1.8,1.6 -3.8,1.8 -5.9,1.3 -1.3,-0.3 -2.2,-1.1 -3,-2.2 -1.8,-2.5 -1.5,-6.3 0.6,-8.7 2,-2.1 5,-2.3 8.4,-0.3 z m -0.5,4.9 c -0.1,-0.5 -0.1,-0.9 -0.2,-1.4 -0.4,-1.5 -1.4,-2.4 -2.9,-2.4 -1.5,0 -2.6,0.8 -2.9,2.4 -0.2,1 -0.1,2.2 0.1,3.2 0.3,1.3 1.3,1.9 2.6,1.9 2.1,0 3.3,-1.3 3.3,-3.7 z"
         id="path244"
         style="fill:#008000" />
      <path
         inkscape:connector-curvature="0"
         class="st4"
         d="m 377,14.7 c 1.2,0 2.3,0 3.5,0 0,0.6 0,1.1 0,1.9 0.6,-0.5 1,-0.9 1.5,-1.2 1.7,-1 4.7,-0.8 6.2,0.4 0.8,0.6 1.3,1.5 1.3,2.6 0.1,3 0,6.1 0,9.2 -1.2,0 -2.4,0 -3.8,0 0,-0.5 0,-0.9 0,-1.3 0,-2 0,-4 0,-6 0,-1.8 -0.6,-2.5 -2,-2.6 -1.8,-0.1 -2.9,0.7 -3.1,2.5 -0.1,2.1 -0.1,4.2 -0.1,6.3 0,0.4 0,0.8 0,1.2 -1.3,0 -2.4,0 -3.6,0 0.1,-4.5 0.1,-8.7 0.1,-13 z"
         id="path246"
         style="fill:#008000" />
      <path
         inkscape:connector-curvature="0"
         class="st4"
         d="m 361.1,27.4 c -1.3,0 -2.4,0 -3.6,0 0,-0.5 0,-0.9 -0.1,-1.4 -0.3,0.2 -0.6,0.3 -0.8,0.5 -1.6,1.1 -3.3,1.2 -5.1,0.7 -1.5,-0.4 -2.4,-1.6 -2.5,-3.1 -0.1,-1.6 0.5,-3 2,-3.5 1.4,-0.5 2.9,-0.6 4.4,-1 0.5,-0.1 1,-0.2 1.5,-0.4 0.7,-0.3 0.7,-1.3 0,-1.7 -1.4,-0.9 -3.5,-0.3 -4.1,1.3 -1.1,0 -2.2,0 -3.4,0 0.1,-1.6 0.7,-2.9 2.2,-3.5 2.7,-1.1 5.3,-1 7.9,0.2 0.9,0.4 1.3,1.2 1.4,2.2 0,0.4 0.1,0.8 0.1,1.2 0.1,2.9 0.1,5.7 0.1,8.5 z m -4,-6.1 c -1.3,0.3 -2.7,0.6 -4,0.9 -0.7,0.2 -1.1,0.8 -1,1.6 0.1,0.8 0.6,1.2 1.3,1.3 1.9,0.2 4.3,-1 3.7,-3.8 z"
         id="path248"
         style="fill:#008000" />
      <path
         inkscape:connector-curvature="0"
         class="st4"
         d="m 438.3,18.9 c -1.1,0 -2.2,0 -3.3,0 -0.1,-1.5 0.7,-3 2.2,-3.6 2.6,-1 5.2,-0.9 7.8,0.3 1,0.5 1.5,1.4 1.5,2.5 0,3 0,6.1 0,9.1 0,0.1 -0.1,0.1 -0.1,0.2 -1.1,0 -2.2,0 -3.5,0 0,-0.4 -0.1,-0.9 -0.1,-1.5 -1.5,1.2 -3,1.7 -4.8,1.5 -2.4,-0.2 -3.7,-1.7 -3.5,-4 0.1,-1.5 0.9,-2.5 2.3,-2.9 1.3,-0.4 2.7,-0.5 4.1,-0.8 0.5,-0.1 1,-0.2 1.5,-0.4 0.3,-0.1 0.5,-0.6 0.5,-0.8 0,-0.3 -0.3,-0.7 -0.5,-0.9 -1.5,-0.9 -3.4,-0.3 -4.1,1.3 z m 4.3,2.4 c -1.3,0.3 -2.6,0.5 -3.9,0.9 -0.8,0.2 -1.2,0.8 -1.1,1.7 0.1,0.9 0.7,1.2 1.5,1.2 2.3,0.2 3.8,-1.3 3.5,-3.8 z"
         id="path250"
         style="fill:#008000" />
      <path
         inkscape:connector-curvature="0"
         class="st4"
         d="m 405.8,14.7 c 1.2,0 2.3,0 3.5,0 0,0.6 0,1.1 0,1.7 0.2,-0.1 0.3,-0.1 0.3,-0.1 1.5,-2.1 4.7,-2 6.5,-1.2 1.4,0.6 2.2,1.7 2.2,3.1 0.1,3 0,6 0,9.1 -1.3,0 -2.5,0 -3.8,0 0,-1.1 0,-2.3 0,-3.4 0,-1.4 0,-2.7 0,-4.1 0,-1.6 -0.6,-2.3 -1.9,-2.5 -1.7,-0.2 -2.9,0.6 -3.2,2.1 -0.2,1.2 -0.1,2.3 -0.2,3.5 0,1.4 0,2.8 0,4.3 -1.2,0 -2.4,0 -3.6,0 0.2,-4 0.2,-8.2 0.2,-12.5 z"
         id="path252"
         style="fill:#008000" />
      <path
         inkscape:connector-curvature="0"
         class="st4"
         d="m 375.3,27.4 c -1.3,0 -2.5,0 -3.8,0 0,-1.3 0,-2.5 0,-3.7 0,-1.3 0,-2.6 0,-3.9 0,-1.5 -0.5,-2.2 -1.7,-2.4 -1.5,-0.3 -2.8,0.3 -3.2,1.6 -0.2,0.7 -0.3,1.4 -0.3,2.2 0,2.1 0,4.1 0,6.2 -1.3,0 -2.4,0 -3.6,0 0,-4.2 0,-8.4 0,-12.7 1.2,0 2.3,0 3.5,0 0,0.6 0,1.1 0,1.7 0.1,0 0.2,0.1 0.2,0 1.8,-2.1 4.1,-2.1 6.4,-1.3 1.5,0.5 2.4,1.7 2.4,3.3 0.1,3 0.1,5.9 0.1,9 z"
         id="path254"
         style="fill:#008000" />
      <path
         inkscape:connector-curvature="0"
         class="st4"
         d="m 397.7,27.5 c -3.6,0 -5.8,-1.5 -6.7,-4.5 -1.2,-4.4 1.7,-8.2 6.2,-8.3 2.1,0 4.2,0.2 5.6,2 1.9,2.2 2.2,4.7 1.1,7.3 -1.1,2.6 -3.4,3.5 -6.2,3.5 z m 3.1,-6.4 c 0,-1.7 -0.6,-3 -1.8,-3.5 -1.7,-0.8 -3.7,0 -4.3,1.7 -0.9,2.3 0,4.9 1.9,5.4 2.5,0.7 4.2,-0.8 4.2,-3.6 z"
         id="path256"
         style="fill:#008000" />
      <path
         inkscape:connector-curvature="0"
         class="st4"
         d="m 464.8,23.5 c -0.5,1.8 -1.6,2.9 -3.1,3.5 -1.6,0.6 -3.3,0.7 -4.9,0.1 -2.9,-1 -4.1,-3.2 -3.8,-6.8 0.4,-5.5 5.5,-6.6 8.9,-5.1 1.9,0.9 2.7,2.5 3,4.5 0.1,0.7 0,1.3 0,2.2 -1.4,0 -2.8,0 -4.3,0 -1.4,0 -2.9,0 -4.3,0 0,1.4 0.5,2.3 1.6,2.7 1.1,0.5 2.5,0.3 3.2,-0.5 0.4,-0.6 0.9,-0.6 1.5,-0.6 0.6,0 1.3,0 2.2,0 z m -3.3,-3.7 c -0.1,-1.6 -1.2,-2.6 -2.8,-2.5 -1.4,0.1 -2.4,1.1 -2.4,2.5 1.8,0 3.5,0 5.2,0 z"
         id="path258"
         style="fill:#008000" />
      <path
         inkscape:connector-curvature="0"
         class="st4"
         d="m 344.3,22.7 c 1.2,0 2.2,0 3.3,0 0.1,1.6 -1.3,3.7 -3.1,4.3 -1.8,0.7 -3.7,0.7 -5.5,0 -2.4,-0.9 -3.2,-3 -3.3,-5.4 0,-1.1 0.1,-2.2 0.4,-3.2 0.9,-2.9 3.8,-4.3 7.3,-3.7 2.7,0.5 4,1.8 4.2,4.1 -1.1,0 -2.1,0 -3.2,0 -0.2,0 -0.4,-0.2 -0.5,-0.4 -0.5,-0.9 -1.2,-1.1 -2.1,-1.1 -1,0 -1.7,0.4 -2.1,1.3 -0.6,1.5 -0.6,3.1 -0.1,4.6 0.4,1 1.2,1.5 2.3,1.5 1.1,0 1.7,-0.5 2.1,-1.6 0.2,0 0.3,-0.2 0.3,-0.4 z"
         id="path260"
         style="fill:#008000" />
      <path
         inkscape:connector-curvature="0"
         class="st4"
         d="m 451.7,27.5 c -0.9,0 -1.8,0 -2.6,0 -0.3,0 -0.5,0 -0.9,0 0,-5.7 0,-11.3 0,-16.9 1.2,0 2.3,0 3.5,0 0,5.6 0,11.1 0,16.9 z"
         id="path262"
         style="fill:#008000" />
    </g>
  </g>
</svg>
