<?xml version="1.0" encoding="UTF-8" standalone="no"?>
<!-- Created with Inkscape (http://www.inkscape.org/) -->

<svg
   xmlns:dc="http://purl.org/dc/elements/1.1/"
   xmlns:cc="http://creativecommons.org/ns#"
   xmlns:rdf="http://www.w3.org/1999/02/22-rdf-syntax-ns#"
   xmlns:svg="http://www.w3.org/2000/svg"
   xmlns="http://www.w3.org/2000/svg"
   xmlns:sodipodi="http://sodipodi.sourceforge.net/DTD/sodipodi-0.dtd"
   xmlns:inkscape="http://www.inkscape.org/namespaces/inkscape"
   width="27.781254mm"
   height="3.0427084mm"
   viewBox="0 0 27.781254 3.0427084"
   version="1.1"
   id="svg5510"
   inkscape:version="0.92.4 (5da689c313, 2019-01-14)"
   sodipodi:docname="castelli.svg">
  <defs
     id="defs5504" />
  <sodipodi:namedview
     id="base"
     pagecolor="#ffffff"
     bordercolor="#666666"
     borderopacity="1.0"
     inkscape:pageopacity="0.0"
     inkscape:pageshadow="2"
     inkscape:zoom="0.35"
     inkscape:cx="-30.357138"
     inkscape:cy="117.17858"
     inkscape:document-units="mm"
     inkscape:current-layer="layer1"
     showgrid="false"
     inkscape:window-width="1304"
     inkscape:window-height="745"
     inkscape:window-x="-8"
     inkscape:window-y="-8"
     inkscape:window-maximized="1" />
  <metadata
     id="metadata5507">
    <rdf:RDF>
      <cc:Work
         rdf:about="">
        <dc:format>image/svg+xml</dc:format>
        <dc:type
           rdf:resource="http://purl.org/dc/dcmitype/StillImage" />
        <dc:title></dc:title>
      </cc:Work>
    </rdf:RDF>
  </metadata>
  <g
     inkscape:label="Layer 1"
     inkscape:groupmode="layer"
     id="layer1"
     transform="translate(-113.86533,-176.79412)">
    <g
       transform="matrix(0.26458333,0,0,0.26458333,-41.868422,173.0635)"
       id="g5221">
      <path
         inkscape:connector-curvature="0"
         class="st2"
         d="m 601.3,25.6 h -8.2 c -4.5,0 -4.5,-3.1 -4.5,-3.1 v -5.3 c 0,0 0,-3 3.6,-3 h 9 v 2.5 h -7.4 c -2.2,0 -2.1,1.9 -2.1,1.9 v 2.5 c 0,0 0,2 2.1,2 h 7.5 v 2.5"
         id="path5205" />
      <path
         inkscape:connector-curvature="0"
         class="st2"
         d="m 616.4,17.6 v 8 h -2.8 -1.2 -8.4 c -0.4,0 -0.7,-0.1 -1,-0.4 -0.3,-0.3 -0.5,-0.6 -0.5,-1 v -3.6 c 0,-0.6 0.2,-1 0.5,-1.4 0.3,-0.3 0.7,-0.5 1.1,-0.5 h 7.9 c 0.4,0 0.7,0.1 1,0.3 0.2,0.2 0.4,0.3 0.5,0.5 v -1 c 0,-0.3 -0.1,-1 -0.4,-1.3 -0.3,-0.3 -0.7,-0.5 -1.1,-0.5 h -9.5 V 14.1 H 613 c 0,0.1 3.4,0.2 3.4,3.5 m -3.3,4.5 c 0,-1 -0.9,-1 -0.9,-1 h -6 c 0,0 -0.9,0 -0.9,1 0,0 0,1 0.9,1 h 6 c -0.1,0 0.9,0 0.9,-1"
         id="path5207" />
      <path
         inkscape:connector-curvature="0"
         class="st2"
         d="m 631.5,24 v -3.5 c 0,-1.7 -1.9,-1.8 -1.9,-1.8 H 622 c -0.3,0 -1,0 -1,-1 0,-1 1,-0.9 1,-0.9 h 9 v -2.5 h -11.1 c -0.5,0 -1,0.2 -1.3,0.6 -0.3,0.3 -0.4,0.6 -0.4,0.9 v 3.8 c 0,0 -0.1,1.6 1.8,1.6 h 7.9 c 0,0 1,0 1,1 0,1 -1,0.9 -1,0.9 h -10.1 v 2.5 H 630 c 0.5,0 0.8,-0.2 1.1,-0.5 0.3,-0.3 0.4,-0.7 0.4,-1.1"
         id="path5209" />
      <path
         inkscape:connector-curvature="0"
         class="st2"
         d="m 650,16.7 h -5.5 v 8.8 h -3 V 14.2 h 8.5 z m -9.3,8.9 h -3 v -8.8 h -5.5 v -2.5 h 8.5 v 11.3"
         id="path5211" />
      <path
         inkscape:connector-curvature="0"
         class="st2"
         d="m 650.9,22.5 v -5.4 c 0,0 0.1,-2.9 3.1,-2.9 h 7.9 c 0,0 2.5,0 2.5,2.9 v 2.4 c 0,0.5 -0.1,0.8 -0.3,1.1 -0.3,0.4 -0.7,0.6 -1.3,0.6 H 654 V 22 c 0,0.3 0.1,0.5 0.3,0.7 0.2,0.2 0.4,0.3 0.7,0.3 h 9.3 v 2.5 h -9.8 c -3.5,0.1 -3.6,-3 -3.6,-3 m 10.5,-4.8 c 0,-0.9 -1,-1 -1,-1 h -5.3 c -1.2,0 -1.2,1 -1.2,1 v 1 h 7.4 z"
         id="path5213" />
      <path
         inkscape:connector-curvature="0"
         class="st2"
         d="M 677.4,25.6 H 669 c -3.5,0 -3.3,-2.8 -3.3,-2.8 v -8.6 h 2.9 v 7.2 c 0,0 0,1.7 2,1.7 h 6.8 v 2.5"
         id="path5215" />
      <path
         inkscape:connector-curvature="0"
         class="st2"
         d="m 689.9,25.6 h -8.4 c -3.5,0 -3.3,-2.8 -3.3,-2.8 v -8.6 h 2.9 v 7.1 c 0,0 0,1.8 2,1.8 h 6.8 v 2.5"
         id="path5217" />
      <rect
         x="690.70001"
         y="14.2"
         class="st2"
         width="2.9000001"
         height="11.4"
         id="rect5219" />
    </g>
  </g>
</svg>
