<?xml version="1.0" encoding="utf-8"?>
<!-- Generator: Adobe Illustrator 19.2.1, SVG Export Plug-In . SVG Version: 6.00 Build 0)  -->
<svg version="1.1" id="Layer_1" xmlns="http://www.w3.org/2000/svg" xmlns:xlink="http://www.w3.org/1999/xlink" x="0px" y="0px"
	 width="184px" height="750px" viewBox="0 0 184 750" style="enable-background:new 0 0 184 750;" xml:space="preserve">
<style type="text/css">
	.st0{fill:#D6201A;}
	.st1{fill:#08090A;}
	.st2{fill:#FFFFFF;}
	.st3{fill:#0C0C0C;}
	.st4{fill:#231F20;}
	.st5{fill:none;stroke:#D42728;stroke-width:2;stroke-miterlimit:10;}
	.st6{fill:none;stroke:#CCCCCC;stroke-width:2;stroke-miterlimit:10;}
	.st7{fill:none;stroke:#D42728;stroke-width:1.2;stroke-miterlimit:10;}
	.st8{fill:none;stroke:#CCCCCC;stroke-width:1.2;stroke-miterlimit:10;}
	.st9{fill:#353535;}
	.st10{fill:#CCCCCC;}
	.st11{fill:#D72228;}
	.st12{fill:none;stroke:#CCCCCC;stroke-miterlimit:10;}
	.st13{fill:#47AD4C;}
</style>
<polygon class="st0" points="21,9.4 18.7,7.1 16,9.8 13.3,7.1 11,9.4 13.7,12.1 11,14.8 13.3,17.1 16,14.4 18.7,17.1 21,14.8 
	18.3,12.1 "/>
<polygon class="st1" points="19,37.2 13,32.2 13,42.2 "/>
<polygon class="st2" points="19,248.3 13,243.3 13,253.3 "/>
<polygon class="st1" points="13,63.4 19,68.4 19,58.4 "/>
<polygon class="st1" points="16,91.5 20,86.5 12,86.5 "/>
<polygon class="st1" points="16,109.5 12,114.5 20,114.5 "/>
<polygon class="st0" points="19.1,137.4 16,140.6 12.9,137.4 11,139.3 16,144.4 21,139.3 "/>
<polygon class="st2" points="19.1,199.4 16,202.6 12.9,199.4 11,201.3 16,206.4 21,201.3 "/>
<polygon class="st3" points="12.5,220.8 15.7,224 12.5,227.1 14.4,229 19.5,224 14.4,219 "/>
<polygon class="st2" points="14.2,511.8 20.2,516.8 20.2,506.8 "/>
<polygon class="st2" points="17.2,535.1 12.2,541.1 22.2,541.1 "/>
<polygon class="st2" points="17.2,567.5 22.2,561.5 12.2,561.5 "/>
<polygon class="st0" points="14.1,278.3 17.2,275.1 20.3,278.3 22.2,276.4 17.2,271.3 12.2,276.4 "/>
<polygon class="st0" points="13.7,298 16.9,301.1 13.7,304.3 15.6,306.1 20.7,301.1 15.6,296.1 "/>
<polygon class="st0" points="20.7,330.6 17.5,327.5 20.7,324.3 18.8,322.5 13.7,327.5 18.8,332.5 "/>
<polygon class="st2" points="14.1,357.3 17.2,354.1 20.3,357.3 22.2,355.4 17.2,350.3 12.2,355.4 "/>
<polygon class="st2" points="13.7,377 16.9,380.1 13.7,383.3 15.6,385.1 20.7,380.1 15.6,375.1 "/>
<polygon class="st2" points="20.7,409.6 17.5,406.5 20.7,403.3 18.8,401.5 13.7,406.5 18.8,411.5 "/>
<polygon class="st3" points="20.3,429.3 17.2,432.5 14.1,429.3 12.2,431.2 17.2,436.3 22.2,431.2 "/>
<polygon class="st3" points="175.9,426.7 172.5,430.2 169.2,426.7 167.1,428.8 172.5,434.4 178,428.8 "/>
<polygon class="st3" points="14.1,462.6 17.2,459.4 20.3,462.6 22.2,460.7 17.2,455.6 12.2,460.7 "/>
<polygon class="st3" points="169.2,465.7 172.5,462.2 175.9,465.7 178,463.6 172.5,458 167.1,463.6 "/>
<polygon class="st3" points="20.7,488.6 17.5,485.5 20.7,482.3 18.8,480.5 13.7,485.5 18.8,490.5 "/>
<path class="st4" d="M31.9,582.6c0,0.8-0.6,1.4-1.4,1.4H19.3c-0.8,0-1.4-0.6-1.4-1.4l0,0c0-0.8,0.6-1.4,1.4-1.4h11.2
	C31.2,581.2,31.9,581.8,31.9,582.6L31.9,582.6z"/>
<path class="st4" d="M31.9,588.3c0,0.8-0.6,1.4-1.4,1.4H19.3c-0.8,0-1.4-0.6-1.4-1.4l0,0c0-0.8,0.6-1.4,1.4-1.4h11.2
	C31.2,586.9,31.9,587.5,31.9,588.3L31.9,588.3z"/>
<path class="st4" d="M31.9,594.3c0,0.8-0.6,1.4-1.4,1.4H19.3c-0.8,0-1.4-0.6-1.4-1.4l0,0c0-0.8,0.6-1.4,1.4-1.4h11.2
	C31.2,592.9,31.9,593.5,31.9,594.3L31.9,594.3z"/>
<path class="st4" d="M15.2,582.7c0,0.8-0.7,1.5-1.5,1.5l0,0c-0.8,0-1.5-0.7-1.5-1.5l0,0c0-0.8,0.7-1.5,1.5-1.5l0,0
	C14.5,581.2,15.2,581.9,15.2,582.7L15.2,582.7z"/>
<path class="st4" d="M15.2,588.2c0,0.8-0.7,1.5-1.5,1.5l0,0c-0.8,0-1.5-0.7-1.5-1.5l0,0c0-0.8,0.7-1.5,1.5-1.5l0,0
	C14.5,586.7,15.2,587.4,15.2,588.2L15.2,588.2z"/>
<path class="st4" d="M15.2,594.3c0,0.8-0.7,1.5-1.5,1.5l0,0c-0.8,0-1.5-0.7-1.5-1.5l0,0c0-0.8,0.7-1.5,1.5-1.5l0,0
	C14.5,592.8,15.2,593.5,15.2,594.3L15.2,594.3z"/>
<path id="Xmas_x5F_Present1_3_" class="st5" d="M44,635.8H25.1v-18.8H44V635.8z M34.6,616.9v18.8 M25.1,626.4H44 M22.3,621.8h-8.4
	 M22.3,626.4h-6.1 M22.3,630.9h-3.9 M42,613.3c1.1-2.1-0.5-3.8-3-3.1c-3.4,1-4.1,6.6-4.1,6.6S40.1,616.9,42,613.3z M34.3,616.9
	c0,0-0.7-5.6-4.1-6.6c-2.6-0.7-4,1-3,3.1C29.1,616.9,34.3,616.9,34.3,616.9z"/>
<path id="Xmas_x5F_Present1_4_" class="st6" d="M88.2,635.7H69.4v-18.8h18.8V635.7z M78.8,616.9v18.8 M69.4,626.3h18.8 M66.5,621.7
	h-8.4 M66.5,626.3h-6.1 M66.5,630.8h-3.9 M86.2,613.2c1.1-2.1-0.5-3.8-3-3.1c-3.4,1-4.1,6.6-4.1,6.6S84.4,616.8,86.2,613.2z
	 M78.5,616.8c0,0-0.7-5.6-4.1-6.6c-2.6-0.7-4,1-3,3.1C73.3,616.8,78.5,616.8,78.5,616.8z"/>
<path id="Xmas_x5F_Present2_1_" class="st7" d="M30,666H18.3v-11.7H30V666z M24.2,654.3V666 M18.3,660.1H30 M16.5,657.3h-5.2
	 M16.5,660.1h-3.8 M16.5,662.9h-2.4 M28.7,652c0.7-1.3-0.3-2.4-1.9-1.9c-2.1,0.6-2.5,4.1-2.5,4.1S27.6,654.2,28.7,652z M24,654.2
	c0,0-0.4-3.5-2.5-4.1c-1.6-0.5-2.5,0.6-1.9,1.9C20.7,654.2,24,654.2,24,654.2z"/>
<path id="Xmas_x5F_Present2_2_" class="st8" d="M74,666H62.3v-11.7H74V666z M68.2,654.3V666 M62.3,660.1H74 M60.5,657.3h-5.2
	 M60.5,660.1h-3.8 M60.5,662.9h-2.4 M72.7,652c0.7-1.3-0.3-2.4-1.9-1.9c-2.1,0.6-2.5,4.1-2.5,4.1S71.6,654.2,72.7,652z M68,654.2
	c0,0-0.4-3.5-2.5-4.1c-1.6-0.5-2.5,0.6-1.9,1.9C64.7,654.2,68,654.2,68,654.2z"/>
<polygon class="st9" points="15.9,693.8 13.3,691.1 18,686.4 13.3,681.7 15.9,679.1 23.3,686.4 "/>
<polygon class="st9" points="20.7,709.1 23.3,711.8 18.6,716.5 23.3,721.2 20.7,723.8 13.3,716.5 "/>
<polygon class="st2" points="36.9,693.8 34.3,691.1 39,686.4 34.3,681.7 36.9,679.1 44.3,686.4 "/>
<polygon class="st2" points="41.7,709.1 44.3,711.8 39.6,716.5 44.3,721.2 41.7,723.8 34.3,716.5 "/>
<polygon class="st2" points="70.7,688.8 67.9,691.4 63.3,686.7 58.6,691.4 55.9,688.8 63.3,681.4 "/>
<polygon class="st2" points="55.9,714 58.7,711.4 63.4,716.1 68.1,711.4 70.7,714 63.4,721.4 "/>
<path class="st2" d="M111.4,708.6c-5.9,0-10.7-4.8-10.7-10.7s4.8-10.7,10.7-10.7c5.9,0,10.7,4.8,10.7,10.7S117.3,708.6,111.4,708.6z
	 M111.4,689.6c-4.6,0-8.3,3.7-8.3,8.3s3.7,8.3,8.3,8.3c4.6,0,8.3-3.7,8.3-8.3C119.7,693.3,115.9,689.6,111.4,689.6z"/>
<polygon class="st2" points="111.4,702.5 105.7,696.8 107.4,695.1 111.4,699.1 115.4,695.1 117.1,696.8 "/>
<path class="st2" d="M139,687.2c5.9,0,10.7,4.8,10.7,10.7s-4.8,10.7-10.7,10.7s-10.7-4.8-10.7-10.7S133.1,687.2,139,687.2z
	 M139,706.2c4.6,0,8.3-3.7,8.3-8.3s-3.7-8.3-8.3-8.3s-8.3,3.7-8.3,8.3S134.4,706.2,139,706.2z"/>
<polygon class="st2" points="139,693.3 144.7,699 143,700.7 139,696.7 135,700.7 133.3,699 "/>
<rect x="131.2" y="604.8" class="st10" width="7.8" height="7.7"/>
<rect x="140.6" y="604.8" class="st10" width="7.8" height="7.7"/>
<rect x="131.2" y="614" class="st10" width="7.8" height="7.7"/>
<rect x="140.6" y="614" class="st10" width="7.8" height="7.7"/>
<rect x="158.8" y="604.8" class="st10" width="17.1" height="4.7"/>
<rect x="158.8" y="617.1" class="st10" width="17.1" height="4.7"/>
<rect x="158.8" y="611" class="st10" width="17.1" height="4.5"/>
<rect x="103" y="604.8" class="st10" width="17.1" height="7.7"/>
<rect x="103" y="614" class="st10" width="17.1" height="7.7"/>
<rect x="131.2" y="630.4" class="st11" width="7.8" height="7.7"/>
<rect x="140.6" y="630.4" class="st11" width="7.8" height="7.7"/>
<rect x="131.2" y="639.7" class="st11" width="7.8" height="7.7"/>
<rect x="140.6" y="639.7" class="st11" width="7.8" height="7.7"/>
<rect x="158.8" y="630.4" class="st11" width="17.1" height="4.7"/>
<rect x="158.8" y="642.7" class="st11" width="17.1" height="4.7"/>
<rect x="158.8" y="636.7" class="st11" width="17.1" height="4.5"/>
<rect x="103" y="630.4" class="st11" width="17.1" height="7.7"/>
<rect x="103" y="639.7" class="st11" width="17.1" height="7.7"/>
<rect x="103.1" y="660.3" class="st10" width="11.7" height="1.9"/>
<path class="st10" d="M116.9,664.4c-1.7,0-3.1-1.4-3.1-3.1s1.4-3.1,3.1-3.1s3.1,1.4,3.1,3.1S118.6,664.4,116.9,664.4z M116.9,660
	c-0.7,0-1.2,0.5-1.2,1.2s0.5,1.2,1.2,1.2s1.2-0.5,1.2-1.2C118.1,660.6,117.6,660,116.9,660z"/>
<rect x="108.3" y="666.9" class="st10" width="11.7" height="1.9"/>
<path class="st10" d="M106.1,671c-1.7,0-3.1-1.4-3.1-3.1s1.4-3.1,3.1-3.1s3.1,1.4,3.1,3.1S107.9,671,106.1,671z M106.1,666.7
	c-0.7,0-1.2,0.5-1.2,1.2s0.5,1.2,1.2,1.2s1.2-0.5,1.2-1.2C107.4,667.2,106.8,666.7,106.1,666.7z"/>
<rect x="103.1" y="673.5" class="st10" width="6.3" height="1.9"/>
<rect x="113.7" y="673.5" class="st10" width="6.2" height="1.9"/>
<path class="st10" d="M111.6,677.6c-1.7,0-3.1-1.4-3.1-3.1c0-1.7,1.4-3.1,3.1-3.1s3.1,1.4,3.1,3.1
	C114.7,676.2,113.3,677.6,111.6,677.6z M111.6,673.3c-0.7,0-1.2,0.5-1.2,1.2s0.5,1.2,1.2,1.2s1.2-0.5,1.2-1.2
	C112.8,673.8,112.2,673.3,111.6,673.3z"/>
<g>
	<polygon class="st10" points="145.3,674.6 148.6,672.1 147.4,670.6 145.3,672.2 145.3,660.6 143.4,660.6 143.4,672.2 141.3,670.6 
		140.1,672.1 143.4,674.6 143.4,674.6 143.4,674.6 144.4,675.4 	"/>
	<polygon class="st10" points="135.4,661.1 135.4,661.1 134.5,660.4 133.5,661.1 133.5,661.1 133.5,661.1 130.3,663.7 131.4,665.2 
		133.5,663.5 133.5,675.1 135.4,675.1 135.4,663.5 137.5,665.2 138.7,663.7 	"/>
</g>
<g>
	<rect x="164.2" y="659.5" class="st2" width="13" height="3.4"/>
	<rect x="164.2" y="666.3" class="st2" width="13" height="3.4"/>
	<rect x="164.2" y="673.2" class="st2" width="13" height="3.4"/>
	<rect x="157.5" y="659.5" class="st2" width="3.4" height="3.4"/>
	<rect x="157.5" y="666.3" class="st2" width="3.4" height="3.4"/>
	<rect x="157.5" y="673.2" class="st2" width="3.4" height="3.4"/>
</g>
<g>
	<polygon class="st2" points="13.6,166.7 11.9,166.7 11.9,168.2 10.5,168.2 10.5,169.8 11.9,169.8 11.9,171.3 13.6,171.3 
		13.6,169.8 15,169.8 15,168.2 13.6,168.2 	"/>
	<path class="st2" d="M18.6,163.1H17H6.9v10.1v1.6v10.1H17h1.6h10.1v-21.8L18.6,163.1L18.6,163.1z M8.5,164.8H17v8.5H8.5V164.8z
		 M17,183.3H8.5v-8.5H17V183.3z M27.1,183.3h-8.5v-8.5v-1.6v-8.5h8.5V183.3z"/>
	<rect x="10.5" y="178.3" class="st2" width="4.5" height="1.6"/>
	<rect x="20.6" y="171.7" class="st2" width="4.5" height="1.6"/>
	<rect x="20.6" y="174.8" class="st2" width="4.5" height="1.6"/>
</g>
<polygon class="st3" points="175.9,426.7 172.5,430.2 169.2,426.7 167.1,428.8 172.5,434.4 178,428.8 "/>
<line class="st12" x1="158.9" y1="420.5" x2="158.9" y2="440.5"/>
<polygon class="st3" points="169.2,465.7 172.5,462.2 175.9,465.7 178,463.6 172.5,458 167.1,463.6 "/>
<line class="st12" x1="158.9" y1="471.9" x2="158.9" y2="451.9"/>
<g>
	<path class="st13" d="M170.7,485.5c-6.8,0-12.3,5.5-12.3,12.3s5.5,12.3,12.3,12.3s12.3-5.5,12.3-12.3S177.5,485.5,170.7,485.5z
		 M170.7,507.4c-5.3,0-9.5-4.3-9.5-9.5c0-5.3,4.3-9.5,9.5-9.5s9.5,4.3,9.5,9.5S176,507.4,170.7,507.4z"/>
	<polygon class="st13" points="172.1,491.8 169.3,491.8 169.3,496.4 164.6,496.4 164.6,499.2 169.3,499.2 169.3,503.9 172.1,503.9 
		172.1,499.2 176.8,499.2 176.8,496.4 172.1,496.4 	"/>
</g>
<polygon class="st2" points="31.7,377 34.9,380.1 31.7,383.3 33.6,385.1 38.7,380.1 33.6,375.1 "/>
<polygon class="st2" points="44.8,387.7 37.7,387.7 37.7,385.1 42.2,385.1 42.2,375.1 37.7,375.1 37.7,372.5 44.8,372.5 "/>
<polygon class="st2" points="16.2,742.8 13.4,740 14.7,738.6 16.2,740.1 20.3,736 21.6,737.4 "/>
<polygon class="st2" points="37.6,743.8 34,740.2 35.7,738.4 37.6,740.3 42.9,735 44.6,736.8 "/>
</svg>
