<?xml version="1.0" encoding="UTF-8" standalone="no"?>
<!-- Created with Inkscape (http://www.inkscape.org/) -->

<svg
   xmlns:dc="http://purl.org/dc/elements/1.1/"
   xmlns:cc="http://creativecommons.org/ns#"
   xmlns:rdf="http://www.w3.org/1999/02/22-rdf-syntax-ns#"
   xmlns:svg="http://www.w3.org/2000/svg"
   xmlns="http://www.w3.org/2000/svg"
   xmlns:sodipodi="http://sodipodi.sourceforge.net/DTD/sodipodi-0.dtd"
   xmlns:inkscape="http://www.inkscape.org/namespaces/inkscape"
   width="22.77401mm"
   height="3.2808332mm"
   viewBox="0 0 22.77401 3.2808332"
   version="1.1"
   id="svg642"
   inkscape:version="0.92.4 (5da689c313, 2019-01-14)"
   sodipodi:docname="cube2.svg">
  <defs
     id="defs636" />
  <sodipodi:namedview
     id="base"
     pagecolor="#ffffff"
     bordercolor="#666666"
     borderopacity="1.0"
     inkscape:pageopacity="0.0"
     inkscape:pageshadow="2"
     inkscape:zoom="0.35"
     inkscape:cx="-5.5339306"
     inkscape:cy="180.4857"
     inkscape:document-units="mm"
     inkscape:current-layer="layer1"
     showgrid="false"
     inkscape:window-width="1304"
     inkscape:window-height="745"
     inkscape:window-x="-8"
     inkscape:window-y="-8"
     inkscape:window-maximized="1" />
  <metadata
     id="metadata639">
    <rdf:RDF>
      <cc:Work
         rdf:about="">
        <dc:format>image/svg+xml</dc:format>
        <dc:type
           rdf:resource="http://purl.org/dc/dcmitype/StillImage" />
        <dc:title></dc:title>
      </cc:Work>
    </rdf:RDF>
  </metadata>
  <g
     inkscape:label="Layer 1"
     inkscape:groupmode="layer"
     id="layer1"
     transform="translate(-107.29752,-193.30601)">
    <g
       transform="matrix(0.26458333,0,0,0.26458333,46.383822,189.6283)"
       id="g160"
       style="fill:#aa4400">
      <path
         inkscape:connector-curvature="0"
         class="st2"
         d="m 248.9,23.9 c -0.3,-0.1 -0.8,-0.1 -1.3,-0.1 -3.2,0 -6.6,0 -9.6,0 -0.1,0 -0.2,0 -0.3,0 h -0.1 c 0,0 0,0 -0.1,0 -0.3,-0.1 -0.6,-0.2 -0.8,-0.3 0,0 0,0 -0.1,0 -0.2,-0.2 -0.3,-0.4 -0.5,-0.6 0,0 0,0 0,-0.1 -0.1,-0.1 0,-0.4 -0.1,-0.5 0,0 0,0 0,-0.1 0.1,-0.1 0,-0.4 0.1,-0.5 v -0.1 c 0.2,-0.2 0.2,-0.6 0.3,-0.8 0,-0.1 0.1,-0.1 0.1,-0.3 0.1,0 0.1,-0.1 0.1,-0.2 0,0 0,0 0,-0.1 0.1,0 0.1,-0.2 0.1,-0.3 0,-0.2 0.1,-0.2 0.1,-0.5 0,-0.1 0.1,-0.1 0.1,-0.2 0.1,-0.1 0.1,-0.2 0.1,-0.5 0.1,0 0.1,-0.2 0.1,-0.3 0,-0.2 0.1,-0.3 0.1,-0.5 0,0 0.1,0 0.1,-0.1 0.1,-0.1 0.1,-0.2 0.1,-0.5 0.1,-0.1 0.1,-0.5 0.2,-0.6 0,-0.1 0.1,-0.2 0.1,-0.3 0.1,-0.1 0.2,-0.3 0.3,-0.4 0.2,0 0.1,-0.1 0.2,-0.1 0,0 0.1,0 0.1,-0.1 0.3,0 0.4,-0.1 0.7,-0.1 0.1,0 0.1,0 0.2,0 0,0 0,0 0.1,0 3.8,0 7.7,0.1 11.4,-0.1 0.1,-0.1 0.2,-0.2 0.2,-0.4 0.1,-0.1 0.1,-0.3 0.1,-0.4 0,-0.2 0.1,-0.2 0.1,-0.4 0,-0.1 0.1,-0.2 0.1,-0.4 0,-0.1 -0.2,0 -0.3,-0.1 -0.9,0 -1.8,0 -2.7,0 -0.2,0 -0.3,0 -0.5,0 -3.9,0 -7.8,0 -11.8,0 -0.2,0 -0.3,0 -0.5,0 -0.4,0 -0.8,0 -1.2,0 -0.1,0 -0.2,0 -0.2,0.1 h -0.1 c 0,0 -0.1,0 -0.1,0.1 0,0 0,0 -0.1,0 -0.6,0.2 -1.1,0.7 -1.4,1.2 0,0.1 -0.1,0.1 -0.1,0.2 -0.1,0.2 -0.2,0.5 -0.2,0.7 0,0.1 -0.1,0.1 -0.1,0.3 0,0.1 -0.1,0.2 -0.1,0.4 0,0.2 -0.1,0.2 -0.1,0.5 -0.1,0.2 -0.1,0.5 -0.2,0.8 0,0.1 -0.1,0.1 -0.1,0.2 0,0 0,0 0,0.1 0,0 0,0 0,0.1 -0.1,0.1 -0.1,0.3 -0.2,0.5 0,0.2 -0.1,0.3 -0.1,0.5 -0.1,0.3 -0.2,0.7 -0.3,1 0,0.2 -0.2,0.3 -0.1,0.6 -0.2,0.4 -0.2,0.9 -0.4,1.4 -0.1,0.3 -0.1,0.9 0,1.2 0,0 0,0.1 0.1,0.1 0,0 0,0 0,0.1 0,0.1 0,0.2 0.1,0.3 0,0 0,0 0,0.1 0.1,0.1 0.1,0.3 0.3,0.4 0,0 0,0 0,0.1 0.1,0.2 0.3,0.3 0.5,0.5 0.1,0.1 0.3,0.2 0.5,0.2 0.2,0.1 0.4,0.2 0.7,0.2 0,0 0,0 0.1,0 0,0 0,0 0,0.1 5.3,0 10.6,0 15.8,0 v -0.1 c 0,0 0.1,0 0.1,-0.1 0.1,0 0.1,-0.1 0.1,-0.2 0,0 0,0 0,-0.1 0.1,-0.2 0.1,-0.5 0.2,-0.7 0,0 0,0 0,-0.1 0.1,-0.1 0.1,-0.2 0.1,-0.4 0,0 0,0 0,-0.1 0,0 0.1,0 0.1,-0.1 -0.1,0 -0.1,0 -0.1,-0.1 0,0.1 0,0 0,0 z"
         id="path152"
         style="fill:#aa4400" />
      <path
         inkscape:connector-curvature="0"
         class="st2"
         d="m 294.8,16.2 c 0,0 0.1,0 0.1,-0.1 0,-0.3 0,-0.6 -0.1,-0.8 -0.2,-0.3 -0.4,-0.5 -0.7,-0.7 -0.4,-0.2 -0.8,-0.3 -1.3,-0.3 -0.1,0 -0.3,0 -0.4,0 -0.2,0 -0.3,0 -0.5,0 -1.4,0 -2.7,0 -4.1,0 -1.2,0 -2.4,0 -3.6,0 -0.2,0 -0.3,0 -0.5,0 -0.6,0 -1.2,0 -1.8,0 -0.2,0 -0.3,0 -0.5,0 -1.4,0 -2.7,0 -4.1,0 -0.2,0 -0.3,0 -0.5,0 -0.4,0 -0.9,0 -1.3,0 h -0.1 c 0,0 0,0 0,0.1 0,0 -0.1,0 -0.1,0.1 -0.1,0 -0.1,0.2 -0.2,0.3 v 0.1 c 0,0 -0.1,0 -0.1,0.1 0,0.2 -0.1,0.3 -0.1,0.5 -0.1,0.1 -0.1,0.2 -0.1,0.3 0,0.1 -0.1,0.2 -0.1,0.3 -0.1,0.1 -0.1,0.3 -0.2,0.5 0,0 0,0 0,0.1 -0.1,0.1 -0.1,0.2 -0.1,0.3 v 0.1 c 0,0 -0.1,0 -0.1,0.1 v 0.1 c -0.1,0.1 -0.1,0.3 -0.2,0.5 0,0.3 -0.1,0.5 -0.2,0.7 -0.1,0.2 -0.1,0.4 -0.2,0.6 0,0.1 -0.1,0.1 -0.1,0.2 -0.1,0.1 -0.1,0.3 -0.1,0.4 0,0 0,0 0,0.1 -0.1,0.1 -0.1,0.2 -0.1,0.3 -0.1,0.4 -0.2,0.7 -0.3,1.1 -0.1,0.2 -0.1,0.4 -0.2,0.6 0,0.1 -0.1,0.1 -0.1,0.2 -0.1,0.2 -0.2,0.5 -0.2,0.7 0,0.2 -0.1,0.3 -0.1,0.5 -0.1,0 -0.1,0.1 -0.1,0.2 -0.1,0.3 -0.1,0.6 -0.2,0.8 -0.1,0.2 -0.2,0.5 -0.2,0.8 v 0 c 0,0 0,0 0,0.1 -0.1,0.2 -0.2,0.4 0,0.5 5.9,0 11.8,0 17.7,0 0,0 0,-0.1 0.1,-0.1 h 0.1 c 0.3,0 0.5,0 0.7,-0.1 0.4,0 0.7,-0.2 1,-0.3 0.6,-0.3 1,-0.8 1.2,-1.5 0,-0.1 0.1,-0.1 0.1,-0.2 0.1,-0.2 0.2,-0.4 0.2,-0.6 0,-0.1 0.1,-0.2 0.1,-0.3 0,0 0.1,0 0.1,-0.1 0.1,-0.3 0.2,-0.5 0.2,-0.9 0,0 0.1,0 0.1,-0.1 0,-0.2 0.1,-0.3 0.1,-0.5 0.1,-0.3 0.2,-0.7 0,-0.9 0,-0.1 0,-0.1 -0.1,-0.2 -0.1,-0.1 -0.1,-0.2 -0.2,-0.2 0,0 -0.1,0 -0.1,-0.1 -0.1,-0.1 -0.3,-0.2 -0.4,-0.3 v -0.1 c 0.1,-0.1 0.3,-0.2 0.5,-0.3 0.2,-0.1 0.3,-0.2 0.3,-0.4 0,-0.1 0.1,-0.1 0.1,-0.2 0.1,-0.1 0.1,-0.3 0.2,-0.5 0,0 0,0 0,-0.1 0,-0.1 0.1,-0.1 0.1,-0.2 0.4,-0.2 0.6,-0.7 0.7,-1.2 z m -22,8.8 z m 0,0 z m 0,-0.1 z m 0,0.1 c 0,-0.1 0,-0.1 0,0 0,-0.1 0,-0.1 0,0 z m 0,0 z m 0,0 z m -0.1,0 c 0,0 0.1,0 0,0 0.1,0 0,0 0,0 z m 0,0.1 z m 5.7,-10.6 z m 10.9,3.5 v 0 c -0.1,0.3 -0.2,0.4 -0.4,0.6 -0.7,0.3 -1.5,0.2 -2.3,0.2 -2.5,0 -5.1,0 -7.5,0 0,-0.1 0.1,-0.1 0.1,-0.2 0,-0.1 0.1,-0.1 0.1,-0.2 0.1,-0.2 0.1,-0.4 0.2,-0.6 0,-0.1 0.1,-0.1 0.1,-0.2 0,-0.1 0.1,-0.1 0.1,-0.2 0,-0.1 0.1,-0.1 0.1,-0.2 0,-0.1 0.1,-0.1 0.1,-0.2 0,-0.1 0.1,-0.2 0.1,-0.4 0.1,-0.1 0,-0.3 0.1,-0.3 0,-0.1 0,-0.2 0.1,-0.2 0,0 0,0 0.1,0 2.9,0 5.7,0 8.6,0 0.4,0 0.8,0 1,0.2 -0.2,0.6 -0.5,1 -0.6,1.7 z m -0.8,5.2 v 0 c -0.2,0.2 -0.3,0.3 -0.5,0.5 -0.2,0.1 -0.3,0.1 -0.5,0.2 0,0 0,0 -0.1,0 h -0.1 c -2.1,0 -4.3,0 -6.3,0.1 -0.9,0 -1.8,0 -2.7,0 0,0 0,0 -0.1,0 0,0 0,0 -0.1,0 h -0.1 -0.1 c -0.2,-0.1 0.1,-0.4 0.1,-0.7 0.1,-0.2 0.1,-0.3 0.1,-0.5 0.1,-0.1 0.1,-0.3 0.2,-0.5 v -0.1 c 0.1,-0.2 0.1,-0.5 0.2,-0.7 0,-0.1 0.1,-0.2 0.1,-0.3 0.1,-0.1 0,-0.3 0.2,-0.3 0.5,0 0.9,0 1.4,0 0.2,0 0.3,0 0.5,0 2.6,0 5.3,0 7.9,0 0.1,0 0.1,0 0.2,0.1 v 0 0 c 0.2,0 0.2,0.2 0.3,0.2 0.1,0.1 0.1,0.2 0.1,0.4 0,0 0,0 0,0.1 -0.1,0.2 -0.1,0.4 -0.2,0.6 v 0.1 c 0,0 -0.1,0 -0.1,0.1 0,0 0,0 0,0.1 -0.2,0 -0.3,0.3 -0.4,0.6 z m 0.3,-2.6 z m 0,0 z m 0,0 z m 0,0 z m -0.1,0 z m 0,0 z m 0,0.1 z m -11.3,-6.2 z m 0.9,0 z m 0.1,0 z m 0,0 z m 0,0 z m -0.1,0 c 0.1,0 0.2,0 0.3,0 -0.1,0 -0.2,0 -0.3,0 z m -0.4,0 z m -0.5,0 c -0.6,0 -1.2,0 -1.7,0.1 0.6,0 1.1,-0.1 1.7,-0.1 z m 2.4,0 c 0.1,0 0.1,0 0.2,0 -0.1,0 -0.2,0 -0.2,0 z m 0.7,0 h 0.1 c 0,0 0,0 -0.1,0 z m -1.5,0 c 0.1,0 0.2,0 0.3,0 -0.1,0 -0.2,0 -0.3,0 z"
         id="path154"
         style="fill:#aa4400" />
      <path
         inkscape:connector-curvature="0"
         class="st2"
         d="m 306.3,14.2 c -0.2,0 -0.3,0 -0.5,0 -0.8,0 -1.5,0 -2.3,0 -0.1,0 -0.2,0 -0.3,0 h -0.1 c -1.7,0 -3.5,-0.1 -5.1,0.1 0,0 -0.1,0 -0.1,0.1 -0.1,0 -0.2,0.1 -0.3,0.1 -0.1,0.1 -0.2,0.1 -0.2,0.2 0,0 0,0 -0.1,0 -0.1,0.1 -0.2,0.2 -0.3,0.3 v 0 0 c -0.1,0.1 -0.2,0.2 -0.3,0.3 v 0 0 c 0,0.1 -0.1,0.1 -0.1,0.2 -0.1,0 -0.1,0.1 -0.1,0.2 0,0 0,0 0,0.1 -0.1,0 -0.1,0.2 -0.1,0.3 -0.1,0.1 -0.1,0.2 -0.1,0.3 -0.1,0 -0.1,0.1 -0.1,0.2 0,0.1 -0.1,0.1 -0.1,0.2 -0.2,0.5 -0.3,1.1 -0.5,1.6 -0.1,0.3 -0.2,0.6 -0.2,1 -0.1,0.1 -0.1,0.2 -0.1,0.4 0,0 0,0 0,0.1 -0.1,0 0,0.2 -0.1,0.3 0,0 0,0 0,0.1 -0.1,0.3 -0.2,0.6 -0.2,0.9 0,0 0,0 0,0.1 -0.1,0.1 -0.1,0.4 -0.2,0.6 0,0 0,0 0,0.1 -0.1,0.1 -0.1,0.2 -0.1,0.3 0,0 0,0 0,0.1 -0.1,0.1 -0.1,0.4 -0.2,0.6 0,0 0,0 0,0.1 0,0.1 -0.1,0.1 -0.1,0.2 v 0.1 c 0,0 -0.1,0 -0.1,0.1 -0.1,0.3 -0.2,0.9 0,1.2 0.1,0.2 0.2,0.5 0.4,0.6 0,0 0,0 0,0.1 0,0.1 0.1,0.1 0.2,0.2 0,0 0,0 0.1,0 0.1,0.1 0.1,0.2 0.2,0.2 0,0 0,0 0.1,0 0,0.1 0.2,0.1 0.3,0.2 0.2,0 0.3,0.2 0.6,0.2 0,0.2 0.3,0 0.3,0.1 5.5,0 11,0 16.6,0 0,-0.1 0.1,-0.1 0.1,-0.1 0,0 0,0 0,-0.1 0.1,-0.2 0.1,-0.5 0.2,-0.7 0,0 0,0 0,-0.1 0.1,-0.3 0.2,-0.6 0.2,-1 -4.2,-0.2 -8.7,0.1 -12.9,-0.1 -0.1,0 -0.1,-0.1 -0.2,-0.1 -0.1,-0.1 -0.2,-0.2 -0.3,-0.2 0,-0.1 0,-0.1 -0.1,-0.2 -0.1,0 0,-0.2 -0.1,-0.2 0,-0.1 0,-0.1 0,-0.2 0,-0.2 0.1,-0.3 0.1,-0.5 0,-0.1 0,-0.1 0,-0.2 0.1,-0.1 0.1,-0.2 0.1,-0.4 0,0 0,0 0,-0.1 0.1,-0.1 0.1,-0.3 0.2,-0.5 0,0 0,0 0,-0.1 0.1,-0.2 0.1,-0.5 0.3,-0.6 4.6,0 9.3,0.1 13.7,-0.1 0.1,-0.1 0.1,-0.3 0.2,-0.4 0,0 0,0 0,-0.1 0.1,-0.2 0.1,-0.4 0.2,-0.6 0,0 0,0 0,-0.1 0,0 0.1,0 0.1,-0.1 0,0 0,0 0,-0.1 0,-0.1 0.1,-0.1 0.1,-0.2 v -0.1 c -0.1,-0.1 -0.4,0 -0.6,-0.1 -0.2,0 -0.3,0 -0.5,0 -4.2,0 -8.5,0 -12.7,0 0,-0.1 0,-0.1 -0.1,-0.1 0,-0.1 0.1,-0.1 0.1,-0.2 v -0.1 c 0,0 0.1,0 0.1,-0.1 v -0.1 c 0.1,-0.2 0.2,-0.5 0.2,-0.7 0.1,-0.3 0.2,-0.6 0.3,-0.9 0.1,-0.1 0.2,-0.2 0.3,-0.3 0.1,0 0.1,0 0.2,-0.1 0.1,-0.1 0.3,-0.1 0.4,-0.2 h 0.1 c 0.3,0 0.4,-0.1 0.7,-0.1 1.8,0 3.7,0 5.5,0 0.2,0 0.3,0 0.5,0 2.1,0 4.1,0 6.2,0 0.2,-0.1 0.2,-0.3 0.2,-0.6 0.1,-0.1 0.1,-0.3 0.2,-0.5 0.1,-0.2 0.2,-0.3 0.2,-0.6 -3.3,-0.2 -6.7,-0.1 -10,-0.2 z m -9,0.6 z m 0,0 z m -0.1,0.1 c -0.1,0.1 -0.1,0.2 -0.2,0.1 0.2,0 0.2,-0.1 0.2,-0.1 z m 0,-0.1 c 0,0 0,0.1 0,0 0,0.1 0,0 0,0 z m -0.1,0.1 c 0.1,0.1 -0.2,0.2 -0.3,0.3 0.1,-0.1 0.4,-0.1 0.3,-0.3 z"
         id="path156"
         style="fill:#aa4400" />
      <path
         inkscape:connector-curvature="0"
         class="st2"
         d="m 272.5,18.8 c 0.1,-0.1 0.1,-0.4 0.2,-0.5 0,0 0,0 0,-0.1 0.1,-0.2 0.1,-0.4 0.2,-0.6 0,0 0,0 0,-0.1 0,0 0.1,0 0.1,-0.1 0,-0.1 0.1,-0.2 0.1,-0.3 0.1,-0.2 0.1,-0.4 0.2,-0.6 0,-0.1 0.1,-0.2 0.1,-0.3 0.1,-0.1 0.1,-0.2 0.1,-0.3 0,-0.1 0.1,-0.1 0.1,-0.3 0.1,-0.1 0.1,-0.4 0.2,-0.6 v -0.1 c 0,0 0.1,0 0.1,-0.1 0,0 0,0 0,-0.1 0.1,-0.1 0.2,-0.5 0,-0.6 -1.8,0 -3.5,0 -5.3,0 0,0 0,0 0,0.1 -0.2,0 -0.2,0.1 -0.2,0.3 0,0 -0.1,0 -0.1,0.1 0,0.1 -0.1,0.1 -0.1,0.3 -0.1,0.3 -0.2,0.7 -0.3,1 0,0.2 -0.1,0.3 -0.1,0.6 -0.1,0 -0.1,0.2 -0.1,0.3 v 0.1 c 0,0 -0.1,0 -0.1,0.1 v 0.1 c -0.1,0.1 -0.1,0.3 -0.2,0.5 v 0.1 c -0.1,0.1 -0.1,0.4 -0.2,0.6 0,0.1 -0.1,0.1 -0.1,0.3 -0.1,0.1 -0.1,0.2 -0.1,0.4 0,0 0,0 0,0.1 -0.2,0.4 -0.3,0.9 -0.4,1.4 v 0.1 c -0.1,0.1 -0.1,0.3 -0.2,0.5 0,0.1 -0.1,0.1 -0.1,0.3 0,0.1 -0.1,0.1 -0.1,0.2 0,0.1 -0.1,0.1 -0.1,0.2 -0.1,0.2 -0.1,0.4 -0.2,0.6 -0.1,0.2 -0.2,0.4 -0.3,0.6 -0.2,0.3 -0.5,0.5 -0.8,0.7 -0.3,0 -0.4,0.1 -0.7,0.2 -0.2,0 -0.4,0 -0.6,0.1 -0.7,0 -1.4,0 -2,0 -0.2,0 -0.3,0 -0.5,0 -0.8,0 -1.5,0 -2.3,0 -0.3,0 -0.6,0 -0.9,0 -0.1,0 -0.1,0 -0.2,0 -0.1,0 -0.1,0 -0.2,0 0,0 0,0 -0.1,0 0,-0.1 -0.2,0 -0.3,-0.1 -0.1,-0.1 -0.3,-0.1 -0.5,-0.1 0,0 0,-0.1 -0.1,-0.1 0,0 0,0 -0.1,0 -0.1,-0.1 -0.2,-0.2 -0.4,-0.3 0,0 0,-0.1 -0.1,-0.1 0,0 0,0 0,-0.1 -0.1,-0.3 -0.1,-0.9 -0.1,-1.2 0,-0.3 0.2,-0.5 0.2,-0.8 0,0 0.1,0 0.1,-0.1 0.1,-0.2 0.1,-0.3 0.1,-0.5 0.1,0 0.1,-0.2 0.1,-0.3 0,-0.2 0.1,-0.1 0.1,-0.3 0.1,-0.1 0.1,-0.3 0.1,-0.4 0,-0.1 0.1,-0.1 0.1,-0.3 0.1,-0.1 0.1,-0.2 0.1,-0.3 0,-0.1 0.1,-0.1 0.1,-0.3 0,-0.1 0.1,-0.1 0.1,-0.2 0.1,-0.2 0.1,-0.3 0.1,-0.5 0.1,-0.2 0.1,-0.4 0.2,-0.6 0,0 0,0 0,-0.1 0.1,-0.2 0.1,-0.4 0.2,-0.6 0.1,-0.3 0.2,-0.7 0.3,-1.1 0.1,-0.1 0.1,-0.2 0.1,-0.3 v -0.1 c 0,0 0.1,0 0.1,-0.1 0,-0.1 0.1,-0.2 0.1,-0.3 0.1,0 0.2,-0.3 0.1,-0.3 0,0 0,-0.1 -0.1,-0.1 0,0 0,0 0,-0.1 -1.7,0 -3.5,0 -5.2,0 0,0 0,0 0,0.1 -0.1,0 -0.2,0 -0.2,0.2 -0.2,0.2 -0.2,0.6 -0.3,0.9 0,0 0,0 0,0.1 -0.1,0.2 -0.2,0.4 -0.2,0.7 0,0.1 -0.1,0.2 -0.1,0.4 -0.1,0 -0.1,0.1 -0.1,0.2 0,0 0,0 0,0.1 -0.1,0.1 -0.1,0.2 -0.1,0.3 v 0.1 c 0,0 -0.1,0 -0.1,0.1 v 0.1 c -0.1,0.2 -0.1,0.5 -0.2,0.7 v 0.1 c -0.2,0.2 -0.2,0.6 -0.3,0.9 0,0.1 0,0.1 0,0.2 -0.1,0.1 -0.1,0.2 -0.1,0.3 -0.1,0.2 -0.2,0.4 -0.2,0.7 -0.1,0.1 -0.1,0.2 -0.1,0.4 -0.1,0.2 -0.2,0.4 -0.2,0.7 -0.2,0.4 -0.2,0.9 -0.4,1.4 -0.1,0.3 -0.1,0.9 0,1.2 0,0 0,0.1 0.1,0.1 0,0 0,0 0,0.1 0,0.1 0,0.2 0.1,0.3 0,0 0,0 0,0.1 0.1,0.1 0.1,0.3 0.3,0.4 0,0 0,0 0,0.1 0.1,0.2 0.3,0.3 0.5,0.5 0.1,0.1 0.3,0.2 0.5,0.2 0.2,0.1 0.4,0.2 0.7,0.2 0,0 0,0 0.1,0 0,0 0,0 0,0.1 5,0 10,0 15,0 0,0 0,-0.1 0.1,-0.1 h 0.1 c 0.1,0 0.3,0.1 0.3,-0.1 h 0.1 c 0.2,0 0.4,-0.1 0.5,-0.2 0.3,0 0.4,-0.2 0.6,-0.2 0,0 0.1,0 0.1,-0.1 0,0 0,0 0.1,0 0.5,-0.3 0.9,-0.6 1.2,-1 0,0 0.1,0 0.1,-0.1 0.2,-0.2 0.4,-0.4 0.5,-0.7 0,0 0,0 0,-0.1 0.2,-0.1 0.2,-0.4 0.3,-0.7 0,-0.1 0.1,-0.1 0.1,-0.3 0.1,-0.2 0.1,-0.5 0.2,-0.8 0,-0.1 0.1,-0.1 0.1,-0.2 0.1,-0.2 0.1,-0.4 0.2,-0.6 0.1,-0.5 0.3,-0.9 0.3,-1.4 0.1,-0.1 0.1,-0.2 0.1,-0.3 0.1,-0.4 0.1,-0.4 0.1,-0.6 z m -15,5.2 z m -0.2,0 z m 0,0 c 0.1,0 0.1,0 0,0 0.1,0 0.1,0 0,0 z m 0.1,0 z m -0.3,0 z m 0,0 c 0,0 0.1,0 0,0 0.1,0 0,0 0,0 z m 0.1,0 z m 0,0 c 0,0 0.1,0 0,0 0.1,0 0,0 0,0 z m -0.1,0 z m 0.8,0.1 c 0,-0.1 0,-0.1 0,0 0,-0.1 0,-0.1 0,0 z m 0,0 c 0,0 -0.1,0 -0.2,0 v 0 c 0.1,0 0.1,0 0.2,0 z m 0,0 z m 0,0 z m -0.2,0 v 0 0 0 0 c 0,-0.1 0.1,-0.1 0,0 0.1,-0.1 0,-0.1 0,0 z M 257.5,24 c 0,0 0.1,0 0,0 0.1,0 0,0 0,0 z m 0.1,0 z m 0,0.1 z m 0.1,-0.1 z m 0,0 z m 0,0 z m 0,0 z"
         id="path158"
         style="fill:#aa4400" />
    </g>
  </g>
</svg>
