<?xml version="1.0" encoding="UTF-8" standalone="no"?>
<!-- Created with Inkscape (http://www.inkscape.org/) -->

<svg
   xmlns:dc="http://purl.org/dc/elements/1.1/"
   xmlns:cc="http://creativecommons.org/ns#"
   xmlns:rdf="http://www.w3.org/1999/02/22-rdf-syntax-ns#"
   xmlns:svg="http://www.w3.org/2000/svg"
   xmlns="http://www.w3.org/2000/svg"
   xmlns:sodipodi="http://sodipodi.sourceforge.net/DTD/sodipodi-0.dtd"
   xmlns:inkscape="http://www.inkscape.org/namespaces/inkscape"
   width="33.205208mm"
   height="6.3219218mm"
   viewBox="0 0 33.205208 6.3219218"
   version="1.1"
   id="svg533"
   inkscape:version="0.92.4 (5da689c313, 2019-01-14)"
   sodipodi:docname="enduro.svg">
  <defs
     id="defs527" />
  <sodipodi:namedview
     id="base"
     pagecolor="#ffffff"
     bordercolor="#666666"
     borderopacity="1.0"
     inkscape:pageopacity="0.0"
     inkscape:pageshadow="2"
     inkscape:zoom="0.35"
     inkscape:cx="191.32142"
     inkscape:cy="104.80408"
     inkscape:document-units="mm"
     inkscape:current-layer="layer1"
     showgrid="false"
     inkscape:window-width="1304"
     inkscape:window-height="745"
     inkscape:window-x="-8"
     inkscape:window-y="-8"
     inkscape:window-maximized="1" />
  <metadata
     id="metadata530">
    <rdf:RDF>
      <cc:Work
         rdf:about="">
        <dc:format>image/svg+xml</dc:format>
        <dc:type
           rdf:resource="http://purl.org/dc/dcmitype/StillImage" />
        <dc:title></dc:title>
      </cc:Work>
    </rdf:RDF>
  </metadata>
  <g
     inkscape:label="Layer 1"
     inkscape:groupmode="layer"
     id="layer1"
     transform="translate(-55.212874,-170.24082)">
    <g
       transform="matrix(0.25855981,0,0,0.50061773,-128.98513,162.63553)"
       id="g210"
       style="fill:#800000">
      <polygon
         class="st2"
         points="712.4,24.7 712.4,15.2 728.9,15.2 728.9,17.5 717,17.5 717,18.9 728.2,18.9 728.2,20.9 717,20.9 717,22.4 729.1,22.4 729,24.7 "
         id="polygon198"
         style="fill:#800000" />
      <path
         inkscape:connector-curvature="0"
         class="st2"
         d="m 731.1,15.2 h 6.9 l 8.9,6.9 v -6.9 h 4.6 v 9.5 h -6.8 l -9,-6.9 v 6.9 h -4.6 z"
         id="path200"
         style="fill:#800000" />
      <path
         inkscape:connector-curvature="0"
         class="st2"
         d="m 785.3,22.4 c 0,0 1.9,0 3.2,-0.1 0.6,0 1,-0.1 1.3,-0.5 0.3,-0.5 0.3,-1.3 0.3,-2.1 v -4.5 h 4.6 v 5.1 c 0,1.4 0.1,2.3 -0.5,3.1 -0.5,0.7 -1.7,1.1 -2.7,1.3 -0.7,0.1 -4.9,0.1 -6.2,0.1 -1.3,0 -5.5,0 -6.2,-0.1 -1,-0.2 -2.2,-0.6 -2.7,-1.3 -0.6,-0.8 -0.5,-1.7 -0.5,-3.1 v -5.1 h 4.6 v 4.5 c 0,0.8 -0.1,1.6 0.3,2.1 0.3,0.4 0.7,0.5 1.3,0.5 1.3,0.1 3.2,0.1 3.2,0.1"
         id="path202"
         style="fill:#800000" />
      <path
         inkscape:connector-curvature="0"
         class="st2"
         d="m 826.8,17.5 -2.8,3.3 h 5.7 c 0,0 -2.7,-3.2 -2.9,-3.3 m -2.9,-2.3 h 5.9 l 8.1,9.5 h -5.1 l -1.5,-1.6 h -9.2 l -1.5,1.6 h -5 c 0.1,0 7.9,-8.9 8.3,-9.5"
         id="path204"
         style="fill:#800000" />
      <path
         inkscape:connector-curvature="0"
         class="st2"
         d="m 769.2,21 c -0.3,1.3 -1.8,1.3 -3.4,1.3 h -7.2 v -4.8 h 7.2 c 1.6,0 3.1,0 3.4,1.3 0,0.2 0,2.1 0,2.2 m 4.6,-2.5 c 0,-2.7 -3,-3.3 -6.4,-3.3 H 754 v 9.5 h 13.4 c 3.4,0 6.4,-0.7 6.4,-3.3 0,-0.6 0,-2.3 0,-2.9"
         id="path206"
         style="fill:#800000" />
      <path
         inkscape:connector-curvature="0"
         class="st2"
         d="m 801.2,17.6 v 2.3 h 6.9 c 0.7,0 1,0.1 1.6,-0.2 0.3,-0.2 0.5,-0.7 0.4,-1.3 -0.2,-0.9 -1.2,-0.8 -2,-0.8 z m -4.7,-2.4 h 10.3 c 2.2,0 4.5,-0.1 6.2,0.4 0.7,0.2 1.3,0.7 1.6,1.4 0.4,0.9 0.3,2.3 -0.2,3 -0.3,0.4 -0.8,0.7 -1.4,0.8 -0.2,0.1 -0.6,0.1 -0.6,0.1 v 0 c 0.2,0.1 0.6,0.1 0.6,0.1 0,0 0.7,0.2 1,0.4 1,0.6 0.8,1.7 0.8,3.3 h -4.6 c 0,-0.6 0.1,-1.6 -0.1,-2 -0.3,-0.5 -1.5,-0.5 -2.4,-0.5 h -6.5 v 2.4 h -4.7 z"
         id="path208"
         style="fill:#800000" />
    </g>
  </g>
</svg>
