<?xml version="1.0" encoding="UTF-8" standalone="no"?>
<!-- Created with Inkscape (http://www.inkscape.org/) -->

<svg
   xmlns:dc="http://purl.org/dc/elements/1.1/"
   xmlns:cc="http://creativecommons.org/ns#"
   xmlns:rdf="http://www.w3.org/1999/02/22-rdf-syntax-ns#"
   xmlns:svg="http://www.w3.org/2000/svg"
   xmlns="http://www.w3.org/2000/svg"
   xmlns:sodipodi="http://sodipodi.sourceforge.net/DTD/sodipodi-0.dtd"
   xmlns:inkscape="http://www.inkscape.org/namespaces/inkscape"
   width="24.923748mm"
   height="13.0175mm"
   viewBox="0 0 24.923748 13.0175"
   version="1.1"
   id="svg789"
   inkscape:version="0.92.4 (5da689c313, 2019-01-14)"
   sodipodi:docname="excellen.svg">
  <defs
     id="defs783" />
  <sodipodi:namedview
     id="base"
     pagecolor="#ffffff"
     bordercolor="#666666"
     borderopacity="1.0"
     inkscape:pageopacity="0.0"
     inkscape:pageshadow="2"
     inkscape:zoom="7.2"
     inkscape:cx="40.342832"
     inkscape:cy="26.031742"
     inkscape:document-units="mm"
     inkscape:current-layer="layer1"
     showgrid="false"
     inkscape:window-width="1304"
     inkscape:window-height="745"
     inkscape:window-x="-8"
     inkscape:window-y="-8"
     inkscape:window-maximized="1" />
  <metadata
     id="metadata786">
    <rdf:RDF>
      <cc:Work
         rdf:about="">
        <dc:format>image/svg+xml</dc:format>
        <dc:type
           rdf:resource="http://purl.org/dc/dcmitype/StillImage" />
        <dc:title />
      </cc:Work>
    </rdf:RDF>
  </metadata>
  <g
     inkscape:label="Layer 1"
     inkscape:groupmode="layer"
     id="layer1"
     transform="translate(-93.065299,-175.62995)">
    <path
       class="st3"
       d="m 97.80134,167.9835 h -5.582708 c -0.02646,0 -0.05292,0.0265 -0.05292,0.0529 v 3.83645 c 0,0.0265 0.02646,0.0529 0.05292,0.0529 h 5.582708 c 0.02646,0 0.05292,-0.0265 0.05292,-0.0529 v -3.83645 c 0,-0.0265 -0.02646,-0.0529 -0.05292,-0.0529 z m -0.926041,0.50271 -1.852084,1.34937 -1.852083,-1.34937 z m 0.502708,2.96333 h -4.709583 v -2.72521 l 2.328333,1.69334 c 0.02646,0.0265 0.05292,0.0265 0.07937,0 l 2.328333,-1.69334 z"
       id="path276"
       inkscape:connector-curvature="0"
       style="fill:#ffffff;stroke-width:0.26458332" />
    <g
       id="g3773">
      <g
         id="g431"
         transform="matrix(0.26458333,0,0,0.26458333,90.948632,52.36058)">
        <path
           style="fill:#191919"
           inkscape:connector-curvature="0"
           id="path413"
           d="m 26.4,476.4 v -9.7 h 6.1 v 1.9 h -3.9 v 2 H 32 v 1.8 h -3.3 v 2.2 h 4.1 v 1.9 z"
           class="st14" />
        <path
           style="fill:#191919"
           inkscape:connector-curvature="0"
           id="path415"
           d="m 33,476.4 2.3,-3.9 -2.1,-3.6 h 2.4 l 0.7,1.2 c 0.1,0.2 0.2,0.4 0.3,0.6 0.1,0.2 0.2,0.4 0.3,0.6 H 37 c 0.1,-0.2 0.2,-0.4 0.3,-0.6 0.1,-0.2 0.2,-0.4 0.3,-0.6 l 0.5,-1.2 h 2.3 l -2.2,3.8 2.3,3.6 h -2.4 l -0.7,-1.2 c -0.1,-0.2 -0.2,-0.4 -0.4,-0.6 -0.1,-0.2 -0.2,-0.4 -0.4,-0.6 h -0.1 c -0.1,0.2 -0.2,0.4 -0.3,0.6 -0.1,0.2 -0.2,0.4 -0.3,0.7 l -0.6,1.2 z"
           class="st14" />
        <path
           style="fill:#191919"
           inkscape:connector-curvature="0"
           id="path417"
           d="m 44.3,476.6 c -0.5,0 -1,-0.1 -1.4,-0.3 -0.4,-0.2 -0.8,-0.4 -1.2,-0.8 -0.3,-0.3 -0.6,-0.7 -0.8,-1.2 -0.2,-0.5 -0.3,-1 -0.3,-1.7 0,-0.6 0.1,-1.2 0.3,-1.7 0.2,-0.5 0.5,-0.9 0.8,-1.2 0.4,-0.3 0.8,-0.6 1.2,-0.8 0.5,-0.2 1,-0.3 1.5,-0.3 0.5,0 0.9,0.1 1.2,0.2 0.4,0.1 0.7,0.3 0.9,0.6 l -1,1.4 c -0.3,-0.3 -0.7,-0.4 -1,-0.4 -0.5,0 -1,0.2 -1.3,0.6 -0.3,0.4 -0.5,0.9 -0.5,1.5 0,0.6 0.2,1.2 0.5,1.5 0.3,0.3 0.7,0.6 1.2,0.6 0.2,0 0.5,-0.1 0.7,-0.2 0.2,-0.1 0.4,-0.2 0.6,-0.4 l 0.9,1.4 c -0.4,0.3 -0.8,0.5 -1.2,0.7 -0.3,0.4 -0.7,0.5 -1.1,0.5 z"
           class="st14" />
        <path
           style="fill:#191919"
           inkscape:connector-curvature="0"
           id="path419"
           d="m 51,476.6 c -0.5,0 -1,-0.1 -1.5,-0.3 -0.5,-0.2 -0.9,-0.4 -1.2,-0.8 -0.3,-0.3 -0.6,-0.7 -0.8,-1.2 -0.2,-0.5 -0.3,-1 -0.3,-1.6 0,-0.6 0.1,-1.1 0.3,-1.6 0.2,-0.5 0.5,-0.9 0.8,-1.2 0.3,-0.3 0.7,-0.6 1.1,-0.8 0.4,-0.2 0.9,-0.3 1.3,-0.3 0.5,0 1,0.1 1.4,0.3 0.4,0.2 0.7,0.4 1,0.7 0.3,0.3 0.5,0.7 0.6,1.1 0.1,0.4 0.2,0.9 0.2,1.4 0,0.2 0,0.4 0,0.6 0,0.2 0,0.3 -0.1,0.4 h -4.4 c 0.1,0.5 0.3,0.9 0.7,1.2 0.3,0.3 0.8,0.4 1.3,0.4 0.5,0 1.1,-0.2 1.6,-0.5 l 0.7,1.3 c -0.4,0.3 -0.8,0.5 -1.3,0.6 -0.5,0.1 -1,0.3 -1.4,0.3 z m -1.7,-4.7 H 52 c 0,-0.4 -0.1,-0.8 -0.3,-1 -0.2,-0.3 -0.5,-0.4 -1,-0.4 -0.3,0 -0.7,0.1 -0.9,0.3 -0.2,0.3 -0.4,0.6 -0.5,1.1 z"
           class="st14" />
        <path
           style="fill:#191919"
           inkscape:connector-curvature="0"
           id="path421"
           d="m 57.4,476.6 c -0.4,0 -0.7,-0.1 -1,-0.2 -0.3,-0.1 -0.5,-0.3 -0.6,-0.5 -0.2,-0.2 -0.3,-0.5 -0.3,-0.8 -0.1,-0.3 -0.1,-0.6 -0.1,-1 v -8.2 h 2.2 v 8.3 c 0,0.2 0,0.4 0.1,0.5 0.1,0.1 0.2,0.1 0.3,0.1 h 0.1 0.1 l 0.3,1.6 c -0.1,0 -0.3,0.1 -0.5,0.1 -0.1,0.1 -0.3,0.1 -0.6,0.1 z"
           class="st14" />
        <path
           style="fill:#191919"
           inkscape:connector-curvature="0"
           id="path423"
           d="m 61.7,476.6 c -0.4,0 -0.7,-0.1 -1,-0.2 -0.3,-0.1 -0.5,-0.3 -0.6,-0.5 -0.2,-0.2 -0.3,-0.5 -0.3,-0.8 -0.1,-0.3 -0.1,-0.6 -0.1,-1 v -8.2 h 2.2 v 8.3 c 0,0.2 0,0.4 0.1,0.5 0.1,0.1 0.2,0.1 0.3,0.1 h 0.1 0.1 l 0.3,1.6 c -0.1,0 -0.3,0.1 -0.5,0.1 -0.2,0.1 -0.4,0.1 -0.6,0.1 z"
           class="st14" />
        <path
           style="fill:#191919"
           inkscape:connector-curvature="0"
           id="path425"
           d="m 67.3,476.6 c -0.5,0 -1,-0.1 -1.5,-0.3 -0.5,-0.2 -0.9,-0.4 -1.2,-0.8 -0.3,-0.3 -0.6,-0.7 -0.8,-1.2 -0.2,-0.5 -0.3,-1 -0.3,-1.6 0,-0.6 0.1,-1.1 0.3,-1.6 0.2,-0.5 0.5,-0.9 0.8,-1.2 0.3,-0.3 0.7,-0.6 1.1,-0.8 0.4,-0.2 0.9,-0.3 1.3,-0.3 0.5,0 1,0.1 1.4,0.3 0.4,0.2 0.7,0.4 1,0.7 0.3,0.3 0.5,0.7 0.6,1.1 0.1,0.4 0.2,0.9 0.2,1.4 0,0.2 0,0.4 0,0.6 0,0.2 0,0.3 -0.1,0.4 h -4.4 c 0.1,0.5 0.3,0.9 0.7,1.2 0.3,0.3 0.8,0.4 1.3,0.4 0.5,0 1.1,-0.2 1.6,-0.5 l 0.7,1.3 c -0.4,0.3 -0.8,0.5 -1.3,0.6 -0.5,0.1 -1,0.3 -1.4,0.3 z m -1.7,-4.7 h 2.7 c 0,-0.4 -0.1,-0.8 -0.3,-1 -0.2,-0.3 -0.5,-0.4 -1,-0.4 -0.3,0 -0.7,0.1 -0.9,0.3 -0.2,0.3 -0.4,0.6 -0.5,1.1 z"
           class="st14" />
        <path
           style="fill:#191919"
           inkscape:connector-curvature="0"
           id="path427"
           d="M 71.7,476.4 V 469 h 1.8 l 0.1,0.9 h 0.1 c 0.3,-0.3 0.7,-0.6 1,-0.8 0.4,-0.2 0.8,-0.3 1.3,-0.3 0.8,0 1.4,0.3 1.8,0.8 0.4,0.5 0.5,1.3 0.5,2.2 v 4.6 h -2.2 v -4.3 c 0,-0.5 -0.1,-0.9 -0.2,-1.1 -0.1,-0.2 -0.4,-0.3 -0.7,-0.3 -0.3,0 -0.5,0.1 -0.7,0.2 -0.2,0.1 -0.4,0.3 -0.7,0.5 v 5 z"
           class="st14" />
        <path
           style="fill:#191919"
           inkscape:connector-curvature="0"
           id="path429"
           d="m 83.1,476.6 c -0.5,0 -0.8,-0.1 -1.2,-0.2 -0.3,-0.1 -0.6,-0.3 -0.8,-0.6 -0.2,-0.2 -0.4,-0.5 -0.4,-0.9 -0.1,-0.4 -0.1,-0.7 -0.1,-1.2 v -3 h -1 v -1.6 l 1.1,-0.1 0.3,-2 h 1.8 v 2 h 1.8 v 1.7 h -1.8 v 3 c 0,0.4 0.1,0.7 0.3,0.9 0.2,0.2 0.4,0.3 0.7,0.3 0.1,0 0.2,0 0.4,0 0.1,0 0.2,-0.1 0.3,-0.1 l 0.3,1.6 c -0.2,0.1 -0.4,0.1 -0.7,0.2 -0.3,0.1 -0.7,0 -1,0 z"
           class="st14" />
      </g>
      <g
         id="g443"
         transform="matrix(0.26458333,0,0,0.26458333,90.948632,52.36058)">
        <g
           id="Type">
          <g
             id="g435">
            <path
               style="fill:#191919"
               inkscape:connector-curvature="0"
               id="path433"
               d="m 40.5,505.9 h 5.8 V 507 H 44 v 6.1 H 42.7 V 507 h -2.3 z m 5.6,2 h 1.1 v 1 0 c 0,-0.1 0.1,-0.3 0.2,-0.4 0.1,-0.1 0.2,-0.3 0.3,-0.4 0.1,-0.1 0.3,-0.2 0.5,-0.3 0.2,-0.1 0.3,-0.1 0.5,-0.1 0.1,0 0.2,0 0.3,0 0.1,0 0.1,0 0.2,0 v 1.1 c -0.1,0 -0.2,0 -0.2,0 -0.1,0 -0.2,0 -0.2,0 -0.2,0 -0.4,0 -0.5,0.1 -0.1,0.1 -0.3,0.2 -0.4,0.3 -0.1,0.2 -0.2,0.3 -0.3,0.6 -0.1,0.2 -0.1,0.5 -0.1,0.8 v 2.5 h -1.1 z m 8.3,5.2 h -1.1 v -0.7 0 c -0.1,0.3 -0.3,0.5 -0.6,0.6 -0.3,0.2 -0.6,0.2 -0.9,0.2 -0.7,0 -1.2,-0.2 -1.5,-0.5 -0.3,-0.3 -0.5,-0.9 -0.5,-1.5 v -3.3 H 51 v 3.2 c 0,0.5 0.1,0.8 0.3,1 0.2,0.2 0.4,0.3 0.7,0.3 0.2,0 0.4,0 0.6,-0.1 0.2,-0.1 0.3,-0.2 0.4,-0.3 0.1,-0.1 0.2,-0.3 0.2,-0.4 0,-0.2 0.1,-0.4 0.1,-0.6 v -3 h 1.1 c 0,0 0,5.1 0,5.1 z m 1.9,-1.7 c 0,0.3 0.2,0.6 0.4,0.7 0.2,0.1 0.5,0.2 0.8,0.2 0.1,0 0.2,0 0.4,0 0.1,0 0.3,-0.1 0.4,-0.1 0.1,0 0.2,-0.1 0.3,-0.2 0.1,-0.1 0.1,-0.2 0.1,-0.4 0,-0.1 -0.1,-0.3 -0.2,-0.4 -0.1,-0.1 -0.2,-0.2 -0.4,-0.2 -0.2,-0.1 -0.3,-0.1 -0.5,-0.1 -0.2,0 -0.4,-0.1 -0.6,-0.1 -0.2,0 -0.4,-0.1 -0.6,-0.2 -0.2,-0.1 -0.4,-0.2 -0.5,-0.3 -0.2,-0.1 -0.3,-0.3 -0.4,-0.4 -0.1,-0.2 -0.1,-0.4 -0.1,-0.7 0,-0.3 0.1,-0.5 0.2,-0.7 0.1,-0.2 0.3,-0.3 0.5,-0.5 0.2,-0.1 0.4,-0.2 0.7,-0.2 0.3,0 0.5,-0.1 0.7,-0.1 0.3,0 0.5,0 0.8,0.1 0.2,0.1 0.5,0.1 0.7,0.3 0.2,0.1 0.4,0.3 0.5,0.5 0.1,0.2 0.2,0.5 0.2,0.7 h -1.2 c -0.1,-0.3 -0.2,-0.5 -0.4,-0.6 -0.2,-0.1 -0.4,-0.1 -0.7,-0.1 -0.1,0 -0.2,0 -0.3,0 -0.1,0 -0.2,0 -0.3,0.1 -0.1,0 -0.2,0.1 -0.2,0.2 -0.1,0.1 -0.1,0.2 -0.1,0.3 0,0.1 0.1,0.3 0.1,0.3 0.1,0.1 0.2,0.2 0.4,0.2 0.2,0.1 0.3,0.1 0.5,0.1 0.2,0 0.4,0.1 0.6,0.1 0.2,0 0.4,0.1 0.6,0.2 0.2,0.1 0.4,0.2 0.5,0.3 0.1,0.1 0.3,0.3 0.4,0.4 0.1,0.2 0.1,0.4 0.1,0.6 0,0.3 -0.1,0.6 -0.2,0.8 -0.1,0.2 -0.3,0.4 -0.5,0.5 -0.2,0.1 -0.5,0.2 -0.7,0.3 -0.3,0.1 -0.5,0.1 -0.8,0.1 -0.3,0 -0.6,0 -0.9,-0.1 -0.3,-0.1 -0.5,-0.2 -0.7,-0.3 -0.2,-0.2 -0.4,-0.3 -0.5,-0.6 -0.1,-0.2 -0.2,-0.5 -0.2,-0.8 z m 3.8,-3.5 H 61 v -1.6 h 1.1 v 1.6 h 1 v 0.9 h -1 v 2.8 c 0,0.1 0,0.2 0,0.3 0,0.1 0,0.2 0.1,0.2 0.1,0 0.1,0.1 0.2,0.1 0.1,0 0.2,0 0.3,0 0.1,0 0.2,0 0.2,0 0.1,0 0.2,0 0.2,0 v 0.9 c -0.1,0 -0.3,0 -0.4,0 -0.1,0 -0.2,0 -0.4,0 -0.3,0 -0.5,0 -0.7,-0.1 -0.2,-0.1 -0.3,-0.1 -0.4,-0.3 -0.1,-0.1 -0.2,-0.2 -0.2,-0.4 0,-0.2 -0.1,-0.4 -0.1,-0.6 v -3.1 H 60 Z m 3.9,0 h 1 v 0.7 0 c 0.2,-0.3 0.4,-0.5 0.7,-0.6 0.3,-0.1 0.6,-0.2 0.9,-0.2 0.4,0 0.8,0.1 1.1,0.2 0.3,0.1 0.6,0.3 0.8,0.6 0.2,0.3 0.3,0.5 0.5,0.9 0.1,0.3 0.2,0.7 0.2,1.1 0,0.3 0,0.7 -0.1,1 -0.1,0.3 -0.2,0.6 -0.4,0.9 -0.2,0.3 -0.4,0.5 -0.7,0.6 -0.3,0.2 -0.6,0.2 -1,0.2 -0.2,0 -0.3,0 -0.5,0 -0.2,0 -0.3,-0.1 -0.5,-0.1 -0.2,0 -0.3,-0.2 -0.4,-0.3 -0.1,-0.1 -0.2,-0.2 -0.3,-0.4 v 0 2.6 H 64 Z m 4,2.6 c 0,-0.2 0,-0.5 -0.1,-0.7 -0.1,-0.2 -0.2,-0.4 -0.3,-0.6 -0.1,-0.2 -0.3,-0.3 -0.5,-0.4 -0.2,-0.1 -0.4,-0.2 -0.6,-0.2 -0.5,0 -0.8,0.2 -1.1,0.5 -0.2,0.3 -0.4,0.8 -0.4,1.3 0,0.3 0,0.5 0.1,0.7 0.1,0.2 0.2,0.4 0.3,0.6 0.1,0.2 0.3,0.3 0.5,0.4 0.2,0.1 0.4,0.1 0.6,0.1 0.3,0 0.5,-0.1 0.7,-0.2 0.2,-0.1 0.3,-0.2 0.4,-0.4 0.1,-0.2 0.2,-0.4 0.3,-0.6 0,-0.1 0.1,-0.3 0.1,-0.5 z m 2,-4.6 h 1.1 V 507 H 70 Z m 0,2 h 1.1 v 5.2 H 70 Z m 2.1,-2 h 1.1 v 7.2 h -1.1 z m 4.7,7.3 c -0.4,0 -0.8,-0.1 -1.1,-0.2 -0.3,-0.1 -0.6,-0.3 -0.8,-0.6 -0.2,-0.2 -0.4,-0.5 -0.5,-0.9 -0.1,-0.3 -0.2,-0.7 -0.2,-1.1 0,-0.4 0.1,-0.8 0.2,-1.1 0.1,-0.3 0.3,-0.6 0.5,-0.9 0.2,-0.2 0.5,-0.4 0.8,-0.6 0.3,-0.2 0.7,-0.2 1.1,-0.2 0.4,0 0.8,0.1 1.1,0.2 0.3,0.1 0.6,0.3 0.8,0.6 0.2,0.2 0.4,0.5 0.5,0.9 0.1,0.3 0.2,0.7 0.2,1.1 0,0.4 -0.1,0.8 -0.2,1.1 -0.1,0.3 -0.3,0.6 -0.5,0.9 -0.2,0.2 -0.5,0.4 -0.8,0.6 -0.3,0.2 -0.7,0.2 -1.1,0.2 z m 0,-0.9 c 0.3,0 0.5,-0.1 0.7,-0.2 0.2,-0.1 0.3,-0.2 0.5,-0.4 0.1,-0.2 0.2,-0.4 0.3,-0.6 0.1,-0.2 0.1,-0.4 0.1,-0.7 0,-0.2 0,-0.4 -0.1,-0.7 -0.1,-0.2 -0.1,-0.4 -0.3,-0.6 -0.1,-0.2 -0.3,-0.3 -0.5,-0.4 -0.2,-0.1 -0.4,-0.2 -0.7,-0.2 -0.3,0 -0.5,0.1 -0.7,0.2 -0.2,0.1 -0.3,0.2 -0.5,0.4 -0.1,0.2 -0.2,0.4 -0.3,0.6 -0.1,0.2 -0.1,0.4 -0.1,0.7 0,0.2 0,0.5 0.1,0.7 0.1,0.2 0.1,0.4 0.3,0.6 0.2,0.2 0.3,0.3 0.5,0.4 0.2,0.2 0.4,0.2 0.7,0.2 z m 3,-4.4 h 0.9 v -1.6 h 1.1 v 1.6 h 1 v 0.9 h -1 v 2.8 c 0,0.1 0,0.2 0,0.3 0,0.1 0,0.2 0.1,0.2 0,0.1 0.1,0.1 0.2,0.1 0.1,0 0.2,0 0.3,0 0.1,0 0.2,0 0.2,0 0.1,0 0.2,0 0.2,0 v 0.9 c -0.1,0 -0.3,0 -0.4,0 -0.1,0 -0.2,0 -0.4,0 -0.3,0 -0.5,0 -0.7,-0.1 -0.2,-0.1 -0.3,-0.1 -0.4,-0.3 -0.1,-0.1 -0.2,-0.2 -0.2,-0.4 0,-0.2 -0.1,-0.4 -0.1,-0.6 v -3.1 h -0.9 z"
               class="st14" />
          </g>
        </g>
        <g
           id="Star">
          <polygon
             style="fill:#00b67a"
             id="polygon438"
             points="39.2,505.9 34,505.9 32.3,500.9 30.7,505.9 25.5,505.9 29.7,509 28.1,514 32.3,510.9 36.6,514 35,509 "
             class="st15" />
          <polygon
             style="fill:#005128"
             id="polygon440"
             points="35,509 32.3,510.9 35.3,510.1 "
             class="st16" />
        </g>
      </g>
      <g
         id="Trustpilot_ratings_4halfstar-RGB"
         transform="matrix(0.26458333,0,0,0.26458333,90.948632,52.36058)">
        <g
           id="g466">
          <rect
             style="fill:#00b67a"
             height="17.700001"
             width="17.700001"
             class="st15"
             y="481.39999"
             x="8"
             id="Rectangle-path" />
          <rect
             style="fill:#00b67a"
             id="rect446"
             height="17.700001"
             width="17.700001"
             class="st15"
             y="481.39999"
             x="27.1" />
          <rect
             style="fill:#00b67a"
             id="rect448"
             height="17.700001"
             width="17.700001"
             class="st15"
             y="481.39999"
             x="46.299999" />
          <rect
             style="fill:#00b67a"
             id="rect450"
             height="17.700001"
             width="17.700001"
             class="st15"
             y="481.39999"
             x="65.400002" />
          <g
             transform="translate(416)"
             id="Half">
            <rect
               style="fill:#dcdce6"
               id="rect452"
               height="17.700001"
               width="8.8000002"
               class="st17"
               y="481.39999"
               x="-322.60001" />
            <rect
               style="fill:#00b67a"
               id="rect454"
               height="17.700001"
               width="8.8000002"
               class="st15"
               y="481.39999"
               x="-331.39999" />
          </g>
          <path
             style="fill:#ffffff"
             inkscape:connector-curvature="0"
             d="m 16.8,493.3 2.7,-0.7 1.1,3.5 z m 6.2,-4.4 h -4.7 l -1.5,-4.5 -1.5,4.5 h -4.7 l 3.8,2.8 -1.5,4.5 3.8,-2.8 2.4,-1.7 z"
             class="st3"
             id="Shape" />
          <path
             style="fill:#ffffff"
             inkscape:connector-curvature="0"
             id="path458"
             d="m 36,493.3 2.7,-0.7 1.1,3.5 z m 6.2,-4.4 h -4.7 l -1.5,-4.5 -1.5,4.5 h -4.7 l 3.8,2.8 -1.5,4.5 3.8,-2.8 2.4,-1.7 z"
             class="st3" />
          <path
             style="fill:#ffffff"
             inkscape:connector-curvature="0"
             id="path460"
             d="m 55.1,493.3 2.7,-0.7 1.1,3.5 z m 6.2,-4.4 h -4.7 l -1.5,-4.5 -1.5,4.5 h -4.7 l 3.8,2.8 -1.5,4.5 3.8,-2.8 2.4,-1.7 z"
             class="st3" />
          <path
             style="fill:#ffffff"
             inkscape:connector-curvature="0"
             id="path462"
             d="m 74.3,493.3 2.7,-0.7 1.1,3.5 z m 6.2,-4.4 h -4.7 l -1.5,-4.5 -1.5,4.5 h -4.7 l 3.8,2.8 -1.5,4.5 3.8,-2.8 2.4,-1.7 z"
             class="st3" />
          <path
             style="fill:#ffffff"
             inkscape:connector-curvature="0"
             id="path464"
             d="m 93.4,493.3 2.7,-0.7 1.1,3.5 z m 6.2,-4.4 h -4.7 l -1.5,-4.5 -1.5,4.5 h -4.7 l 3.8,2.8 -1.5,4.5 3.8,-2.8 2.4,-1.7 z"
             class="st3" />
        </g>
      </g>
    </g>
  </g>
</svg>
