<?xml version="1.0" encoding="UTF-8" standalone="no"?>
<!-- Created with Inkscape (http://www.inkscape.org/) -->

<svg
   xmlns:dc="http://purl.org/dc/elements/1.1/"
   xmlns:cc="http://creativecommons.org/ns#"
   xmlns:rdf="http://www.w3.org/1999/02/22-rdf-syntax-ns#"
   xmlns:svg="http://www.w3.org/2000/svg"
   xmlns="http://www.w3.org/2000/svg"
   xmlns:sodipodi="http://sodipodi.sourceforge.net/DTD/sodipodi-0.dtd"
   xmlns:inkscape="http://www.inkscape.org/namespaces/inkscape"
   width="7.9375mm"
   height="7.9375mm"
   viewBox="0 0 7.9375 7.9375"
   version="1.1"
   id="svg739"
   inkscape:version="0.92.4 (5da689c313, 2019-01-14)"
   sodipodi:docname="fb.svg">
  <defs
     id="defs733" />
  <sodipodi:namedview
     id="base"
     pagecolor="#ffffff"
     bordercolor="#666666"
     borderopacity="1.0"
     inkscape:pageopacity="0.0"
     inkscape:pageshadow="2"
     inkscape:zoom="0.35"
     inkscape:cx="-25.000001"
     inkscape:cy="117.85715"
     inkscape:document-units="mm"
     inkscape:current-layer="layer1"
     showgrid="false"
     inkscape:window-width="1304"
     inkscape:window-height="745"
     inkscape:window-x="-8"
     inkscape:window-y="-8"
     inkscape:window-maximized="1" />
  <metadata
     id="metadata736">
    <rdf:RDF>
      <cc:Work
         rdf:about="">
        <dc:format>image/svg+xml</dc:format>
        <dc:type
           rdf:resource="http://purl.org/dc/dcmitype/StillImage" />
        <dc:title></dc:title>
      </cc:Work>
    </rdf:RDF>
  </metadata>
  <g
     inkscape:label="Layer 1"
     inkscape:groupmode="layer"
     id="layer1"
     transform="translate(-112.44792,-172.07887)">
    <g
       id="g305"
       transform="matrix(0.26458333,0,0,0.26458333,76.702709,168.11012)">
      <path
         class="st0"
         d="m 135.1,15 c 10,0 20,0 30,0 0,10 0,20 0,30 -10,0 -20,0 -29.9,0 v -0.1 c 0,-0.4 0,-0.8 0,-1.2 0,-0.2 0,-0.4 -0.1,-0.5 0,-8.7 0,-17.4 0,-26.1 v 0 c 0,-0.7 0,-1.4 0,-2.1 z m 25.4,8.4 c 0,-0.1 0,-0.1 0,-0.2 0,-0.4 0,-0.8 0,-1.2 0,-0.7 0,-1.4 0,-2.2 0,-0.1 0,-0.1 -0.1,-0.1 -0.6,-0.1 -1.3,-0.2 -1.9,-0.2 -0.9,0 -1.7,0 -2.5,0.2 -1.7,0.3 -2.8,1.3 -3.5,2.9 -0.3,0.8 -0.4,1.6 -0.4,2.4 0,0.9 0,1.8 0,2.8 0,0.1 0,0.1 -0.1,0.1 -0.2,0 -0.3,0.1 -0.5,0.1 -0.4,0 -0.9,0 -1.3,0 -0.3,0 -0.6,0 -0.8,0.1 -0.1,0 -0.1,0 -0.1,0.1 0,0.9 0,1.7 0,2.6 0,0.4 0,0.8 0.1,1.3 0.9,0 1.8,0 2.8,0 0,3.6 0,7.3 0,10.9 1.4,0 2.8,0 4.3,0 0,-3.6 0,-7.3 0,-10.9 1.3,0 2.7,0 4,0 0.1,-1.3 0.2,-2.7 0.2,-4 -1.4,0 -2.8,0 -4.3,0 V 28 c 0,-0.6 0,-1.2 0,-1.7 0,-0.5 0,-0.9 0,-1.4 0.1,-0.6 0.4,-1.1 1.1,-1.2 0.2,0 0.3,-0.1 0.5,-0.1 0.6,0 1.2,0 1.8,0 0.2,-0.2 0.4,-0.2 0.7,-0.2 z"
         id="path301"
         inkscape:connector-curvature="0"
         style="fill:#3e5b9e" />
      <path
         class="st1"
         d="m 160.5,23.4 c -0.3,0 -0.5,0 -0.8,0 -0.6,0 -1.2,0 -1.8,0 -0.2,0 -0.3,0 -0.5,0.1 -0.6,0.2 -1,0.6 -1.1,1.2 -0.1,0.5 0,0.9 0,1.4 0,0.6 0,1.2 0,1.7 v 0.1 c 1.4,0 2.8,0 4.3,0 -0.1,1.3 -0.2,2.7 -0.2,4 -1.3,0 -2.7,0 -4,0 0,3.6 0,7.3 0,10.9 -1.4,0 -2.8,0 -4.3,0 0,-3.6 0,-7.2 0,-10.9 -0.9,0 -1.8,0 -2.8,0 -0.1,-0.4 -0.1,-0.9 -0.1,-1.3 0,-0.9 0,-1.7 0,-2.6 0,-0.1 0,-0.1 0.1,-0.1 0.3,-0.1 0.6,-0.1 0.8,-0.1 0.4,0 0.9,0 1.3,0 0.2,0 0.3,0 0.5,-0.1 0.1,0 0.1,0 0.1,-0.1 0,-0.9 0,-1.8 0,-2.8 0,-0.8 0.1,-1.7 0.4,-2.4 0.7,-1.6 1.8,-2.5 3.5,-2.9 0.8,-0.2 1.7,-0.2 2.5,-0.2 0.6,0 1.3,0.1 1.9,0.2 0.1,0 0.1,0.1 0.1,0.1 0,0.7 0.1,1.4 0,2.2 0,0.4 0,0.8 0,1.2 0.1,0.3 0.1,0.4 0.1,0.4 z"
         id="path303"
         inkscape:connector-curvature="0"
         style="fill:#ffffff" />
    </g>
  </g>
</svg>
