<?xml version="1.0" encoding="UTF-8" standalone="no"?>
<!-- Created with Inkscape (http://www.inkscape.org/) -->

<svg
   xmlns:dc="http://purl.org/dc/elements/1.1/"
   xmlns:cc="http://creativecommons.org/ns#"
   xmlns:rdf="http://www.w3.org/1999/02/22-rdf-syntax-ns#"
   xmlns:svg="http://www.w3.org/2000/svg"
   xmlns="http://www.w3.org/2000/svg"
   xmlns:sodipodi="http://sodipodi.sourceforge.net/DTD/sodipodi-0.dtd"
   xmlns:inkscape="http://www.inkscape.org/namespaces/inkscape"
   width="23.706667mm"
   height="3.5868106mm"
   viewBox="0 0 23.706667 3.5868106"
   version="1.1"
   id="svg5276"
   inkscape:version="0.92.4 (5da689c313, 2019-01-14)"
   sodipodi:docname="giant.svg">
  <defs
     id="defs5270" />
  <sodipodi:namedview
     id="base"
     pagecolor="#ffffff"
     bordercolor="#666666"
     borderopacity="1.0"
     inkscape:pageopacity="0.0"
     inkscape:pageshadow="2"
     inkscape:zoom="0.35"
     inkscape:cx="-9.4857144"
     inkscape:cy="89.635358"
     inkscape:document-units="mm"
     inkscape:current-layer="layer1"
     showgrid="false"
     inkscape:window-width="1304"
     inkscape:window-height="745"
     inkscape:window-x="-8"
     inkscape:window-y="-8"
     inkscape:window-maximized="1" />
  <metadata
     id="metadata5273">
    <rdf:RDF>
      <cc:Work
         rdf:about="">
        <dc:format>image/svg+xml</dc:format>
        <dc:type
           rdf:resource="http://purl.org/dc/dcmitype/StillImage" />
        <dc:title></dc:title>
      </cc:Work>
    </rdf:RDF>
  </metadata>
  <g
     inkscape:label="Layer 1"
     inkscape:groupmode="layer"
     id="layer1"
     transform="translate(-108.3431,-168.96254)">
    <g
       id="g5151"
       transform="matrix(0.26458333,0,0,0.26458333,76.222679,165.4486)">
      <path
         class="st3"
         d="m 178.4,19.5 c -0.3,0.8 -0.7,1.5 -1,2.3 -0.7,1.5 -1.3,3.1 -2,4.6 -0.1,0.1 -0.1,0.2 -0.3,0.2 -1.8,0 -3.5,0 -5.3,0 -0.2,0 -0.2,0 -0.1,-0.2 1.7,-4.1 3.3,-8.1 4.9,-12.2 0.1,-0.2 0.1,-0.2 0.3,-0.2 1,0 1.9,0 2.9,0 1.3,0 2.6,0 3.9,0 0.1,0 0.2,0 0.2,0.2 1.1,2.2 2.1,4.3 3.2,6.5 v 0 c 0.2,-0.5 0.4,-0.9 0.6,-1.4 0.7,-1.7 1.5,-3.4 2.2,-5.1 0,-0.1 0.1,-0.1 0.2,-0.1 1.8,0 3.6,0 5.4,0 0,0 0,0 0.1,0 -0.2,0.6 -0.5,1.2 -0.7,1.8 -1.4,3.5 -2.8,7.1 -4.2,10.6 -0.1,0.2 -0.1,0.2 -0.3,0.2 -2.1,0 -4.1,0 -6.2,0 -0.2,0 -0.2,0 -0.3,-0.2 -1.1,-2.2 -2.2,-4.5 -3.4,-6.7 0,-0.1 -0.1,-0.2 -0.1,-0.3 z"
         id="path5141"
         inkscape:connector-curvature="0"
         style="fill:#0e78be" />
      <path
         class="st3"
         d="m 135.4,21.9 c -0.8,0 -1.6,0 -2.4,0 0,-0.2 0.1,-0.3 0.2,-0.5 0.3,-0.7 0.6,-1.4 0.8,-2.1 0,-0.1 0.1,-0.1 0.2,-0.1 2.9,0 5.7,0 8.6,0 v 0 c -0.1,0.2 -0.1,0.4 -0.2,0.6 -0.9,2.1 -1.7,4.2 -2.6,6.3 -0.1,0.1 -0.1,0.2 -0.2,0.1 -1.2,-0.5 -2.5,-0.6 -3.8,-0.5 -1.3,0.2 -2.6,0.5 -3.9,0.8 -1.4,0.3 -2.8,0.4 -4.3,0.3 -1.2,-0.1 -2.4,-0.2 -3.5,-0.6 -0.7,-0.3 -1.4,-0.6 -2,-1.2 -0.7,-0.7 -0.9,-1.5 -0.9,-2.5 0,-1.4 0.4,-2.6 1.1,-3.7 1.6,-2.5 3.8,-4.1 6.6,-4.8 1.4,-0.4 2.9,-0.6 4.4,-0.7 2.5,-0.1 5,0.2 7.4,0.8 0.8,0.2 1.5,0.7 2,1.3 0.4,0.6 0.5,1.2 0.4,1.9 0,0.2 0,0.5 -0.1,0.6 -0.1,0.1 -0.4,0 -0.6,0 -1.9,0 -3.8,0 -5.7,0 -0.1,0 -0.2,0 -0.3,-0.2 -0.3,-0.7 -0.8,-1.1 -1.5,-1.2 -1.3,-0.2 -2.5,-0.2 -3.7,0.3 -1.8,0.8 -2.9,2.2 -3.3,4.1 -0.2,1 0.4,1.9 1.4,2.3 0.7,0.3 1.4,0.3 2.2,0.3 0.8,-0.1 1.6,-0.2 2.4,-0.5 0.4,-0.2 0.9,-0.6 1.3,-1.1 z"
         id="path5143"
         inkscape:connector-curvature="0"
         style="fill:#0e78be" />
      <path
         class="st3"
         d="m 198.5,17.3 c -1.8,0 -3.7,0 -5.5,0 0.2,-0.4 0.3,-0.8 0.5,-1.3 0.2,-0.6 0.5,-1.2 0.7,-1.9 0.1,-0.2 0.1,-0.2 0.3,-0.2 4.9,0 9.7,0 14.6,0 0.6,0 1.3,0 1.9,0 -0.1,0.4 -0.3,0.8 -0.4,1.1 -0.2,0.7 -0.5,1.3 -0.7,2 0,0.1 -0.1,0.2 -0.3,0.2 -1.7,0 -3.4,0 -5.1,0 -0.2,0 -0.2,0 -0.3,0.2 -1.2,3 -2.4,5.9 -3.5,8.9 -0.1,0.1 -0.1,0.2 -0.3,0.2 -1.8,0 -3.6,0 -5.4,0 -0.2,0 -0.2,0 -0.1,-0.2 1.2,-2.9 2.3,-5.9 3.4,-8.8 0.2,0 0.2,-0.1 0.2,-0.2 z"
         id="path5145"
         inkscape:connector-curvature="0"
         style="fill:#0e78be" />
      <path
         class="st3"
         d="m 152.5,14 c -0.3,0.8 -0.6,1.6 -1,2.4 -1.3,3.4 -2.7,6.7 -4,10.1 -0.1,0.1 -0.1,0.2 -0.3,0.2 -1.9,0 -3.8,0 -5.7,0 -0.2,0 -0.2,0 -0.1,-0.2 1.6,-4.1 3.3,-8.2 4.9,-12.3 0,-0.1 0.1,-0.2 0.2,-0.2 2,0 4,0 6,0 z"
         id="path5147"
         inkscape:connector-curvature="0"
         style="fill:#0e78be" />
      <path
         class="st3"
         d="m 168.8,26.5 c -0.1,-0.6 -0.1,-1.2 -0.2,-1.7 -0.1,-1.1 -0.2,-2.2 -0.3,-3.3 -0.1,-1.1 -0.2,-2.2 -0.3,-3.4 -0.1,-1.2 -0.3,-2.5 -0.4,-3.7 0,-0.2 -0.1,-0.2 -0.2,-0.2 -2.4,0 -4.7,0 -7.1,0 h -0.1 c -0.1,0 -0.2,0 -0.3,0.1 -2.2,2.3 -4.4,4.6 -6.6,7 -1.5,1.6 -3.1,3.2 -4.6,4.8 -0.2,0.2 -0.4,0.5 -0.7,0.7 0.1,0 0.1,0 0.1,0 2,0 4.1,0 6.1,0 0.1,0 0.2,0 0.2,-0.1 0.4,-0.4 0.7,-0.8 1.1,-1.3 0.1,-0.1 0.2,-0.1 0.3,-0.1 0.5,0 1,0 1.5,0 1.6,0 3.2,0 4.8,0 0.1,0 0.2,0 0.2,0.2 0.1,0.4 0.2,0.7 0.2,1.1 0,0.1 0.1,0.2 0.2,0.2 2,0 4,0 6,0 0.1,-0.2 0.2,-0.2 0.1,-0.3 z m -6.7,-4.6 c -1.1,0 -2.3,0 -3.4,0 1.1,-1.3 2.3,-2.7 3.4,-4 0.1,0.4 0,0.8 0.1,1.2 0,0.9 0.1,1.7 0.1,2.6 -0.1,0.1 -0.1,0.2 -0.2,0.2 z"
         id="path5149"
         inkscape:connector-curvature="0"
         style="fill:#0e78be" />
    </g>
  </g>
</svg>
