<?xml version="1.0" encoding="UTF-8" standalone="no"?>
<!-- Created with Inkscape (http://www.inkscape.org/) -->

<svg
   xmlns:dc="http://purl.org/dc/elements/1.1/"
   xmlns:cc="http://creativecommons.org/ns#"
   xmlns:rdf="http://www.w3.org/1999/02/22-rdf-syntax-ns#"
   xmlns:svg="http://www.w3.org/2000/svg"
   xmlns="http://www.w3.org/2000/svg"
   xmlns:sodipodi="http://sodipodi.sourceforge.net/DTD/sodipodi-0.dtd"
   xmlns:inkscape="http://www.inkscape.org/namespaces/inkscape"
   width="16.32806mm"
   height="10.269724mm"
   viewBox="0 0 16.32806 10.269724"
   version="1.1"
   id="svg1100"
   inkscape:version="0.92.4 (5da689c313, 2019-01-14)"
   sodipodi:docname="google.svg">
  <defs
     id="defs1094" />
  <sodipodi:namedview
     id="base"
     pagecolor="#ffffff"
     bordercolor="#666666"
     borderopacity="1.0"
     inkscape:pageopacity="0.0"
     inkscape:pageshadow="2"
     inkscape:zoom="0.35"
     inkscape:cx="30.856176"
     inkscape:cy="122.26448"
     inkscape:document-units="mm"
     inkscape:current-layer="layer1"
     showgrid="false"
     inkscape:window-width="1304"
     inkscape:window-height="745"
     inkscape:window-x="-8"
     inkscape:window-y="-8"
     inkscape:window-maximized="1" />
  <metadata
     id="metadata1097">
    <rdf:RDF>
      <cc:Work
         rdf:about="">
        <dc:format>image/svg+xml</dc:format>
        <dc:type
           rdf:resource="http://purl.org/dc/dcmitype/StillImage" />
        <dc:title></dc:title>
      </cc:Work>
    </rdf:RDF>
  </metadata>
  <g
     inkscape:label="Layer 1"
     inkscape:groupmode="layer"
     id="layer1"
     transform="translate(-97.669303,-170.91275)">
    <g
       id="g869"
       transform="matrix(0.26458333,0,0,0.26458333,16.504265,168.20149)">
      <g
         id="g867">
        <path
           class="st9"
           d="m 318.359,17.399 c 1.111,0.002 2.223,0.004 3.334,0.006 0.05,0 0.1,0.003 0.15,0 0.099,-0.006 0.14,0.044 0.15,0.138 0.021,0.191 0.055,0.381 0.067,0.572 0.083,1.23 -0.063,2.428 -0.509,3.583 -0.397,1.028 -1.046,1.871 -1.88,2.579 -1.037,0.881 -2.233,1.402 -3.579,1.593 -1.505,0.213 -2.979,0.103 -4.378,-0.507 -2.749,-1.2 -4.435,-3.275 -4.866,-6.258 -0.327,-2.264 0.327,-4.289 1.804,-6.035 1.135,-1.342 2.572,-2.207 4.279,-2.621 0.873,-0.211 1.757,-0.243 2.65,-0.158 1.365,0.131 2.597,0.607 3.703,1.414 0.253,0.185 0.494,0.385 0.724,0.598 0.078,0.072 0.093,0.127 0.011,0.211 -0.44,0.446 -0.875,0.898 -1.314,1.345 -0.091,0.092 -0.096,0.087 -0.224,-0.027 -0.543,-0.484 -1.151,-0.859 -1.838,-1.104 -0.693,-0.247 -1.409,-0.345 -2.142,-0.31 -1.54,0.072 -2.84,0.673 -3.887,1.802 -0.734,0.792 -1.207,1.727 -1.393,2.791 -0.303,1.724 0.052,3.303 1.139,4.687 0.832,1.059 1.925,1.718 3.247,1.982 1.165,0.233 2.312,0.157 3.414,-0.301 0.973,-0.404 1.764,-1.04 2.282,-1.976 0.293,-0.53 0.449,-1.106 0.539,-1.702 0.02,-0.129 0.01,-0.138 -0.14,-0.14 -0.427,-0.005 -0.855,-0.007 -1.282,-0.008 -1.126,-0.003 -2.251,-0.004 -3.377,-0.006 -0.057,0 -0.114,-0.003 -0.171,0 -0.098,0.004 -0.141,-0.034 -0.14,-0.137 0.004,-0.627 0.005,-1.254 0.003,-1.881 0,-0.102 0.04,-0.139 0.139,-0.136 0.178,0.005 0.356,0.002 0.534,0.002 0.985,0.001 1.968,0.002 2.951,0.004 z"
           id="path855"
           inkscape:connector-curvature="0"
           style="fill:#6f6e6e" />
        <path
           class="st9"
           d="m 352.388,17.023 c 0.064,-0.056 0.04,-0.124 0.042,-0.185 0.004,-0.157 0.004,-0.313 10e-4,-0.47 -0.002,-0.093 0.021,-0.146 0.13,-0.145 0.62,0.004 1.239,0.005 1.859,0.004 0.089,0 0.133,0.035 0.131,0.125 -10e-4,0.05 0,0.1 0,0.15 -0.005,2.87 -0.009,5.74 -0.017,8.611 -0.002,0.792 -0.062,1.579 -0.31,2.34 -0.565,1.73 -1.758,2.732 -3.543,3.033 -0.789,0.133 -1.574,0.109 -2.348,-0.116 -1.036,-0.301 -1.862,-0.902 -2.507,-1.759 -0.211,-0.28 -0.389,-0.579 -0.533,-0.899 -0.067,-0.148 -0.067,-0.152 0.087,-0.217 0.545,-0.228 1.091,-0.454 1.638,-0.678 0.147,-0.06 0.151,-0.058 0.222,0.088 0.245,0.503 0.586,0.925 1.057,1.233 0.507,0.331 1.064,0.457 1.667,0.411 0.432,-0.033 0.845,-0.126 1.221,-0.347 0.601,-0.354 0.935,-0.9 1.106,-1.56 0.139,-0.537 0.128,-1.087 0.125,-1.635 0,-0.034 0.006,-0.079 -0.032,-0.095 -0.072,-0.03 -0.098,0.041 -0.134,0.078 -0.562,0.586 -1.261,0.896 -2.053,0.999 -0.91,0.118 -1.779,-0.048 -2.586,-0.476 -1.553,-0.823 -2.479,-2.115 -2.723,-3.855 -0.207,-1.479 0.192,-2.811 1.141,-3.966 0.685,-0.833 1.55,-1.403 2.604,-1.655 1.09,-0.261 2.135,-0.158 3.1,0.458 0.18,0.115 0.347,0.248 0.497,0.403 0.045,0.047 0.083,0.113 0.158,0.125 z m 0.182,3.874 c 0.007,-0.358 -0.063,-0.784 -0.223,-1.194 -0.303,-0.773 -0.809,-1.354 -1.601,-1.647 -1.098,-0.406 -2.361,0.006 -3.069,0.989 -0.465,0.646 -0.648,1.37 -0.599,2.157 0.059,0.947 0.437,1.736 1.211,2.302 1.158,0.846 2.759,0.665 3.652,-0.525 0.445,-0.593 0.631,-1.267 0.629,-2.082 z"
           id="path857"
           inkscape:connector-curvature="0"
           style="fill:#6f6e6e" />
        <path
           class="st9"
           d="m 327.955,15.858 c 1.817,0.076 3.328,0.855 4.308,2.53 0.553,0.944 0.734,1.98 0.627,3.067 -0.104,1.067 -0.495,2.016 -1.209,2.818 -1.009,1.133 -2.29,1.704 -3.799,1.702 -1.911,-0.003 -3.416,-0.802 -4.421,-2.446 -1.088,-1.78 -0.999,-4.511 0.814,-6.256 0.789,-0.76 1.736,-1.202 2.82,-1.357 0.256,-0.036 0.512,-0.04 0.86,-0.058 z m 2.734,4.959 c 0.006,-0.358 -0.085,-0.815 -0.276,-1.253 -0.831,-1.902 -3.338,-2.295 -4.682,-0.733 -0.895,1.04 -0.994,2.704 -0.231,3.868 1.059,1.616 3.311,1.727 4.52,0.219 0.464,-0.577 0.666,-1.247 0.669,-2.101 z"
           id="path859"
           inkscape:connector-curvature="0"
           style="fill:#6f6e6e" />
        <path
           class="st9"
           d="m 338.862,25.997 c -2.103,-0.085 -3.707,-0.986 -4.619,-2.928 -0.908,-1.934 -0.455,-4.314 1.066,-5.781 0.8,-0.771 1.762,-1.219 2.865,-1.356 1.293,-0.16 2.501,0.085 3.583,0.82 1.306,0.887 2.013,2.138 2.165,3.706 0.094,0.966 -0.054,1.897 -0.496,2.759 -0.85,1.658 -2.232,2.556 -4.074,2.763 -0.085,0.01 -0.17,0.014 -0.256,0.017 -0.077,0.003 -0.156,0 -0.234,0 z m 2.854,-5.053 c 0,-0.652 -0.153,-1.213 -0.47,-1.728 -1.031,-1.669 -3.392,-1.792 -4.586,-0.239 -0.833,1.083 -0.861,2.712 -0.065,3.84 1.014,1.437 3.066,1.595 4.28,0.323 0.583,-0.612 0.841,-1.357 0.841,-2.196 z"
           id="path861"
           inkscape:connector-curvature="0"
           style="fill:#6f6e6e" />
        <path
           class="st9"
           d="m 363.892,26.045 c -1.238,-0.025 -2.514,-0.56 -3.496,-1.719 -0.74,-0.873 -1.109,-1.9 -1.165,-3.037 -0.056,-1.129 0.157,-2.203 0.766,-3.17 0.848,-1.347 2.078,-2.083 3.669,-2.176 1.644,-0.097 2.923,0.585 3.892,1.893 0.399,0.539 0.657,1.147 0.893,1.767 0.049,0.129 0.044,0.132 -0.127,0.203 -1.119,0.461 -2.239,0.922 -3.358,1.383 -1.008,0.415 -2.015,0.829 -3.023,1.244 -0.026,0.011 -0.052,0.024 -0.079,0.033 -0.1,0.032 -0.112,0.09 -0.062,0.178 0.378,0.681 0.916,1.167 1.692,1.328 1.203,0.25 2.312,-0.112 3.071,-1.186 0.095,-0.134 0.096,-0.136 0.233,-0.046 0.493,0.327 0.985,0.654 1.476,0.983 0.132,0.088 0.134,0.093 0.046,0.21 -1.036,1.374 -2.473,2.123 -4.428,2.112 z m -2.521,-5.23 c 0.079,-0.027 0.126,-0.04 0.171,-0.058 1.354,-0.559 2.708,-1.119 4.061,-1.679 0.313,-0.129 0.32,-0.149 0.113,-0.421 -0.349,-0.458 -0.832,-0.675 -1.389,-0.747 -1.107,-0.143 -2.166,0.548 -2.628,1.436 -0.235,0.45 -0.339,0.93 -0.328,1.469 z"
           id="path863"
           inkscape:connector-curvature="0"
           style="fill:#6f6e6e" />
        <path
           class="st9"
           d="m 356.018,18.285 c 0.004,-2.393 0.008,-4.787 0.013,-7.18 10e-4,-0.276 -0.026,-0.258 0.248,-0.257 0.598,0.002 1.197,0.004 1.795,0.008 0.178,10e-4 0.178,0.004 0.182,0.175 0.001,0.036 0,0.071 0,0.107 -0.009,4.772 -0.017,9.545 -0.026,14.317 -0.001,0.299 0.047,0.274 -0.272,0.274 -0.563,0 -1.125,-0.002 -1.688,-0.003 -0.05,0 -0.1,-0.002 -0.15,-10e-4 -0.078,0.003 -0.121,-0.026 -0.116,-0.111 0.003,-0.057 10e-4,-0.114 10e-4,-0.171 0.004,-2.386 0.009,-4.772 0.013,-7.158 z"
           id="path865"
           inkscape:connector-curvature="0"
           style="fill:#6f6e6e" />
      </g>
    </g>
    <g
       id="g883"
       transform="matrix(0.26458333,0,0,0.26458333,16.504265,168.20149)">
      <g
         id="g881">
        <path
           class="st9"
           d="m 331.285,46.445 h -0.612 v 1.275 h -1.149 v -1.275 h -2.308 v -0.848 l 1.946,-3.205 h 1.51 v 3.113 h 0.612 v 0.94 z m -1.762,-0.939 v -0.864 c 0,-0.174 0.005,-0.373 0.017,-0.6 0.011,-0.227 0.022,-0.424 0.033,-0.592 h -0.033 c -0.067,0.146 -0.137,0.294 -0.21,0.444 -0.072,0.151 -0.148,0.303 -0.227,0.453 l -0.704,1.158 h 1.124 z"
           id="path871"
           inkscape:connector-curvature="0"
           style="fill:#6f6e6e" />
        <path
           class="st9"
           d="m 331.997,47.048 c 0,-0.224 0.071,-0.409 0.214,-0.558 0.143,-0.149 0.32,-0.222 0.533,-0.222 0.212,0 0.39,0.073 0.532,0.222 0.142,0.149 0.214,0.334 0.214,0.558 0,0.219 -0.071,0.401 -0.214,0.55 -0.143,0.149 -0.32,0.223 -0.532,0.223 -0.213,0 -0.391,-0.074 -0.533,-0.223 -0.142,-0.149 -0.214,-0.331 -0.214,-0.55 z"
           id="path873"
           inkscape:connector-curvature="0"
           style="fill:#6f6e6e" />
        <path
           class="st9"
           d="m 337.409,43.668 c -0.096,-0.101 -0.218,-0.188 -0.369,-0.264 -0.151,-0.076 -0.305,-0.113 -0.462,-0.113 -0.146,0 -0.282,0.027 -0.411,0.084 -0.128,0.056 -0.241,0.149 -0.339,0.28 -0.099,0.132 -0.178,0.304 -0.239,0.517 -0.062,0.212 -0.099,0.473 -0.109,0.78 0.067,-0.09 0.146,-0.169 0.235,-0.239 0.089,-0.07 0.182,-0.129 0.276,-0.177 0.095,-0.047 0.19,-0.083 0.285,-0.108 0.095,-0.025 0.185,-0.038 0.269,-0.038 0.229,0 0.44,0.033 0.634,0.101 0.192,0.067 0.36,0.168 0.503,0.303 0.143,0.134 0.253,0.305 0.331,0.512 0.079,0.207 0.118,0.45 0.118,0.729 0,0.279 -0.048,0.528 -0.143,0.747 -0.096,0.218 -0.223,0.405 -0.382,0.562 -0.159,0.157 -0.347,0.275 -0.563,0.356 -0.215,0.081 -0.443,0.122 -0.684,0.122 -0.257,0 -0.508,-0.051 -0.751,-0.151 -0.243,-0.1 -0.459,-0.257 -0.646,-0.47 -0.188,-0.212 -0.337,-0.485 -0.449,-0.818 -0.112,-0.332 -0.168,-0.733 -0.168,-1.203 0,-0.498 0.061,-0.929 0.181,-1.292 0.12,-0.364 0.279,-0.663 0.479,-0.898 0.198,-0.234 0.428,-0.409 0.688,-0.523 0.26,-0.115 0.53,-0.173 0.81,-0.173 0.353,0 0.657,0.063 0.915,0.189 0.257,0.126 0.47,0.275 0.637,0.448 z m -1.075,3.23 c 0.185,0 0.343,-0.068 0.475,-0.206 0.131,-0.137 0.197,-0.356 0.197,-0.658 0,-0.285 -0.066,-0.485 -0.197,-0.6 -0.132,-0.115 -0.298,-0.172 -0.499,-0.172 -0.135,0 -0.271,0.039 -0.411,0.117 -0.141,0.078 -0.271,0.215 -0.395,0.411 0.027,0.213 0.069,0.389 0.126,0.528 0.056,0.14 0.12,0.253 0.192,0.34 0.073,0.087 0.152,0.148 0.239,0.185 0.087,0.037 0.179,0.055 0.273,0.055 z"
           id="path875"
           inkscape:connector-curvature="0"
           style="fill:#6f6e6e" />
        <path
           class="st9"
           d="m 341.972,41.763 h 0.806 l -1.687,7.299 h -0.805 z"
           id="path877"
           inkscape:connector-curvature="0"
           style="fill:#6f6e6e" />
        <path
           class="st9"
           d="m 345.513,46.294 c 0.162,0.146 0.337,0.271 0.524,0.374 0.187,0.104 0.396,0.155 0.625,0.155 0.273,0 0.491,-0.07 0.654,-0.21 0.162,-0.14 0.243,-0.347 0.243,-0.621 0,-0.269 -0.077,-0.473 -0.23,-0.612 -0.154,-0.14 -0.357,-0.21 -0.608,-0.21 -0.079,0 -0.148,0.004 -0.21,0.013 -0.062,0.009 -0.122,0.023 -0.181,0.046 -0.059,0.023 -0.12,0.051 -0.185,0.084 -0.064,0.034 -0.136,0.075 -0.214,0.126 l -0.554,-0.353 0.151,-2.693 h 3.021 v 1.041 h -1.955 l -0.093,0.998 c 0.101,-0.045 0.197,-0.077 0.29,-0.097 0.092,-0.02 0.194,-0.029 0.306,-0.029 0.229,0 0.446,0.034 0.65,0.101 0.204,0.067 0.385,0.168 0.541,0.303 0.156,0.134 0.28,0.305 0.369,0.512 0.09,0.207 0.135,0.453 0.135,0.738 0,0.296 -0.054,0.559 -0.16,0.788 -0.105,0.229 -0.248,0.424 -0.428,0.583 -0.179,0.159 -0.387,0.281 -0.625,0.365 -0.237,0.084 -0.485,0.126 -0.742,0.126 -0.437,0 -0.806,-0.071 -1.107,-0.214 -0.301,-0.143 -0.56,-0.32 -0.771,-0.533 z"
           id="path879"
           inkscape:connector-curvature="0"
           style="fill:#6f6e6e" />
      </g>
    </g>
    <g
       id="g899"
       transform="matrix(0.26458333,0,0,0.26458333,16.504265,168.20149)">
      <polygon
         class="st9"
         points="359.989,34.461 358.75,31.951 357.512,34.461 354.741,34.864 356.746,36.818 356.273,39.577 358.75,38.274 360.007,38.935 360.007,34.464 "
         id="polygon885"
         style="fill:#6f6e6e" />
      <g
         id="g889">
        <polygon
           class="st9"
           points="361.228,39.577 360.755,36.818 362.76,34.864 360.007,34.464 360.007,38.935 "
           id="polygon887"
           style="fill:#6f6e6e" />
      </g>
      <polygon
         class="st9"
         points="352.195,34.864 349.425,34.461 348.186,31.951 346.947,34.461 344.176,34.864 346.181,36.818 345.708,39.577 348.186,38.274 350.664,39.577 350.19,36.818 "
         id="polygon891"
         style="fill:#6f6e6e" />
      <polygon
         class="st9"
         points="341.63,34.864 338.86,34.461 337.621,31.951 336.382,34.461 333.612,34.864 335.616,36.818 335.143,39.577 337.621,38.274 340.099,39.577 339.626,36.818 "
         id="polygon893"
         style="fill:#6f6e6e" />
      <polygon
         class="st9"
         points="331.066,34.864 328.295,34.461 327.056,31.951 325.817,34.461 323.047,34.864 325.052,36.818 324.579,39.577 327.056,38.274 329.534,39.577 329.061,36.818 "
         id="polygon895"
         style="fill:#6f6e6e" />
      <polygon
         class="st9"
         points="320.501,34.864 317.731,34.461 316.492,31.951 315.253,34.461 312.482,34.864 314.487,36.818 314.014,39.577 316.492,38.274 318.97,39.577 318.496,36.818 "
         id="polygon897"
         style="fill:#6f6e6e" />
    </g>
  </g>
</svg>
