<?xml version="1.0" encoding="UTF-8" standalone="no"?>
<!-- Created with Inkscape (http://www.inkscape.org/) -->

<svg
   xmlns:dc="http://purl.org/dc/elements/1.1/"
   xmlns:cc="http://creativecommons.org/ns#"
   xmlns:rdf="http://www.w3.org/1999/02/22-rdf-syntax-ns#"
   xmlns:svg="http://www.w3.org/2000/svg"
   xmlns="http://www.w3.org/2000/svg"
   xmlns:sodipodi="http://sodipodi.sourceforge.net/DTD/sodipodi-0.dtd"
   xmlns:inkscape="http://www.inkscape.org/namespaces/inkscape"
   width="7.9417334mm"
   height="7.9639583mm"
   viewBox="0 0 7.9417334 7.9639583"
   version="1.1"
   id="svg696"
   inkscape:version="0.92.4 (5da689c313, 2019-01-14)"
   sodipodi:docname="instagram1.svg">
  <defs
     id="defs690" />
  <sodipodi:namedview
     id="base"
     pagecolor="#ffffff"
     bordercolor="#666666"
     borderopacity="1.0"
     inkscape:pageopacity="0.0"
     inkscape:pageshadow="2"
     inkscape:zoom="0.35"
     inkscape:cx="17.865144"
     inkscape:cy="115.05001"
     inkscape:document-units="mm"
     inkscape:current-layer="layer1"
     showgrid="false"
     inkscape:window-width="1304"
     inkscape:window-height="745"
     inkscape:window-x="-8"
     inkscape:window-y="-8"
     inkscape:window-maximized="1" />
  <metadata
     id="metadata693">
    <rdf:RDF>
      <cc:Work
         rdf:about="">
        <dc:format>image/svg+xml</dc:format>
        <dc:type
           rdf:resource="http://purl.org/dc/dcmitype/StillImage" />
        <dc:title></dc:title>
      </cc:Work>
    </rdf:RDF>
  </metadata>
  <g
     inkscape:label="Layer 1"
     inkscape:groupmode="layer"
     id="layer1"
     transform="translate(-101.10651,-171.30969)">
    <g
       id="KeCKWy.tif"
       transform="matrix(0.26458333,0,0,0.26458333,81.236306,167.34094)">
      <g
         id="g335">
        <g
           id="g333">
          <g
             id="g331">
            <path
               class="st5"
               d="m 75.1,45 c 0,-10 0,-19.9 0,-29.9 0,-0.1 0,-0.1 0.1,-0.1 10,0 19.9,0 29.9,0 0,0.1 0,0.1 0,0.2 0,9.9 0,19.8 0,29.7 0,0.2 0,0.2 -0.2,0.2 -9.9,0 -19.8,0 -29.7,0 0,-0.1 -0.1,0 -0.1,-0.1 z"
               id="path327"
               inkscape:connector-curvature="0"
               style="fill:#d93175" />
            <path
               class="st5"
               d="m 75.1,45 c 9.9,0 19.8,0 29.8,0 0.3,0 0.2,0 0.2,-0.2 0,-9.9 0,-19.9 0,-29.8 v 0 0.1 c 0,9.9 0,19.8 0,29.8 0,0.1 0,0.1 -0.1,0.1 -9.9,0 -19.8,0 -29.9,0 0.1,0.1 0,0.1 0,0 z"
               id="path329"
               inkscape:connector-curvature="0"
               style="fill:#d93175" />
          </g>
        </g>
      </g>
    </g>
    <g
       id="g350"
       transform="matrix(0.26458333,0,0,0.26458333,81.236306,167.34094)">
      <path
         class="st1"
         d="m 90.108,25.359 c -2.558,0 -4.64,2.081 -4.64,4.64 0,2.559 2.081,4.64 4.64,4.64 2.558,0 4.64,-2.081 4.64,-4.64 0,-2.559 -2.082,-4.64 -4.64,-4.64 z m 0,7.62 c -1.643,0 -2.98,-1.337 -2.98,-2.98 0,-1.643 1.337,-2.98 2.98,-2.98 1.643,0 2.98,1.337 2.98,2.98 0,1.643 -1.337,2.98 -2.98,2.98 z"
         id="path344"
         inkscape:connector-curvature="0"
         style="fill:#ffffff" />
      <circle
         class="st1"
         cx="94.921997"
         cy="25.246"
         r="1.053"
         id="circle346"
         style="fill:#ffffff" />
      <path
         class="st1"
         d="m 97.671,22.509 c -0.958,-0.966 -2.279,-1.476 -3.818,-1.476 h -7.489 c -3.154,0 -5.272,2.119 -5.272,5.272 v 7.448 c 0,1.576 0.525,2.919 1.518,3.883 0.964,0.936 2.277,1.431 3.796,1.431 h 7.406 c 1.548,0 2.872,-0.493 3.828,-1.427 0.972,-0.949 1.486,-2.279 1.486,-3.845 V 26.306 C 99.125,24.78 98.622,23.467 97.671,22.509 Z m -0.206,11.286 c 0,1.109 -0.341,2.028 -0.986,2.658 -0.64,0.625 -1.562,0.955 -2.668,0.955 h -7.406 c -1.079,0 -1.992,-0.333 -2.64,-0.962 -0.664,-0.644 -1.014,-1.575 -1.014,-2.692 v -7.448 c 0,-1.101 0.336,-2.017 0.972,-2.65 0.633,-0.63 1.546,-0.963 2.64,-0.963 h 7.489 c 1.087,0 2,0.341 2.64,0.985 0.636,0.641 0.972,1.549 0.972,2.627 z"
         id="path348"
         inkscape:connector-curvature="0"
         style="fill:#ffffff" />
    </g>
  </g>
</svg>
