<?xml version="1.0" encoding="UTF-8" standalone="no"?>
<!-- Created with Inkscape (http://www.inkscape.org/) -->

<svg
   xmlns:dc="http://purl.org/dc/elements/1.1/"
   xmlns:cc="http://creativecommons.org/ns#"
   xmlns:rdf="http://www.w3.org/1999/02/22-rdf-syntax-ns#"
   xmlns:svg="http://www.w3.org/2000/svg"
   xmlns="http://www.w3.org/2000/svg"
   xmlns:sodipodi="http://sodipodi.sourceforge.net/DTD/sodipodi-0.dtd"
   xmlns:inkscape="http://www.inkscape.org/namespaces/inkscape"
   width="5.2886543mm"
   height="5.2718277mm"
   viewBox="0 0 5.2886543 5.2718277"
   version="1.1"
   id="svg1036"
   inkscape:version="0.92.4 (5da689c313, 2019-01-14)"
   sodipodi:docname="kaca.svg">
  <defs
     id="defs1030" />
  <sodipodi:namedview
     id="base"
     pagecolor="#ffffff"
     bordercolor="#666666"
     borderopacity="1.0"
     inkscape:pageopacity="0.0"
     inkscape:pageshadow="2"
     inkscape:zoom="0.35"
     inkscape:cx="27.137125"
     inkscape:cy="58.533937"
     inkscape:document-units="mm"
     inkscape:current-layer="layer1"
     showgrid="false"
     inkscape:window-width="1600"
     inkscape:window-height="837"
     inkscape:window-x="-8"
     inkscape:window-y="-8"
     inkscape:window-maximized="1" />
  <metadata
     id="metadata1033">
    <rdf:RDF>
      <cc:Work
         rdf:about="">
        <dc:format>image/svg+xml</dc:format>
        <dc:type
           rdf:resource="http://purl.org/dc/dcmitype/StillImage" />
        <dc:title></dc:title>
      </cc:Work>
    </rdf:RDF>
  </metadata>
  <g
     inkscape:label="Layer 1"
     inkscape:groupmode="layer"
     id="layer1"
     transform="translate(-98.653302,-159.04861)">
    <path
       d="m 101.68278,159.56455 c -0.68792,-0.68792 -1.825623,-0.68792 -2.51354,0 -0.687917,0.68792 -0.687917,1.82562 0,2.51354 0.635,0.635 1.5875,0.68792 2.30187,0.18521 0.0265,0.0265 0.0265,0.0794 0.0794,0.10583 l 1.85208,1.85209 c 0.13229,0.13229 0.34396,0.13229 0.44979,0 0.10584,-0.1323 0.1323,-0.3175 0,-0.4498 l -1.85208,-1.85208 c -0.0265,-0.0265 -0.0794,-0.0529 -0.10583,-0.0794 0.47625,-0.68792 0.42333,-1.66688 -0.21167,-2.27542 z m -0.21167,2.30187 c -0.58208,0.58209 -1.50812,0.58209 -2.090203,0 -0.582084,-0.58208 -0.582084,-1.50812 0,-2.0902 0.582083,-0.58209 1.508123,-0.58209 2.090203,0 0.58209,0.58208 0.58209,1.50812 0,2.0902 z"
       id="path280"
       inkscape:connector-curvature="0"
       style="stroke-width:0.26458332" />
  </g>
</svg>
