<?xml version="1.0" encoding="UTF-8" standalone="no"?>
<!-- Created with Inkscape (http://www.inkscape.org/) -->

<svg
   xmlns:dc="http://purl.org/dc/elements/1.1/"
   xmlns:cc="http://creativecommons.org/ns#"
   xmlns:rdf="http://www.w3.org/1999/02/22-rdf-syntax-ns#"
   xmlns:svg="http://www.w3.org/2000/svg"
   xmlns="http://www.w3.org/2000/svg"
   xmlns:sodipodi="http://sodipodi.sourceforge.net/DTD/sodipodi-0.dtd"
   xmlns:inkscape="http://www.inkscape.org/namespaces/inkscape"
   width="6.8578362mm"
   height="5.1593781mm"
   viewBox="0 0 6.8578362 5.1593781"
   version="1.1"
   id="svg1007"
   inkscape:version="0.92.4 (5da689c313, 2019-01-14)"
   sodipodi:docname="keranjang.svg">
  <defs
     id="defs1001" />
  <sodipodi:namedview
     id="base"
     pagecolor="#ffffff"
     bordercolor="#666666"
     borderopacity="1.0"
     inkscape:pageopacity="0.0"
     inkscape:pageshadow="2"
     inkscape:zoom="0.35"
     inkscape:cx="24.388261"
     inkscape:cy="24.03572"
     inkscape:document-units="mm"
     inkscape:current-layer="layer1"
     showgrid="false"
     inkscape:window-width="1600"
     inkscape:window-height="837"
     inkscape:window-x="-8"
     inkscape:window-y="-8"
     inkscape:window-maximized="1" />
  <metadata
     id="metadata1004">
    <rdf:RDF>
      <cc:Work
         rdf:about="">
        <dc:format>image/svg+xml</dc:format>
        <dc:type
           rdf:resource="http://purl.org/dc/dcmitype/StillImage" />
        <dc:title></dc:title>
      </cc:Work>
    </rdf:RDF>
  </metadata>
  <g
     inkscape:label="Layer 1"
     inkscape:groupmode="layer"
     id="layer1"
     transform="translate(-99.380606,-150.03341)">
    <g
       transform="matrix(0.26458333,0,0,0.26458333,97.793106,2.2106997)"
       id="g294">
      <path
         d="m 31.3,561.1 c -0.4,-0.1 -1.1,0.1 -1.3,0.7 l -0.6,2.3 -0.7,3.4 H 15.3 v 0 0 l -1.1,-3.4 v 0 l -1.1,-3.4 -0.4,-1.3 c -0.1,-0.4 -0.5,-0.7 -1,-0.7 H 7 c -0.6,0 -1,0.5 -1,1 0,0.6 0.5,1 1,1 h 4 l 4,12.8 c 0.1,0.4 0.5,0.7 1,0.7 h 12.5 c 0.6,0 1,-0.5 1,-1 0,-0.6 -0.5,-1 -1,-1 H 16.7 l -0.8,-2.6 h 12.9 c 0.9,0 1.7,-0.7 1.9,-1.5 l 1.2,-5.8 c 0.1,-0.5 -0.2,-1.1 -0.6,-1.2 z"
         id="path288"
         inkscape:connector-curvature="0" />
      <circle
         cx="17.299999"
         cy="576.70001"
         r="1.5"
         id="circle290" />
      <circle
         cx="26.4"
         cy="576.70001"
         r="1.5"
         id="circle292" />
    </g>
  </g>
</svg>
