<?xml version="1.0" encoding="UTF-8" standalone="no"?>
<!-- Created with Inkscape (http://www.inkscape.org/) -->

<svg
   xmlns:dc="http://purl.org/dc/elements/1.1/"
   xmlns:cc="http://creativecommons.org/ns#"
   xmlns:rdf="http://www.w3.org/1999/02/22-rdf-syntax-ns#"
   xmlns:svg="http://www.w3.org/2000/svg"
   xmlns="http://www.w3.org/2000/svg"
   xmlns:sodipodi="http://sodipodi.sourceforge.net/DTD/sodipodi-0.dtd"
   xmlns:inkscape="http://www.inkscape.org/namespaces/inkscape"
   width="10.583333mm"
   height="10.58334mm"
   viewBox="0 0 10.583333 10.58334"
   version="1.1"
   id="svg1090"
   inkscape:version="0.92.4 (5da689c313, 2019-01-14)"
   sodipodi:docname="kotak.svg">
  <defs
     id="defs1084" />
  <sodipodi:namedview
     id="base"
     pagecolor="#ffffff"
     bordercolor="#666666"
     borderopacity="1.0"
     inkscape:pageopacity="0.0"
     inkscape:pageshadow="2"
     inkscape:zoom="0.35"
     inkscape:cx="65.714284"
     inkscape:cy="111.42859"
     inkscape:document-units="mm"
     inkscape:current-layer="layer1"
     showgrid="false"
     inkscape:window-width="1600"
     inkscape:window-height="837"
     inkscape:window-x="-8"
     inkscape:window-y="-8"
     inkscape:window-maximized="1" />
  <metadata
     id="metadata1087">
    <rdf:RDF>
      <cc:Work
         rdf:about="">
        <dc:format>image/svg+xml</dc:format>
        <dc:type
           rdf:resource="http://purl.org/dc/dcmitype/StillImage" />
        <dc:title></dc:title>
      </cc:Work>
    </rdf:RDF>
  </metadata>
  <g
     inkscape:label="Layer 1"
     inkscape:groupmode="layer"
     id="layer1"
     transform="translate(-88.446429,-167.73214)">
    <path
       class="st6"
       d="m 89.398929,171.85964 h 8.678333 c 0.529167,0 0.9525,0.42334 0.9525,0.9525 v 4.55084 c 0,0.52916 -0.423333,0.9525 -0.9525,0.9525 h -8.678333 c -0.529167,0 -0.9525,-0.42334 -0.9525,-0.9525 v -4.55084 c 0,-0.52916 0.423333,-0.9525 0.9525,-0.9525 z m 8.73125,0.9525 c 0,-0.0265 -0.02646,-0.0529 -0.05292,-0.0529 h -8.678333 c -0.02646,0 -0.05292,0.0265 -0.05292,0.0529 v 4.55084 c 0,0.0265 0.02646,0.0529 0.05292,0.0529 h 8.678333 c 0.02646,0 0.05292,-0.0264 0.05292,-0.0529 z"
       id="path298"
       inkscape:connector-curvature="0"
       style="fill:#828282;stroke-width:0.26458332" />
    <path
       class="st7"
       d="m 89.398929,167.73214 h 4.550833 c 0.529167,0 0.9525,0.42334 0.9525,0.9525 v 8.67834 c 0,0.52916 -0.423333,0.9525 -0.9525,0.9525 h -4.550833 c -0.529167,0 -0.9525,-0.42334 -0.9525,-0.9525 v -8.67834 c 0,-0.52916 0.423333,-0.9525 0.9525,-0.9525 z m 4.60375,0.9525 c 0,-0.0265 -0.02646,-0.0529 -0.05292,-0.0529 h -4.550833 c -0.02646,0 -0.05292,0.0264 -0.05292,0.0529 v 8.67834 c 0,0.0265 0.02646,0.0529 0.05292,0.0529 h 4.550833 c 0.02646,0 0.05292,-0.0264 0.05292,-0.0529 z"
       id="path300"
       inkscape:connector-curvature="0"
       style="fill:#010202;stroke-width:0.26458332" />
    <path
       class="st8"
       d="m 96.436845,168.3936 -0.105833,0.15875 c 1.322917,0.10583 1.666875,1.29646 1.74625,1.74625 v 0 l 0.15875,-0.10583 c 0.07937,-0.0529 0.132292,-0.0265 0.105833,0.0794 l -0.3175,0.92604 c -0.02646,0.10584 -0.105833,0.10584 -0.15875,0 l -0.423333,-0.87312 c -0.05292,-0.10583 0,-0.13229 0.07937,-0.0794 l 0.15875,0.0794 c -0.07937,-0.39688 -0.343958,-1.29646 -1.349375,-1.37583 l 0.07937,0.15875 c 0.05292,0.10583 0.02646,0.13229 -0.07937,0.10583 l -0.899583,-0.37042 c -0.105834,-0.0529 -0.105834,-0.10583 0,-0.15875 l 0.899583,-0.37041 c 0.132292,-0.0529 0.15875,0 0.105833,0.0794 z"
       id="path302"
       inkscape:connector-curvature="0"
       style="fill:#545454;stroke-width:0.26458332" />
  </g>
</svg>
