<?xml version="1.0" encoding="UTF-8" standalone="no"?>
<!-- Created with Inkscape (http://www.inkscape.org/) -->

<svg
   xmlns:dc="http://purl.org/dc/elements/1.1/"
   xmlns:cc="http://creativecommons.org/ns#"
   xmlns:rdf="http://www.w3.org/1999/02/22-rdf-syntax-ns#"
   xmlns:svg="http://www.w3.org/2000/svg"
   xmlns="http://www.w3.org/2000/svg"
   xmlns:sodipodi="http://sodipodi.sourceforge.net/DTD/sodipodi-0.dtd"
   xmlns:inkscape="http://www.inkscape.org/namespaces/inkscape"
   width="3.7312286mm"
   height="4.3656249mm"
   viewBox="0 0 3.7312286 4.3656249"
   version="1.1"
   id="svg922"
   inkscape:version="0.92.4 (5da689c313, 2019-01-14)"
   sodipodi:docname="loading.svg">
  <defs
     id="defs916" />
  <sodipodi:namedview
     id="base"
     pagecolor="#ffffff"
     bordercolor="#666666"
     borderopacity="1.0"
     inkscape:pageopacity="0.0"
     inkscape:pageshadow="2"
     inkscape:zoom="0.35"
     inkscape:cx="84.193998"
     inkscape:cy="-88.892864"
     inkscape:document-units="mm"
     inkscape:current-layer="layer1"
     showgrid="false"
     inkscape:window-width="1600"
     inkscape:window-height="837"
     inkscape:window-x="-8"
     inkscape:window-y="-8"
     inkscape:window-maximized="1" />
  <metadata
     id="metadata919">
    <rdf:RDF>
      <cc:Work
         rdf:about="">
        <dc:format>image/svg+xml</dc:format>
        <dc:type
           rdf:resource="http://purl.org/dc/dcmitype/StillImage" />
        <dc:title></dc:title>
      </cc:Work>
    </rdf:RDF>
  </metadata>
  <g
     inkscape:label="Layer 1"
     inkscape:groupmode="layer"
     id="layer1"
     transform="translate(-83.557005,-120.94814)">
    <g
       transform="matrix(0.26458333,0,0,0.26458333,81.043463,111.71418)"
       id="g392">
      <path
         class="st13"
         d="m 16.6,51.4 c -3.9,0 -7.1,-3.2 -7.1,-7.1 0,-3.9 3.2,-7.1 7.1,-7.1 h 5.1 v 1.4 h -5.1 c -3.1,0 -5.6,2.5 -5.6,5.6 0,3.1 2.5,5.6 5.6,5.6 3.1,0 5.6,-2.5 5.6,-5.6 h 1.4 c 0.1,4 -3.1,7.2 -7,7.2 z"
         id="path388"
         inkscape:connector-curvature="0"
         style="fill:#434343" />
      <polygon
         class="st13"
         points="20.7,37.9 18.7,35.9 19.7,34.9 22.7,37.9 19.7,40.9 18.7,39.9 "
         id="polygon390"
         style="fill:#434343" />
    </g>
  </g>
</svg>
