<?xml version="1.0" encoding="UTF-8" standalone="no"?>
<!-- Created with Inkscape (http://www.inkscape.org/) -->

<svg
   xmlns:dc="http://purl.org/dc/elements/1.1/"
   xmlns:cc="http://creativecommons.org/ns#"
   xmlns:rdf="http://www.w3.org/1999/02/22-rdf-syntax-ns#"
   xmlns:svg="http://www.w3.org/2000/svg"
   xmlns="http://www.w3.org/2000/svg"
   xmlns:sodipodi="http://sodipodi.sourceforge.net/DTD/sodipodi-0.dtd"
   xmlns:inkscape="http://www.inkscape.org/namespaces/inkscape"
   width="48.762707mm"
   height="15.187083mm"
   viewBox="0 0 48.762707 15.187083"
   version="1.1"
   id="svg691"
   inkscape:version="0.92.4 (5da689c313, 2019-01-14)"
   sodipodi:docname="logo-1.svg">
  <defs
     id="defs685" />
  <sodipodi:namedview
     id="base"
     pagecolor="#ffffff"
     bordercolor="#666666"
     borderopacity="1.0"
     inkscape:pageopacity="0.0"
     inkscape:pageshadow="2"
     inkscape:zoom="0.35"
     inkscape:cx="-89.985716"
     inkscape:cy="-702.6"
     inkscape:document-units="mm"
     inkscape:current-layer="layer1"
     showgrid="false"
     inkscape:window-width="1600"
     inkscape:window-height="837"
     inkscape:window-x="-8"
     inkscape:window-y="-8"
     inkscape:window-maximized="1" />
  <metadata
     id="metadata688">
    <rdf:RDF>
      <cc:Work
         rdf:about="">
        <dc:format>image/svg+xml</dc:format>
        <dc:type
           rdf:resource="http://purl.org/dc/dcmitype/StillImage" />
        <dc:title></dc:title>
      </cc:Work>
    </rdf:RDF>
  </metadata>
  <g
     inkscape:label="Layer 1"
     inkscape:groupmode="layer"
     id="layer1"
     transform="translate(-64.821027,-114.78146)">
    <g
       id="g487"
       transform="matrix(0.26458333,0,0,0.26458333,64.821027,17.15021)">
      <path
         class="st3"
         d="M 147.5,395.3 V 369 h -3.7 v 20.5 c 0,0.4 -0.1,0 -0.2,0 -1.4,-1.8 -2.8,-3.1 -5,-3.8 -2.2,-0.7 -5.1,-1.1 -7.7,-0.5 -4.9,1 -7.6,3.9 -8.9,8.6 -1.4,4.8 -1.5,10.9 -0.4,15.8 0.5,2.4 1.4,4.5 2.5,6.2 1.3,1.7 2.9,3 5.1,3.7 3.7,1.3 8.3,1 11.2,-0.4 2.9,-1.4 4.8,-4.1 5.8,-7.4 0.7,-2.2 1.1,-4.8 1.3,-7.5 0.2,-3.1 0,-6 0,-8.9 m -8.3,20.3 c -3.1,1.9 -8.5,1.5 -10.9,-0.7 -1.3,-1.2 -2.3,-2.6 -2.9,-4.8 -0.6,-2.2 -0.8,-4.9 -0.8,-7.7 0,-2.8 0.2,-5.5 0.8,-7.8 0.7,-2.8 2.5,-5 4.8,-5.9 1,-0.4 2.2,-0.5 3.4,-0.6 5.4,-0.4 8.5,2.5 9.5,6.9 0.5,2.1 0.7,5.1 0.7,7.8 0,6 -1.2,10.7 -4.6,12.8"
         id="path469"
         inkscape:connector-curvature="0"
         style="fill:#ffffff" />
      <path
         class="st3"
         d="m 113.2,390.1 c -2.2,-3.2 -5.7,-5.4 -11,-5.3 -6.1,0.1 -10,3.6 -12,8.4 -1.9,4.7 -2.1,12.3 -0.4,17.6 0.8,2.5 2.2,4.7 3.9,6.1 1.9,1.7 4.2,2.5 7.2,3 3.1,0.4 6.3,0.1 8.9,-0.8 0.8,-0.3 1.7,-0.8 2.4,-1.4 0.3,-0.2 0.5,-0.3 0.7,-0.5 1,-0.7 1.9,-1.4 2.8,-2.3 -0.8,-0.7 -1.8,-1.4 -2.6,-2.1 -0.4,0.3 -0.8,0.7 -1.3,1.1 -1.4,1.2 -2.8,2 -4.7,2.5 -2.6,0.7 -5.8,0.5 -8.3,-0.4 -2.3,-1 -3.8,-2.4 -5,-4.7 -1.1,-2.1 -1.7,-4.9 -1.6,-8 h 24 c 0.3,-5.5 -0.7,-9.9 -3,-13.2 m -20.8,10.3 c 0.1,-3.1 0.6,-5.6 1.8,-7.6 0.3,-0.5 0.7,-1 1.2,-1.5 0.1,-0.1 0.5,-0.5 0.6,-0.6 0.5,-0.4 1,-0.8 1.6,-1.2 1.3,-0.6 2.6,-1.2 4.3,-1.3 2.8,-0.2 5.1,0.8 6.6,2 0.5,0.4 1.1,0.8 1.4,1.4 1.8,2 2.6,5 2.6,8.8 z"
         id="path471"
         inkscape:connector-curvature="0"
         style="fill:#ffffff" />
      <path
         class="st3"
         d="m 152.8,385.4 h 23.3 c 0.1,1.2 0.2,2.3 0,3.3 -0.1,0.3 -0.3,0.5 -0.6,1 -0.3,0.4 -0.5,0.7 -0.8,1.1 -1.2,1.6 -2.6,3.5 -3.7,5 -1.8,2.4 -3.5,4.8 -5.2,7 -3.6,4.8 -7,9.2 -10.4,13.9 H 176 v 3.2 h -24.5 c -0.1,-0.8 -0.2,-2.2 0,-3.3 0.1,-0.4 0.7,-1.3 1.3,-1.8 1.4,-1.8 2.5,-3.4 3.8,-5.2 0.4,-0.6 1,-1.2 1.4,-1.7 3,-4 6,-8.1 9,-12.2 1.3,-1.7 2.6,-3.5 3.9,-5.2 0.4,-0.5 0.8,-1.2 1.3,-1.8 h -19.5 v -3 c 0,-0.2 0,-0.3 0.1,-0.3"
         id="path473"
         inkscape:connector-curvature="0"
         style="fill:#ffffff" />
      <path
         class="st3"
         d="m 89.3,388.1 c -0.3,0.5 -0.8,1 -1.3,1.4 -0.4,0.4 -0.8,1 -1.3,1.4 -1.3,-1.3 -2.6,-2.2 -4.9,-2.5 -3.1,-0.4 -5.7,0.4 -7.4,2 -1.1,1 -2.1,2.3 -2.6,3.9 -0.8,2.2 -0.7,4.9 -0.7,8 v 17.6 h -3.7 v -34.4 h 3.7 v 4.4 c 0.1,0.1 0.2,-0.1 0.2,-0.2 1.3,-1.6 2.9,-3 5,-3.8 1.3,-0.5 3,-0.8 4.5,-0.8 3.7,-0.4 6.5,1 8.5,3"
         id="path475"
         inkscape:connector-curvature="0"
         style="fill:#ffffff" />
      <path
         class="st3"
         d="m 49.6,374.4 h 3.6 v 10.9 c 2.4,0.1 5.2,0 7.7,0.1 v 2.8 h -7.6 c -0.1,5.2 -0.1,12 -0.1,17.7 0,3.3 -0.3,6.8 0.8,8.8 1.2,1.8 3.6,2.2 6.9,2 v 3.2 c -3.9,0.2 -7.1,-0.1 -9,-2.1 -1.3,-1.3 -2.2,-3.4 -2.3,-5.7 -0.2,-1.6 0,-3.1 0,-4.7 0.3,-10.4 0,-22.3 0,-32.5 -0.1,-0.4 -0.1,-0.5 0,-0.5"
         id="path477"
         inkscape:connector-curvature="0"
         style="fill:#ffffff" />
      <path
         class="st12"
         d="m 42.4,415.4 c 0,6 -4.9,11 -11,11 H 11 c -6,0 -11,-4.9 -11,-11 v -19.8 c 0,-6 4.9,-11 11,-11 h 20.5 c 6,0 11,4.9 11,11 z"
         id="path479"
         inkscape:connector-curvature="0"
         style="fill:#d11917" />
      <path
         class="st3"
         d="M 39.9,412.5 H 28.5 c 0,-0.2 0.4,-0.5 0.6,-0.8 1.7,-1.9 3.4,-4 5.2,-5.9 1,-1.2 1.9,-2.3 3,-3.4 0.6,-0.8 1.4,-1.7 2.1,-2.5 0.2,-0.4 0.5,-0.5 0.6,-1.1 0.2,-1 0,-2.2 -0.3,-3.1 -0.2,-1 -0.7,-1.7 -1.3,-2.1 -8.6,0 -17.2,0.1 -25.6,-0.1 v -8.9 h -1.7 c -2,0 -3.9,0.5 -5.6,1.5 v 0 c 0,8 0,16.5 0,24.5 0,2.6 1.3,4.3 2.8,5.6 1.4,1.4 3.3,2.4 5.8,2.5 2.5,0.1 5.6,0 8.4,0 h 16.7 c 0.5,-0.7 0.7,-1.7 0.8,-2.9 0,-0.9 -0.1,-2.2 -0.1,-3.3 m -20.3,-0.4 c 0,0 -0.4,0.4 -0.8,0.4 -0.5,0 -3.9,0 -3.9,0 0,0 -2.1,-0.2 -2.1,-1.8 v -1.2 0 -9.2 c 0,0 -0.1,-0.2 0.2,-0.2 h 16.6 c 0,0 0.2,0 0.1,0.1 z"
         id="path481"
         inkscape:connector-curvature="0"
         style="fill:#ffffff" />
      <path
         class="st3"
         d="m 16.7,419 c -1.1,0 -1.9,0 -2.6,0 -2.2,-0.1 -4.2,-1 -5.8,-2.5 -1.3,-1.2 -2.8,-2.8 -2.8,-5.6 0,-4.2 0,-8.6 0,-12.9 0,-3.8 0,-7.8 0,-11.6 v 0 c 1.7,-1.1 3.6,-1.6 5.6,-1.6 h 1.6 v 8.9 c 3,0 6.2,0.1 10.5,0.1 1.8,0 3.6,0 5.4,0 3.3,0 6.6,0 9.7,0 0.5,0.3 1.1,1.2 1.4,2.1 0.2,0.8 0.4,2.1 0.3,3.1 -0.1,0.3 -0.2,0.5 -0.3,0.6 -0.1,0.1 -0.2,0.2 -0.2,0.3 -0.8,0.8 -1.6,1.7 -2.1,2.5 -1.2,1.3 -2.1,2.3 -3,3.4 -1,1.1 -2,2.2 -3,3.3 -0.7,0.8 -1.5,1.7 -2.2,2.5 -0.1,0.1 -0.2,0.2 -0.3,0.3 -0.2,0.2 -0.3,0.3 -0.3,0.4 H 40 c 0,0.6 0,1.2 0,1.8 0,0.6 0,1.3 0,1.9 0,1.2 -0.3,2.1 -0.8,2.9 H 22.4 c -1,0 -1.9,0 -2.9,0 -1,0.1 -1.9,0.1 -2.8,0.1 m -4,-34.3 H 11 c -2,0 -3.9,0.5 -5.6,1.5 v 0 c 0,3.8 0,7.8 0,11.6 0,4.2 0,8.7 0,12.9 0,2.9 1.5,4.5 2.8,5.6 1.6,1.6 3.6,2.4 5.8,2.5 0.7,0 1.7,0 2.6,0 0.9,0 1.9,0 2.9,0 1,0 1.9,0 2.9,0 h 16.8 c 0.5,-0.7 0.7,-1.7 0.8,-2.9 0,-0.6 0,-1.3 0,-1.9 0,-0.5 0,-1.2 0,-1.8 H 28.6 c 0,-0.1 0.1,-0.3 0.3,-0.5 0.1,-0.1 0.2,-0.2 0.3,-0.3 0.7,-0.8 1.5,-1.7 2.2,-2.5 1,-1.1 1.9,-2.2 3,-3.3 0.8,-1.1 1.8,-2.1 3,-3.4 0.6,-0.7 1.4,-1.7 2.1,-2.5 0.1,-0.1 0.2,-0.2 0.2,-0.3 0.1,-0.2 0.3,-0.3 0.3,-0.6 0.2,-1 0,-2.1 -0.3,-3.1 -0.2,-1 -0.7,-1.7 -1.3,-2.1 -3.2,0 -6.5,0 -9.7,0 -1.8,0 -3.6,0 -5.4,0 -4.2,0 -7.5,0 -10.5,-0.1 z m 6,27.9 c -0.2,0 -0.6,0 -1.3,0 h -2.6 c 0,0 -2.1,-0.3 -2.1,-1.8 v -10.5 -0.1 c 0,-0.1 0.1,-0.1 0.2,-0.1 h 16.6 c 0.1,0 0.1,0 0.1,0 v 0.1 l -10,11.8 c 0,0.1 -0.3,0.6 -0.9,0.6 M 29.6,400.2 H 13 c -0.1,0 -0.2,0 -0.2,0.1 v 0.1 10.5 c 0,1.5 2.1,1.8 2.1,1.8 h 2.6 c 0.5,0 1.1,0 1.3,0 0.5,0 0.8,-0.4 0.8,-0.4 l 10,-11.8 c 0,-0.2 0,-0.3 0,-0.3 v 0"
         id="path483"
         inkscape:connector-curvature="0"
         style="fill:#ffffff" />
      <path
         class="st3"
         d="m 184.3,381.8 c 0,1.7 -1.4,3.1 -3.1,3.1 -1.7,0 -3.2,-1.4 -3.2,-3.1 0,-1.7 1.4,-3.1 3.2,-3.1 1.7,0.1 3.1,1.4 3.1,3.1 m -5.5,0 c 0,1.4 1.1,2.4 2.3,2.4 1.2,0 2.3,-1.1 2.3,-2.4 0,-1.3 -1,-2.4 -2.3,-2.4 -1.3,0 -2.3,1.1 -2.3,2.4 m 1.9,1.6 H 180 v -3.1 c 0.3,0 0.6,-0.1 1.2,-0.1 0.6,0 0.8,0.1 1.1,0.2 0.2,0.1 0.3,0.3 0.3,0.6 0,0.3 -0.3,0.6 -0.6,0.7 v 0 c 0.3,0.1 0.4,0.3 0.5,0.7 0.1,0.4 0.2,0.6 0.2,0.7 H 182 c -0.1,-0.1 -0.1,-0.3 -0.2,-0.7 -0.1,-0.3 -0.2,-0.4 -0.6,-0.4 h -0.3 v 1.4 z m 0,-1.7 h 0.3 c 0.4,0 0.7,-0.1 0.7,-0.4 0,-0.3 -0.2,-0.4 -0.6,-0.4 -0.2,0 -0.3,0 -0.4,0 z"
         id="path485"
         inkscape:connector-curvature="0"
         style="fill:#ffffff" />
    </g>
  </g>
</svg>
