<?xml version="1.0" encoding="UTF-8" standalone="no"?>
<!-- Created with Inkscape (http://www.inkscape.org/) -->

<svg
   xmlns:dc="http://purl.org/dc/elements/1.1/"
   xmlns:cc="http://creativecommons.org/ns#"
   xmlns:rdf="http://www.w3.org/1999/02/22-rdf-syntax-ns#"
   xmlns:svg="http://www.w3.org/2000/svg"
   xmlns="http://www.w3.org/2000/svg"
   xmlns:sodipodi="http://sodipodi.sourceforge.net/DTD/sodipodi-0.dtd"
   xmlns:inkscape="http://www.inkscape.org/namespaces/inkscape"
   width="46.090416mm"
   height="14.366875mm"
   viewBox="0 0 46.090416 14.366875"
   version="1.1"
   id="svg631"
   inkscape:version="0.92.4 (5da689c313, 2019-01-14)"
   sodipodi:docname="logo.svg">
  <defs
     id="defs625" />
  <sodipodi:namedview
     id="base"
     pagecolor="#ffffff"
     bordercolor="#666666"
     borderopacity="1.0"
     inkscape:pageopacity="0.0"
     inkscape:pageshadow="2"
     inkscape:zoom="0.35"
     inkscape:cx="-157.22858"
     inkscape:cy="25.728602"
     inkscape:document-units="mm"
     inkscape:current-layer="layer1"
     showgrid="false"
     inkscape:window-width="1600"
     inkscape:window-height="837"
     inkscape:window-x="-8"
     inkscape:window-y="-8"
     inkscape:window-maximized="1" />
  <metadata
     id="metadata628">
    <rdf:RDF>
      <cc:Work
         rdf:about="">
        <dc:format>image/svg+xml</dc:format>
        <dc:type
           rdf:resource="http://purl.org/dc/dcmitype/StillImage" />
        <dc:title />
      </cc:Work>
    </rdf:RDF>
  </metadata>
  <g
     inkscape:label="Layer 1"
     inkscape:groupmode="layer"
     id="layer1"
     transform="translate(-73.716697,-166.59633)">
    <g
       transform="matrix(0.26458333,0,0,0.26458333,73.716697,108.97008)"
       id="g328">
      <path
         class="st11"
         d="M 139.5,242.7 V 217.8 H 136 v 19.4 c 0,0.4 -0.1,0 -0.2,0 -1.3,-1.7 -2.6,-2.9 -4.7,-3.6 -2.1,-0.7 -4.8,-1 -7.3,-0.5 -4.6,0.9 -7.2,3.7 -8.4,8.1 -1.3,4.5 -1.4,10.3 -0.4,14.9 0.5,2.3 1.3,4.3 2.4,5.9 1.2,1.6 2.7,2.8 4.8,3.5 3.5,1.2 7.8,0.9 10.6,-0.4 2.8,-1.3 4.5,-3.9 5.5,-7 0.7,-2.1 1,-4.5 1.2,-7.1 0.1,-2.8 0,-5.6 0,-8.3 m -7.9,19.2 c -2.9,1.8 -8,1.4 -10.3,-0.7 -1.2,-1.1 -2.2,-2.5 -2.7,-4.5 -0.6,-2.1 -0.8,-4.6 -0.8,-7.3 0,-2.6 0.2,-5.2 0.8,-7.4 0.7,-2.6 2.4,-4.7 4.5,-5.6 0.9,-0.4 2.1,-0.5 3.2,-0.6 5.1,-0.4 8,2.4 9,6.5 0.5,2 0.7,4.8 0.7,7.4 0,5.7 -1.2,10.2 -4.4,12.2"
         id="path310"
         inkscape:connector-curvature="0"
         style="fill:#14130f" />
      <path
         class="st11"
         d="m 107,237.8 c -2.1,-3 -5.4,-5.1 -10.4,-5 -5.8,0.1 -9.5,3.4 -11.3,7.9 -1.8,4.4 -2,11.6 -0.4,16.6 0.8,2.4 2.1,4.4 3.7,5.8 1.8,1.6 4,2.4 6.8,2.8 2.9,0.4 6,0.1 8.4,-0.8 0.8,-0.3 1.6,-0.8 2.3,-1.3 0.3,-0.2 0.5,-0.3 0.7,-0.5 0.9,-0.7 1.8,-1.3 2.6,-2.2 -0.8,-0.7 -1.7,-1.3 -2.5,-2 -0.4,0.3 -0.8,0.7 -1.2,1 -1.3,1.1 -2.6,1.9 -4.4,2.4 -2.5,0.7 -5.5,0.5 -7.8,-0.4 -2.2,-0.9 -3.6,-2.3 -4.7,-4.4 -1,-2 -1.6,-4.6 -1.5,-7.6 H 110 c 0.1,-5.1 -0.8,-9.2 -3,-12.3 m -19.6,9.7 c 0.1,-2.9 0.6,-5.3 1.7,-7.2 0.3,-0.5 0.7,-0.9 1.1,-1.4 0.1,-0.1 0.5,-0.5 0.6,-0.6 0.5,-0.4 0.9,-0.8 1.5,-1.1 1.2,-0.6 2.5,-1.1 4.1,-1.2 2.6,-0.2 4.8,0.8 6.2,1.9 0.5,0.4 1,0.8 1.3,1.3 1.7,1.9 2.5,4.7 2.5,8.3 z"
         id="path312"
         inkscape:connector-curvature="0"
         style="fill:#14130f" />
      <path
         class="st11"
         d="m 144.5,233.3 h 22 c 0.1,1.1 0.2,2.2 0,3.1 -0.1,0.3 -0.3,0.5 -0.6,0.9 -0.3,0.4 -0.5,0.7 -0.8,1 -1.1,1.5 -2.5,3.3 -3.5,4.7 -1.7,2.3 -3.3,4.5 -4.9,6.6 -3.4,4.5 -6.6,8.7 -9.8,13.1 h 19.5 v 3 h -23.2 c -0.1,-0.8 -0.2,-2.1 0,-3.1 0.1,-0.4 0.7,-1.2 1.2,-1.7 1.3,-1.7 2.4,-3.2 3.6,-4.9 0.4,-0.6 0.9,-1.1 1.3,-1.6 2.8,-3.8 5.7,-7.7 8.5,-11.5 1.2,-1.6 2.5,-3.3 3.7,-4.9 0.4,-0.5 0.8,-1.1 1.2,-1.7 h -18.4 v -2.8 c 0.1,-0.1 0.1,-0.2 0.2,-0.2"
         id="path314"
         inkscape:connector-curvature="0"
         style="fill:#14130f" />
      <path
         class="st11"
         d="m 84.4,235.9 c -0.3,0.5 -0.8,0.9 -1.2,1.3 -0.4,0.4 -0.8,0.9 -1.2,1.3 -1.2,-1.2 -2.5,-2.1 -4.6,-2.4 -2.9,-0.4 -5.4,0.4 -7,1.9 -1,0.9 -2,2.2 -2.5,3.7 -0.8,2.1 -0.7,4.6 -0.7,7.6 v 16.6 h -3.5 v -32.5 h 3.5 v 4.2 c 0.1,0.1 0.2,-0.1 0.2,-0.2 1.2,-1.5 2.7,-2.8 4.7,-3.6 1.2,-0.5 2.8,-0.8 4.3,-0.8 3.5,-0.3 6.1,1 8,2.9"
         id="path316"
         inkscape:connector-curvature="0"
         style="fill:#14130f" />
      <path
         class="st11"
         d="m 46.9,222.9 h 3.4 v 10.3 c 2.3,0.1 4.9,0 7.3,0.1 v 2.6 h -7.2 c -0.1,4.9 -0.1,11.3 -0.1,16.7 0,3.1 -0.3,6.4 0.8,8.3 1.1,1.7 3.4,2.1 6.5,1.9 v 3 c -3.7,0.2 -6.7,-0.1 -8.5,-2 -1.2,-1.2 -2.1,-3.2 -2.2,-5.4 -0.2,-1.5 0,-2.9 0,-4.4 0.3,-9.8 0,-21.1 0,-30.7 -0.1,-0.3 -0.1,-0.4 0,-0.4"
         id="path318"
         inkscape:connector-curvature="0"
         style="fill:#14130f" />
      <path
         class="st12"
         d="m 40.1,261.7 c 0,5.7 -4.6,10.4 -10.4,10.4 H 10.4 C 4.7,272.1 0,267.5 0,261.7 V 243 c 0,-5.7 4.6,-10.4 10.4,-10.4 h 19.4 c 5.7,0 10.4,4.6 10.4,10.4 z"
         id="path320"
         inkscape:connector-curvature="0"
         style="fill:#d11917" />
      <path
         class="st3"
         d="M 37.7,258.9 H 26.9 c 0,-0.2 0.4,-0.5 0.6,-0.8 1.6,-1.8 3.2,-3.8 4.9,-5.6 0.9,-1.1 1.8,-2.2 2.8,-3.2 0.6,-0.8 1.3,-1.6 2,-2.4 0.2,-0.4 0.5,-0.5 0.6,-1 0.2,-0.9 0,-2.1 -0.3,-2.9 -0.2,-0.9 -0.7,-1.6 -1.2,-2 -8.1,0 -16.3,0.1 -24.2,-0.1 v -8.4 h -1.6 c -1.9,0 -3.7,0.5 -5.3,1.4 v 0 c 0,7.6 0,15.6 0,23.2 0,2.5 1.2,4.1 2.6,5.3 1.3,1.3 3.1,2.3 5.5,2.4 2.4,0.1 5.3,0 7.9,0 H 37 c 0.5,-0.7 0.7,-1.6 0.8,-2.7 0,-0.9 -0.1,-2.1 -0.1,-3.2 m -19.2,-0.3 c 0,0 -0.4,0.4 -0.8,0.4 -0.5,0 -3.7,0 -3.7,0 0,0 -2,-0.2 -2,-1.7 v -1.1 0 -8.7 c 0,0 -0.1,-0.2 0.2,-0.2 h 15.7 c 0,0 0.2,0 0.1,0.1 z"
         id="path322"
         inkscape:connector-curvature="0"
         style="fill:#ffffff" />
      <path
         class="st3"
         d="m 15.8,265.1 c -1,0 -1.8,0 -2.5,0 -2.1,-0.1 -4,-0.9 -5.5,-2.4 -1.2,-1.1 -2.6,-2.6 -2.6,-5.3 0,-4 0,-8.1 0,-12.2 0,-3.6 0,-7.4 0,-11 v 0 c 1.6,-1 3.4,-1.5 5.3,-1.5 H 12 v 8.4 c 2.8,0 5.9,0.1 9.9,0.1 1.7,0 3.4,0 5.1,0 3.1,0 6.2,0 9.2,0 0.5,0.3 1,1.1 1.3,2 0.2,0.8 0.4,2 0.3,2.9 -0.1,0.3 -0.2,0.5 -0.3,0.6 -0.1,0.1 -0.2,0.2 -0.2,0.3 -0.8,0.8 -1.5,1.6 -2,2.4 -1.1,1.2 -2,2.2 -2.8,3.2 -0.9,1 -1.9,2.1 -2.8,3.1 -0.7,0.8 -1.4,1.6 -2.1,2.4 -0.1,0.1 -0.2,0.2 -0.3,0.3 -0.2,0.2 -0.3,0.3 -0.3,0.4 h 10.8 c 0,0.6 0,1.1 0,1.7 0,0.6 0,1.2 0,1.8 0,1.1 -0.3,2 -0.8,2.7 H 21.2 c -0.9,0 -1.8,0 -2.7,0 -1,0.1 -1.9,0.1 -2.7,0.1 M 12,232.7 h -1.6 c -1.9,0 -3.7,0.5 -5.3,1.4 v 0 c 0,3.6 0,7.4 0,11 0,4 0,8.2 0,12.2 0,2.7 1.4,4.3 2.6,5.3 1.5,1.5 3.4,2.3 5.5,2.4 0.7,0 1.6,0 2.5,0 0.9,0 1.8,0 2.7,0 0.9,0 1.8,0 2.7,0 H 37 c 0.5,-0.7 0.7,-1.6 0.8,-2.7 0,-0.6 0,-1.2 0,-1.8 0,-0.5 0,-1.1 0,-1.7 H 27 c 0,-0.1 0.1,-0.3 0.3,-0.5 0.1,-0.1 0.2,-0.2 0.3,-0.3 0.7,-0.8 1.4,-1.6 2.1,-2.4 0.9,-1 1.8,-2.1 2.8,-3.1 0.8,-1 1.7,-2 2.8,-3.2 0.6,-0.7 1.3,-1.6 2,-2.4 0.1,-0.1 0.2,-0.2 0.2,-0.3 0.1,-0.2 0.3,-0.3 0.3,-0.6 0.2,-0.9 0,-2 -0.3,-2.9 -0.2,-0.9 -0.7,-1.6 -1.2,-2 -3,0 -6.1,0 -9.2,0 -1.7,0 -3.4,0 -5.1,0 -4,0 -7.1,0 -9.9,-0.1 z m 5.7,26.3 c -0.2,0 -0.6,0 -1.2,0 H 14 c 0,0 -2,-0.3 -2,-1.7 v -9.9 -0.1 c 0,-0.1 0.1,-0.1 0.2,-0.1 h 15.7 c 0.1,0 0.1,0 0.1,0 v 0.1 l -9.5,11.2 c 0,0.1 -0.3,0.5 -0.8,0.5 M 28,247.3 H 12.3 c -0.1,0 -0.2,0 -0.2,0.1 v 0.1 9.9 c 0,1.4 2,1.7 2,1.7 h 2.5 c 0.5,0 1,0 1.2,0 0.5,0 0.8,-0.4 0.8,-0.4 l 9.5,-11.2 C 28,247.4 28,247.3 28,247.3 v 0"
         id="path324"
         inkscape:connector-curvature="0"
         style="fill:#ffffff" />
      <path
         class="st11"
         d="m 174.2,229.9 c 0,1.6 -1.3,2.9 -2.9,2.9 -1.6,0 -3,-1.3 -3,-2.9 0,-1.6 1.3,-2.9 3,-2.9 1.6,0.1 2.9,1.3 2.9,2.9 m -5.2,0 c 0,1.3 1,2.3 2.2,2.3 1.2,0 2.2,-1 2.2,-2.3 0,-1.3 -0.9,-2.3 -2.2,-2.3 -1.2,0 -2.2,1.1 -2.2,2.3 m 1.8,1.5 h -0.7 v -2.9 c 0.3,0 0.6,-0.1 1.1,-0.1 0.5,0 0.8,0.1 1,0.2 0.2,0.1 0.3,0.3 0.3,0.6 0,0.3 -0.3,0.6 -0.6,0.7 v 0 c 0.3,0.1 0.4,0.3 0.5,0.7 0.1,0.4 0.2,0.6 0.2,0.7 h -0.7 c -0.1,-0.1 -0.1,-0.3 -0.2,-0.7 -0.1,-0.3 -0.2,-0.4 -0.6,-0.4 h -0.3 z m 0,-1.6 h 0.3 c 0.4,0 0.7,-0.1 0.7,-0.4 0,-0.3 -0.2,-0.4 -0.6,-0.4 -0.2,0 -0.3,0 -0.4,0 z"
         id="path326"
         inkscape:connector-curvature="0"
         style="fill:#14130f" />
    </g>
  </g>
</svg>
