<?xml version="1.0" encoding="UTF-8" standalone="no"?>
<!-- Created with Inkscape (http://www.inkscape.org/) -->

<svg
   xmlns:dc="http://purl.org/dc/elements/1.1/"
   xmlns:cc="http://creativecommons.org/ns#"
   xmlns:rdf="http://www.w3.org/1999/02/22-rdf-syntax-ns#"
   xmlns:svg="http://www.w3.org/2000/svg"
   xmlns="http://www.w3.org/2000/svg"
   xmlns:sodipodi="http://sodipodi.sourceforge.net/DTD/sodipodi-0.dtd"
   xmlns:inkscape="http://www.inkscape.org/namespaces/inkscape"
   width="20.38615mm"
   height="8.5693188mm"
   viewBox="0 0 20.38615 8.5693188"
   version="1.1"
   id="svg1194"
   inkscape:version="0.92.4 (5da689c313, 2019-01-14)"
   sodipodi:docname="nonton.svg">
  <defs
     id="defs1188" />
  <sodipodi:namedview
     id="base"
     pagecolor="#ffffff"
     bordercolor="#666666"
     borderopacity="1.0"
     inkscape:pageopacity="0.0"
     inkscape:pageshadow="2"
     inkscape:zoom="0.35"
     inkscape:cx="75.667859"
     inkscape:cy="107.62257"
     inkscape:document-units="mm"
     inkscape:current-layer="layer1"
     showgrid="false"
     inkscape:window-width="1304"
     inkscape:window-height="745"
     inkscape:window-x="-8"
     inkscape:window-y="-8"
     inkscape:window-maximized="1" />
  <metadata
     id="metadata1191">
    <rdf:RDF>
      <cc:Work
         rdf:about="">
        <dc:format>image/svg+xml</dc:format>
        <dc:type
           rdf:resource="http://purl.org/dc/dcmitype/StillImage" />
        <dc:title></dc:title>
      </cc:Work>
    </rdf:RDF>
  </metadata>
  <g
     inkscape:label="Layer 1"
     inkscape:groupmode="layer"
     id="layer1"
     transform="translate(-85.812879,-168.73915)">
    <path
       class="st9"
       d="M 102.74939,177.05156 H 89.537684 c -1.90844,0 -3.449638,-1.54146 -3.449638,-3.44964 0,-1.90817 1.541463,-3.44963 3.449638,-3.44963 h 13.211706 c 1.90844,0 3.44964,1.54146 3.44964,3.44963 0,1.90818 -1.5412,3.44964 -3.44964,3.44964 m -13.211706,-6.60585 c -1.74334,0 -3.174471,1.41287 -3.174471,3.17447 0,1.74334 1.412875,3.17447 3.174471,3.17447 h 13.211706 c 1.74334,0 3.17447,-1.41287 3.17447,-3.17447 0,-1.74334 -1.41288,-3.17447 -3.17447,-3.17447 v 0 z"
       id="path903"
       inkscape:connector-curvature="0"
       style="fill:#6f6e6e;stroke-width:0.26458332" />
    <path
       class="st9"
       d="m 101.17141,171.67523 c -0.51382,0 -0.93583,0.42201 -0.93583,0.93583 0,0.51382 0.42201,0.93583 0.93583,0.93583 0.51382,0 0.93583,-0.42201 0.93583,-0.93583 v 0 c -0.0185,-0.51382 -0.42201,-0.93583 -0.93583,-0.93583 m 0,1.41287 c -0.25691,0 -0.47704,-0.22013 -0.47704,-0.47704 0,-0.25691 0.22013,-0.47704 0.47704,-0.47704 0.25691,0 0.47705,0.22013 0.47705,0.47704 v 0 c 0,0.25691 -0.22014,0.47704 -0.47705,0.47704 v 0"
       id="path905"
       inkscape:connector-curvature="0"
       style="fill:#6f6e6e;stroke-width:0.26458332" />
    <path
       class="st9"
       d="m 96.914266,171.67523 c -0.51382,0 -0.935831,0.40375 -0.935831,0.91757 0,0.51382 0.403754,0.93583 0.917575,0.93583 0.513821,0 0.935831,-0.40375 0.935831,-0.91757 0,0 0,0 0,-0.0183 0,-0.49556 -0.403754,-0.91757 -0.917575,-0.91757 m 0,1.41287 c -0.25691,0 -0.477043,-0.22013 -0.477043,-0.47704 0,-0.25691 0.220133,-0.47704 0.477043,-0.47704 0.256911,0 0.477044,0.22013 0.477044,0.47704 v 0 c 0,0.25691 -0.201877,0.47704 -0.477044,0.47704 v 0"
       id="path907"
       inkscape:connector-curvature="0"
       style="fill:#6f6e6e;stroke-width:0.26458332" />
    <path
       class="st9"
       d="m 100.18055,173.10636 c -0.055,0.0183 -0.12832,0.0368 -0.183623,0.0368 -0.1651,0 -0.201877,-0.055 -0.201877,-0.20188 v -0.86254 h 0.38523 v -0.36698 h -0.38523 v -0.51356 h -0.422011 l -0.09181,0.51383 h -0.3302 c -0.238654,0 -0.458788,0.1651 -0.550598,0.38523 l -0.146844,-0.38523 H 97.9599 v 1.77985 h 0.513821 v -0.77073 c 0,-0.38524 0.238654,-0.64215 0.51382,-0.64215 h 0.293688 v 0.8808 c 0,0.42201 0.220133,0.56885 0.568854,0.56885 0.128323,0 0.275167,-0.0182 0.403757,-0.055 z"
       id="path909"
       inkscape:connector-curvature="0"
       style="fill:#6f6e6e;stroke-width:0.26458332" />
    <polyline
       class="st9"
       points="447.389,24.901 447.389,29.479 445.447,29.479 445.447,22.751 446.626,22.751 447.042,23.792  "
       id="polyline911"
       style="fill:#6f6e6e"
       transform="matrix(0.26458333,0,0,0.26458333,-15.640541,165.6922)" />
    <path
       class="st9"
       d="m 102.63932,171.98717 c 0.14684,-0.18362 0.36698,-0.31194 0.60563,-0.31194 0.42201,0 0.60563,0.3302 0.60563,0.66066 v 1.17449 h -0.51382 v -1.17449 c 0,-0.12832 -0.11006,-0.23865 -0.25691,-0.23865 h -0.0183 c -0.12832,0 -0.23865,0.0733 -0.3302,0.1651"
       id="path913"
       inkscape:connector-curvature="0"
       style="fill:#6f6e6e;stroke-width:0.26458332" />
    <polygon
       class="st9"
       points="416.319,20.324 419.37,26.08 419.37,20.324 421.173,20.324 421.173,29.479 419.162,29.479 415.972,23.167 415.972,29.479 414.169,29.479 414.169,20.324 "
       id="polygon915"
       style="fill:#6f6e6e"
       transform="matrix(0.26458333,0,0,0.26458333,-15.640541,165.6922)" />
    <polygon
       class="st9"
       points="456.96,18.798 456.613,18.798 456.613,17.203 456.127,17.203 456.127,16.856 457.445,16.856 457.445,17.203 456.96,17.203 "
       id="polygon917"
       style="fill:#6f6e6e"
       transform="matrix(0.26458333,0,0,0.26458333,-15.640541,165.6922)" />
    <polygon
       class="st9"
       points="458.416,18.798 458.069,17.342 458.069,17.342 458.069,18.798 457.722,18.798 457.722,16.856 458.208,16.856 458.555,18.174 458.901,16.856 459.456,16.856 459.456,18.798 459.109,18.798 459.109,17.342 458.693,18.798 "
       id="polygon919"
       style="fill:#6f6e6e"
       transform="matrix(0.26458333,0,0,0.26458333,-15.640541,165.6922)" />
    <path
       class="st9"
       d="m 93.794829,175.65694 0.128323,-0.18362 c 0.128323,0.0918 0.275167,0.14685 0.422011,0.14685 0.128323,0.0182 0.25691,-0.055 0.275166,-0.18362 0,-0.0183 0,-0.0183 0,-0.0368 0,-0.14685 -0.128323,-0.20188 -0.366977,-0.27517 -0.238654,-0.0733 -0.403754,-0.1651 -0.403754,-0.45879 0,-0.29368 0.220133,-0.42201 0.495565,-0.42201 0.146843,0 0.311943,0.0368 0.440266,0.11007 l -0.09181,0.18362 c -0.110066,-0.055 -0.220133,-0.0733 -0.3302,-0.0733 -0.1651,0 -0.25691,0.055 -0.25691,0.18362 0,0.12832 0.110067,0.18362 0.311944,0.25691 0.201877,0.0733 0.458787,0.1651 0.458787,0.49557 0,0.27516 -0.183621,0.44026 -0.532077,0.44026 -0.201613,-0.0185 -0.40349,-0.0736 -0.550334,-0.18362"
       id="path921"
       inkscape:connector-curvature="0"
       style="fill:#6f6e6e;stroke-width:0.26458332" />
    <polygon
       class="st9"
       points="419.44,38.217 419.44,32.391 422.907,32.391 422.907,33.224 420.411,33.224 420.411,34.819 422.352,34.819 422.352,35.582 420.411,35.582 420.411,37.454 423.046,37.454 423.046,38.217 "
       id="polygon923"
       style="fill:#6f6e6e"
       transform="matrix(0.26458333,0,0,0.26458333,-15.640541,165.6922)" />
    <path
       class="st9"
       d="m 96.657356,175.03306 c 0,-0.45879 0.220133,-0.78899 0.642144,-0.78899 0.1651,-0.0183 0.3302,0.055 0.458787,0.18362 l -0.146843,0.18362 c -0.07329,-0.0918 -0.183621,-0.12832 -0.293688,-0.12832 -0.25691,0 -0.366977,0.20187 -0.366977,0.58711 0,0.38523 0.128323,0.53207 0.366977,0.53207 0.128323,0 0.238654,-0.0733 0.311944,-0.1651 l 0.146844,0.1651 c -0.110067,0.14685 -0.293688,0.22014 -0.477044,0.22014 -0.440267,0.0183 -0.642144,-0.33047 -0.642144,-0.78925"
       id="path925"
       inkscape:connector-curvature="0"
       style="fill:#6f6e6e;stroke-width:0.26458332" />
    <path
       class="st9"
       d="m 98.217075,175.21668 v -0.95409 h 0.25691 v 0.99086 c 0,0.22014 0.05503,0.34872 0.275167,0.34872 0.220133,0 0.275167,-0.14684 0.275167,-0.34872 v -0.99086 h 0.275166 v 0.95409 c 0,0.38523 -0.146844,0.60563 -0.550598,0.60563 -0.403225,-2.7e-4 -0.531812,-0.2204 -0.531812,-0.60563"
       id="path927"
       inkscape:connector-curvature="0"
       style="fill:#6f6e6e;stroke-width:0.26458332" />
    <path
       class="st9"
       d="m 100.9145,175.80379 h -0.29369 l -0.29368,-0.66067 h -0.23866 v 0.66067 h -0.256908 v -1.54147 h 0.495568 c 0.31194,0 0.5506,0.11007 0.5506,0.45879 0,0.18362 -0.11007,0.34872 -0.29369,0.40376 z m -0.60563,-0.86254 c 0.20188,0 0.29369,-0.055 0.29369,-0.23866 0,-0.18362 -0.11007,-0.23865 -0.27517,-0.23865 h -0.23865 v 0.47704 h 0.22013 z"
       id="path929"
       inkscape:connector-curvature="0"
       style="fill:#6f6e6e;stroke-width:0.26458332" />
    <polygon
       class="st9"
       points="442.187,38.217 442.187,32.391 445.655,32.391 445.655,33.224 443.158,33.224 443.158,34.819 445.1,34.819 445.1,35.582 443.158,35.582 443.158,37.454 445.794,37.454 445.794,38.217 "
       id="polygon931"
       style="fill:#6f6e6e"
       transform="matrix(0.26458333,0,0,0.26458333,-15.640541,165.6922)" />
    <path
       class="st9"
       d="m 102.74939,174.26232 h 0.38523 c 0.49557,0 0.75221,0.27517 0.75221,0.77074 0,0.49556 -0.23865,0.77073 -0.73395,0.77073 h -0.38524 z m 0.36697,1.33959 c 0.36698,0 0.47705,-0.1651 0.47705,-0.56885 0,-0.34873 -0.0918,-0.5506 -0.45879,-0.5506 h -0.12832 v 1.11945 z"
       id="path933"
       inkscape:connector-curvature="0"
       style="fill:#6f6e6e;stroke-width:0.26458332" />
    <path
       class="st9"
       d="m 89.519427,177.30847 c -2.055283,0 -3.706548,-1.66978 -3.706548,-3.70655 0,-2.03676 1.669786,-3.70654 3.706548,-3.70654 2.055284,0 3.706548,1.66978 3.706548,3.70654 0,2.05502 -1.651529,3.70655 -3.706548,3.70655 m 0,-6.25713 c -1.394618,0 -2.550583,1.13771 -2.550583,2.53233 0,1.39462 1.137708,2.55058 2.532327,2.55058 1.394619,0 2.550583,-1.13771 2.550583,-2.53233 0,-0.67892 -0.275166,-1.32106 -0.75221,-1.79837 -0.459052,-0.47704 -1.101196,-0.75221 -1.780117,-0.75221"
       id="path935"
       inkscape:connector-curvature="0"
       style="fill:#6f6e6e;stroke-width:0.26458332" />
    <rect
       x="93.556175"
       y="169.308"
       class="st9"
       width="0.29368749"
       height="0.29368749"
       id="rect937"
       style="fill:#6f6e6e;stroke-width:0.26458332" />
    <rect
       x="93.556175"
       y="168.73915"
       class="st9"
       width="0.29368749"
       height="0.29368749"
       id="rect939"
       style="fill:#6f6e6e;stroke-width:0.26458332" />
    <rect
       x="92.74894"
       y="169.60168"
       class="st9"
       width="0.27516666"
       height="0.27516666"
       id="rect941"
       style="fill:#6f6e6e;stroke-width:0.26458332" />
    <rect
       x="92.216858"
       y="170.15202"
       class="st9"
       width="0.27516666"
       height="0.27516666"
       id="rect943"
       style="fill:#6f6e6e;stroke-width:0.26458332" />
    <rect
       x="93.024094"
       y="169.89511"
       class="st9"
       width="0.31194377"
       height="0.27516666"
       id="rect945"
       style="fill:#6f6e6e;stroke-width:0.26458332" />
    <rect
       x="91.941429"
       y="169.89511"
       class="st9"
       width="0.27516666"
       height="0.25691041"
       id="rect947"
       style="fill:#6f6e6e;stroke-width:0.26458332" />
    <rect
       x="92.74894"
       y="170.15202"
       class="st9"
       width="0.27516666"
       height="0.27516666"
       id="rect949"
       style="fill:#6f6e6e;stroke-width:0.26458332" />
    <rect
       x="93.281006"
       y="169.03284"
       class="st9"
       width="0.29368749"
       height="0.29368749"
       id="rect951"
       style="fill:#6f6e6e;stroke-width:0.26458332" />
    <rect
       x="92.74894"
       y="169.308"
       class="st9"
       width="0.53207707"
       height="0.29368749"
       id="rect953"
       style="fill:#6f6e6e;stroke-width:0.26458332" />
    <rect
       x="92.49202"
       y="169.60168"
       class="st9"
       width="0.25691041"
       height="0.55059797"
       id="rect955"
       style="fill:#6f6e6e;stroke-width:0.26458332" />
    <path
       class="st9"
       d="m 92.492021,170.42745 v 0.27517 h -0.275167 v -0.27517 h -0.458787 v 0.20188 h -0.238654 v 0.23865 h 0.275166 v 0.27517 h -0.275166 v -0.27517 H 91.225725 V 171.29 h -0.275166 v 0.27516 h -0.183621 v 0.27517 h -0.201877 c -0.348721,0.56885 -0.678921,1.17448 -0.954088,1.77985 -0.605631,-0.84402 -1.082675,-1.19274 -1.449652,-1.30281 -0.201877,-0.055 -0.440267,0.1651 -0.110067,0.49557 0.550598,0.60563 0.972609,1.32106 1.247775,2.09179 0.128323,0.29369 0.678921,0.3302 0.788988,0.0368 0.25691,-0.67892 0.58711,-1.32106 0.990864,-1.9267 v -0.31194 h 0.220134 v -0.27517 h 0.220133 v -0.31194 h 0.275167 v -0.31194 h -0.275167 v -0.27517 h 0.275167 v 0.27517 h 0.275166 v -0.27517 h 0.220134 v -0.29369 h 0.220133 v -0.22013 h 0.238654 v -0.56886 z"
       id="path957"
       inkscape:connector-curvature="0"
       style="fill:#6f6e6e;stroke-width:0.26458332" />
  </g>
</svg>
