<?xml version="1.0" encoding="UTF-8" standalone="no"?>
<!-- Created with Inkscape (http://www.inkscape.org/) -->

<svg
   xmlns:dc="http://purl.org/dc/elements/1.1/"
   xmlns:cc="http://creativecommons.org/ns#"
   xmlns:rdf="http://www.w3.org/1999/02/22-rdf-syntax-ns#"
   xmlns:svg="http://www.w3.org/2000/svg"
   xmlns="http://www.w3.org/2000/svg"
   xmlns:sodipodi="http://sodipodi.sourceforge.net/DTD/sodipodi-0.dtd"
   xmlns:inkscape="http://www.inkscape.org/namespaces/inkscape"
   width="4.7624998mm"
   height="5.6363211mm"
   viewBox="0 0 4.7624998 5.6363211"
   version="1.1"
   id="svg981"
   inkscape:version="0.92.4 (5da689c313, 2019-01-14)"
   sodipodi:docname="org.svg">
  <defs
     id="defs975" />
  <sodipodi:namedview
     id="base"
     pagecolor="#ffffff"
     bordercolor="#666666"
     borderopacity="1.0"
     inkscape:pageopacity="0.0"
     inkscape:pageshadow="2"
     inkscape:zoom="0.35"
     inkscape:cx="51.857123"
     inkscape:cy="73.508397"
     inkscape:document-units="mm"
     inkscape:current-layer="layer1"
     showgrid="false"
     inkscape:window-width="1600"
     inkscape:window-height="837"
     inkscape:window-x="-8"
     inkscape:window-y="-8"
     inkscape:window-maximized="1" />
  <metadata
     id="metadata978">
    <rdf:RDF>
      <cc:Work
         rdf:about="">
        <dc:format>image/svg+xml</dc:format>
        <dc:type
           rdf:resource="http://purl.org/dc/dcmitype/StillImage" />
        <dc:title></dc:title>
      </cc:Work>
    </rdf:RDF>
  </metadata>
  <g
     inkscape:label="Layer 1"
     inkscape:groupmode="layer"
     id="layer1"
     transform="translate(-92.112803,-162.64611)">
    <path
       d="m 96.134464,167.40931 c -0.555625,-0.0265 -0.79375,-0.37042 -0.79375,-0.37042 l 0.05292,-0.0794 c 0.264583,-0.1323 0.47625,-1.0848 0.47625,-1.0848 0.05292,0.0529 0.238125,-0.0794 0.3175,-0.55562 0.105833,-0.47625 -0.185208,-0.37042 -0.185208,-0.37042 0.529166,-1.27 0.02646,-1.64041 0.02646,-1.64041 0.02646,-0.68792 -1.058333,-0.66146 -1.058333,-0.66146 -1.42875,-0.0265 -1.799167,0.74083 -1.799167,0.74083 v 0.39688 c -0.105833,0.10583 -0.291042,0.21166 -0.185208,0.44979 0.105833,0.21166 0.185208,0.79375 0.185208,0.79375 -0.105833,-0.0794 -0.291042,-0.0529 -0.185208,0.44979 0.105833,0.50271 0.3175,0.42333 0.3175,0.42333 0.05292,0.44979 0.396875,1.03188 0.396875,1.03188 v 0.0794 c -0.185209,0.29104 -0.714375,0.42334 -0.714375,0.42334 -0.291042,0.0265 -0.608542,0.10583 -0.873125,0.15875 v 0.68791 h 4.7625 v -0.71437 c -0.396875,-0.10584 -0.740834,-0.15875 -0.740834,-0.15875 z"
       id="path296"
       inkscape:connector-curvature="0"
       style="stroke-width:0.26458332" />
  </g>
</svg>
