<?xml version="1.0" encoding="UTF-8" standalone="no"?>
<!-- Created with Inkscape (http://www.inkscape.org/) -->

<svg
   xmlns:dc="http://purl.org/dc/elements/1.1/"
   xmlns:cc="http://creativecommons.org/ns#"
   xmlns:rdf="http://www.w3.org/1999/02/22-rdf-syntax-ns#"
   xmlns:svg="http://www.w3.org/2000/svg"
   xmlns="http://www.w3.org/2000/svg"
   xmlns:sodipodi="http://sodipodi.sourceforge.net/DTD/sodipodi-0.dtd"
   xmlns:inkscape="http://www.inkscape.org/namespaces/inkscape"
   width="20.037207mm"
   height="6.7307353mm"
   viewBox="0 0 20.037207 6.7307353"
   version="1.1"
   id="svg1409"
   inkscape:version="0.92.4 (5da689c313, 2019-01-14)"
   sodipodi:docname="paypal.svg">
  <defs
     id="defs1403" />
  <sodipodi:namedview
     id="base"
     pagecolor="#ffffff"
     bordercolor="#666666"
     borderopacity="1.0"
     inkscape:pageopacity="0.0"
     inkscape:pageshadow="2"
     inkscape:zoom="0.35"
     inkscape:cx="75.008444"
     inkscape:cy="101.29094"
     inkscape:document-units="mm"
     inkscape:current-layer="layer1"
     showgrid="false"
     inkscape:window-width="1304"
     inkscape:window-height="745"
     inkscape:window-x="-8"
     inkscape:window-y="-8"
     inkscape:window-maximized="1" />
  <metadata
     id="metadata1406">
    <rdf:RDF>
      <cc:Work
         rdf:about="">
        <dc:format>image/svg+xml</dc:format>
        <dc:type
           rdf:resource="http://purl.org/dc/dcmitype/StillImage" />
        <dc:title></dc:title>
      </cc:Work>
    </rdf:RDF>
  </metadata>
  <g
     inkscape:label="Layer 1"
     inkscape:groupmode="layer"
     id="layer1"
     transform="translate(-85.987349,-168.90249)">
    <g
       id="g821"
       transform="matrix(0.26458333,0,0,0.26458333,-66.835142,164.13232)">
      <path
         class="st7"
         d="m 597.048,24.622 c 0.338,-1.944 0,-3.296 -1.099,-4.563 -1.183,-1.352 -3.296,-1.944 -6,-1.944 h -7.859 c -0.592,0 -1.014,0.423 -1.099,0.93 l -3.296,20.873 c -0.085,0.423 0.254,0.761 0.676,0.761 h 4.901 l -0.338,2.113 c -0.085,0.338 0.254,0.676 0.592,0.676 h 4.141 c 0.507,0 0.93,-0.338 1.014,-0.845 v -0.169 l 0.761,-4.901 0.084,-0.254 c 0.085,-0.507 0.507,-0.845 1.014,-0.845 h 0.592 c 3.972,0 7.098,-1.606 8.028,-6.253 0.423,-1.944 0.169,-3.549 -0.845,-4.732 -0.422,-0.34 -0.845,-0.594 -1.267,-0.847 v 0"
         id="path815"
         inkscape:connector-curvature="0"
         style="fill:#333333" />
      <path
         class="st8"
         d="m 597.048,24.622 c 0.338,-1.944 0,-3.296 -1.099,-4.563 -1.183,-1.352 -3.296,-1.944 -6,-1.944 h -7.859 c -0.592,0 -1.014,0.423 -1.099,0.93 l -3.296,20.873 c -0.085,0.423 0.254,0.761 0.676,0.761 h 4.901 l 1.183,-7.774 v 0.254 c 0.084,-0.507 0.591,-0.93 1.099,-0.93 h 2.282 c 4.563,0 8.112,-1.859 9.127,-7.183 0,-0.171 0.085,-0.255 0.085,-0.424"
         id="path817"
         inkscape:connector-curvature="0"
         style="fill:#444444" />
      <path
         class="st9"
         d="m 585.724,24.622 c 0.084,-0.338 0.253,-0.591 0.507,-0.761 0.169,-0.084 0.253,-0.084 0.422,-0.084 h 6.169 c 0.761,0 1.437,0.084 2.028,0.169 0.169,0 0.338,0.084 0.507,0.084 0.169,0 0.338,0.084 0.507,0.084 0.085,0 0.169,0.084 0.254,0.084 0.338,0.084 0.592,0.254 0.845,0.338 0.338,-1.944 0,-3.296 -1.099,-4.563 -1.183,-1.352 -3.296,-1.944 -6,-1.944 h -7.859 c -0.592,0 -1.014,0.423 -1.099,0.93 l -3.296,20.873 c -0.085,0.423 0.253,0.761 0.676,0.761 h 4.901 l 1.183,-7.774 z"
         id="path819"
         inkscape:connector-curvature="0"
         style="fill:#6f6e6e" />
    </g>
    <g
       id="g837"
       transform="matrix(0.26458333,0,0,0.26458333,-66.835142,164.13232)">
      <g
         id="g835">
        <path
           class="st9"
           d="m 630.935,31.213 c 0,-0.169 0.169,-0.338 0.423,-0.338 h 3.803 c 3.127,0 5.324,2.451 4.817,5.662 -0.507,3.211 -3.465,5.662 -6.591,5.662 H 629.5 c -0.169,0 -0.254,-0.169 -0.254,-0.254 z m 1.605,8.451 h 0.676 c 1.775,0 3.38,-0.93 3.718,-3.127 0.338,-2.028 -0.845,-3.127 -2.704,-3.127 h -0.507 c -0.085,0 -0.254,0.084 -0.254,0.169 z"
           id="path823"
           inkscape:connector-curvature="0"
           style="fill:#6f6e6e" />
        <path
           class="st9"
           d="m 626.033,33.664 -0.253,1.521 h 3.042 c 0.169,0 0.253,0.169 0.253,0.254 l -0.253,1.859 c 0,0.169 -0.169,0.338 -0.423,0.338 h -2.704 c -0.169,0 -0.338,0.169 -0.423,0.338 l -0.253,1.606 h 3.211 c 0.169,0 0.254,0.169 0.254,0.254 l -0.254,1.859 c 0,0.169 -0.169,0.338 -0.423,0.338 h -5.746 c -0.169,0 -0.253,-0.169 -0.253,-0.254 l 1.69,-10.648 c 0,-0.169 0.169,-0.338 0.423,-0.338 h 5.746 c 0.169,0 0.254,0.169 0.254,0.254 l -0.254,1.859 c 0,0.169 -0.169,0.338 -0.423,0.338 h -2.789 c -0.253,0.084 -0.422,0.253 -0.422,0.422 z"
           id="path825"
           inkscape:connector-curvature="0"
           style="fill:#6f6e6e" />
        <path
           class="st9"
           d="m 642.512,42.114 h -2.282 c -0.169,0 -0.254,-0.169 -0.254,-0.254 l 1.69,-10.648 c 0,-0.169 0.169,-0.338 0.422,-0.338 h 2.282 c 0.169,0 0.253,0.169 0.253,0.254 l -1.69,10.648 c 10e-4,0.169 -0.168,0.338 -0.421,0.338 z"
           id="path827"
           inkscape:connector-curvature="0"
           style="fill:#6f6e6e" />
        <path
           class="st9"
           d="m 620.963,42.114 h -3.042 c -0.169,0 -0.253,-0.084 -0.338,-0.169 l -2.028,-4.141 v 0 l -0.676,4.056 c 0,0.169 -0.169,0.254 -0.338,0.254 h -2.366 c -0.169,0 -0.254,-0.169 -0.254,-0.254 l 1.69,-10.732 c 0,-0.169 0.169,-0.254 0.338,-0.254 h 4.056 c 2.197,0 3.718,1.099 3.38,3.465 -0.254,1.521 -1.352,2.873 -2.958,3.211 l 2.62,4.225 c 0.254,0.17 0.085,0.339 -0.084,0.339 z m -5.07,-6.168 h 0.254 c 0.93,0 2.028,-0.169 2.282,-1.437 0.169,-1.268 -0.422,-1.437 -1.437,-1.437 h -0.422 c -0.085,0 -0.254,0.084 -0.254,0.254 z"
           id="path829"
           inkscape:connector-curvature="0"
           style="fill:#6f6e6e" />
        <path
           class="st9"
           d="m 648.765,42.114 h -2.282 c -0.169,0 -0.254,-0.169 -0.254,-0.254 l 1.352,-8.535 h -2.113 c -0.169,0 -0.253,-0.169 -0.253,-0.254 l 0.253,-1.859 c 0,-0.169 0.169,-0.338 0.423,-0.338 h 7.183 c 0.169,0 0.254,0.169 0.254,0.254 l -0.254,1.859 c 0,0.169 -0.169,0.338 -0.422,0.338 h -2.113 l -1.352,8.451 c -0.084,0.169 -0.253,0.338 -0.422,0.338 z"
           id="path831"
           inkscape:connector-curvature="0"
           style="fill:#6f6e6e" />
        <path
           class="st9"
           d="m 612.174,34.086 c 0,0.169 -0.254,0.254 -0.423,0.169 -0.507,-0.507 -1.268,-0.761 -2.028,-0.761 -1.775,0 -3.211,1.352 -3.465,3.127 -0.254,1.775 0.761,3.042 2.535,3.042 0.761,0 1.521,-0.254 2.197,-0.761 0.169,-0.169 0.422,0 0.422,0.254 l -0.422,2.62 c 0,0.169 -0.169,0.254 -0.254,0.338 -0.93,0.254 -1.606,0.423 -2.451,0.423 -4.901,0 -5.662,-4.141 -5.408,-5.915 0.676,-4.986 4.732,-6.084 7.183,-5.915 0.76,0.084 1.521,0.169 2.197,0.423 0.254,0.084 0.338,0.338 0.338,0.591 z"
           id="path833"
           inkscape:connector-curvature="0"
           style="fill:#6f6e6e" />
      </g>
    </g>
    <g
       id="g853"
       transform="matrix(0.26458333,0,0,0.26458333,-66.835142,164.13232)">
      <g
         id="g851">
        <path
           class="st8"
           d="m 626.794,19.552 h -2.535 c -0.169,0 -0.338,0.084 -0.338,0.338 l -1.014,6.507 c 0,0.169 0.084,0.254 0.169,0.254 h 1.268 c 0.084,0 0.253,-0.084 0.253,-0.169 l 0.254,-1.859 c 0,-0.169 0.169,-0.338 0.338,-0.338 h 0.845 c 1.69,0 2.62,-0.845 2.873,-2.451 0.085,-0.676 0,-1.268 -0.338,-1.606 -0.254,-0.423 -0.93,-0.676 -1.775,-0.676 z m 0.338,2.366 c -0.169,0.93 -0.845,0.93 -1.521,0.93 h -0.422 l 0.253,-1.69 c 0,-0.084 0.085,-0.169 0.169,-0.169 h 0.169 c 0.423,0 0.93,0 1.099,0.254 0.253,0.168 0.253,0.337 0.253,0.675 z"
           id="path839"
           inkscape:connector-curvature="0"
           style="fill:#444444" />
        <path
           class="st9"
           d="m 608.71,19.552 h -2.535 c -0.169,0 -0.338,0.084 -0.338,0.338 l -1.014,6.507 c 0,0.169 0.084,0.254 0.169,0.254 h 1.183 c 0.169,0 0.338,-0.084 0.338,-0.338 l 0.254,-1.775 c 0,-0.169 0.169,-0.338 0.338,-0.338 h 0.845 c 1.69,0 2.62,-0.845 2.873,-2.451 0.084,-0.676 0,-1.268 -0.338,-1.606 -0.339,-0.338 -0.93,-0.591 -1.775,-0.591 z m 0.253,2.366 c -0.169,0.93 -0.845,0.93 -1.521,0.93 h -0.338 l 0.254,-1.69 c 0,-0.084 0.084,-0.169 0.169,-0.169 h 0.169 c 0.422,0 0.93,0 1.099,0.254 0.168,0.168 0.253,0.337 0.168,0.675 z"
           id="path841"
           inkscape:connector-curvature="0"
           style="fill:#6f6e6e" />
        <path
           class="st9"
           d="m 616.315,21.918 h -1.183 c -0.085,0 -0.169,0.084 -0.169,0.169 l -0.085,0.338 -0.085,-0.084 c -0.253,-0.423 -0.845,-0.507 -1.437,-0.507 -1.352,0 -2.451,1.014 -2.704,2.451 -0.084,0.676 0.085,1.352 0.423,1.859 0.338,0.423 0.93,0.591 1.521,0.591 1.099,0 1.69,-0.676 1.69,-0.676 l -0.084,0.338 c 0,0.169 0.084,0.254 0.169,0.254 h 1.099 c 0.169,0 0.338,-0.084 0.338,-0.338 l 0.676,-4.141 c 0,-0.17 -0.084,-0.254 -0.169,-0.254 z m -1.69,2.366 c -0.084,0.676 -0.676,1.183 -1.352,1.183 -0.338,0 -0.676,-0.084 -0.845,-0.338 -0.169,-0.254 -0.254,-0.507 -0.169,-0.845 0.084,-0.676 0.676,-1.183 1.352,-1.183 0.338,0 0.592,0.084 0.845,0.338 0.085,0.169 0.169,0.507 0.169,0.845 z"
           id="path843"
           inkscape:connector-curvature="0"
           style="fill:#6f6e6e" />
        <path
           class="st8"
           d="m 634.399,21.918 h -1.183 c -0.084,0 -0.169,0.084 -0.169,0.169 l -0.084,0.338 -0.085,-0.084 c -0.253,-0.423 -0.845,-0.507 -1.437,-0.507 -1.352,0 -2.451,1.014 -2.704,2.451 -0.084,0.676 0.085,1.352 0.423,1.859 0.338,0.423 0.93,0.591 1.521,0.591 1.099,0 1.69,-0.676 1.69,-0.676 l -0.084,0.338 c 0,0.169 0.084,0.254 0.169,0.254 h 1.099 c 0.169,0 0.338,-0.084 0.338,-0.338 l 0.676,-4.141 c 0.084,-0.17 -10e-4,-0.254 -0.17,-0.254 z m -1.69,2.366 c -0.084,0.676 -0.676,1.183 -1.352,1.183 -0.338,0 -0.676,-0.084 -0.845,-0.338 -0.169,-0.254 -0.253,-0.507 -0.169,-0.845 0.085,-0.676 0.676,-1.183 1.352,-1.183 0.338,0 0.592,0.084 0.845,0.338 0.169,0.169 0.254,0.507 0.169,0.845 z"
           id="path845"
           inkscape:connector-curvature="0"
           style="fill:#444444" />
        <path
           class="st9"
           d="m 622.737,21.918 h -1.183 c -0.085,0 -0.254,0.084 -0.254,0.169 l -1.69,2.451 -0.676,-2.366 c -0.085,-0.169 -0.169,-0.254 -0.338,-0.254 h -1.183 c -0.169,0 -0.254,0.169 -0.169,0.254 l 1.352,3.972 -1.268,1.775 c -0.084,0.169 0,0.338 0.169,0.338 h 1.183 c 0.084,0 0.253,-0.084 0.253,-0.169 l 4.056,-5.831 c 0.087,-0.17 -0.082,-0.339 -0.252,-0.339 z"
           id="path847"
           inkscape:connector-curvature="0"
           style="fill:#6f6e6e" />
        <path
           class="st8"
           d="m 635.836,19.721 -1.014,6.591 c 0,0.169 0.084,0.254 0.169,0.254 h 1.014 c 0.169,0 0.338,-0.084 0.338,-0.338 l 1.014,-6.507 c 0,-0.169 -0.084,-0.254 -0.169,-0.254 h -1.183 c -0.085,0.085 -0.169,0.169 -0.169,0.254 z"
           id="path849"
           inkscape:connector-curvature="0"
           style="fill:#444444" />
      </g>
    </g>
  </g>
</svg>
