<?xml version="1.0" encoding="UTF-8" standalone="no"?>
<!-- Created with Inkscape (http://www.inkscape.org/) -->

<svg
   xmlns:dc="http://purl.org/dc/elements/1.1/"
   xmlns:cc="http://creativecommons.org/ns#"
   xmlns:rdf="http://www.w3.org/1999/02/22-rdf-syntax-ns#"
   xmlns:svg="http://www.w3.org/2000/svg"
   xmlns="http://www.w3.org/2000/svg"
   xmlns:sodipodi="http://sodipodi.sourceforge.net/DTD/sodipodi-0.dtd"
   xmlns:inkscape="http://www.inkscape.org/namespaces/inkscape"
   width="5.503335mm"
   height="4.4714584mm"
   viewBox="0 0 5.503335 4.4714584"
   version="1.1"
   id="svg591"
   inkscape:version="0.92.4 (5da689c313, 2019-01-14)"
   sodipodi:docname="price.svg">
  <defs
     id="defs585" />
  <sodipodi:namedview
     id="base"
     pagecolor="#ffffff"
     bordercolor="#666666"
     borderopacity="1.0"
     inkscape:pageopacity="0.0"
     inkscape:pageshadow="2"
     inkscape:zoom="0.35"
     inkscape:cx="-32.457153"
     inkscape:cy="151.30715"
     inkscape:document-units="mm"
     inkscape:current-layer="layer1"
     showgrid="false"
     inkscape:window-width="1600"
     inkscape:window-height="837"
     inkscape:window-x="-8"
     inkscape:window-y="-8"
     inkscape:window-maximized="1" />
  <metadata
     id="metadata588">
    <rdf:RDF>
      <cc:Work
         rdf:about="">
        <dc:format>image/svg+xml</dc:format>
        <dc:type
           rdf:resource="http://purl.org/dc/dcmitype/StillImage" />
        <dc:title></dc:title>
      </cc:Work>
    </rdf:RDF>
  </metadata>
  <g
     inkscape:label="Layer 1"
     inkscape:groupmode="layer"
     id="layer1"
     transform="translate(-114.42095,-184.39522)">
    <polygon
       transform="matrix(0.26458333,0,0,0.26458333,112.43658,167.0121)"
       class="st13"
       points="21.8,73.4 22.7,74.4 25.1,71.6 26.2,72.5 22.7,76.7 20.7,74.4 "
       id="polygon352"
       style="fill:#434343" />
    <polygon
       transform="matrix(0.26458333,0,0,0.26458333,112.43658,167.0121)"
       class="st13"
       points="9.1,81.1 22.9,81.1 22.9,80.2 24.4,80.2 24.4,82.6 7.5,82.6 7.5,65.7 24.4,65.7 24.4,68.2 22.9,68.2 22.9,67.2 9.1,67.2 "
       id="polygon354"
       style="fill:#434343" />
    <path
       class="st13"
       d="m 117.01387,187.88772 h -1.50813 v -1.7727 c 0,-0.42334 0.34396,-0.74084 0.74084,-0.74084 0.39687,0 0.74083,0.34396 0.74083,0.74084 h -0.39687 c 0,-0.18521 -0.15875,-0.34396 -0.34396,-0.34396 -0.18521,0 -0.34396,0.15875 -0.34396,0.34396 v 1.37583 h 1.11125 z"
       id="path356"
       inkscape:connector-curvature="0"
       style="fill:#434343;stroke-width:0.26458332" />
    <rect
       x="115.69096"
       y="186.53835"
       class="st13"
       width="0.79374999"
       height="0.39687499"
       id="rect358"
       style="fill:#434343;stroke-width:0.26458332" />
    <rect
       x="115.24116"
       y="187.49084"
       class="st13"
       width="0.79374999"
       height="0.39687499"
       id="rect360"
       style="fill:#434343;stroke-width:0.26458332" />
    <path
       class="st13"
       d="m 119.92429,187.88772 h -2.51355 v -2.51354 h 2.51355 z m -2.11667,-0.39687 h 1.71979 v -1.71979 h -1.71979 z"
       id="path362"
       inkscape:connector-curvature="0"
       style="fill:#434343;stroke-width:0.26458332" />
  </g>
</svg>
