<?xml version="1.0" encoding="UTF-8" standalone="no"?>
<!-- Created with Inkscape (http://www.inkscape.org/) -->

<svg
   xmlns:dc="http://purl.org/dc/elements/1.1/"
   xmlns:cc="http://creativecommons.org/ns#"
   xmlns:rdf="http://www.w3.org/1999/02/22-rdf-syntax-ns#"
   xmlns:svg="http://www.w3.org/2000/svg"
   xmlns="http://www.w3.org/2000/svg"
   xmlns:sodipodi="http://sodipodi.sourceforge.net/DTD/sodipodi-0.dtd"
   xmlns:inkscape="http://www.inkscape.org/namespaces/inkscape"
   width="24.788609mm"
   height="3.3602083mm"
   viewBox="0 0 24.788609 3.3602083"
   version="1.1"
   id="svg5320"
   inkscape:version="0.92.4 (5da689c313, 2019-01-14)"
   sodipodi:docname="specialized.svg">
  <defs
     id="defs5314" />
  <sodipodi:namedview
     id="base"
     pagecolor="#ffffff"
     bordercolor="#666666"
     borderopacity="1.0"
     inkscape:pageopacity="0.0"
     inkscape:pageshadow="2"
     inkscape:zoom="0.35"
     inkscape:cx="75.416043"
     inkscape:cy="83.49285"
     inkscape:document-units="mm"
     inkscape:current-layer="layer1"
     showgrid="false"
     inkscape:window-width="1304"
     inkscape:window-height="745"
     inkscape:window-x="-8"
     inkscape:window-y="-8"
     inkscape:window-maximized="1" />
  <metadata
     id="metadata5317">
    <rdf:RDF>
      <cc:Work
         rdf:about="">
        <dc:format>image/svg+xml</dc:format>
        <dc:type
           rdf:resource="http://purl.org/dc/dcmitype/StillImage" />
        <dc:title></dc:title>
      </cc:Work>
    </rdf:RDF>
  </metadata>
  <g
     inkscape:label="Layer 1"
     inkscape:groupmode="layer"
     id="layer1"
     transform="translate(-85.879505,-167.56394)">
    <g
       transform="matrix(0.26458333,0,0,0.26458333,83.667385,163.93915)"
       id="g5175"
       style="fill:#800000">
      <path
         inkscape:connector-curvature="0"
         class="st2"
         d="m 39.6,13.8 c -0.1,0.3 -0.3,0.5 -0.4,0.7 -0.1,0.2 -0.2,0.2 -0.4,0.2 -1,0 -2.1,0 -3.1,0 -0.7,0 -1.2,0.3 -1.5,0.9 -0.5,1.3 -1.1,2.5 -1.6,3.8 1.1,0 2.1,0 3.1,0 0.5,0 0.4,0 0.3,0.4 -0.2,0.4 -0.4,0.5 -0.8,0.5 -0.9,0 -1.7,0 -2.6,0 -0.2,0 -0.3,0.1 -0.4,0.3 -0.5,1.2 -1.1,2.5 -1.6,3.7 -0.3,0.7 -0.2,0.8 0.5,0.8 1.2,0 2.3,0 3.6,0 -0.1,0.3 -0.3,0.6 -0.4,0.9 -0.1,0.1 -0.2,0.2 -0.3,0.2 -1.9,0 -3.7,0 -5.6,0 -1,0 -1.3,-0.5 -1,-1.4 0.5,-1.4 1.1,-2.7 1.7,-4.1 0.8,-1.8 1.6,-3.6 2.3,-5.5 0.4,-1 1.1,-1.4 2.2,-1.4 2,0 4,0 6,0 z"
         id="path5153"
         style="fill:#800000" />
      <path
         inkscape:connector-curvature="0"
         class="st2"
         d="m 92.9,13.8 c -0.1,0.3 -0.2,0.5 -0.3,0.7 -0.1,0.2 -0.3,0.2 -0.5,0.2 -0.9,0 -1.9,0 -2.8,0 -0.9,0 -1.5,0.3 -1.8,1.2 -0.5,1.2 -1,2.4 -1.5,3.6 1.2,0 2.3,0 3.5,0 -0.1,0.7 -0.4,0.9 -1,0.9 -0.8,0 -1.7,0 -2.5,0 -0.2,0 -0.3,0 -0.4,0.2 -0.5,1.2 -1.1,2.5 -1.6,3.7 -0.3,0.7 -0.2,0.8 0.5,0.8 1.2,0 2.4,0 3.6,0 -0.1,0.3 -0.3,0.6 -0.4,0.9 -0.1,0.2 -0.2,0.2 -0.3,0.2 -1.9,0 -3.9,0 -5.8,0 -0.6,0 -0.9,-0.4 -0.8,-1 0.2,-0.8 0.6,-1.5 0.9,-2.3 1.1,-2.6 2.2,-5.1 3.3,-7.6 0.4,-1 1.1,-1.4 2.2,-1.4 1.8,-0.1 3.7,-0.1 5.7,-0.1 z"
         id="path5155"
         style="fill:#800000" />
      <path
         inkscape:connector-curvature="0"
         class="st2"
         d="m 76,14.8 c 0,-0.1 0,-0.1 0,0 0.3,-1 0.3,-1 1.2,-1 1.8,0 3.7,0 5.5,0 0.4,0 0.7,0 0.9,0.4 0.2,0.4 -0.1,0.7 -0.3,1 -1.3,1.5 -2.7,2.9 -4,4.4 -1.5,1.6 -3,3.3 -4.5,4.9 l -0.1,0.1 c -0.1,0.1 -0.3,0.3 -0.2,0.4 0.1,0.2 0.3,0.1 0.4,0.1 1.4,0 2.7,0 4.1,0 0.3,0 0.4,0 0.3,0.3 -0.3,0.8 -0.3,0.8 -1.1,0.8 -2.1,0 -4.1,0 -6.2,0 -0.4,0 -0.8,0.1 -1,-0.4 -0.2,-0.4 0.1,-0.7 0.4,-1 0.8,-0.9 1.7,-1.8 2.5,-2.7 2.1,-2.3 4.2,-4.5 6.3,-6.8 0.1,-0.1 0.1,-0.1 0.2,-0.2 0.2,-0.2 0.1,-0.4 -0.2,-0.4 -0.7,0 -1.4,0 -2.1,0 -0.7,0.1 -1.4,0.1 -2.1,0.1 z"
         id="path5157"
         style="fill:#800000" />
      <path
         inkscape:connector-curvature="0"
         class="st2"
         d="m 18,13.8 c 1,0 2.1,0 3.1,0 0.2,0 0.3,0 0.2,0.3 -0.2,0.5 -0.4,0.7 -1,0.7 -1.1,-0.1 -2.2,0 -3.3,0 -0.4,0 -0.7,0.1 -0.9,0.5 -0.5,0.7 -0.8,1.4 -1,2.2 -0.1,0.5 0,0.8 0.4,1.2 0.7,0.6 1.3,1.2 2,1.7 0.5,0.5 0.6,1 0.4,1.7 -0.4,1.2 -0.9,2.3 -1.4,3.3 -0.4,0.8 -1.1,1 -1.9,1 -2,0 -4,0 -6,0 -0.2,0 -0.3,0 -0.2,-0.3 0.2,-0.6 0.6,-0.9 1.3,-0.8 1,0.1 2,0 3,0 0.4,0 0.8,-0.1 1,-0.5 0.5,-0.9 0.9,-1.9 1.3,-2.8 0.2,-0.5 0,-0.9 -0.4,-1.3 C 14,20.1 13.3,19.6 12.7,19 12.1,18.4 12,18.2 12.3,17.4 c 0.3,-0.8 0.6,-1.5 0.9,-2.3 0.3,-0.8 0.9,-1.2 1.8,-1.2 1,-0.1 2,-0.1 3,-0.1 z"
         id="path5159"
         style="fill:#800000" />
      <path
         inkscape:connector-curvature="0"
         class="st2"
         d="m 48.3,13.8 c -0.1,0.3 -0.2,0.5 -0.3,0.7 -0.1,0.2 -0.2,0.2 -0.4,0.2 -1.1,0 -2.2,0 -3.3,0 -0.6,0 -1,0.2 -1.2,0.8 -1.3,3 -2.6,6 -3.9,9 -0.2,0.5 -0.1,0.7 0.6,0.7 1,0 2.1,0 3.1,0 0.2,0 0.3,0 0.5,0 0,0.1 0,0.1 0,0.1 -0.4,0.9 -0.4,0.9 -1.4,0.9 -1.6,0 -3.2,0 -4.9,0 -0.2,0 -0.4,0 -0.5,0 -0.4,-0.1 -0.7,-0.4 -0.7,-0.8 0,-0.3 0.1,-0.6 0.2,-0.9 1.4,-3.2 2.8,-6.4 4.1,-9.7 0.3,-0.8 1,-1 1.7,-1 2.2,0 4.3,0 6.4,0 z"
         id="path5161"
         style="fill:#800000" />
      <path
         inkscape:connector-curvature="0"
         class="st2"
         d="m 67.6,13.8 c -0.6,1.5 -1.2,2.9 -1.8,4.3 -0.9,2.1 -1.8,4.2 -2.7,6.3 -0.2,0.6 -0.1,0.8 0.5,0.8 0.8,0 1.6,0 2.4,0 0.3,0 0.3,0 0.2,0.3 -0.3,0.8 -0.3,0.8 -1.1,0.8 -1.4,0 -2.8,0 -4.2,0 -0.8,0 -1.2,-0.4 -0.9,-1.2 0.2,-0.9 0.7,-1.7 1,-2.5 1.2,-2.8 2.4,-5.6 3.6,-8.4 0.1,-0.2 0.2,-0.3 0.5,-0.3 0.8,-0.1 1.6,-0.1 2.5,-0.1 z"
         id="path5163"
         style="fill:#800000" />
      <path
         inkscape:connector-curvature="0"
         class="st2"
         d="m 75.1,13.8 c -1.2,2.7 -2.3,5.4 -3.5,8.1 -0.6,1.3 -1.1,2.7 -1.7,4 -0.1,0.3 -0.2,0.3 -0.5,0.3 -0.8,0 -1.7,0 -2.6,0 0.2,-0.6 0.5,-1.1 0.7,-1.7 1.5,-3.4 3,-6.8 4.4,-10.2 0.2,-0.4 0.4,-0.5 0.8,-0.5 0.9,0 1.6,0 2.4,0 z"
         id="path5165"
         style="fill:#800000" />
      <path
         inkscape:connector-curvature="0"
         class="st2"
         d="m 44.4,26.2 c 0.5,-1.1 0.9,-2.2 1.4,-3.2 1.3,-3 2.6,-5.9 3.8,-8.9 0.1,-0.3 0.2,-0.4 0.6,-0.4 0.8,0 1.6,0 2.5,0 -0.4,0.9 -0.8,1.8 -1.1,2.7 -1.3,3.1 -2.7,6.3 -4,9.4 -0.1,0.3 -0.3,0.4 -0.6,0.4 -0.9,0 -1.7,0 -2.6,0 z"
         id="path5167"
         style="fill:#800000" />
      <path
         inkscape:connector-curvature="0"
         class="st2"
         d="m 100.8,13.7 c -2.1,0 -4.1,0 -6.2,0 -0.3,0 -0.5,0.1 -0.6,0.4 -1.1,2.5 -2.1,5 -3.2,7.6 -0.6,1.5 -1.3,3 -1.9,4.5 1.8,0 3.6,0 5.3,0 0.5,0 1,0 1.5,0 1.2,0.1 1.9,-0.5 2.3,-1.5 1,-2.3 1.9,-4.5 2.9,-6.7 0.4,-0.9 0.8,-1.8 1.1,-2.7 0.2,-1 -0.2,-1.6 -1.2,-1.6 z m -1.9,1.8 c -0.1,0.4 -0.3,0.8 -0.5,1.2 -1.1,2.5 -2.2,4.9 -3.2,7.4 -0.3,0.7 -0.7,1 -1.5,1 -0.5,0 -1,0 -1.5,0 0.5,-1.1 0.9,-2.1 1.3,-3.1 1,-2.3 2,-4.6 2.9,-6.9 0.1,-0.2 0.2,-0.3 0.5,-0.3 0.5,0 1,0 1.5,0 0.5,0 0.7,0.2 0.5,0.7 z"
         id="path5169"
         style="fill:#800000" />
      <path
         inkscape:connector-curvature="0"
         class="st2"
         d="m 59.5,13.8 c -0.6,0 -1.2,0 -1.8,0 -0.6,0 -1,0.2 -1.3,0.6 -0.2,0.2 -0.3,0.4 -0.5,0.6 -1.8,2.6 -3.5,5.2 -5.3,7.8 -0.7,1.1 -1.5,2.2 -2.3,3.4 0.8,0 1.6,0 2.3,0 0.3,0 0.4,-0.1 0.6,-0.3 1,-1.5 1.9,-3 2.9,-4.4 0.1,-0.2 0.2,-0.3 0.4,-0.3 0.6,0 1.2,0 1.7,0 0.2,0 0.3,0 0.2,0.2 -0.1,0.6 -0.1,1.1 -0.2,1.7 -0.1,0.9 -0.2,1.9 -0.3,2.8 0,0.1 0,0.3 0.2,0.3 0.8,0 1.6,0 2.4,0 0.2,0 0.2,0 0.2,-0.2 0.1,-1 0.2,-1.9 0.2,-2.9 0.1,-1.5 0.3,-3 0.4,-4.6 0.1,-1.5 0.2,-2.9 0.4,-4.4 0.2,-0.2 0.2,-0.3 -0.2,-0.3 z m -2.8,6.3 c 0,0.1 -0.1,0.2 -0.2,0.2 -0.4,0 -0.8,0 -1.2,0 0.6,-0.9 1.1,-1.8 1.6,-2.7 H 57 c -0.1,0.8 -0.2,1.6 -0.3,2.5 z"
         id="path5171"
         style="fill:#800000" />
      <path
         inkscape:connector-curvature="0"
         class="st2"
         d="m 28.7,13.8 c -1.8,0 -3.6,0 -5.4,0 -0.3,0 -0.5,0.1 -0.6,0.4 -1.6,3.6 -3.1,7.1 -4.7,10.6 -0.2,0.5 -0.4,0.9 -0.6,1.5 0.8,0 1.6,0 2.4,0 0.3,0 0.4,-0.1 0.5,-0.3 0.5,-1.2 1.1,-2.5 1.6,-3.7 0.1,-0.2 0.2,-0.3 0.5,-0.4 1.3,-0.2 2.6,-0.3 3.8,-0.5 0.7,-0.1 1.4,-0.4 1.8,-1.1 0.8,-1.6 1.5,-3.1 2.1,-4.8 0.2,-1.1 -0.3,-1.7 -1.4,-1.7 z M 27,15.3 c 0,0.2 -0.1,0.4 -0.2,0.6 -0.5,1.2 -0.9,2.4 -1.5,3.6 -0.3,0.7 -0.8,1.1 -1.5,1.1 -0.4,0 -0.8,0.2 -1.2,0.2 0.3,-0.7 0.6,-1.3 0.9,-2 0.5,-1.3 1.1,-2.5 1.6,-3.8 0.1,-0.2 0.2,-0.3 0.4,-0.3 0.4,0 0.7,0 1.1,0 0.3,0 0.5,0.2 0.4,0.6 z"
         id="path5173"
         style="fill:#800000" />
    </g>
  </g>
</svg>
