<?xml version="1.0" encoding="UTF-8" standalone="no"?>
<!-- Generator: Adobe Illustrator 22.1.0, SVG Export Plug-In . SVG Version: 6.00 Build 0)  -->

<svg
   xmlns:dc="http://purl.org/dc/elements/1.1/"
   xmlns:cc="http://creativecommons.org/ns#"
   xmlns:rdf="http://www.w3.org/1999/02/22-rdf-syntax-ns#"
   xmlns:svg="http://www.w3.org/2000/svg"
   xmlns="http://www.w3.org/2000/svg"
   xmlns:sodipodi="http://sodipodi.sourceforge.net/DTD/sodipodi-0.dtd"
   xmlns:inkscape="http://www.inkscape.org/namespaces/inkscape"
   version="1.1"
   id="Layer_1"
   x="0px"
   y="0px"
   width="660px"
   height="60px"
   viewBox="0 0 660 60"
   style="enable-background:new 0 0 660 60;"
   xml:space="preserve"
   sodipodi:docname="twetter.svg"
   inkscape:version="0.92.4 (5da689c313, 2019-01-14)"><metadata
   id="metadata569"><rdf:RDF><cc:Work
       rdf:about=""><dc:format>image/svg+xml</dc:format><dc:type
         rdf:resource="http://purl.org/dc/dcmitype/StillImage" /><dc:title></dc:title></cc:Work></rdf:RDF></metadata><defs
   id="defs567" /><sodipodi:namedview
   pagecolor="#ffffff"
   bordercolor="#666666"
   borderopacity="1"
   objecttolerance="10"
   gridtolerance="10"
   guidetolerance="10"
   inkscape:pageopacity="0"
   inkscape:pageshadow="2"
   inkscape:window-width="1304"
   inkscape:window-height="745"
   id="namedview565"
   showgrid="false"
   inkscape:zoom="1.7409091"
   inkscape:cx="330"
   inkscape:cy="30"
   inkscape:window-x="-8"
   inkscape:window-y="-8"
   inkscape:window-maximized="1"
   inkscape:current-layer="Layer_1" />
<style
   type="text/css"
   id="style299">
	.st0{fill:#3E5B9E;}
	.st1{fill:#FFFFFF;}
	.st2{fill:#26A9E1;}
	.st3{fill:#FDFEFF;}
	.st4{fill:#D61E19;}
	.st5{fill:#D93175;}
	.st6{fill:#C51617;}
	.st7{fill:#333333;}
	.st8{fill:#444444;}
	.st9{fill:#6F6E6E;}
</style>


<g
   id="g325">
	<rect
   x="255.3"
   y="15"
   class="st4"
   width="30"
   height="30"
   id="rect313" />
	<g
   id="g323">
		<path
   class="st4"
   d="M283.9,37.7c0,4-3.2,7.3-7.1,7.3h-13.4c-3.9,0-7.1-3.3-7.1-7.3V24.6c0-4,3.2-7.3,7.1-7.3h13.4    c3.9,0,7.1,3.3,7.1,7.3V37.7z"
   id="path315" />
		<g
   id="g321">
			<path
   class="st1"
   d="M282.3,35.7c-2.5,0-5,0-7.5,0c0-0.1,0.3-0.4,0.4-0.5c1.1-1.3,2.2-2.6,3.4-3.9c0.6-0.8,1.2-1.5,1.9-2.2     c0.4-0.6,0.9-1.1,1.4-1.7c0.1-0.3,0.3-0.3,0.4-0.7c0.1-0.6,0-1.4-0.2-2s-0.5-1.1-0.9-1.4c-5.6,0-11.2,0.1-16.7,0c0-2,0-3.9,0-5.9     l0,0h-1.1c-1.3,0-2.6,0.4-3.6,1l0,0c0,5.3,0,10.9,0,16.2c0,1.8,0.8,2.9,1.8,3.7c0.9,0.9,2.1,1.6,3.8,1.7c1.7,0.1,3.6,0,5.5,0     c3.6,0,7.4,0,10.9,0c0.3-0.5,0.5-1.1,0.5-1.9C282.3,37.4,282.2,36.5,282.3,35.7z M269,35.6c0,0-0.2,0.3-0.6,0.3     c-0.3,0-2.5,0-2.5,0s-1.4-0.2-1.4-1.2c0-0.6,0-0.7,0-0.8l0,0v-6.1c0,0,0-0.1,0.2-0.1s10.8,0,10.8,0s0.1,0,0.1,0.1L269,35.6z"
   id="path317" />
			<path
   class="st1"
   d="M267.1,40.1c-0.7,0-1.3,0-1.8,0c-1.5-0.1-2.8-0.6-3.8-1.7c-0.8-0.7-1.8-1.8-1.8-3.7c0-2.8,0-5.7,0-8.5     c0-2.6,0-5.2,0-7.7l0,0c1.1-0.7,2.4-1,3.7-1h1.1v5.9c1.9,0,4,0,6.8,0c1.2,0,2.4,0,3.5,0c2.1,0,4.2,0,6.4,0     c0.4,0.2,0.7,0.8,0.9,1.4c0.2,0.6,0.3,1.4,0.2,2c0,0.2-0.1,0.3-0.2,0.4s-0.1,0.1-0.2,0.2c-0.5,0.6-1,1.1-1.4,1.7     c-0.8,0.8-1.4,1.5-1.9,2.2c-0.7,0.7-1.3,1.5-1.9,2.2c-0.5,0.6-1,1.1-1.5,1.7c0,0.1-0.1,0.1-0.2,0.2c-0.1,0.1-0.2,0.2-0.2,0.3h7.4     c0,0.4,0,0.8,0,1.2s0,0.9,0,1.3c0,0.8-0.2,1.4-0.5,1.9h-10.9c-0.6,0-1.2,0-1.9,0C268.3,40.1,267.7,40.1,267.1,40.1L267.1,40.1z      M264.5,17.4h-1.1c-1.3,0-2.5,0.4-3.6,1l0,0c0,2.5,0,5.2,0,7.7c0,2.8,0,5.8,0,8.5c0,1.9,1,3,1.8,3.7c1,1,2.3,1.6,3.8,1.7     c0.5,0,1.1,0,1.8,0c0.6,0,1.2,0,1.8,0c0.6,0,1.3,0,1.9,0h10.9c0.3-0.5,0.5-1.1,0.5-1.9c0-0.4,0-0.8,0-1.3c0-0.4,0-0.8,0-1.2h-7.4     c0-0.1,0.1-0.2,0.2-0.3s0.1-0.2,0.2-0.2c0.5-0.6,1-1.1,1.5-1.7c0.6-0.7,1.2-1.5,1.9-2.2c0.5-0.7,1.1-1.4,1.9-2.2     c0.4-0.5,0.9-1.1,1.4-1.7c0-0.1,0.1-0.2,0.2-0.2c0.1-0.1,0.2-0.2,0.2-0.4c0.1-0.6,0-1.4-0.2-2s-0.5-1.1-0.8-1.4     c-2.1,0-4.2,0-6.4,0c-1.2,0-2.4,0-3.5,0c-2.8,0-4.9,0-6.8-0.1L264.5,17.4L264.5,17.4z M268.5,35.8c-0.1,0-0.4,0-0.8,0H266     c0,0-1.4-0.2-1.4-1.2v-6.9l0,0c0,0,0,0,0-0.1c0,0,0.1-0.1,0.2-0.1h10.8h0.1c0,0,0,0,0,0.1l-6.5,7.9     C269,35.6,268.8,35.8,268.5,35.8L268.5,35.8z M275.5,27.6h-10.8c-0.1,0-0.1,0-0.1,0v0.1v6.9c0,1,1.4,1.2,1.4,1.2h1.7     c0.4,0,0.7,0,0.8,0c0.3,0,0.6-0.3,0.6-0.3L275.5,27.6C275.6,27.7,275.6,27.7,275.5,27.6C275.6,27.6,275.5,27.6,275.5,27.6     L275.5,27.6z"
   id="path319" />
		</g>
	</g>
</g>



<g
   id="g562">
	<g
   id="g358">
		<path
   class="st7"
   d="M597.048,24.622c0.338-1.944,0-3.296-1.099-4.563c-1.183-1.352-3.296-1.944-6-1.944h-7.859    c-0.592,0-1.014,0.423-1.099,0.93l-3.296,20.873c-0.085,0.423,0.254,0.761,0.676,0.761h4.901l-0.338,2.113    c-0.085,0.338,0.254,0.676,0.592,0.676h4.141c0.507,0,0.93-0.338,1.014-0.845v-0.169l0.761-4.901l0.084-0.254    c0.085-0.507,0.507-0.845,1.014-0.845h0.592c3.972,0,7.098-1.606,8.028-6.253c0.423-1.944,0.169-3.549-0.845-4.732    C597.893,25.129,597.47,24.875,597.048,24.622L597.048,24.622"
   id="path352" />
		<path
   class="st8"
   d="M597.048,24.622c0.338-1.944,0-3.296-1.099-4.563c-1.183-1.352-3.296-1.944-6-1.944h-7.859    c-0.592,0-1.014,0.423-1.099,0.93l-3.296,20.873c-0.085,0.423,0.254,0.761,0.676,0.761h4.901l1.183-7.774v0.254    c0.084-0.507,0.591-0.93,1.099-0.93h2.282c4.563,0,8.112-1.859,9.127-7.183C596.963,24.875,597.048,24.791,597.048,24.622"
   id="path354" />
		<path
   class="st9"
   d="M585.724,24.622c0.084-0.338,0.253-0.591,0.507-0.761c0.169-0.084,0.253-0.084,0.422-0.084h6.169    c0.761,0,1.437,0.084,2.028,0.169c0.169,0,0.338,0.084,0.507,0.084s0.338,0.084,0.507,0.084c0.085,0,0.169,0.084,0.254,0.084    c0.338,0.084,0.592,0.254,0.845,0.338c0.338-1.944,0-3.296-1.099-4.563c-1.183-1.352-3.296-1.944-6-1.944h-7.859    c-0.592,0-1.014,0.423-1.099,0.93l-3.296,20.873c-0.085,0.423,0.253,0.761,0.676,0.761h4.901l1.183-7.774L585.724,24.622z"
   id="path356" />
	</g>
	<g
   id="g374">
		<g
   id="g372">
			<path
   class="st9"
   d="M630.935,31.213c0-0.169,0.169-0.338,0.423-0.338h3.803c3.127,0,5.324,2.451,4.817,5.662     c-0.507,3.211-3.465,5.662-6.591,5.662h-3.887c-0.169,0-0.254-0.169-0.254-0.254L630.935,31.213z M632.54,39.664h0.676     c1.775,0,3.38-0.93,3.718-3.127c0.338-2.028-0.845-3.127-2.704-3.127h-0.507c-0.085,0-0.254,0.084-0.254,0.169L632.54,39.664z"
   id="path360" />
			<path
   class="st9"
   d="M626.033,33.664l-0.253,1.521h3.042c0.169,0,0.253,0.169,0.253,0.254l-0.253,1.859     c0,0.169-0.169,0.338-0.423,0.338h-2.704c-0.169,0-0.338,0.169-0.423,0.338l-0.253,1.606h3.211c0.169,0,0.254,0.169,0.254,0.254     l-0.254,1.859c0,0.169-0.169,0.338-0.423,0.338h-5.746c-0.169,0-0.253-0.169-0.253-0.254l1.69-10.648     c0-0.169,0.169-0.338,0.423-0.338h5.746c0.169,0,0.254,0.169,0.254,0.254l-0.254,1.859c0,0.169-0.169,0.338-0.423,0.338h-2.789     C626.202,33.326,626.033,33.495,626.033,33.664z"
   id="path362" />
			<path
   class="st9"
   d="M642.512,42.114h-2.282c-0.169,0-0.254-0.169-0.254-0.254l1.69-10.648c0-0.169,0.169-0.338,0.422-0.338     h2.282c0.169,0,0.253,0.169,0.253,0.254l-1.69,10.648C642.934,41.945,642.765,42.114,642.512,42.114z"
   id="path364" />
			<path
   class="st9"
   d="M620.963,42.114h-3.042c-0.169,0-0.253-0.084-0.338-0.169l-2.028-4.141l0,0l-0.676,4.056     c0,0.169-0.169,0.254-0.338,0.254h-2.366c-0.169,0-0.254-0.169-0.254-0.254l1.69-10.732c0-0.169,0.169-0.254,0.338-0.254h4.056     c2.197,0,3.718,1.099,3.38,3.465c-0.254,1.521-1.352,2.873-2.958,3.211l2.62,4.225C621.301,41.945,621.132,42.114,620.963,42.114     z M615.893,35.946h0.254c0.93,0,2.028-0.169,2.282-1.437c0.169-1.268-0.422-1.437-1.437-1.437h-0.422     c-0.085,0-0.254,0.084-0.254,0.254L615.893,35.946z"
   id="path366" />
			<path
   class="st9"
   d="M648.765,42.114h-2.282c-0.169,0-0.254-0.169-0.254-0.254l1.352-8.535h-2.113     c-0.169,0-0.253-0.169-0.253-0.254l0.253-1.859c0-0.169,0.169-0.338,0.423-0.338h7.183c0.169,0,0.254,0.169,0.254,0.254     l-0.254,1.859c0,0.169-0.169,0.338-0.422,0.338h-2.113l-1.352,8.451C649.103,41.945,648.934,42.114,648.765,42.114z"
   id="path368" />
			<path
   class="st9"
   d="M612.174,34.086c0,0.169-0.254,0.254-0.423,0.169c-0.507-0.507-1.268-0.761-2.028-0.761     c-1.775,0-3.211,1.352-3.465,3.127c-0.254,1.775,0.761,3.042,2.535,3.042c0.761,0,1.521-0.254,2.197-0.761     c0.169-0.169,0.422,0,0.422,0.254l-0.422,2.62c0,0.169-0.169,0.254-0.254,0.338c-0.93,0.254-1.606,0.423-2.451,0.423     c-4.901,0-5.662-4.141-5.408-5.915c0.676-4.986,4.732-6.084,7.183-5.915c0.76,0.084,1.521,0.169,2.197,0.423     c0.254,0.084,0.338,0.338,0.338,0.591L612.174,34.086z"
   id="path370" />
		</g>
	</g>
	<g
   id="g390">
		<g
   id="g388">
			<path
   class="st8"
   d="M626.794,19.552h-2.535c-0.169,0-0.338,0.084-0.338,0.338l-1.014,6.507c0,0.169,0.084,0.254,0.169,0.254     h1.268c0.084,0,0.253-0.084,0.253-0.169l0.254-1.859c0-0.169,0.169-0.338,0.338-0.338h0.845c1.69,0,2.62-0.845,2.873-2.451     c0.085-0.676,0-1.268-0.338-1.606C628.315,19.805,627.639,19.552,626.794,19.552z M627.132,21.918     c-0.169,0.93-0.845,0.93-1.521,0.93h-0.422l0.253-1.69c0-0.084,0.085-0.169,0.169-0.169h0.169c0.423,0,0.93,0,1.099,0.254     C627.132,21.411,627.132,21.58,627.132,21.918z"
   id="path376" />
			<path
   class="st9"
   d="M608.71,19.552h-2.535c-0.169,0-0.338,0.084-0.338,0.338l-1.014,6.507c0,0.169,0.084,0.254,0.169,0.254     h1.183c0.169,0,0.338-0.084,0.338-0.338l0.254-1.775c0-0.169,0.169-0.338,0.338-0.338h0.845c1.69,0,2.62-0.845,2.873-2.451     c0.084-0.676,0-1.268-0.338-1.606C610.146,19.805,609.555,19.552,608.71,19.552z M608.963,21.918     c-0.169,0.93-0.845,0.93-1.521,0.93h-0.338l0.254-1.69c0-0.084,0.084-0.169,0.169-0.169h0.169c0.422,0,0.93,0,1.099,0.254     C608.963,21.411,609.048,21.58,608.963,21.918z"
   id="path378" />
			<path
   class="st9"
   d="M616.315,21.918h-1.183c-0.085,0-0.169,0.084-0.169,0.169l-0.085,0.338l-0.085-0.084     c-0.253-0.423-0.845-0.507-1.437-0.507c-1.352,0-2.451,1.014-2.704,2.451c-0.084,0.676,0.085,1.352,0.423,1.859     c0.338,0.423,0.93,0.591,1.521,0.591c1.099,0,1.69-0.676,1.69-0.676l-0.084,0.338c0,0.169,0.084,0.254,0.169,0.254h1.099     c0.169,0,0.338-0.084,0.338-0.338l0.676-4.141C616.484,22.002,616.4,21.918,616.315,21.918z M614.625,24.284     c-0.084,0.676-0.676,1.183-1.352,1.183c-0.338,0-0.676-0.084-0.845-0.338c-0.169-0.254-0.254-0.507-0.169-0.845     c0.084-0.676,0.676-1.183,1.352-1.183c0.338,0,0.592,0.084,0.845,0.338C614.541,23.608,614.625,23.946,614.625,24.284z"
   id="path380" />
			<path
   class="st8"
   d="M634.399,21.918h-1.183c-0.084,0-0.169,0.084-0.169,0.169l-0.084,0.338l-0.085-0.084     c-0.253-0.423-0.845-0.507-1.437-0.507c-1.352,0-2.451,1.014-2.704,2.451c-0.084,0.676,0.085,1.352,0.423,1.859     c0.338,0.423,0.93,0.591,1.521,0.591c1.099,0,1.69-0.676,1.69-0.676l-0.084,0.338c0,0.169,0.084,0.254,0.169,0.254h1.099     c0.169,0,0.338-0.084,0.338-0.338l0.676-4.141C634.653,22.002,634.568,21.918,634.399,21.918z M632.709,24.284     c-0.084,0.676-0.676,1.183-1.352,1.183c-0.338,0-0.676-0.084-0.845-0.338c-0.169-0.254-0.253-0.507-0.169-0.845     c0.085-0.676,0.676-1.183,1.352-1.183c0.338,0,0.592,0.084,0.845,0.338C632.709,23.608,632.794,23.946,632.709,24.284z"
   id="path382" />
			<path
   class="st9"
   d="M622.737,21.918h-1.183c-0.085,0-0.254,0.084-0.254,0.169l-1.69,2.451l-0.676-2.366     c-0.085-0.169-0.169-0.254-0.338-0.254h-1.183c-0.169,0-0.254,0.169-0.169,0.254l1.352,3.972l-1.268,1.775     c-0.084,0.169,0,0.338,0.169,0.338h1.183c0.084,0,0.253-0.084,0.253-0.169l4.056-5.831     C623.076,22.087,622.907,21.918,622.737,21.918z"
   id="path384" />
			<path
   class="st8"
   d="M635.836,19.721l-1.014,6.591c0,0.169,0.084,0.254,0.169,0.254h1.014c0.169,0,0.338-0.084,0.338-0.338     l1.014-6.507c0-0.169-0.084-0.254-0.169-0.254h-1.183C635.92,19.552,635.836,19.636,635.836,19.721z"
   id="path386" />
		</g>
	</g>
	<g
   id="g406">
		<g
   id="g404">
			<path
   class="st9"
   d="M318.359,17.399c1.111,0.002,2.223,0.004,3.334,0.006c0.05,0,0.1,0.003,0.15,0     c0.099-0.006,0.14,0.044,0.15,0.138c0.021,0.191,0.055,0.381,0.067,0.572c0.083,1.23-0.063,2.428-0.509,3.583     c-0.397,1.028-1.046,1.871-1.88,2.579c-1.037,0.881-2.233,1.402-3.579,1.593c-1.505,0.213-2.979,0.103-4.378-0.507     c-2.749-1.2-4.435-3.275-4.866-6.258c-0.327-2.264,0.327-4.289,1.804-6.035c1.135-1.342,2.572-2.207,4.279-2.621     c0.873-0.211,1.757-0.243,2.65-0.158c1.365,0.131,2.597,0.607,3.703,1.414c0.253,0.185,0.494,0.385,0.724,0.598     c0.078,0.072,0.093,0.127,0.011,0.211c-0.44,0.446-0.875,0.898-1.314,1.345c-0.091,0.092-0.096,0.087-0.224-0.027     c-0.543-0.484-1.151-0.859-1.838-1.104c-0.693-0.247-1.409-0.345-2.142-0.31c-1.54,0.072-2.84,0.673-3.887,1.802     c-0.734,0.792-1.207,1.727-1.393,2.791c-0.303,1.724,0.052,3.303,1.139,4.687c0.832,1.059,1.925,1.718,3.247,1.982     c1.165,0.233,2.312,0.157,3.414-0.301c0.973-0.404,1.764-1.04,2.282-1.976c0.293-0.53,0.449-1.106,0.539-1.702     c0.02-0.129,0.01-0.138-0.14-0.14c-0.427-0.005-0.855-0.007-1.282-0.008c-1.126-0.003-2.251-0.004-3.377-0.006     c-0.057,0-0.114-0.003-0.171,0c-0.098,0.004-0.141-0.034-0.14-0.137c0.004-0.627,0.005-1.254,0.003-1.881     c0-0.102,0.04-0.139,0.139-0.136c0.178,0.005,0.356,0.002,0.534,0.002C316.393,17.396,317.376,17.397,318.359,17.399z"
   id="path392" />
			<path
   class="st9"
   d="M352.388,17.023c0.064-0.056,0.04-0.124,0.042-0.185c0.004-0.157,0.004-0.313,0.001-0.47     c-0.002-0.093,0.021-0.146,0.13-0.145c0.62,0.004,1.239,0.005,1.859,0.004c0.089,0,0.133,0.035,0.131,0.125     c-0.001,0.05,0,0.1,0,0.15c-0.005,2.87-0.009,5.74-0.017,8.611c-0.002,0.792-0.062,1.579-0.31,2.34     c-0.565,1.73-1.758,2.732-3.543,3.033c-0.789,0.133-1.574,0.109-2.348-0.116c-1.036-0.301-1.862-0.902-2.507-1.759     c-0.211-0.28-0.389-0.579-0.533-0.899c-0.067-0.148-0.067-0.152,0.087-0.217c0.545-0.228,1.091-0.454,1.638-0.678     c0.147-0.06,0.151-0.058,0.222,0.088c0.245,0.503,0.586,0.925,1.057,1.233c0.507,0.331,1.064,0.457,1.667,0.411     c0.432-0.033,0.845-0.126,1.221-0.347c0.601-0.354,0.935-0.9,1.106-1.56c0.139-0.537,0.128-1.087,0.125-1.635     c0-0.034,0.006-0.079-0.032-0.095c-0.072-0.03-0.098,0.041-0.134,0.078c-0.562,0.586-1.261,0.896-2.053,0.999     c-0.91,0.118-1.779-0.048-2.586-0.476c-1.553-0.823-2.479-2.115-2.723-3.855c-0.207-1.479,0.192-2.811,1.141-3.966     c0.685-0.833,1.55-1.403,2.604-1.655c1.09-0.261,2.135-0.158,3.1,0.458c0.18,0.115,0.347,0.248,0.497,0.403     C352.275,16.945,352.313,17.011,352.388,17.023z M352.57,20.897c0.007-0.358-0.063-0.784-0.223-1.194     c-0.303-0.773-0.809-1.354-1.601-1.647c-1.098-0.406-2.361,0.006-3.069,0.989c-0.465,0.646-0.648,1.37-0.599,2.157     c0.059,0.947,0.437,1.736,1.211,2.302c1.158,0.846,2.759,0.665,3.652-0.525C352.386,22.386,352.572,21.712,352.57,20.897z"
   id="path394" />
			<path
   class="st9"
   d="M327.955,15.858c1.817,0.076,3.328,0.855,4.308,2.53c0.553,0.944,0.734,1.98,0.627,3.067     c-0.104,1.067-0.495,2.016-1.209,2.818c-1.009,1.133-2.29,1.704-3.799,1.702c-1.911-0.003-3.416-0.802-4.421-2.446     c-1.088-1.78-0.999-4.511,0.814-6.256c0.789-0.76,1.736-1.202,2.82-1.357C327.351,15.88,327.607,15.876,327.955,15.858z      M330.689,20.817c0.006-0.358-0.085-0.815-0.276-1.253c-0.831-1.902-3.338-2.295-4.682-0.733     c-0.895,1.04-0.994,2.704-0.231,3.868c1.059,1.616,3.311,1.727,4.52,0.219C330.484,22.341,330.686,21.671,330.689,20.817z"
   id="path396" />
			<path
   class="st9"
   d="M338.862,25.997c-2.103-0.085-3.707-0.986-4.619-2.928c-0.908-1.934-0.455-4.314,1.066-5.781     c0.8-0.771,1.762-1.219,2.865-1.356c1.293-0.16,2.501,0.085,3.583,0.82c1.306,0.887,2.013,2.138,2.165,3.706     c0.094,0.966-0.054,1.897-0.496,2.759c-0.85,1.658-2.232,2.556-4.074,2.763c-0.085,0.01-0.17,0.014-0.256,0.017     C339.019,26,338.94,25.997,338.862,25.997z M341.716,20.944c0-0.652-0.153-1.213-0.47-1.728     c-1.031-1.669-3.392-1.792-4.586-0.239c-0.833,1.083-0.861,2.712-0.065,3.84c1.014,1.437,3.066,1.595,4.28,0.323     C341.458,22.528,341.716,21.783,341.716,20.944z"
   id="path398" />
			<path
   class="st9"
   d="M363.892,26.045c-1.238-0.025-2.514-0.56-3.496-1.719c-0.74-0.873-1.109-1.9-1.165-3.037     c-0.056-1.129,0.157-2.203,0.766-3.17c0.848-1.347,2.078-2.083,3.669-2.176c1.644-0.097,2.923,0.585,3.892,1.893     c0.399,0.539,0.657,1.147,0.893,1.767c0.049,0.129,0.044,0.132-0.127,0.203c-1.119,0.461-2.239,0.922-3.358,1.383     c-1.008,0.415-2.015,0.829-3.023,1.244c-0.026,0.011-0.052,0.024-0.079,0.033c-0.1,0.032-0.112,0.09-0.062,0.178     c0.378,0.681,0.916,1.167,1.692,1.328c1.203,0.25,2.312-0.112,3.071-1.186c0.095-0.134,0.096-0.136,0.233-0.046     c0.493,0.327,0.985,0.654,1.476,0.983c0.132,0.088,0.134,0.093,0.046,0.21C367.284,25.307,365.847,26.056,363.892,26.045z      M361.371,20.815c0.079-0.027,0.126-0.04,0.171-0.058c1.354-0.559,2.708-1.119,4.061-1.679c0.313-0.129,0.32-0.149,0.113-0.421     c-0.349-0.458-0.832-0.675-1.389-0.747c-1.107-0.143-2.166,0.548-2.628,1.436C361.464,19.796,361.36,20.276,361.371,20.815z"
   id="path400" />
			<path
   class="st9"
   d="M356.018,18.285c0.004-2.393,0.008-4.787,0.013-7.18c0.001-0.276-0.026-0.258,0.248-0.257     c0.598,0.002,1.197,0.004,1.795,0.008c0.178,0.001,0.178,0.004,0.182,0.175c0.001,0.036,0,0.071,0,0.107     c-0.009,4.772-0.017,9.545-0.026,14.317c-0.001,0.299,0.047,0.274-0.272,0.274c-0.563,0-1.125-0.002-1.688-0.003     c-0.05,0-0.1-0.002-0.15-0.001c-0.078,0.003-0.121-0.026-0.116-0.111c0.003-0.057,0.001-0.114,0.001-0.171     C356.009,23.057,356.014,20.671,356.018,18.285z"
   id="path402" />
		</g>
	</g>
	<g
   id="g420">
		<g
   id="g418">
			<path
   class="st9"
   d="M331.285,46.445h-0.612v1.275h-1.149v-1.275h-2.308v-0.848l1.946-3.205h1.51v3.113h0.612V46.445z      M329.523,45.506v-0.864c0-0.174,0.005-0.373,0.017-0.6c0.011-0.227,0.022-0.424,0.033-0.592h-0.033     c-0.067,0.146-0.137,0.294-0.21,0.444c-0.072,0.151-0.148,0.303-0.227,0.453l-0.704,1.158H329.523z"
   id="path408" />
			<path
   class="st9"
   d="M331.997,47.048c0-0.224,0.071-0.409,0.214-0.558s0.32-0.222,0.533-0.222c0.212,0,0.39,0.073,0.532,0.222     s0.214,0.334,0.214,0.558c0,0.219-0.071,0.401-0.214,0.55s-0.32,0.223-0.532,0.223c-0.213,0-0.391-0.074-0.533-0.223     S331.997,47.267,331.997,47.048z"
   id="path410" />
			<path
   class="st9"
   d="M337.409,43.668c-0.096-0.101-0.218-0.188-0.369-0.264c-0.151-0.076-0.305-0.113-0.462-0.113     c-0.146,0-0.282,0.027-0.411,0.084c-0.128,0.056-0.241,0.149-0.339,0.28c-0.099,0.132-0.178,0.304-0.239,0.517     c-0.062,0.212-0.099,0.473-0.109,0.78c0.067-0.09,0.146-0.169,0.235-0.239c0.089-0.07,0.182-0.129,0.276-0.177     c0.095-0.047,0.19-0.083,0.285-0.108s0.185-0.038,0.269-0.038c0.229,0,0.44,0.033,0.634,0.101     c0.192,0.067,0.36,0.168,0.503,0.303c0.143,0.134,0.253,0.305,0.331,0.512c0.079,0.207,0.118,0.45,0.118,0.729     s-0.048,0.528-0.143,0.747c-0.096,0.218-0.223,0.405-0.382,0.562c-0.159,0.157-0.347,0.275-0.563,0.356     c-0.215,0.081-0.443,0.122-0.684,0.122c-0.257,0-0.508-0.051-0.751-0.151s-0.459-0.257-0.646-0.47     c-0.188-0.212-0.337-0.485-0.449-0.818c-0.112-0.332-0.168-0.733-0.168-1.203c0-0.498,0.061-0.929,0.181-1.292     c0.12-0.364,0.279-0.663,0.479-0.898c0.198-0.234,0.428-0.409,0.688-0.523c0.26-0.115,0.53-0.173,0.81-0.173     c0.353,0,0.657,0.063,0.915,0.189c0.257,0.126,0.47,0.275,0.637,0.448L337.409,43.668z M336.334,46.898     c0.185,0,0.343-0.068,0.475-0.206c0.131-0.137,0.197-0.356,0.197-0.658c0-0.285-0.066-0.485-0.197-0.6     c-0.132-0.115-0.298-0.172-0.499-0.172c-0.135,0-0.271,0.039-0.411,0.117c-0.141,0.078-0.271,0.215-0.395,0.411     c0.027,0.213,0.069,0.389,0.126,0.528c0.056,0.14,0.12,0.253,0.192,0.34c0.073,0.087,0.152,0.148,0.239,0.185     S336.24,46.898,336.334,46.898z"
   id="path412" />
			<path
   class="st9"
   d="M341.972,41.763h0.806l-1.687,7.299h-0.805L341.972,41.763z"
   id="path414" />
			<path
   class="st9"
   d="M345.513,46.294c0.162,0.146,0.337,0.271,0.524,0.374c0.187,0.104,0.396,0.155,0.625,0.155     c0.273,0,0.491-0.07,0.654-0.21c0.162-0.14,0.243-0.347,0.243-0.621c0-0.269-0.077-0.473-0.23-0.612     c-0.154-0.14-0.357-0.21-0.608-0.21c-0.079,0-0.148,0.004-0.21,0.013s-0.122,0.023-0.181,0.046s-0.12,0.051-0.185,0.084     c-0.064,0.034-0.136,0.075-0.214,0.126l-0.554-0.353l0.151-2.693h3.021v1.041h-1.955l-0.093,0.998     c0.101-0.045,0.197-0.077,0.29-0.097c0.092-0.02,0.194-0.029,0.306-0.029c0.229,0,0.446,0.034,0.65,0.101     c0.204,0.067,0.385,0.168,0.541,0.303c0.156,0.134,0.28,0.305,0.369,0.512c0.09,0.207,0.135,0.453,0.135,0.738     c0,0.296-0.054,0.559-0.16,0.788c-0.105,0.229-0.248,0.424-0.428,0.583c-0.179,0.159-0.387,0.281-0.625,0.365     c-0.237,0.084-0.485,0.126-0.742,0.126c-0.437,0-0.806-0.071-1.107-0.214s-0.56-0.32-0.771-0.533L345.513,46.294z"
   id="path416" />
		</g>
	</g>
	<g
   id="g438">
		<g
   id="g436">
			<polygon
   class="st9"
   points="359.989,34.461 358.75,31.951 357.512,34.461 354.741,34.864 356.746,36.818 356.273,39.577      358.75,38.274 360.007,38.935 360.007,34.464    "
   id="polygon422" />
			<g
   id="g426">
				<polygon
   class="st9"
   points="360.755,36.818 362.76,34.864 360.007,34.464 360.007,38.935 361.228,39.577     "
   id="polygon424" />
			</g>
			<polygon
   class="st9"
   points="349.425,34.461 348.186,31.951 346.947,34.461 344.176,34.864 346.181,36.818 345.708,39.577      348.186,38.274 350.664,39.577 350.19,36.818 352.195,34.864    "
   id="polygon428" />
			<polygon
   class="st9"
   points="338.86,34.461 337.621,31.951 336.382,34.461 333.612,34.864 335.616,36.818 335.143,39.577      337.621,38.274 340.099,39.577 339.626,36.818 341.63,34.864    "
   id="polygon430" />
			<polygon
   class="st9"
   points="328.295,34.461 327.056,31.951 325.817,34.461 323.047,34.864 325.052,36.818 324.579,39.577      327.056,38.274 329.534,39.577 329.061,36.818 331.066,34.864    "
   id="polygon432" />
			<polygon
   class="st9"
   points="317.731,34.461 316.492,31.951 315.253,34.461 312.482,34.864 314.487,36.818 314.014,39.577      316.492,38.274 318.97,39.577 318.496,36.818 320.501,34.864    "
   id="polygon434" />
		</g>
	</g>
	<path
   class="st9"
   d="M447.458,42.933h-49.934c-7.213,0-13.038-5.826-13.038-13.038s5.826-13.038,13.038-13.038h49.934   c7.213,0,13.038,5.826,13.038,13.038S454.671,42.933,447.458,42.933 M397.524,17.966c-6.589,0-11.998,5.34-11.998,11.998   c0,6.589,5.34,11.998,11.998,11.998h49.934c6.589,0,11.998-5.34,11.998-11.998c0-6.589-5.34-11.998-11.998-11.998l0,0H397.524z"
   id="path440" />
	<path
   class="st9"
   d="M441.494,22.613c-1.942,0-3.537,1.595-3.537,3.537s1.595,3.537,3.537,3.537c1.942,0,3.537-1.595,3.537-3.537   l0,0C444.961,24.208,443.436,22.613,441.494,22.613 M441.494,27.953c-0.971,0-1.803-0.832-1.803-1.803   c0-0.971,0.832-1.803,1.803-1.803c0.971,0,1.803,0.832,1.803,1.803l0,0C443.297,27.121,442.465,27.953,441.494,27.953   L441.494,27.953"
   id="path442" />
	<path
   class="st9"
   d="M425.404,22.613c-1.942,0-3.537,1.526-3.537,3.468s1.526,3.537,3.468,3.537c1.942,0,3.537-1.526,3.537-3.468   c0,0,0,0,0-0.069C428.872,24.208,427.346,22.613,425.404,22.613 M425.404,27.953c-0.971,0-1.803-0.832-1.803-1.803   c0-0.971,0.832-1.803,1.803-1.803s1.803,0.832,1.803,1.803l0,0C427.207,27.121,426.444,27.953,425.404,27.953L425.404,27.953"
   id="path444" />
	<path
   class="st9"
   d="M437.749,28.022c-0.208,0.069-0.485,0.139-0.694,0.139c-0.624,0-0.763-0.208-0.763-0.763v-3.26h1.456v-1.387   h-1.456V20.81h-1.595l-0.347,1.942h-1.248c-0.902,0-1.734,0.624-2.081,1.456l-0.555-1.456h-1.11v6.727h1.942v-2.913   c0-1.456,0.902-2.427,1.942-2.427h1.11v3.329c0,1.595,0.832,2.15,2.15,2.15c0.485,0,1.04-0.069,1.526-0.208L437.749,28.022z"
   id="path446" />
	<polyline
   class="st9"
   points="447.389,24.901 447.389,29.479 445.447,29.479 445.447,22.751 446.626,22.751 447.042,23.792  "
   id="polyline448" />
	<path
   class="st9"
   d="M447.042,23.792c0.555-0.694,1.387-1.179,2.289-1.179c1.595,0,2.289,1.248,2.289,2.497v4.439h-1.942v-4.439   c0-0.485-0.416-0.902-0.971-0.902h-0.069c-0.485,0-0.902,0.277-1.248,0.624"
   id="path450" />
	<polygon
   class="st9"
   points="414.169,20.324 416.319,20.324 419.37,26.08 419.37,20.324 421.173,20.324 421.173,29.479    419.162,29.479 415.972,23.167 415.972,29.479 414.169,29.479  "
   id="polygon452" />
	<polygon
   class="st9"
   points="457.445,16.856 457.445,17.203 456.96,17.203 456.96,18.798 456.613,18.798 456.613,17.203    456.127,17.203 456.127,16.856  "
   id="polygon454" />
	<polygon
   class="st9"
   points="457.722,18.798 457.722,16.856 458.208,16.856 458.555,18.174 458.901,16.856 459.456,16.856    459.456,18.798 459.109,18.798 459.109,17.342 459.109,17.342 458.693,18.798 458.416,18.798 458.069,17.342 458.069,17.342    458.069,18.798  "
   id="polygon456" />
	<path
   class="st9"
   d="M413.614,37.662l0.485-0.694c0.485,0.347,1.04,0.555,1.595,0.555c0.485,0.069,0.971-0.208,1.04-0.694   c0-0.069,0-0.069,0-0.139c0-0.555-0.485-0.763-1.387-1.04s-1.526-0.624-1.526-1.734c0-1.11,0.832-1.595,1.873-1.595   c0.555,0,1.179,0.139,1.664,0.416l-0.347,0.694c-0.416-0.208-0.832-0.277-1.248-0.277c-0.624,0-0.971,0.208-0.971,0.694   c0,0.485,0.416,0.694,1.179,0.971s1.734,0.624,1.734,1.873c0,1.04-0.694,1.664-2.011,1.664   C414.932,38.286,414.169,38.078,413.614,37.662"
   id="path458" />
	<polygon
   class="st9"
   points="419.44,32.391 422.907,32.391 422.907,33.224 420.411,33.224 420.411,34.819 422.352,34.819    422.352,35.582 420.411,35.582 420.411,37.454 423.046,37.454 423.046,38.217 419.44,38.217  "
   id="polygon460" />
	<path
   class="st9"
   d="M424.433,35.304c0-1.734,0.832-2.982,2.427-2.982c0.624-0.069,1.248,0.208,1.734,0.694l-0.555,0.694   c-0.277-0.347-0.694-0.485-1.11-0.485c-0.971,0-1.387,0.763-1.387,2.219c0,1.456,0.485,2.011,1.387,2.011   c0.485,0,0.902-0.277,1.179-0.624l0.555,0.624c-0.416,0.555-1.11,0.832-1.803,0.832C425.196,38.356,424.433,37.038,424.433,35.304"
   id="path462" />
	<path
   class="st9"
   d="M430.328,35.998v-3.606h0.971v3.745c0,0.832,0.208,1.318,1.04,1.318c0.832,0,1.04-0.555,1.04-1.318v-3.745   h1.04v3.606c0,1.456-0.555,2.289-2.081,2.289C430.814,38.286,430.328,37.454,430.328,35.998"
   id="path464" />
	<path
   class="st9"
   d="M440.523,38.217h-1.11l-1.11-2.497h-0.902v2.497h-0.971v-5.826h1.873c1.179,0,2.081,0.416,2.081,1.734   c0,0.694-0.416,1.318-1.11,1.526L440.523,38.217z M438.234,34.957c0.763,0,1.11-0.208,1.11-0.902c0-0.694-0.416-0.902-1.04-0.902   h-0.902v1.803H438.234z"
   id="path466" />
	<polygon
   class="st9"
   points="442.187,32.391 445.655,32.391 445.655,33.224 443.158,33.224 443.158,34.819 445.1,34.819    445.1,35.582 443.158,35.582 443.158,37.454 445.794,37.454 445.794,38.217 442.187,38.217  "
   id="polygon468" />
	<path
   class="st9"
   d="M447.458,32.391h1.456c1.873,0,2.843,1.04,2.843,2.913s-0.902,2.913-2.774,2.913h-1.456L447.458,32.391   L447.458,32.391L447.458,32.391z M448.845,37.454c1.387,0,1.803-0.624,1.803-2.15c0-1.318-0.347-2.081-1.734-2.081h-0.485v4.231   H448.845L448.845,37.454z"
   id="path470" />
	<path
   class="st9"
   d="M397.455,43.904c-7.768,0-14.009-6.311-14.009-14.009s6.311-14.009,14.009-14.009   c7.768,0,14.009,6.311,14.009,14.009C411.464,37.662,405.222,43.904,397.455,43.904 M397.455,20.255c-5.271,0-9.64,4.3-9.64,9.571   s4.3,9.64,9.571,9.64s9.64-4.3,9.64-9.571c0-2.566-1.04-4.993-2.843-6.797C402.448,21.295,400.021,20.255,397.455,20.255"
   id="path472" />
	<rect
   x="412.712"
   y="13.666"
   class="st9"
   width="1.11"
   height="1.11"
   id="rect474" />
	<rect
   x="412.712"
   y="11.516"
   class="st9"
   width="1.11"
   height="1.11"
   id="rect476" />
	<rect
   x="409.661"
   y="14.776"
   class="st9"
   width="1.04"
   height="1.04"
   id="rect478" />
	<rect
   x="407.65"
   y="16.856"
   class="st9"
   width="1.04"
   height="1.04"
   id="rect480" />
	<rect
   x="410.701"
   y="15.885"
   class="st9"
   width="1.179"
   height="1.04"
   id="rect482" />
	<rect
   x="406.609"
   y="15.885"
   class="st9"
   width="1.04"
   height="0.971"
   id="rect484" />
	<rect
   x="409.661"
   y="16.856"
   class="st9"
   width="1.04"
   height="1.04"
   id="rect486" />
	<rect
   x="411.672"
   y="12.626"
   class="st9"
   width="1.11"
   height="1.11"
   id="rect488" />
	<rect
   x="409.661"
   y="13.666"
   class="st9"
   width="2.011"
   height="1.11"
   id="rect490" />
	<rect
   x="408.69"
   y="14.776"
   class="st9"
   width="0.971"
   height="2.081"
   id="rect492" />
	<path
   class="st9"
   d="M408.69,17.897v1.04h-1.04v-1.04h-1.734v0.763h-0.902v0.902h1.04v1.04h-1.04v-1.04h-1.11v1.595h-1.04v1.04   h-0.694v1.04h-0.763c-1.318,2.15-2.566,4.439-3.606,6.727c-2.289-3.19-4.092-4.508-5.479-4.924   c-0.763-0.208-1.664,0.624-0.416,1.873c2.081,2.289,3.676,4.993,4.716,7.906c0.485,1.11,2.566,1.248,2.982,0.139   c0.971-2.566,2.219-4.993,3.745-7.282v-1.179h0.832v-1.04h0.832v-1.179h1.04v-1.179h-1.04v-1.04h1.04v1.04h1.04v-1.04h0.832v-1.11   h0.832v-0.832h0.902v-2.15L408.69,17.897L408.69,17.897L408.69,17.897L408.69,17.897z"
   id="path494" />
	<g
   id="g560">
		<g
   id="g558">
			<rect
   x="516.17"
   y="16.946"
   class="st9"
   width="0.336"
   height="27.41"
   id="rect496" />
			<polygon
   class="st9"
   points="493.553,21.907 496.244,21.907 496.244,40.572 497.253,40.572 497.253,20.898 494.058,20.898    "
   id="polygon498" />
			<path
   class="st9"
   d="M506.922,33.173c1.598-1.682,2.691-3.111,3.195-4.036c0.504-0.925,0.757-2.018,0.757-3.027     c0-1.513-0.504-2.859-1.598-4.036c-1.093-1.177-2.522-1.682-4.288-1.682c-1.766,0-3.279,0.589-4.456,1.85     c-1.093,1.093-1.766,2.522-1.85,4.204h1.009c0.168-1.513,0.757-2.691,1.598-3.531c0.925-1.009,2.186-1.429,3.615-1.429     c1.345,0,2.606,0.504,3.531,1.429c0.925,0.925,1.429,2.018,1.429,3.363c0,1.009-0.252,1.934-0.757,2.859     c-0.504,0.841-1.513,2.186-3.195,3.868l-7.147,7.735h12.444v-1.009h-10.174L506.922,33.173z"
   id="path500" />
			<polygon
   class="st9"
   points="476.989,20.898 485.229,39.143 485.565,38.386 477.578,20.898    "
   id="polygon502" />
			<polygon
   class="st9"
   points="478.335,20.898 485.902,37.63 486.238,36.873 479.007,20.898    "
   id="polygon504" />
			<polygon
   class="st9"
   points="479.68,20.898 486.574,36.116 486.911,35.359 480.353,20.898    "
   id="polygon506" />
			<polygon
   class="st9"
   points="483.8,20.898 488.676,31.492 488.929,30.735 484.472,20.898    "
   id="polygon508" />
			<polygon
   class="st9"
   points="481.109,20.898 487.247,34.519 487.583,33.846 481.698,20.898    "
   id="polygon510" />
			<polygon
   class="st9"
   points="475.56,20.898 484.472,40.825 484.893,39.984 476.233,20.898    "
   id="polygon512" />
			<polygon
   class="st9"
   points="482.455,20.898 487.92,33.005 488.256,32.333 483.127,20.898    "
   id="polygon514" />
			<polygon
   class="st9"
   points="486.49,23.757 487.752,20.898 487.079,20.898 486.154,22.916    "
   id="polygon516" />
			<polygon
   class="st9"
   points="487.163,25.27 489.181,20.898 488.424,20.898 486.827,24.429    "
   id="polygon518" />
			<polygon
   class="st9"
   points="486.406,20.898 485.65,20.898 485.481,21.402 485.818,22.243    "
   id="polygon520" />
			<polygon
   class="st9"
   points="487.836,26.783 490.526,20.898 489.769,20.898 487.499,25.943    "
   id="polygon522" />
			<polygon
   class="st9"
   points="488.929,29.138 489.349,29.978 493.385,20.898 492.628,20.898    "
   id="polygon524" />
			<polygon
   class="st9"
   points="488.592,28.297 491.871,20.898 491.199,20.898 488.172,27.456    "
   id="polygon526" />
			<path
   class="st9"
   d="M527.773,25.438L527.773,25.438c0.925-0.42,1.345-1.177,1.345-2.186c0-1.345-1.009-2.438-2.522-2.438h-4.708     v8.744h1.934v-3.447h1.934c0.925,0,1.345,0.42,1.429,1.345c0.084,0.673,0.084,1.513,0.336,2.102h1.934     c-0.336-0.504-0.336-1.513-0.336-2.102C528.951,26.615,528.698,25.69,527.773,25.438z M525.84,24.765h-2.102v-2.438h2.102     c0.841,0,1.345,0.336,1.345,1.177C527.185,24.429,526.764,24.765,525.84,24.765z"
   id="path528" />
			<path
   class="st9"
   d="M533.407,23.084c-1.934,0-3.195,1.429-3.195,3.363s1.261,3.363,3.195,3.363c1.429,0,2.438-0.673,2.943-2.102     h-1.513c-0.084,0.42-0.673,0.841-1.345,0.841c-0.925,0-1.513-0.504-1.513-1.598h4.54     C536.602,24.85,535.593,23.084,533.407,23.084z M531.893,25.69c0-0.504,0.336-1.345,1.429-1.345c0.841,0,1.261,0.504,1.345,1.345     H531.893z"
   id="path530" />
			<path
   class="st9"
   d="M537.947,28.129c0,1.261,0.925,1.513,2.018,1.513c0.336,0,0.757,0,1.009-0.084v-1.345     c-0.168,0-0.336,0.084-0.504,0.084c-0.589,0-0.757-0.168-0.757-0.757v-3.111h1.261v-1.177h-1.261v-1.934h-1.766v1.934h-1.093     v1.177h1.093V28.129z"
   id="path532" />
			<path
   class="st9"
   d="M543.664,25.943c-1.093,0.168-2.186,0.504-2.186,1.934c0,1.261,0.925,1.934,2.186,1.934     c0.757,0,1.598-0.168,2.102-0.757c0,0.168,0.084,0.42,0.084,0.589h1.766c-0.168-0.252-0.252-0.841-0.252-1.429v-3.279     c0-1.513-1.513-1.766-2.775-1.766c-1.429,0-2.859,0.504-2.943,2.102h1.766c0.084-0.673,0.504-0.925,1.177-0.925     c0.589,0,1.093,0.084,1.093,0.841C545.766,25.774,544.757,25.774,543.664,25.943z M545.766,27.12c0,0.42-0.084,1.429-1.429,1.429     c-0.589,0-1.093-0.168-1.093-0.841c0-0.673,0.504-0.841,1.009-0.925c0.505-0.084,1.177-0.084,1.429-0.336v0.673H545.766z"
   id="path534" />
			<rect
   x="548.877"
   y="20.814"
   class="st9"
   width="1.766"
   height="1.429"
   id="rect536" />
			<rect
   x="548.877"
   y="23.252"
   class="st9"
   width="1.766"
   height="6.306"
   id="rect538" />
			<rect
   x="552.072"
   y="20.814"
   class="st9"
   width="1.766"
   height="8.744"
   id="rect540" />
			<polygon
   class="st9"
   points="521.888,40.572 522.729,40.572 522.729,36.368 526.933,36.368 526.933,35.696 522.729,35.696      522.729,32.501 527.437,32.501 527.437,31.828 521.888,31.828    "
   id="polygon542" />
			<rect
   x="528.278"
   y="34.266"
   class="st9"
   width="0.757"
   height="6.306"
   id="rect544" />
			<rect
   x="528.278"
   y="31.828"
   class="st9"
   width="0.757"
   height="1.261"
   id="rect546" />
			<path
   class="st9"
   d="M533.407,34.098c-0.925,0-1.766,0.504-2.018,1.261l0,0v-1.093h-0.757v6.306h0.757v-3.7     c0-1.261,0.757-2.186,2.018-2.186c1.261,0,1.598,0.841,1.598,1.934v3.952h0.757v-4.036     C535.677,35.023,535.172,34.098,533.407,34.098z"
   id="path548" />
			<path
   class="st9"
   d="M541.899,39.479v-3.363c0-1.682-1.177-2.018-2.354-2.018c-1.429,0-2.522,0.673-2.522,2.102h0.757     c0-1.009,0.757-1.429,1.682-1.429c0.925,0,1.682,0.252,1.682,1.261c0,0.673-0.336,0.757-1.009,0.841     c-1.682,0.168-3.363,0.252-3.363,2.018c0,1.261,0.925,1.85,2.102,1.85c1.177,0,1.766-0.504,2.27-1.261l0,0     c0,0.673,0.084,1.093,0.925,1.093c0.168,0,0.336,0,0.504-0.084v-0.673c-0.084,0-0.168,0.084-0.252,0.084     C542.067,39.9,541.899,39.732,541.899,39.479z M541.142,38.134c0,1.261-1.009,2.018-2.186,2.018     c-0.757,0-1.429-0.504-1.429-1.261c0-1.261,1.597-1.261,2.943-1.429c0.168,0,0.589-0.084,0.673-0.252l0,0V38.134z"
   id="path550" />
			<path
   class="st9"
   d="M546.271,34.098c-0.925,0-1.766,0.504-2.018,1.261l0,0v-1.093h-0.757v6.306h0.757v-3.7     c0-1.261,0.757-2.186,2.018-2.186c1.261,0,1.597,0.841,1.597,1.934v3.952h0.757v-4.036     C548.625,35.023,548.036,34.098,546.271,34.098z"
   id="path552" />
			<path
   class="st9"
   d="M552.745,40.068c-1.513,0-2.186-1.345-2.186-2.691s0.757-2.691,2.186-2.691c1.009,0,1.597,0.589,1.766,1.513     h0.757c-0.168-1.429-1.177-2.186-2.522-2.186c-1.934,0-2.943,1.513-2.943,3.363c0,1.85,1.093,3.363,2.943,3.363     c1.429,0,2.438-0.925,2.606-2.438h-0.757C554.427,39.311,553.67,40.068,552.745,40.068z"
   id="path554" />
			<path
   class="st9"
   d="M558.883,34.098c-2.018,0-2.859,1.682-2.859,3.363c0,1.766,0.841,3.363,2.859,3.363     c1.598,0,2.438-0.841,2.775-2.27h-0.757c-0.252,0.925-0.841,1.598-2.018,1.598c-1.513,0-2.102-1.345-2.102-2.522h4.877     C561.741,35.864,560.985,34.098,558.883,34.098z M556.865,36.957c0.084-1.177,0.841-2.27,2.102-2.27     c1.261,0,1.934,1.093,2.018,2.27H556.865z"
   id="path556" />
		</g>
	</g>
</g>
</svg>