<?xml version="1.0" encoding="UTF-8" standalone="no"?>
<!-- Created with Inkscape (http://www.inkscape.org/) -->

<svg
   xmlns:dc="http://purl.org/dc/elements/1.1/"
   xmlns:cc="http://creativecommons.org/ns#"
   xmlns:rdf="http://www.w3.org/1999/02/22-rdf-syntax-ns#"
   xmlns:svg="http://www.w3.org/2000/svg"
   xmlns="http://www.w3.org/2000/svg"
   xmlns:sodipodi="http://sodipodi.sourceforge.net/DTD/sodipodi-0.dtd"
   xmlns:inkscape="http://www.inkscape.org/namespaces/inkscape"
   width="7.9375mm"
   height="7.9375mm"
   viewBox="0 0 7.9375 7.9375"
   version="1.1"
   id="svg1051"
   inkscape:version="0.92.4 (5da689c313, 2019-01-14)">
  <defs
     id="defs1045" />
  <sodipodi:namedview
     id="base"
     pagecolor="#ffffff"
     bordercolor="#666666"
     borderopacity="1.0"
     inkscape:pageopacity="0.0"
     inkscape:pageshadow="2"
     inkscape:zoom="0.35"
     inkscape:cx="52.142856"
     inkscape:cy="106.42857"
     inkscape:document-units="mm"
     inkscape:current-layer="layer1"
     showgrid="false"
     inkscape:window-width="1304"
     inkscape:window-height="745"
     inkscape:window-x="-8"
     inkscape:window-y="-8"
     inkscape:window-maximized="1" />
  <metadata
     id="metadata1048">
    <rdf:RDF>
      <cc:Work
         rdf:about="">
        <dc:format>image/svg+xml</dc:format>
        <dc:type
           rdf:resource="http://purl.org/dc/dcmitype/StillImage" />
        <dc:title></dc:title>
      </cc:Work>
    </rdf:RDF>
  </metadata>
  <g
     inkscape:label="Layer 1"
     inkscape:groupmode="layer"
     id="layer1"
     transform="translate(-92.037203,-169.05506)">
    <g
       id="g774"
       transform="matrix(0.26458333,0,0,0.26458333,40.416995,165.08631)">
      <path
         class="st2"
         d="m 225.1,15 c 0,10 0,20 0,30 -10,0 -20,0 -30,0 0,-10 0,-20 0,-30 0.1,0 0.1,0 0.2,0 9.9,0 19.8,0 29.8,0 z m -15.2,12.2 c -0.9,0 -1.7,-0.2 -2.4,-0.4 -2,-0.6 -3.6,-1.8 -5,-3.4 -0.9,1.9 -0.5,3.4 1,4.9 -0.6,0 -1,-0.3 -1.5,-0.4 0.1,1.8 1,2.9 2.7,3.6 -0.5,0.2 -0.9,0.1 -1.4,0.1 0.6,1.5 1.7,2.3 3.3,2.5 -1.6,1.2 -3.3,1.6 -5.1,1.5 2.3,1.5 4.8,1.9 7.4,1.4 5.3,-1 8.3,-5.7 8.4,-10.2 0,-0.3 0.1,-0.5 0.3,-0.7 0.5,-0.4 1,-0.9 1.4,-1.5 -0.7,0.1 -1.2,0.4 -1.8,0.4 0.6,-0.5 1.1,-1.1 1.4,-1.9 -0.7,0.3 -1.2,0.6 -1.8,0.8 -0.3,0.1 -0.5,0 -0.8,-0.2 -2.1,-1.8 -5.3,-0.7 -5.9,2 -0.3,0.4 -0.3,0.9 -0.2,1.5 z"
         id="path770"
         inkscape:connector-curvature="0"
         style="fill:#26a9e1" />
      <path
         class="st3"
         d="m 209.9,27.2 c 0,-0.6 -0.1,-1.1 0,-1.6 0.6,-2.7 3.8,-3.7 5.9,-2 0.2,0.2 0.4,0.3 0.8,0.2 0.6,-0.2 1.2,-0.4 1.8,-0.8 -0.2,0.9 -0.8,1.4 -1.4,1.9 0.6,0 1.2,-0.3 1.8,-0.4 -0.4,0.7 -0.9,1.1 -1.4,1.5 -0.3,0.2 -0.3,0.4 -0.3,0.7 0,4.5 -3,9.3 -8.4,10.2 -2.6,0.5 -5.1,0.1 -7.4,-1.4 1.9,0.1 3.6,-0.3 5.1,-1.5 -1.6,-0.2 -2.7,-1 -3.3,-2.5 0.5,0 0.9,0.1 1.4,-0.1 -1.7,-0.6 -2.6,-1.8 -2.7,-3.6 0.5,0.1 0.9,0.4 1.5,0.4 -1.5,-1.4 -1.9,-3 -1,-4.9 1.4,1.6 3,2.8 5,3.4 0.9,0.3 1.7,0.5 2.6,0.5 z"
         id="path772"
         inkscape:connector-curvature="0"
         style="fill:#fdfeff" />
    </g>
  </g>
</svg>
