<?xml version="1.0" encoding="UTF-8" standalone="no"?>
<!-- Created with Inkscape (http://www.inkscape.org/) -->

<svg
   xmlns:dc="http://purl.org/dc/elements/1.1/"
   xmlns:cc="http://creativecommons.org/ns#"
   xmlns:rdf="http://www.w3.org/1999/02/22-rdf-syntax-ns#"
   xmlns:svg="http://www.w3.org/2000/svg"
   xmlns="http://www.w3.org/2000/svg"
   xmlns:sodipodi="http://sodipodi.sourceforge.net/DTD/sodipodi-0.dtd"
   xmlns:inkscape="http://www.inkscape.org/namespaces/inkscape"
   width="22.78171mm"
   height="7.2522292mm"
   viewBox="0 0 22.78171 7.2522292"
   version="1.1"
   id="svg1303"
   inkscape:version="0.92.4 (5da689c313, 2019-01-14)"
   sodipodi:docname="v12.svg">
  <defs
     id="defs1297" />
  <sodipodi:namedview
     id="base"
     pagecolor="#ffffff"
     bordercolor="#666666"
     borderopacity="1.0"
     inkscape:pageopacity="0.0"
     inkscape:pageshadow="2"
     inkscape:zoom="0.35"
     inkscape:cx="51.623478"
     inkscape:cy="102.27641"
     inkscape:document-units="mm"
     inkscape:current-layer="layer1"
     showgrid="false"
     inkscape:window-width="1304"
     inkscape:window-height="745"
     inkscape:window-x="-8"
     inkscape:window-y="-8"
     inkscape:window-maximized="1" />
  <metadata
     id="metadata1300">
    <rdf:RDF>
      <cc:Work
         rdf:about="">
        <dc:format>image/svg+xml</dc:format>
        <dc:type
           rdf:resource="http://purl.org/dc/dcmitype/StillImage" />
        <dc:title></dc:title>
      </cc:Work>
    </rdf:RDF>
  </metadata>
  <g
     inkscape:label="Layer 1"
     inkscape:groupmode="layer"
     id="layer1"
     transform="translate(-92.174621,-168.64174)">
    <g
       id="g1023"
       transform="matrix(0.26458333,0,0,0.26458333,-33.650627,164.15811)">
      <g
         id="g1021">
        <rect
           x="516.16998"
           y="16.945999"
           class="st9"
           width="0.336"
           height="27.41"
           id="rect959"
           style="fill:#6f6e6e" />
        <polygon
           class="st9"
           points="497.253,40.572 497.253,20.898 494.058,20.898 493.553,21.907 496.244,21.907 496.244,40.572 "
           id="polygon961"
           style="fill:#6f6e6e" />
        <path
           class="st9"
           d="m 506.922,33.173 c 1.598,-1.682 2.691,-3.111 3.195,-4.036 0.504,-0.925 0.757,-2.018 0.757,-3.027 0,-1.513 -0.504,-2.859 -1.598,-4.036 -1.093,-1.177 -2.522,-1.682 -4.288,-1.682 -1.766,0 -3.279,0.589 -4.456,1.85 -1.093,1.093 -1.766,2.522 -1.85,4.204 h 1.009 c 0.168,-1.513 0.757,-2.691 1.598,-3.531 0.925,-1.009 2.186,-1.429 3.615,-1.429 1.345,0 2.606,0.504 3.531,1.429 0.925,0.925 1.429,2.018 1.429,3.363 0,1.009 -0.252,1.934 -0.757,2.859 -0.504,0.841 -1.513,2.186 -3.195,3.868 l -7.147,7.735 h 12.444 v -1.009 h -10.174 z"
           id="path963"
           inkscape:connector-curvature="0"
           style="fill:#6f6e6e" />
        <polygon
           class="st9"
           points="485.229,39.143 485.565,38.386 477.578,20.898 476.989,20.898 "
           id="polygon965"
           style="fill:#6f6e6e" />
        <polygon
           class="st9"
           points="485.902,37.63 486.238,36.873 479.007,20.898 478.335,20.898 "
           id="polygon967"
           style="fill:#6f6e6e" />
        <polygon
           class="st9"
           points="486.574,36.116 486.911,35.359 480.353,20.898 479.68,20.898 "
           id="polygon969"
           style="fill:#6f6e6e" />
        <polygon
           class="st9"
           points="488.676,31.492 488.929,30.735 484.472,20.898 483.8,20.898 "
           id="polygon971"
           style="fill:#6f6e6e" />
        <polygon
           class="st9"
           points="487.247,34.519 487.583,33.846 481.698,20.898 481.109,20.898 "
           id="polygon973"
           style="fill:#6f6e6e" />
        <polygon
           class="st9"
           points="484.472,40.825 484.893,39.984 476.233,20.898 475.56,20.898 "
           id="polygon975"
           style="fill:#6f6e6e" />
        <polygon
           class="st9"
           points="487.92,33.005 488.256,32.333 483.127,20.898 482.455,20.898 "
           id="polygon977"
           style="fill:#6f6e6e" />
        <polygon
           class="st9"
           points="487.752,20.898 487.079,20.898 486.154,22.916 486.49,23.757 "
           id="polygon979"
           style="fill:#6f6e6e" />
        <polygon
           class="st9"
           points="489.181,20.898 488.424,20.898 486.827,24.429 487.163,25.27 "
           id="polygon981"
           style="fill:#6f6e6e" />
        <polygon
           class="st9"
           points="485.65,20.898 485.481,21.402 485.818,22.243 486.406,20.898 "
           id="polygon983"
           style="fill:#6f6e6e" />
        <polygon
           class="st9"
           points="490.526,20.898 489.769,20.898 487.499,25.943 487.836,26.783 "
           id="polygon985"
           style="fill:#6f6e6e" />
        <polygon
           class="st9"
           points="489.349,29.978 493.385,20.898 492.628,20.898 488.929,29.138 "
           id="polygon987"
           style="fill:#6f6e6e" />
        <polygon
           class="st9"
           points="491.871,20.898 491.199,20.898 488.172,27.456 488.592,28.297 "
           id="polygon989"
           style="fill:#6f6e6e" />
        <path
           class="st9"
           d="m 527.773,25.438 v 0 c 0.925,-0.42 1.345,-1.177 1.345,-2.186 0,-1.345 -1.009,-2.438 -2.522,-2.438 h -4.708 v 8.744 h 1.934 v -3.447 h 1.934 c 0.925,0 1.345,0.42 1.429,1.345 0.084,0.673 0.084,1.513 0.336,2.102 h 1.934 c -0.336,-0.504 -0.336,-1.513 -0.336,-2.102 -0.168,-0.841 -0.421,-1.766 -1.346,-2.018 z m -1.933,-0.673 h -2.102 v -2.438 h 2.102 c 0.841,0 1.345,0.336 1.345,1.177 0,0.925 -0.421,1.261 -1.345,1.261 z"
           id="path991"
           inkscape:connector-curvature="0"
           style="fill:#6f6e6e" />
        <path
           class="st9"
           d="m 533.407,23.084 c -1.934,0 -3.195,1.429 -3.195,3.363 0,1.934 1.261,3.363 3.195,3.363 1.429,0 2.438,-0.673 2.943,-2.102 h -1.513 c -0.084,0.42 -0.673,0.841 -1.345,0.841 -0.925,0 -1.513,-0.504 -1.513,-1.598 h 4.54 c 0.083,-2.101 -0.926,-3.867 -3.112,-3.867 z m -1.514,2.606 c 0,-0.504 0.336,-1.345 1.429,-1.345 0.841,0 1.261,0.504 1.345,1.345 z"
           id="path993"
           inkscape:connector-curvature="0"
           style="fill:#6f6e6e" />
        <path
           class="st9"
           d="m 537.947,28.129 c 0,1.261 0.925,1.513 2.018,1.513 0.336,0 0.757,0 1.009,-0.084 v -1.345 c -0.168,0 -0.336,0.084 -0.504,0.084 -0.589,0 -0.757,-0.168 -0.757,-0.757 v -3.111 h 1.261 v -1.177 h -1.261 v -1.934 h -1.766 v 1.934 h -1.093 v 1.177 h 1.093 z"
           id="path995"
           inkscape:connector-curvature="0"
           style="fill:#6f6e6e" />
        <path
           class="st9"
           d="m 543.664,25.943 c -1.093,0.168 -2.186,0.504 -2.186,1.934 0,1.261 0.925,1.934 2.186,1.934 0.757,0 1.598,-0.168 2.102,-0.757 0,0.168 0.084,0.42 0.084,0.589 h 1.766 c -0.168,-0.252 -0.252,-0.841 -0.252,-1.429 v -3.279 c 0,-1.513 -1.513,-1.766 -2.775,-1.766 -1.429,0 -2.859,0.504 -2.943,2.102 h 1.766 c 0.084,-0.673 0.504,-0.925 1.177,-0.925 0.589,0 1.093,0.084 1.093,0.841 0.084,0.587 -0.925,0.587 -2.018,0.756 z m 2.102,1.177 c 0,0.42 -0.084,1.429 -1.429,1.429 -0.589,0 -1.093,-0.168 -1.093,-0.841 0,-0.673 0.504,-0.841 1.009,-0.925 0.505,-0.084 1.177,-0.084 1.429,-0.336 v 0.673 z"
           id="path997"
           inkscape:connector-curvature="0"
           style="fill:#6f6e6e" />
        <rect
           x="548.87701"
           y="20.813999"
           class="st9"
           width="1.766"
           height="1.429"
           id="rect999"
           style="fill:#6f6e6e" />
        <rect
           x="548.87701"
           y="23.252001"
           class="st9"
           width="1.766"
           height="6.3060002"
           id="rect1001"
           style="fill:#6f6e6e" />
        <rect
           x="552.07202"
           y="20.813999"
           class="st9"
           width="1.766"
           height="8.7440004"
           id="rect1003"
           style="fill:#6f6e6e" />
        <polygon
           class="st9"
           points="521.888,31.828 521.888,40.572 522.729,40.572 522.729,36.368 526.933,36.368 526.933,35.696 522.729,35.696 522.729,32.501 527.437,32.501 527.437,31.828 "
           id="polygon1005"
           style="fill:#6f6e6e" />
        <rect
           x="528.27802"
           y="34.265999"
           class="st9"
           width="0.75700003"
           height="6.3060002"
           id="rect1007"
           style="fill:#6f6e6e" />
        <rect
           x="528.27802"
           y="31.827999"
           class="st9"
           width="0.75700003"
           height="1.261"
           id="rect1009"
           style="fill:#6f6e6e" />
        <path
           class="st9"
           d="m 533.407,34.098 c -0.925,0 -1.766,0.504 -2.018,1.261 v 0 -1.093 h -0.757 v 6.306 h 0.757 v -3.7 c 0,-1.261 0.757,-2.186 2.018,-2.186 1.261,0 1.598,0.841 1.598,1.934 v 3.952 h 0.757 v -4.036 c -0.085,-1.513 -0.59,-2.438 -2.355,-2.438 z"
           id="path1011"
           inkscape:connector-curvature="0"
           style="fill:#6f6e6e" />
        <path
           class="st9"
           d="m 541.899,39.479 v -3.363 c 0,-1.682 -1.177,-2.018 -2.354,-2.018 -1.429,0 -2.522,0.673 -2.522,2.102 h 0.757 c 0,-1.009 0.757,-1.429 1.682,-1.429 0.925,0 1.682,0.252 1.682,1.261 0,0.673 -0.336,0.757 -1.009,0.841 -1.682,0.168 -3.363,0.252 -3.363,2.018 0,1.261 0.925,1.85 2.102,1.85 1.177,0 1.766,-0.504 2.27,-1.261 v 0 c 0,0.673 0.084,1.093 0.925,1.093 0.168,0 0.336,0 0.504,-0.084 v -0.673 c -0.084,0 -0.168,0.084 -0.252,0.084 -0.254,0 -0.422,-0.168 -0.422,-0.421 z m -0.757,-1.345 c 0,1.261 -1.009,2.018 -2.186,2.018 -0.757,0 -1.429,-0.504 -1.429,-1.261 0,-1.261 1.597,-1.261 2.943,-1.429 0.168,0 0.589,-0.084 0.673,-0.252 v 0 0.924 z"
           id="path1013"
           inkscape:connector-curvature="0"
           style="fill:#6f6e6e" />
        <path
           class="st9"
           d="m 546.271,34.098 c -0.925,0 -1.766,0.504 -2.018,1.261 v 0 -1.093 h -0.757 v 6.306 h 0.757 v -3.7 c 0,-1.261 0.757,-2.186 2.018,-2.186 1.261,0 1.597,0.841 1.597,1.934 v 3.952 h 0.757 v -4.036 c 0,-1.513 -0.589,-2.438 -2.354,-2.438 z"
           id="path1015"
           inkscape:connector-curvature="0"
           style="fill:#6f6e6e" />
        <path
           class="st9"
           d="m 552.745,40.068 c -1.513,0 -2.186,-1.345 -2.186,-2.691 0,-1.346 0.757,-2.691 2.186,-2.691 1.009,0 1.597,0.589 1.766,1.513 h 0.757 c -0.168,-1.429 -1.177,-2.186 -2.522,-2.186 -1.934,0 -2.943,1.513 -2.943,3.363 0,1.85 1.093,3.363 2.943,3.363 1.429,0 2.438,-0.925 2.606,-2.438 h -0.757 c -0.168,1.01 -0.925,1.767 -1.85,1.767 z"
           id="path1017"
           inkscape:connector-curvature="0"
           style="fill:#6f6e6e" />
        <path
           class="st9"
           d="m 558.883,34.098 c -2.018,0 -2.859,1.682 -2.859,3.363 0,1.766 0.841,3.363 2.859,3.363 1.598,0 2.438,-0.841 2.775,-2.27 h -0.757 c -0.252,0.925 -0.841,1.598 -2.018,1.598 -1.513,0 -2.102,-1.345 -2.102,-2.522 h 4.877 c 0.083,-1.766 -0.673,-3.532 -2.775,-3.532 z m -2.018,2.859 c 0.084,-1.177 0.841,-2.27 2.102,-2.27 1.261,0 1.934,1.093 2.018,2.27 z"
           id="path1019"
           inkscape:connector-curvature="0"
           style="fill:#6f6e6e" />
      </g>
    </g>
  </g>
</svg>
